<?xml version="1.0" encoding="UTF-8" standalone="no"?>
<svg
   xmlns:dc="http://purl.org/dc/elements/1.1/"
   xmlns:cc="http://creativecommons.org/ns#"
   xmlns:rdf="http://www.w3.org/1999/02/22-rdf-syntax-ns#"
   xmlns:svg="http://www.w3.org/2000/svg"
   xmlns="http://www.w3.org/2000/svg"
   xmlns:sodipodi="http://sodipodi.sourceforge.net/DTD/sodipodi-0.dtd"
   xmlns:inkscape="http://www.inkscape.org/namespaces/inkscape"
   version="1.1"
   id="svg2"
   xml:space="preserve"
   width="1000"
   height="666.66669"
   viewBox="0 0 1000 666.66669"
   sodipodi:docname="error.svg"
   inkscape:version="1.0.2 (1.0.2+r75+1)"><metadata
     id="metadata8"><rdf:RDF><cc:Work
         rdf:about=""><dc:format>image/svg+xml</dc:format><dc:type
           rdf:resource="http://purl.org/dc/dcmitype/StillImage" /><dc:title /></cc:Work></rdf:RDF></metadata><defs
     id="defs6"><clipPath
       clipPathUnits="userSpaceOnUse"
       id="clipPath20"><path
         d="M 0,500 H 750 V 0 H 0 Z"
         id="path18" /></clipPath><clipPath
       clipPathUnits="userSpaceOnUse"
       id="clipPath108"><path
         d="m 268.132,359.976 h 8.823 v -8.675 h -8.823 z"
         id="path106" /></clipPath><clipPath
       clipPathUnits="userSpaceOnUse"
       id="clipPath128"><path
         d="m 284.459,356.175 h 2.403 v -7.134 h -2.403 z"
         id="path126" /></clipPath><clipPath
       clipPathUnits="userSpaceOnUse"
       id="clipPath144"><path
         d="m 280.288,360.914 h 2.865 v -6.944 h -2.865 z"
         id="path142" /></clipPath><clipPath
       clipPathUnits="userSpaceOnUse"
       id="clipPath196"><path
         d="m 338.217,314.123 h 12.795 v -11.821 h -12.795 z"
         id="path194" /></clipPath><clipPath
       clipPathUnits="userSpaceOnUse"
       id="clipPath264"><path
         d="m 185.732,357.809 h 7.409 v -15.695 h -7.409 z"
         id="path262" /></clipPath><clipPath
       clipPathUnits="userSpaceOnUse"
       id="clipPath320"><path
         d="M 0,500 H 750 V 0 H 0 Z"
         id="path318" /></clipPath><clipPath
       clipPathUnits="userSpaceOnUse"
       id="clipPath332"><path
         d="m 468.573,274.782 h 15.905 v -6.957 h -15.905 z"
         id="path330" /></clipPath><clipPath
       clipPathUnits="userSpaceOnUse"
       id="clipPath388"><path
         d="m 524.53,363.541 h 4.058 v -8.87 h -4.058 z"
         id="path386" /></clipPath><clipPath
       clipPathUnits="userSpaceOnUse"
       id="clipPath492"><path
         d="m 554.077,270.409 h 16.206 v -6.238 h -16.206 z"
         id="path490" /></clipPath><clipPath
       clipPathUnits="userSpaceOnUse"
       id="clipPath556"><path
         d="M 0,500 H 750 V 0 H 0 Z"
         id="path554" /></clipPath></defs><sodipodi:namedview
     pagecolor="#ffffff"
     bordercolor="#666666"
     borderopacity="1"
     objecttolerance="10"
     gridtolerance="10"
     guidetolerance="10"
     inkscape:pageopacity="0"
     inkscape:pageshadow="2"
     inkscape:window-width="1366"
     inkscape:window-height="709"
     id="namedview4"
     showgrid="false"
     inkscape:zoom="1.458"
     inkscape:cx="584.04644"
     inkscape:cy="536.82889"
     inkscape:window-x="0"
     inkscape:window-y="0"
     inkscape:window-maximized="1"
     inkscape:current-layer="g10"
     inkscape:document-rotation="0" /><g
     id="g10"
     inkscape:groupmode="layer"
     inkscape:label="2725948"
     transform="matrix(1.3333333,0,0,-1.3333333,0,666.66667)"><path
       id="path2525"
       style="fill:#ffffff;fill-opacity:0.0896163;stroke:#ffffff;stroke-width:0.317719;stroke-opacity:0"
       transform="scale(1,-1)"
       d="m 740.74358,-182.28842 c 0,137.983463 -165.00564,133.735968 -359.18289,148.887592 C 76.220647,-9.5751855 36.513947,-112.01654 36.513947,-250 c 0,-64.01873 77.140263,-145.52918 117.181253,-215.94244 52.51232,-92.34447 328.63827,47.77333 428.84606,47.77333 186.94068,0 158.20232,97.89723 158.20232,235.88069 z"
       sodipodi:nodetypes="ssssss" /><g
       id="g26"
       transform="matrix(1.160092,0,0,1.160092,271.04826,401.80023)"><path
         d="m 0,0 c -0.84,4.648 -6.605,7.265 -10.759,7.649 -4.154,0.385 -9.566,-1.272 -12.309,-3.994 -1.88,-1.866 -3.182,-4.359 -5.801,-5.361 -2.309,-0.884 -5.156,-0.376 -7.324,-1.496 -5.198,-2.684 -1.174,-10.895 -5.836,-14.234 -1.686,-1.207 -4.239,-1.487 -5.449,-3.064 -1.66,-2.163 0.326,-5.083 -0.236,-7.632 -0.887,-4.017 -7.586,-5.639 -8.175,-9.698 -0.54,-3.726 4.328,-6.173 6.325,-9.509 0.92,-1.536 1.242,-3.332 2.406,-4.74 1.556,-1.883 4.294,-2.705 6.891,-3.27 2.242,-0.486 4.561,-0.866 6.857,-0.632 7.975,0.81 13.288,8.57 21.29,9.148 3.499,0.252 7.024,-0.949 10.487,-0.445 4.709,0.685 8.328,4.913 7.706,9.004 -0.332,2.191 -1.703,4.269 -1.486,6.471 0.295,2.996 3.44,5.341 3.77,8.334 0.414,3.74 -4.866,7.525 -4.49,11.269 0.227,2.264 1.274,4.239 1.835,6.46 1.113,4.404 -2.195,6.523 -6.711,5.886"
         style="fill:#220e59;fill-opacity:1;fill-rule:nonzero;stroke:none"
         id="path28" /></g><g
       id="g30"
       transform="matrix(1.160092,0,0,1.160092,264.57367,305.55853)"><path
         d="m 0,0 7.49,-33.14 c 0,0 -37.327,-2.202 -56.175,16.57 0,0 -13.731,74.053 30.376,69.962 C 15.685,50.239 15.604,31.913 0,0"
         style="fill:#b126ed;fill-opacity:1;fill-rule:nonzero;stroke:none"
         id="path32" /></g><g
       id="g34"
       transform="matrix(1.160092,0,0,1.160092,296.77306,67.794086)"
       style="fill:#800000"><path
         d="m 0,0 -11.106,0.66 -0.639,-16.827 5.054,0.123 -0.276,1.899 6.621,-2.17 26.763,-0.271 c 0,0 -5.909,5.146 -14.293,7.127 C 6.88,-8.22 2.492,-4.702 0,0"
         style="fill:#800000;fill-opacity:1;fill-rule:nonzero;stroke:none"
         id="path36" /></g><g
       id="g38"
       transform="matrix(1.160092,0,0,1.160092,224.46268,68.949653)"
       style="fill:#800000"><path
         d="m 0,0 -9.111,0.676 -2.914,-17.23 5.174,0.126 0.848,1.945 7.909,-2.222 25.143,-0.278 c 0,0 -6.105,5.316 -14.75,7.325 -5.301,1.231 -9.728,4.806 -12.245,9.556 z"
         style="fill:#800000;fill-opacity:1;fill-rule:nonzero;stroke:none"
         id="path40" /></g><g
       id="g42"
       transform="matrix(1.160092,0,0,1.160092,268.91833,288.47154)"
       style="fill:#e00914;fill-opacity:1"><path
         d="m 0,0 c 0,0 -28.793,-14.983 -52.34,-1.653 0,0 -9.276,-21.75 -1.427,-51.918 7.849,-30.169 18.006,-83.199 1.595,-137.923 0,0 12.425,-6.43 23.544,-2.572 0,0 24.809,58.409 23.382,96.295 0,0 19.979,-34.378 11.416,-94.715 0,0 12.844,-4.911 24.261,-0.701 0,0 8.563,28.063 9.276,58.231 0.713,30.169 -6.422,63.845 -17.125,85.594 C 11.879,-27.612 2.626,-6.518 0,0"
         style="fill:#e00914;fill-opacity:1;fill-rule:nonzero;stroke:none"
         id="path44" /></g><g
       id="g46"
       transform="matrix(1.160092,0,0,1.160092,213.92557,281.92618)"><path
         d="m 0,0 c -5.708,-26.283 1.639,-52.936 5.514,-78.919 3.223,-21.613 4.699,-43.645 3.015,-65.462 -1.127,-14.585 -3.651,-29.024 -7.208,-43.208 -0.102,-0.402 0.521,-0.574 0.622,-0.171 5.869,23.396 8.658,47.374 7.758,71.493 -0.385,10.298 -1.356,20.572 -2.637,30.794 C 5.382,-72.05 2.592,-58.8 0.635,-45.418 -1.555,-30.434 -2.617,-15.09 0.622,-0.171 0.71,0.233 0.088,0.406 0,0"
         style="fill:#eeeff2;fill-opacity:1;fill-rule:nonzero;stroke:none"
         id="path48" /></g><g
       id="g50"
       transform="matrix(1.160092,0,0,1.160092,279.05498,104.07643)"
       style="fill:#4b0914;fill-opacity:1"><path
         d="m 0,0 c 0,0 6.242,69.553 -23.094,115.785 0,0 8.531,-20.457 9.571,-55.642 0,0 2.127,-5.249 4.369,-10.638 C -1.665,31.503 0,0 0,0"
         style="fill:#4b0914;fill-opacity:1;fill-rule:nonzero;stroke:none"
         id="path52" /></g><g
       id="g54"
       transform="matrix(1.160092,0,0,1.160092,251.43482,238.9971)"><path
         d="m 0,0 c 2.499,-6.624 4.372,-13.49 5.916,-20.395 1.766,-7.893 3.093,-15.916 3.672,-23.989 0.291,-4.054 0.384,-8.126 0.119,-12.183 -0.027,-0.415 0.618,-0.413 0.645,0 0.488,7.475 -0.176,15.009 -1.241,22.409 -1.132,7.866 -2.787,15.67 -4.928,23.324 C 3.144,-7.12 1.984,-3.438 0.623,0.172 0.478,0.557 -0.147,0.39 0,0"
         style="fill:#eeeff2;fill-opacity:1;fill-rule:nonzero;stroke:none"
         id="path56" /></g><g
       id="g58"
       transform="matrix(1.160092,0,0,1.160092,231.2788,280.48964)"><path
         d="m 0,0 c -3.502,-5.102 -9.448,-8.138 -15.62,-8.123 -0.415,0.002 -0.416,-0.644 0,-0.645 6.41,-0.016 12.545,3.151 16.177,8.442 C 0.793,0.018 0.234,0.341 0,0"
         style="fill:#eeeff2;fill-opacity:1;fill-rule:nonzero;stroke:none"
         id="path60" /></g><g
       id="g62"
       transform="matrix(1.160092,0,0,1.160092,236.93309,279.51644)"><path
         d="m 0,0 c -4.114,-7.689 -12.29,-11.544 -20.802,-11.597 -0.415,-0.002 -0.416,-0.647 0,-0.645 8.732,0.054 17.141,4.032 21.359,11.916 C 0.753,0.041 0.196,0.367 0,0"
         style="fill:#eeeff2;fill-opacity:1;fill-rule:nonzero;stroke:none"
         id="path64" /></g><g
       id="g66"
       transform="matrix(1.160092,0,0,1.160092,205.68033,277.40252)"><path
         d="m 0,0 c 0.898,-0.671 1.911,-1.058 3.019,-1.207 0.41,-0.054 0.406,0.592 0,0.646 C 2.027,-0.428 1.125,-0.04 0.326,0.557 -0.007,0.806 -0.329,0.246 0,0"
         style="fill:#eeeff2;fill-opacity:1;fill-rule:nonzero;stroke:none"
         id="path68" /></g><g
       id="g70"
       transform="matrix(1.160092,0,0,1.160092,208.09401,272.79046)"><path
         d="M 0,0 C -1.066,0.041 -2.043,0.354 -2.939,0.933 -3.29,1.159 -3.614,0.601 -3.265,0.376 -2.278,-0.262 -1.173,-0.6 0,-0.646 0.416,-0.662 0.415,-0.016 0,0"
         style="fill:#eeeff2;fill-opacity:1;fill-rule:nonzero;stroke:none"
         id="path72" /></g><g
       id="g74"
       transform="matrix(1.160092,0,0,1.160092,251.46765,281.76191)"><path
         d="m 0,0 c 1.209,-7.554 1.154,-15.248 -0.16,-22.784 -0.07,-0.406 0.551,-0.58 0.622,-0.172 1.336,7.658 1.389,15.452 0.161,23.127 C 0.557,0.581 -0.065,0.407 0,0"
         style="fill:#eeeff2;fill-opacity:1;fill-rule:nonzero;stroke:none"
         id="path76" /></g><g
       id="g78"
       transform="matrix(1.160092,0,0,1.160092,271.45835,282.0089)"><path
         d="M 0,0 C -2.548,-0.128 -4.859,0.989 -6.462,2.95 -6.725,3.272 -7.179,2.813 -6.918,2.494 -5.214,0.409 -2.702,-0.781 0,-0.646 0.413,-0.625 0.416,0.021 0,0"
         style="fill:#eeeff2;fill-opacity:1;fill-rule:nonzero;stroke:none"
         id="path80" /></g><g
       id="g82"
       transform="matrix(1.160092,0,0,1.160092,273.70209,277.77178)"><path
         d="m 0,0 c -4.802,-0.527 -9.643,1.597 -12.39,5.597 -0.234,0.34 -0.793,0.017 -0.557,-0.326 C -10.078,1.093 -5.035,-1.198 0,-0.646 0.408,-0.601 0.413,0.045 0,0"
         style="fill:#eeeff2;fill-opacity:1;fill-rule:nonzero;stroke:none"
         id="path84" /></g><g
       id="g86"
       transform="matrix(1.160092,0,0,1.160092,257.78992,364.99399)"><path
         d="m 0,0 0.118,3.341 c 0,0 8.049,-2.614 8.851,4.546 1.396,12.472 2.493,15.774 -2.213,20.13 -4.707,4.356 -18.398,0.261 -18.729,-10.272 L -12.846,2.478 c 0,0 1.75,-1.819 5.579,-2.623 C -3.254,-0.987 0,0 0,0"
         style="fill:#ffa12e;fill-opacity:1;fill-rule:nonzero;stroke:none"
         id="path88" /></g><g
       id="g90"
       transform="matrix(1.160092,0,0,1.160092,258.77205,384.52124)"><path
         d="M 0,0 C -0.099,-0.495 0.002,-0.931 0.226,-0.974 0.45,-1.017 0.711,-0.651 0.81,-0.157 0.909,0.338 0.808,0.774 0.584,0.817 0.36,0.86 0.099,0.495 0,0"
         style="fill:#220e59;fill-opacity:1;fill-rule:nonzero;stroke:none"
         id="path92" /></g><g
       id="g94"
       transform="matrix(1.160092,0,0,1.160092,266.18237,383.134)"><path
         d="M 0,0 C -0.099,-0.495 0.002,-0.931 0.226,-0.974 0.45,-1.017 0.711,-0.651 0.81,-0.156 0.909,0.338 0.808,0.774 0.584,0.818 0.36,0.861 0.099,0.495 0,0"
         style="fill:#220e59;fill-opacity:1;fill-rule:nonzero;stroke:none"
         id="path96" /></g><g
       id="g98"
       transform="matrix(1.160092,0,0,1.160092,258.24305,368.81243)"><path
         d="m 0,0 c 0,0 -4.161,1.1 -6.679,4.479 l 6.288,-7.987 z"
         style="fill:#220e59;fill-opacity:1;fill-rule:nonzero;stroke:none"
         id="path100" /></g><g
       id="g102"
       transform="matrix(1.160092,0,0,1.160092,-63.659273,-31.061876)"><g
         id="g104" /><g
         id="g116"><g
           clip-path="url(#clipPath108)"
           id="g114"><g
             transform="translate(268.2915,356.7881)"
             id="g112"><path
               d="M 0,0 C 0.646,2.31 3.073,3.667 5.421,3.032 7.77,2.397 9.151,0.011 8.505,-2.299 7.859,-4.608 5.432,-5.965 3.083,-5.331 0.735,-4.696 -0.646,-2.309 0,0"
               style="fill:#220e59;fill-opacity:1;fill-rule:nonzero;stroke:none"
               id="path110" /></g></g></g></g><g
       id="g118"
       transform="matrix(1.160092,0,0,1.160092,266.5217,379.00512)"><path
         d="M 0,0 C 0.341,1.219 1.185,2.161 2.246,2.697 2.027,0.754 1.744,-1.494 1.442,-4.19 1.432,-4.28 1.408,-4.351 1.396,-4.437 0.138,-3.378 -0.468,-1.673 0,0"
         style="fill:#ffa12e;fill-opacity:1;fill-rule:nonzero;stroke:none"
         id="path120" /></g><g
       id="g122"
       transform="matrix(1.160092,0,0,1.160092,-63.659273,-31.061876)"><g
         id="g124" /><g
         id="g136"><g
           clip-path="url(#clipPath128)"
           id="g134"><g
             transform="translate(284.6162,353.478)"
             id="g132"><path
               d="M 0,0 C 0.341,1.219 1.185,2.161 2.246,2.697 2.027,0.754 1.744,-1.494 1.442,-4.19 1.432,-4.28 1.408,-4.351 1.396,-4.437 0.138,-3.378 -0.468,-1.673 0,0"
               style="fill:#220e59;fill-opacity:1;fill-rule:nonzero;stroke:none"
               id="path130" /></g></g></g></g><g
       id="g138"
       transform="matrix(1.160092,0,0,1.160092,-63.659273,-31.061876)"><g
         id="g140" /><g
         id="g152"><g
           clip-path="url(#clipPath144)"
           id="g150"><g
             transform="translate(283.1533,360.6094)"
             id="g148"><path
               d="m 0,0 -1.128,0.305 -1.737,-6.213 2.708,-0.731 z"
               style="fill:#220e59;fill-opacity:1;fill-rule:nonzero;stroke:none"
               id="path146" /></g></g></g></g><g
       id="g154"
       transform="matrix(1.160092,0,0,1.160092,259.10685,389.14119)"><path
         d="M 0,0 C -0.028,-0.341 0.44,-0.657 1.047,-0.707 1.654,-0.756 2.169,-0.519 2.198,-0.178 2.227,0.163 1.758,0.479 1.151,0.528 0.544,0.578 0.029,0.341 0,0"
         style="fill:#220e59;fill-opacity:1;fill-rule:nonzero;stroke:none"
         id="path156" /></g><g
       id="g158"
       transform="matrix(1.160092,0,0,1.160092,266.49339,387.89618)"><path
         d="M 0,0 C -0.19,-0.286 0.069,-0.784 0.579,-1.111 1.088,-1.439 1.656,-1.472 1.846,-1.186 2.037,-0.899 1.777,-0.402 1.268,-0.074 0.758,0.253 0.19,0.287 0,0"
         style="fill:#220e59;fill-opacity:1;fill-rule:nonzero;stroke:none"
         id="path160" /></g><g
       id="g162"
       transform="matrix(1.160092,0,0,1.160092,239.08227,384.79536)"><path
         d="M 0,0 C 0.566,2.023 2.693,3.212 4.75,2.656 6.809,2.1 8.018,0.009 7.453,-2.015 6.887,-4.038 4.76,-5.227 2.702,-4.671 0.645,-4.115 -0.565,-2.023 0,0"
         style="fill:#ffa12e;fill-opacity:1;fill-rule:nonzero;stroke:none"
         id="path164" /></g><g
       id="g166"
       transform="matrix(1.160092,0,0,1.160092,242.91371,385.35674)"><path
         d="M 0,0 C 1.062,-0.123 1.893,-1.177 1.711,-2.241 1.658,-2.556 2.14,-2.691 2.193,-2.374 2.434,-0.966 1.405,0.337 0,0.5 -0.319,0.536 -0.316,0.036 0,0"
         style="fill:#220e59;fill-opacity:1;fill-rule:nonzero;stroke:none"
         id="path168" /></g><g
       id="g170"
       transform="matrix(1.160092,0,0,1.160092,267.23829,396.68352)"><path
         d="m 0,0 c -0.574,-2.002 -2.775,-3.133 -4.863,-3.462 -2.089,-0.329 -4.246,-0.096 -6.317,-0.52 -2.071,-0.424 -4.19,-1.791 -4.475,-3.852 -0.078,-0.562 -0.024,-1.174 -0.336,-1.652 -0.341,-0.521 -1.057,-0.721 -1.672,-0.585 -0.614,0.136 -1.131,0.553 -1.524,1.037 -1.033,1.27 -1.316,3.03 -0.986,4.623 0.33,1.594 1.218,3.034 2.307,4.258 2.091,2.349 5.04,4.016 8.201,4.306 3.161,0.289 6.493,-0.896 8.512,-3.305"
         style="fill:#220e59;fill-opacity:1;fill-rule:nonzero;stroke:none"
         id="path172" /></g><g
       id="g174"
       transform="matrix(1.160092,0,0,1.160092,263.38644,361.85699)"><path
         d="m 0,0 c -7.93,-4.972 -18.409,-3.214 -24.177,4.182 -0.256,0.327 -0.709,-0.133 -0.457,-0.457 5.936,-7.612 16.813,-9.39 24.96,-4.282 C 0.677,-0.337 0.353,0.222 0,0"
         style="fill:#eeeff2;fill-opacity:1;fill-rule:nonzero;stroke:none"
         id="path176" /></g><g
       id="g178"
       transform="matrix(1.160092,0,0,1.160092,265.20929,355.73704)"><path
         d="m 0,0 c 0,0 17.116,-14.985 36.589,-12.844 19.474,2.142 25.34,24.053 26.012,32.061 l 17.789,2.251 c 0,0 2.305,-18.045 -8.652,-36.02 -12.71,-20.85 -42.262,-34.816 -76.576,-12.593 z"
         style="fill:#ffa12e;fill-opacity:1;fill-rule:nonzero;stroke:none"
         id="path180" /></g><g
       id="g182"
       transform="matrix(1.160092,0,0,1.160092,252.22901,328.25109)"><path
         d="M 0,0 C 21.685,-14.814 37.434,-14.492 37.434,-14.492 35.476,-0.248 41.69,10.879 41.69,10.879 27.487,15.517 24.827,23.497 10.64,29.261"
         style="fill:#b126ed;fill-opacity:1;fill-rule:nonzero;stroke:none"
         id="path184" /></g><g
       id="g186"
       transform="matrix(1.160092,0,0,1.160092,292.86286,343.26546)"><path
         d="m 0,0 c -4.635,-7.854 -6.699,-17.221 -5.133,-26.256 0.071,-0.409 0.693,-0.236 0.622,0.172 -1.535,8.859 0.526,18.062 5.068,25.758 C 0.769,0.033 0.211,0.358 0,0"
         style="fill:#eeeff2;fill-opacity:1;fill-rule:nonzero;stroke:none"
         id="path188" /></g><g
       id="g190"
       transform="matrix(1.160092,0,0,1.160092,-63.659273,-31.061876)"><g
         id="g192" /><g
         id="g204"><g
           clip-path="url(#clipPath196)"
           id="g202"><g
             transform="translate(349.4194,313.8677)"
             id="g200"><path
               d="m 0,0 c -2.577,0.992 -6.794,-0.996 -9.419,-4.44 -1.921,-2.52 -2.172,-5.522 -1.313,-7.126 3.822,2.518 6.582,4.784 8.474,6.491 1.178,1.063 2.765,2.459 3.85,4.202 C 1.291,-0.512 0.492,-0.189 0,0"
               style="fill:#220e59;fill-opacity:1;fill-rule:nonzero;stroke:none"
               id="path198" /></g></g></g></g><g
       id="g206"
       transform="matrix(1.160092,0,0,1.160092,261.57147,377.50176)"><path
         d="m 0,0 c 0.643,-0.28 1.109,-0.889 1.118,-1.472 0.004,-0.207 -0.035,-0.643 -0.433,-0.684 -0.397,-0.04 -0.709,0.351 -1.098,0.477 -0.38,0.123 -1.007,-0.153 -1.403,0.202 -0.201,0.179 -0.309,0.566 -0.119,0.881 0.282,0.467 1.174,0.892 2.009,0.576"
         style="fill:#220e59;fill-opacity:1;fill-rule:nonzero;stroke:none"
         id="path208" /></g><g
       id="g210"
       transform="matrix(1.160092,0,0,1.160092,337.83221,378.03029)"><path
         d="m 0,0 c 0,0 1.106,12.632 13.213,5.713 0,0 2.849,-0.767 6.27,-0.216 4.233,0.682 7.84,4.39 9.297,1.297 C 29.951,4.306 21.429,-0.34 16.24,0.092 11.052,0.524 0,0 0,0"
         style="fill:#ffa12e;fill-opacity:1;fill-rule:nonzero;stroke:none"
         id="path212" /></g><g
       id="g214"
       transform="matrix(1.160092,0,0,1.160092,348.3909,386.39734)"><path
         d="M 0,0 C 4.003,-0.689 8.473,-0.969 13.092,1.971 15.53,3.522 16.642,2.63 16.951,2.139 17.369,1.474 16.879,0.618 16.353,0.035 13.944,-2.632 10.339,-4.175 6.747,-4.079"
         style="fill:#ffa12e;fill-opacity:1;fill-rule:nonzero;stroke:none"
         id="path216" /></g><g
       id="g218"
       transform="matrix(1.160092,0,0,1.160092,355.71676,379.18644)"><path
         d="m 0,0 c 3.161,-0.25 6.451,0.686 9.344,2.659 0.531,0.362 1.066,0.766 1.65,0.877 0.584,0.11 1.24,-0.165 1.433,-0.835 C 12.689,1.794 12.016,0.815 11.367,0.184 8.399,-2.705 3.637,-4.784 0.126,-4.005"
         style="fill:#ffa12e;fill-opacity:1;fill-rule:nonzero;stroke:none"
         id="path220" /></g><g
       id="g222"
       transform="matrix(1.160092,0,0,1.160092,358.50945,379.15639)"><path
         d="M 0,0 C 1.497,0.256 2.901,0.745 4.269,1.397 5.805,2.13 7.699,3.521 9.451,3.243 9.754,3.195 9.885,3.659 9.579,3.707 8.005,3.957 6.575,3.091 5.212,2.404 3.486,1.535 1.79,0.793 -0.128,0.464 -0.433,0.412 -0.304,-0.052 0,0"
         style="fill:#220e59;fill-opacity:1;fill-rule:nonzero;stroke:none"
         id="path224" /></g><g
       id="g226"
       transform="matrix(1.160092,0,0,1.160092,356.19496,381.98527)"><path
         d="m 0,0 c 2.27,0.596 4.522,1.297 6.621,2.361 1.197,0.607 2.315,1.377 3.576,1.85 0.287,0.108 0.163,0.574 -0.128,0.465 C 8.901,4.238 7.861,3.56 6.765,2.978 4.592,1.825 2.244,1.087 -0.128,0.464 -0.427,0.386 -0.3,-0.079 0,0"
         style="fill:#220e59;fill-opacity:1;fill-rule:nonzero;stroke:none"
         id="path228" /></g><g
       id="g230"
       transform="matrix(1.160092,0,0,1.160092,338.89148,381.99711)"><path
         d="M 0,0 C 1.773,3.769 6.069,6.925 8.716,8.452 9.155,8.705 9.621,8.949 10.126,8.984 10.631,9.02 11.188,8.792 11.391,8.327 11.575,7.906 11.43,7.419 11.252,6.996 10.254,4.625 8.188,2.729 5.742,1.937"
         style="fill:#ffa12e;fill-opacity:1;fill-rule:nonzero;stroke:none"
         id="path232" /></g><g
       id="g234"
       transform="matrix(1.160092,0,0,1.160092,344.60981,378.21498)"><path
         d="M 0,0 C 1.128,1.898 3.865,2.321 5.505,0.838 5.734,0.63 6.076,0.97 5.846,1.178 3.973,2.873 0.877,2.418 -0.416,0.243 -0.574,-0.024 -0.158,-0.267 0,0"
         style="fill:#220e59;fill-opacity:1;fill-rule:nonzero;stroke:none"
         id="path236" /></g><g
       id="g238"
       transform="matrix(1.160092,0,0,1.160092,346.86317,387.65488)"><path
         d="m 0,0 c 1.738,-0.704 5.262,-0.797 7.055,-0.249 1.793,0.548 3.445,1.467 5.122,2.304 0.506,0.252 1.038,0.503 1.603,0.5 0.566,-0.003 1.17,-0.34 1.291,-0.892 C 15.204,1.056 14.733,0.493 14.268,0.082 11.506,-2.359 7.578,-3.415 3.964,-2.687"
         style="fill:#ffa12e;fill-opacity:1;fill-rule:nonzero;stroke:none"
         id="path240" /></g><g
       id="g242"
       transform="matrix(1.160092,0,0,1.160092,354.9091,384.55639)"><path
         d="M 0,0 C 2.894,0.548 5.5,2.156 8.038,3.571 8.309,3.722 8.066,4.138 7.795,3.987 5.29,2.59 2.727,1.005 -0.127,0.464 -0.432,0.407 -0.303,-0.057 0,0"
         style="fill:#220e59;fill-opacity:1;fill-rule:nonzero;stroke:none"
         id="path244" /></g><g
       id="g246"
       transform="matrix(1.160092,0,0,1.160092,230.6223,361.90791)"><path
         d="m 0,0 c 0,0 -22.484,-3.457 -37.766,8.803 -15.281,12.259 -8.469,33.895 -4.738,41.012 l -13.8,11.449 c 0,0 -11.632,-13.989 -12.035,-35.036 -0.468,-24.414 16.97,-52.06 57.851,-51.728 z"
         style="fill:#ffa12e;fill-opacity:1;fill-rule:nonzero;stroke:none"
         id="path248" /></g><g
       id="g250"
       transform="matrix(1.160092,0,0,1.160092,226.8208,331.75004)"><path
         d="m 0,0 c -26.248,-0.86 -39.363,7.865 -39.363,7.865 9.298,10.968 10.027,23.691 10.027,23.691 14.473,-3.71 21.001,1.595 36.065,-1.157"
         style="fill:#b126ed;fill-opacity:1;fill-rule:nonzero;stroke:none"
         id="path252" /></g><g
       id="g254"
       transform="matrix(1.160092,0,0,1.160092,198.14703,366.26962)"><path
         d="m 0,0 c -0.297,-8.933 -3.509,-17.804 -9.562,-24.453 -0.278,-0.306 0.177,-0.764 0.457,-0.456 C -2.936,-18.131 0.343,-9.108 0.646,0 0.659,0.416 0.014,0.415 0,0"
         style="fill:#eeeff2;fill-opacity:1;fill-rule:nonzero;stroke:none"
         id="path256" /></g><g
       id="g258"
       transform="matrix(1.160092,0,0,1.160092,-63.659273,-31.061876)"><g
         id="g260" /><g
         id="g272"><g
           clip-path="url(#clipPath264)"
           id="g270"><g
             transform="translate(187.5444,357.6333)"
             id="g268"><path
               d="m 0,0 c 2.707,-0.546 5.198,-4.486 5.564,-8.802 0.268,-3.157 -1.132,-5.825 -2.717,-6.717 -1.874,4.176 -2.986,7.569 -3.666,10.025 -0.424,1.53 -1.014,3.559 -0.993,5.613 C -1.365,0.261 -0.517,0.104 0,0"
               style="fill:#220e59;fill-opacity:1;fill-rule:nonzero;stroke:none"
               id="path266" /></g></g></g></g><g
       id="g274"
       transform="matrix(1.160092,0,0,1.160092,181.31387,419.69789)"><path
         d="m 0,0 c 0,0 5.846,11.252 -8.082,11.914 0,0 -2.815,0.881 -5.406,3.182 -3.206,2.848 -4.259,7.912 -7.148,6.085 -2.324,-1.47 2.373,-9.965 6.983,-12.386 C -9.043,6.375 0,0 0,0"
         style="fill:#ffa12e;fill-opacity:1;fill-rule:nonzero;stroke:none"
         id="path276" /></g><g
       id="g278"
       transform="matrix(1.160092,0,0,1.160092,176.89612,432.4255)"><path
         d="m 0,0 c -3.748,1.567 -7.668,3.73 -9.988,8.69 -1.224,2.618 -2.641,2.462 -3.166,2.213 -0.709,-0.337 -0.756,-1.321 -0.625,-2.095 0.601,-3.544 2.814,-6.781 5.897,-8.628"
         style="fill:#ffa12e;fill-opacity:1;fill-rule:nonzero;stroke:none"
         id="path280" /></g><g
       id="g282"
       transform="matrix(1.160092,0,0,1.160092,166.84497,430.2741)"><path
         d="M 0,0 C -2.802,1.485 -5.076,4.041 -6.457,7.259 -6.71,7.849 -6.945,8.477 -7.378,8.884 -7.812,9.291 -8.513,9.411 -9.036,8.949 -9.743,8.325 -9.701,7.137 -9.493,6.256 c 0.954,-4.03 3.856,-8.34 7.236,-9.568"
         style="fill:#ffa12e;fill-opacity:1;fill-rule:nonzero;stroke:none"
         id="path284" /></g><g
       id="g286"
       transform="matrix(1.160092,0,0,1.160092,164.87653,432.13199)"><path
         d="M 0,0 C -1.55,1.408 -2.61,3.094 -3.677,4.869 -4.393,6.059 -5.104,7.391 -6.448,7.939 -6.734,8.057 -6.859,7.591 -6.576,7.476 -5.04,6.848 -4.216,4.797 -3.397,3.457 -2.537,2.047 -1.566,0.773 -0.34,-0.34 -0.111,-0.548 0.23,-0.208 0,0"
         style="fill:#220e59;fill-opacity:1;fill-rule:nonzero;stroke:none"
         id="path288" /></g><g
       id="g290"
       transform="matrix(1.160092,0,0,1.160092,168.34775,433.27689)"><path
         d="M 0,0 C -1.643,1.772 -3.206,3.628 -4.412,5.731 -5.036,6.82 -5.547,7.971 -6.305,8.978 -6.489,9.223 -6.907,8.983 -6.721,8.735 -5.919,7.67 -5.39,6.444 -4.718,5.299 -3.51,3.238 -1.96,1.407 -0.34,-0.34 -0.129,-0.568 0.21,-0.227 0,0"
         style="fill:#220e59;fill-opacity:1;fill-rule:nonzero;stroke:none"
         id="path292" /></g><g
       id="g294"
       transform="matrix(1.160092,0,0,1.160092,182.54925,423.61436)"><path
         d="m 0,0 c 0.527,4.131 -1.403,9.1 -2.818,11.81 -0.234,0.449 -0.495,0.904 -0.903,1.205 -0.408,0.301 -1,0.408 -1.42,0.125 -0.381,-0.257 -0.521,-0.745 -0.597,-1.199 -0.431,-2.535 0.294,-5.243 1.933,-7.225"
         style="fill:#ffa12e;fill-opacity:1;fill-rule:nonzero;stroke:none"
         id="path296" /></g><g
       id="g298"
       transform="matrix(1.160092,0,0,1.160092,176.25262,423.48177)"><path
         d="M 0,0 C 0.093,2.526 -2.321,4.576 -4.792,4.138 -5.097,4.084 -4.968,3.62 -4.665,3.674 -2.489,4.059 -0.401,2.19 -0.481,0 -0.493,-0.31 -0.011,-0.309 0,0"
         style="fill:#220e59;fill-opacity:1;fill-rule:nonzero;stroke:none"
         id="path300" /></g><g
       id="g302"
       transform="matrix(1.160092,0,0,1.160092,178.86005,432.66622)"><path
         d="m 0,0 c -1.844,0.339 -4.867,2.152 -6.086,3.577 -1.218,1.424 -2.119,3.087 -3.085,4.694 -0.291,0.484 -0.606,0.981 -1.084,1.282 -0.479,0.301 -1.17,0.341 -1.568,-0.06 -0.438,-0.441 -0.343,-1.168 -0.171,-1.765 1.019,-3.542 3.768,-6.541 7.207,-7.866"
         style="fill:#ffa12e;fill-opacity:1;fill-rule:nonzero;stroke:none"
         id="path304" /></g><g
       id="g306"
       transform="matrix(1.160092,0,0,1.160092,170.81295,434.75635)"><path
         d="M 0,0 C -2.116,1.986 -3.429,4.706 -4.792,7.227 -4.939,7.5 -5.355,7.257 -5.208,6.984 -3.824,4.426 -2.489,1.676 -0.34,-0.341 -0.115,-0.553 0.227,-0.213 0,0"
         style="fill:#220e59;fill-opacity:1;fill-rule:nonzero;stroke:none"
         id="path308" /></g><text
       transform="scale(1,-1)"
       style="font-variant:normal;font-weight:bold;font-stretch:normal;font-size:318.626px;font-family:'Caviar Dreams';-inkscape-font-specification:CaviarDreams-Bold;writing-mode:lr-tb;fill:#f7f1ff;fill-opacity:1;fill-rule:nonzero;stroke:none;stroke-width:1.16009"
       id="text312"
       x="69.023926"
       y="-100.09418"><tspan
         x="69.023926 269.43982 460.29691"
         y="-100.09418"
         sodipodi:role="line"
         id="tspan310"
         style="fill:#f7f1ff;fill-opacity:1;stroke-width:1.16009">404</tspan></text><g
       id="g322"
       transform="matrix(1.160092,0,0,1.160092,494.02664,353.28878)"><path
         d="m 0,0 c -0.734,-17.853 -9.485,-30.272 6.02,-38.215 8.046,-4.122 22.043,6.994 28.251,21.387 2.821,6.542 24.054,6.005 9.241,-20.596 C 30.421,-60.932 -0.899,-63.382 -8.861,-60.484 -19.014,-56.789 0.917,22.315 0,0"
         style="fill:#ffa12e;fill-opacity:1;fill-rule:nonzero;stroke:none"
         id="path324" /></g><g
       id="g326"
       transform="matrix(1.160092,0,0,1.160092,-63.659273,-31.061876)"><g
         id="g328" /><g
         id="g340"><g
           clip-path="url(#clipPath332)"
           id="g338"><g
             transform="translate(469.2764,273.2163)"
             id="g336"><path
               d="M 0,0 C 1.901,2.054 6.673,2.092 10.656,0.086 13.571,-1.382 15.25,-3.536 15.2,-5.392 10.658,-5.327 6.912,-4.401 4.397,-3.669 2.83,-3.212 1.09,-2.418 -0.704,-1.294 -0.593,-0.83 -0.363,-0.392 0,0"
               style="fill:#220e59;fill-opacity:1;fill-rule:nonzero;stroke:none"
               id="path334" /></g></g></g></g><g
       id="g342"
       transform="matrix(1.160092,0,0,1.160092,551.10792,350.87462)"><path
         d="m 0,0 c 0,0 -3.183,6.92 6.198,8.686 0,0 -1.219,2.556 -5.142,3.183 -3.15,0.504 -3.412,3.979 0.692,3.812 C 5.853,15.513 11.037,12.103 11.949,7.262 12.86,2.42 11.011,-3.567 8.045,-9.452 5.079,-15.336 0,0 0,0"
         style="fill:#ffa12e;fill-opacity:1;fill-rule:nonzero;stroke:none"
         id="path344" /></g><g
       id="g346"
       transform="matrix(1.160092,0,0,1.160092,552.84574,357.59666)"><path
         d="M 0,0 C 1.158,-0.485 2.407,-1.285 2.826,-2.541 3.133,-3.458 2.755,-4.33 1.773,-4.548 1.007,-4.718 0.271,-4.287 -0.323,-3.854 -0.574,-3.672 -0.814,-4.089 -0.566,-4.27 0.609,-5.126 2.986,-5.606 3.414,-3.65 3.844,-1.684 1.645,-0.171 0.128,0.464 -0.158,0.583 -0.282,0.118 0,0"
         style="fill:#220e59;fill-opacity:1;fill-rule:nonzero;stroke:none"
         id="path348" /></g><g
       id="g350"
       transform="matrix(1.160092,0,0,1.160092,554.29585,357.12485)"><path
         d="M 0,0 C 1.241,2.509 3.823,3.783 6.576,3.21 6.879,3.147 7.008,3.611 6.704,3.674 3.756,4.288 0.924,2.951 -0.416,0.243 -0.553,-0.034 -0.138,-0.278 0,0"
         style="fill:#220e59;fill-opacity:1;fill-rule:nonzero;stroke:none"
         id="path352" /></g><g
       id="g354"
       transform="matrix(1.160092,0,0,1.160092,556.3498,355.26012)"><path
         d="M 0,0 C 1.437,1.518 3.37,2.231 5.447,2.028 5.756,1.998 5.753,2.48 5.447,2.51 3.257,2.724 1.172,1.937 -0.341,0.341 -0.554,0.116 -0.214,-0.225 0,0"
         style="fill:#220e59;fill-opacity:1;fill-rule:nonzero;stroke:none"
         id="path356" /></g><g
       id="g358"
       transform="matrix(1.160092,0,0,1.160092,555.49562,352.28796)"><path
         d="m 0,0 c -0.476,-0.893 0.068,-2.063 1.188,-1.93 0.537,0.063 0.918,0.478 1.255,0.86 0.694,0.787 1.459,1.324 2.493,1.575 C 5.237,0.578 5.109,1.042 4.808,0.969 4.136,0.806 3.515,0.538 2.963,0.116 2.673,-0.106 2.429,-0.361 2.187,-0.632 2.026,-0.811 1.884,-1.027 1.681,-1.16 1.218,-1.463 -0.308,-1.602 0.416,-0.243 0.562,0.031 0.146,0.274 0,0"
         style="fill:#220e59;fill-opacity:1;fill-rule:nonzero;stroke:none"
         id="path360" /></g><g
       id="g362"
       transform="matrix(1.160092,0,0,1.160092,543.50723,398.0203)"><path
         d="m 0,0 c 0,0 8.822,-33.305 -12.437,-21.048 l 0.273,-20.797 -15.852,16.53 6.47,20.078 c 0,0 -1.551,19.513 21.546,5.237"
         style="fill:#ffa12e;fill-opacity:1;fill-rule:nonzero;stroke:none"
         id="path364" /></g><g
       id="g366"
       transform="matrix(1.160092,0,0,1.160092,540.23879,385.62634)"><path
         d="M 0,0 C -0.113,-0.517 -0.021,-0.977 0.209,-1.027 0.438,-1.078 0.718,-0.7 0.831,-0.184 0.945,0.333 0.853,0.792 0.623,0.843 0.394,0.894 0.114,0.517 0,0"
         style="fill:#220e59;fill-opacity:1;fill-rule:nonzero;stroke:none"
         id="path368" /></g><g
       id="g370"
       transform="matrix(1.160092,0,0,1.160092,540.43368,377.77821)"><path
         d="M 0,0 C 0.716,0.06 1.33,-0.31 1.621,-0.965 1.758,-1.27 2.206,-1.005 2.07,-0.702 1.712,0.104 0.878,0.593 0,0.52 -0.331,0.493 -0.334,-0.027 0,0"
         style="fill:#220e59;fill-opacity:1;fill-rule:nonzero;stroke:none"
         id="path372" /></g><g
       id="g374"
       transform="matrix(1.160092,0,0,1.160092,540.85514,389.6884)"><path
         d="M 0,0 C 0.173,-0.314 0.76,-0.324 1.31,-0.021 1.86,0.282 2.166,0.783 1.993,1.097 1.819,1.412 1.233,1.421 0.683,1.118 0.133,0.815 -0.173,0.314 0,0"
         style="fill:#220e59;fill-opacity:1;fill-rule:nonzero;stroke:none"
         id="path376" /></g><g
       id="g378"
       transform="matrix(1.160092,0,0,1.160092,544.84412,390.67912)"><path
         d="M 0,0 0.495,-0.951 4.058,-8.046 0.409,-8.87 Z"
         style="fill:#ffa12e;fill-opacity:1;fill-rule:nonzero;stroke:none"
         id="path380" /></g><g
       id="g382"
       transform="matrix(1.160092,0,0,1.160092,-63.659273,-31.061876)"><g
         id="g384" /><g
         id="g396"><g
           clip-path="url(#clipPath388)"
           id="g394"><g
             transform="translate(524.5303,363.541)"
             id="g392"><path
               d="M 0,0 0.495,-0.951 4.058,-8.046 0.409,-8.87 Z"
               style="fill:#220e59;fill-opacity:1;fill-rule:nonzero;stroke:none"
               id="path390" /></g></g></g></g><g
       id="g398"
       transform="matrix(1.160092,0,0,1.160092,532.55782,371.83958)"><path
         d="M 0,0 -3.063,1.614 -2.872,-5.47 Z"
         style="fill:#220e59;fill-opacity:1;fill-rule:nonzero;stroke:none"
         id="path400" /></g><g
       id="g402"
       transform="matrix(1.160092,0,0,1.160092,525.33892,387.09804)"><path
         d="m 0,0 c 2.561,-1.528 6.396,0.101 7.074,3.004 0.19,0.81 0.174,1.689 0.587,2.411 0.594,1.038 1.905,1.439 3.101,1.451 1.195,0.012 2.384,-0.273 3.576,-0.2 2.23,0.135 4.414,1.782 4.732,3.993 0.319,2.212 -1.714,4.577 -3.921,4.229 -0.634,-0.101 -1.225,-0.392 -1.859,-0.498 -2.903,-0.487 -4.87,2.756 -7.326,4.379 -3.472,2.294 -8.823,0.814 -10.622,-2.939 -0.418,-0.872 -0.663,-1.828 -1.163,-2.656 -1.01,-1.672 -2.884,-2.578 -4.369,-3.845 -1.486,-1.268 -2.642,-3.46 -1.614,-5.121 0.421,-0.68 1.157,-1.16 1.424,-1.914 0.455,-1.276 -0.618,-2.551 -0.903,-3.877 -0.409,-1.9 1.013,-3.895 2.872,-4.471 1.857,-0.575 3.944,0.081 5.431,1.335 1.486,1.255 2.443,3.031 3.108,4.859"
         style="fill:#220e59;fill-opacity:1;fill-rule:nonzero;stroke:none"
         id="path404" /></g><g
       id="g406"
       transform="matrix(1.160092,0,0,1.160092,521.24912,388.34142)"><path
         d="M 0,0 C 0.634,2.108 2.856,3.304 4.965,2.67 7.073,2.037 8.269,-0.186 7.636,-2.294 7.002,-4.403 4.779,-5.598 2.671,-4.965 0.562,-4.331 -0.634,-2.108 0,0"
         style="fill:#ffa12e;fill-opacity:1;fill-rule:nonzero;stroke:none"
         id="path408" /></g><g
       id="g410"
       transform="matrix(1.160092,0,0,1.160092,525.14065,388.85012)"><path
         d="M 0,0 C 1.137,-0.161 1.989,-1.261 1.769,-2.41 1.706,-2.737 2.207,-2.877 2.271,-2.548 2.539,-1.146 1.574,0.298 0.139,0.501 -0.188,0.548 -0.33,0.047 0,0"
         style="fill:#220e59;fill-opacity:1;fill-rule:nonzero;stroke:none"
         id="path412" /></g><g
       id="g414"
       transform="matrix(1.160092,0,0,1.160092,532.11594,314.2286)"><path
         d="m 0,0 -11.372,-30.476 c 0,0 -39.572,-10.006 -55.151,12.282 0,0 -3.755,67.86 44.689,68.228 C 12.775,50.297 12.505,32.682 0,0"
         style="fill:#45b7bf;fill-opacity:1;fill-rule:nonzero;stroke:none"
         id="path416" /></g><g
       id="g418"
       transform="matrix(1.160092,0,0,1.160092,544.67416,68.388865)"
       style="fill:#800000"><path
         d="m 0,0 -11.257,0.68 -0.648,-17.347 5.123,0.127 -0.28,1.958 6.711,-2.237 27.128,-0.28 c 0,0 -5.99,5.305 -14.488,7.348 C 6.974,-8.474 2.526,-4.848 0,0"
         style="fill:#800000;fill-opacity:1;fill-rule:nonzero;stroke:none"
         id="path420" /></g><g
       id="g422"
       transform="matrix(1.160092,0,0,1.160092,471.37875,69.579467)"
       style="fill:#800000"><path
         d="m 0,0 -9.235,0.696 -2.954,-17.761 5.244,0.13 0.859,2.004 8.018,-2.291 25.485,-0.286 c 0,0 -6.188,5.481 -14.95,7.551 -5.374,1.27 -9.862,4.955 -12.413,9.853 z"
         style="fill:#800000;fill-opacity:1;fill-rule:nonzero;stroke:none"
         id="path424" /></g><g
       id="g426"
       transform="matrix(1.160092,0,0,1.160092,519.43428,280.41087)"
       style="fill:#e00914;fill-opacity:1"><path
         d="m 0,0 c 0,0 -31.767,-2.107 -55.635,11.635 0,0 -9.402,-22.421 -1.446,-53.522 7.956,-31.101 18.251,-85.77 1.616,-142.185 0,0 12.596,-6.629 23.865,-2.651 0,0 25.148,60.214 23.702,99.27 0,0 20.251,-35.44 11.572,-97.641 0,0 13.018,-5.064 24.591,-0.724 0,0 8.679,28.931 9.402,60.031 0.724,31.101 -6.509,65.819 -17.358,88.24 C 9.46,-15.126 2.662,-6.719 0,0"
         style="fill:#e00914;fill-opacity:1;fill-rule:nonzero;stroke:none"
         id="path428" /></g><g
       id="g430"
       transform="matrix(1.160092,0,0,1.160092,510.16259,177.92464)"
       style="fill:#4b0914;fill-opacity:1"><path
         d="m 0,0 c -0.577,11.794 -15.379,23.865 -21.706,31.457 -7.559,9.07 -11.763,19.827 -11.833,31.635 0,0 -3.978,-16.636 9.765,-44.843 11.195,-22.979 19.528,-53.522 13.018,-78.837 0,0 12.109,32.938 10.756,60.588"
         style="fill:#4b0914;fill-opacity:1;fill-rule:nonzero;stroke:none"
         id="path432" /></g><g
       id="g434"
       transform="matrix(1.160092,0,0,1.160092,509.29705,266.82237)"><path
         d="m 0,0 c -8.47,-1.186 -17.103,-0.306 -25.169,2.529 -0.4,0.141 -0.573,-0.496 -0.175,-0.636 8.186,-2.878 16.928,-3.732 25.519,-2.529 C 0.594,-0.578 0.415,0.058 0,0"
         style="fill:#eeeff2;fill-opacity:1;fill-rule:nonzero;stroke:none"
         id="path436" /></g><g
       id="g438"
       transform="matrix(1.160092,0,0,1.160092,508.49148,261.13513)"><path
         d="M 0,0 C -8.029,-2.105 -17.014,-1.108 -24.609,2.13 -24.995,2.294 -25.332,1.727 -24.942,1.56 -17.178,-1.75 -8.038,-2.79 0.175,-0.636 0.586,-0.529 0.411,0.108 0,0"
         style="fill:#eeeff2;fill-opacity:1;fill-rule:nonzero;stroke:none"
         id="path440" /></g><g
       id="g442"
       transform="matrix(1.160092,0,0,1.160092,467.47817,272.80009)"><path
         d="m 0,0 c -4.659,0.086 -9.098,1.618 -12.831,4.404 -0.341,0.254 -0.67,-0.318 -0.333,-0.57 C -9.345,0.984 -4.764,-0.572 0,-0.66 0.425,-0.667 0.425,-0.008 0,0"
         style="fill:#eeeff2;fill-opacity:1;fill-rule:nonzero;stroke:none"
         id="path444" /></g><g
       id="g446"
       transform="matrix(1.160092,0,0,1.160092,462.47191,267.43014)"><path
         d="M 0,0 C -3.517,0.284 -6.812,1.622 -9.53,3.872 -9.854,4.14 -10.324,3.676 -9.996,3.405 -7.134,1.036 -3.705,-0.36 0,-0.66 0.423,-0.694 0.421,-0.034 0,0"
         style="fill:#eeeff2;fill-opacity:1;fill-rule:nonzero;stroke:none"
         id="path448" /></g><g
       id="g450"
       transform="matrix(1.160092,0,0,1.160092,515.78509,279.68814)"><path
         d="m 0,0 c 0.019,-6.109 1.152,-12.102 3.256,-17.832 2.027,-5.524 4.809,-10.726 7.609,-15.887 3.054,-5.631 6.115,-11.263 8.62,-17.164 1.979,-4.661 3.577,-9.471 4.945,-14.343 6.347,-22.618 8.294,-46.574 7.179,-69.982 -0.813,-17.09 -3.413,-34.073 -7.75,-50.623 -0.107,-0.411 0.529,-0.586 0.637,-0.174 7.263,27.714 9.684,56.719 6.989,85.25 -1.006,10.651 -2.708,21.26 -5.335,31.635 -1.05,4.153 -2.252,8.271 -3.669,12.314 -2.183,6.232 -5.03,12.187 -8.127,18.012 C 11.115,-32.701 7.6,-26.72 4.942,-20.337 2.244,-13.853 0.681,-7.041 0.659,0 0.658,0.424 -0.002,0.425 0,0"
         style="fill:#eeeff2;fill-opacity:1;fill-rule:nonzero;stroke:none"
         id="path452" /></g><g
       id="g454"
       transform="matrix(1.160092,0,0,1.160092,524.17882,269.13118)"><path
         d="M 0,0 C 0.142,-3.173 -0.785,-6.899 -3.716,-8.597 -4.083,-8.81 -3.752,-9.38 -3.383,-9.167 -0.252,-7.353 0.812,-3.409 0.659,0 0.641,0.423 -0.02,0.425 0,0"
         style="fill:#eeeff2;fill-opacity:1;fill-rule:nonzero;stroke:none"
         id="path456" /></g><g
       id="g458"
       transform="matrix(1.160092,0,0,1.160092,527.04506,263.37202)"><path
         d="m 0,0 c -0.509,-3.283 -1.563,-6.295 -4.401,-8.258 -0.347,-0.24 -0.018,-0.812 0.333,-0.57 2.992,2.07 4.165,5.169 4.704,8.653 C 0.7,0.24 0.064,0.419 0,0"
         style="fill:#eeeff2;fill-opacity:1;fill-rule:nonzero;stroke:none"
         id="path460" /></g><g
       id="g462"
       transform="matrix(1.160092,0,0,1.160092,472.02225,275.15647)"><path
         d="m 0,0 c -0.866,-4.329 -1.349,-8.712 -1.441,-13.126 -0.009,-0.425 0.651,-0.425 0.66,0 0.092,4.355 0.562,8.679 1.417,12.951 C 0.719,0.239 0.083,0.417 0,0"
         style="fill:#eeeff2;fill-opacity:1;fill-rule:nonzero;stroke:none"
         id="path464" /></g><g
       id="g466"
       transform="matrix(1.160092,0,0,1.160092,474.85786,285.55205)"><path
         d="m 0,0 c -0.54,-1.578 -1.026,-3.17 -1.462,-4.78 -0.11,-0.411 0.525,-0.586 0.637,-0.176 0.434,1.61 0.922,3.203 1.462,4.781 C 0.774,0.228 0.137,0.4 0,0"
         style="fill:#eeeff2;fill-opacity:1;fill-rule:nonzero;stroke:none"
         id="path468" /></g><g
       id="g470"
       transform="matrix(1.160092,0,0,1.160092,527.01223,367.74526)"><path
         d="m 0,0 c 0,0 19.437,-2.08 29.343,-22.098 7.925,-16.013 6.209,-31.11 23.623,-30.635 9.038,0.246 15.982,16.716 14.519,32.322 C 66.82,-13.318 89.098,-8.33 84.947,-38.493 80.153,-73.332 58.977,-78.133 50.6,-79.412 39.92,-81.043 16.312,-72.642 9.845,-39.269 2.586,-1.811 0,0 0,0"
         style="fill:#ffa12e;fill-opacity:1;fill-rule:nonzero;stroke:none"
         id="path472" /></g><g
       id="g474"
       transform="matrix(1.160092,0,0,1.160092,573.17461,313.35342)"><path
         d="m 0,0 c -3.142,5.8 -6.199,16.201 -10.449,24.788 -9.906,20.018 -27.989,22.764 -27.989,22.764 0,0 -17.905,3.458 6.822,-42.827 3.83,-7.17 5.742,-11.641 8.838,-16.969 0,0 5.551,1.125 12.281,4.582 C -4.772,-4.721 0,0 0,0"
         style="fill:#45b7bf;fill-opacity:1;fill-rule:nonzero;stroke:none"
         id="path476" /></g><g
       id="g478"
       transform="matrix(1.160092,0,0,1.160092,603.75846,325.29367)"><path
         d="M 0,0 C 1.773,8.756 1.093,15.598 1.264,19.773 1.187,26.906 4.616,25.562 5.331,23.232 5.4,23.006 5.303,22.763 5.284,22.533 l 0.067,-0.008 c 0.085,2.094 0.943,3.214 2.196,3.174 0.898,-0.029 1.557,-0.611 2.036,-1.887 0.434,1.051 1.131,1.727 1.944,1.701 0.84,-0.027 1.599,-0.792 2.086,-1.935 0.394,0.915 1.014,1.534 1.731,1.478 3.77,-0.293 4.828,-18.738 3.165,-27.937"
         style="fill:#ffa12e;fill-opacity:1;fill-rule:nonzero;stroke:none"
         id="path480" /></g><g
       id="g482"
       transform="matrix(1.160092,0,0,1.160092,569.63204,319.85806)"><path
         d="m 0,0 c -6.539,-5.609 -14.423,-9.398 -22.739,-11.542 -0.39,-0.1 -0.225,-0.704 0.166,-0.603 8.423,2.17 16.394,6.023 23.015,11.702 C 0.749,-0.18 0.305,0.261 0,0"
         style="fill:#eeeff2;fill-opacity:1;fill-rule:nonzero;stroke:none"
         id="path484" /></g><g
       id="g486"
       transform="matrix(1.160092,0,0,1.160092,-63.659273,-31.061876)"><g
         id="g488" /><g
         id="g500"><g
           clip-path="url(#clipPath492)"
           id="g498"><g
             transform="translate(554.2256,265.8345)"
             id="g496"><path
               d="M 0,0 C 0.859,2.664 5.17,4.709 9.629,4.568 12.891,4.465 15.32,3.219 16.057,1.515 11.91,-0.34 8.122,-1.079 5.533,-1.475 3.92,-1.721 2.008,-1.733 -0.093,-1.47 -0.188,-1.002 -0.164,-0.508 0,0"
               style="fill:#220e59;fill-opacity:1;fill-rule:nonzero;stroke:none"
               id="path494" /></g></g></g></g><g
       id="g502"
       transform="matrix(1.160092,0,0,1.160092,535.34134,321.90458)"><path
         d="M 0,0 -4.373,7.029 -8.239,-20.717 Z"
         style="fill:#220e59;fill-opacity:1;fill-rule:nonzero;stroke:none"
         id="path504" /></g><g
       id="g542"
       transform="matrix(1.160092,0,0,1.160092,348.7511,472.17733)"><path
         d="m 0,0 h -45.157 c -7.657,0 -13.864,-6.208 -13.864,-13.865 v -0.853 c 0,-5.593 3.318,-10.4 8.086,-12.592 l -1.625,-9.344 12.416,8.071 H 0 c 7.657,0 13.865,6.208 13.865,13.865 v 0.853 C 13.865,-6.208 7.657,0 0,0"
         style="fill:#f7f1e6;fill-opacity:1;fill-rule:nonzero;stroke:none"
         id="path544" /></g><text
       transform="scale(1,-1)"
       style="font-style:italic;font-variant:normal;font-weight:normal;font-stretch:normal;font-size:22.2707px;font-family:'Caviar Dreams';-inkscape-font-specification:CaviarDreams-Italic;writing-mode:lr-tb;fill:#45b7bf;fill-opacity:1;fill-rule:nonzero;stroke:none;stroke-width:1.16009"
       id="text548"
       x="303.62259"
       y="-447.04047"><tspan
         x="303.62259 316.25012 328.87762"
         y="-447.04047"
         sodipodi:role="line"
         id="tspan546"
         style="stroke-width:1.16009">???</tspan></text></g></svg>
