<svg height="496pt" viewBox="0 0 496 496" width="496pt" xmlns="http://www.w3.org/2000/svg"><path d="m488 248c0 132.546875-107.453125 240-240 240s-240-107.453125-240-240 107.453125-240 240-240 240 107.453125 240 240zm0 0" fill="#3e3d42"/><path d="m456 248c0 114.875-93.125 208-208 208s-208-93.125-208-208 93.125-208 208-208 208 93.125 208 208zm0 0" fill="#1a6fb0"/><path d="m384 248c0 75.109375-60.890625 136-136 136s-136-60.890625-136-136 60.890625-136 136-136 136 60.890625 136 136zm0 0" fill="#5aaae7"/><g fill="#231f20"><path d="m248 0c-136.964844 0-248 111.035156-248 248s111.035156 248 248 248 248-111.035156 248-248c-.160156-136.902344-111.097656-247.839844-248-248zm0 480c-128.128906 0-232-103.871094-232-232s103.871094-232 232-232 232 103.871094 232 232c-.140625 128.070312-103.929688 231.859375-232 232zm0 0"/><path d="m248 32c-119.292969 0-216 96.707031-216 216s96.707031 216 216 216 216-96.707031 216-216c-.132812-119.238281-96.761719-215.867188-216-216zm0 416c-110.457031 0-200-89.542969-200-200s89.542969-200 200-200 200 89.542969 200 200c-.125 110.40625-89.59375 199.875-200 200zm0 0"/><path d="m248 104c-79.527344 0-144 64.472656-144 144s64.472656 144 144 144 144-64.472656 144-144c-.09375-79.492188-64.507812-143.90625-144-144zm0 272c-70.691406 0-128-57.308594-128-128s57.308594-128 128-128 128 57.308594 128 128c-.082031 70.65625-57.34375 127.917969-128 128zm0 0"/><path d="m248 136c-11.699219-.011719-23.328125 1.8125-34.464844 5.398438-3.753906 1.207031-6.066406 4.96875-5.453125 8.863281s3.976563 6.761719 7.917969 6.753906c.835938-.003906 1.667969-.132813 2.464844-.382813 9.542968-3.078124 19.507812-4.644531 29.535156-4.632812 4.417969 0 8-3.582031 8-8s-3.582031-8-8-8zm0 0"/><path d="m188.289062 153.230469c-32.617187 20.449219-52.382812 56.273437-52.289062 94.769531 0 4.417969 3.582031 8 8 8s8-3.582031 8-8c-.085938-32.996094 16.847656-63.703125 44.800781-81.238281 2.488281-1.496094 3.972657-4.214844 3.878907-7.117188-.089844-2.898437-1.746094-5.519531-4.324219-6.851562s-5.671875-1.164063-8.089844.4375zm0 0"/></g></svg>