<?xml version="1.0" encoding="UTF-8" standalone="no"?>
<!-- Created with Inkscape (http://www.inkscape.org/) -->

<svg
   xmlns:dc="http://purl.org/dc/elements/1.1/"
   xmlns:cc="http://creativecommons.org/ns#"
   xmlns:rdf="http://www.w3.org/1999/02/22-rdf-syntax-ns#"
   xmlns:svg="http://www.w3.org/2000/svg"
   xmlns="http://www.w3.org/2000/svg"
   xmlns:sodipodi="http://sodipodi.sourceforge.net/DTD/sodipodi-0.dtd"
   xmlns:inkscape="http://www.inkscape.org/namespaces/inkscape"
   version="1.1"
   id="svg2"
   xml:space="preserve"
   width="666.66669"
   height="666.66669"
   viewBox="0 0 666.66669 666.66669"
   sodipodi:docname="casamento.svg"
   inkscape:version="0.92.4 (unknown)"><metadata
     id="metadata8"><rdf:RDF><cc:Work
         rdf:about=""><dc:format>image/svg+xml</dc:format><dc:type
           rdf:resource="http://purl.org/dc/dcmitype/StillImage" /><dc:title></dc:title></cc:Work></rdf:RDF></metadata><defs
     id="defs6"><clipPath
       clipPathUnits="userSpaceOnUse"
       id="clipPath18"><path
         d="M 0,500 H 500 V 0 H 0 Z"
         id="path16"
         inkscape:connector-curvature="0" /></clipPath><clipPath
       clipPathUnits="userSpaceOnUse"
       id="clipPath54"><path
         d="m 155.965,399.324 h 19.931 v -7.611 h -19.931 z"
         id="path52"
         inkscape:connector-curvature="0" /></clipPath><clipPath
       clipPathUnits="userSpaceOnUse"
       id="clipPath70"><path
         d="m 155.358,400.209 h 21.262 v -6.905 h -21.262 z"
         id="path68"
         inkscape:connector-curvature="0" /></clipPath><clipPath
       clipPathUnits="userSpaceOnUse"
       id="clipPath86"><path
         d="m 160.123,412.599 h 4.245 v -10.045 h -4.245 z"
         id="path84"
         inkscape:connector-curvature="0" /></clipPath><clipPath
       clipPathUnits="userSpaceOnUse"
       id="clipPath106"><path
         d="m 146.101,439.182 h 53.58 v -71.555 h -53.58 z"
         id="path104"
         inkscape:connector-curvature="0" /></clipPath><clipPath
       clipPathUnits="userSpaceOnUse"
       id="clipPath158"><path
         d="m 186.152,352.568 h 21.125 v -23.832 h -21.125 z"
         id="path156"
         inkscape:connector-curvature="0" /></clipPath><clipPath
       clipPathUnits="userSpaceOnUse"
       id="clipPath174"><path
         d="m 126.254,351.076 h 70.458 v -92.038 h -70.458 z"
         id="path172"
         inkscape:connector-curvature="0" /></clipPath><clipPath
       clipPathUnits="userSpaceOnUse"
       id="clipPath190"><path
         d="M 145.827,324.792 H 190.49 V 259.611 H 145.827 Z"
         id="path188"
         inkscape:connector-curvature="0" /></clipPath><clipPath
       clipPathUnits="userSpaceOnUse"
       id="clipPath242"><path
         d="m 115.455,397.862 h 19.91 v -6.854 h -19.91 z"
         id="path240"
         inkscape:connector-curvature="0" /></clipPath><clipPath
       clipPathUnits="userSpaceOnUse"
       id="clipPath274"><path
         d="m 127.003,411.134 h 2.926 v -8.3 h -2.926 z"
         id="path272"
         inkscape:connector-curvature="0" /></clipPath><clipPath
       clipPathUnits="userSpaceOnUse"
       id="clipPath290"><path
         d="M 95.7524,431.724 H 138.899 V 354.568 H 95.7524 Z"
         id="path288"
         inkscape:connector-curvature="0" /></clipPath><clipPath
       clipPathUnits="userSpaceOnUse"
       id="clipPath318"><path
         d="m 129.932,351.126 h 14.489 v -89.692 h -14.489 z"
         id="path316"
         inkscape:connector-curvature="0" /></clipPath><clipPath
       clipPathUnits="userSpaceOnUse"
       id="clipPath338"><path
         d="m 72.003,366.436 h 24.3335 v -57.31 H 72.003 Z"
         id="path336"
         inkscape:connector-curvature="0" /></clipPath><clipPath
       clipPathUnits="userSpaceOnUse"
       id="clipPath362"><path
         d="M 84.7431,311.726 H 134.822 V 294.634 H 84.7431 Z"
         id="path360"
         inkscape:connector-curvature="0" /></clipPath><clipPath
       clipPathUnits="userSpaceOnUse"
       id="clipPath382"><path
         d="m 130.741,297.429 h 34.974 v -13.008 h -34.974 z"
         id="path380"
         inkscape:connector-curvature="0" /></clipPath><clipPath
       clipPathUnits="userSpaceOnUse"
       id="clipPath402"><path
         d="m 145.702,293.72 h 13.234 v -4.419 h -13.234 z"
         id="path400"
         inkscape:connector-curvature="0" /></clipPath><clipPath
       clipPathUnits="userSpaceOnUse"
       id="clipPath418"><path
         d="m 142.715,296.139 h 13.496 v -3.731 h -13.496 z"
         id="path416"
         inkscape:connector-curvature="0" /></clipPath><clipPath
       clipPathUnits="userSpaceOnUse"
       id="clipPath434"><path
         d="m 136.624,298.999 h 15.54 v -4.244 h -15.54 z"
         id="path432"
         inkscape:connector-curvature="0" /></clipPath><clipPath
       clipPathUnits="userSpaceOnUse"
       id="clipPath470"><path
         d="m 41.8173,393.578 h 11.0978 v -37.24 H 41.8173 Z"
         id="path468"
         inkscape:connector-curvature="0" /></clipPath><clipPath
       clipPathUnits="userSpaceOnUse"
       id="clipPath486"><path
         d="M 48.511,354.968 H 63.0442 V 335.085 H 48.511 Z"
         id="path484"
         inkscape:connector-curvature="0" /></clipPath><clipPath
       clipPathUnits="userSpaceOnUse"
       id="clipPath510"><path
         d="m 41.0682,354.157 h 6.9907 v -8.394 h -6.9907 z"
         id="path508"
         inkscape:connector-curvature="0" /></clipPath><clipPath
       clipPathUnits="userSpaceOnUse"
       id="clipPath558"><path
         d="m 317.57,166.922 h 5.681 v -7.185 h -5.681 z"
         id="path556"
         inkscape:connector-curvature="0" /></clipPath><clipPath
       clipPathUnits="userSpaceOnUse"
       id="clipPath578"><path
         d="m 323.035,192.265 h 45.849 v -91.37 h -45.849 z"
         id="path576"
         inkscape:connector-curvature="0" /></clipPath><clipPath
       clipPathUnits="userSpaceOnUse"
       id="clipPath598"><path
         d="m 336.996,156.596 h 27.549 v -7.644 h -27.549 z"
         id="path596"
         inkscape:connector-curvature="0" /></clipPath><clipPath
       clipPathUnits="userSpaceOnUse"
       id="clipPath614"><path
         d="m 345.254,172.14 h 10.664 v -13.666 h -10.664 z"
         id="path612"
         inkscape:connector-curvature="0" /></clipPath><clipPath
       clipPathUnits="userSpaceOnUse"
       id="clipPath690"><path
         d="m 384.64,125.625 h 48.01 V 93.3098 h -48.01 z"
         id="path688"
         inkscape:connector-curvature="0" /></clipPath><clipPath
       clipPathUnits="userSpaceOnUse"
       id="clipPath730"><path
         d="m 378.815,141.267 h 21.837 v -11.542 h -21.837 z"
         id="path728"
         inkscape:connector-curvature="0" /></clipPath><clipPath
       clipPathUnits="userSpaceOnUse"
       id="clipPath746"><path
         d="m 378.685,142.082 h 23.202 v -9.622 h -23.202 z"
         id="path744"
         inkscape:connector-curvature="0" /></clipPath><clipPath
       clipPathUnits="userSpaceOnUse"
       id="clipPath762"><path
         d="m 382.159,149.293 h 7.666 v -7.431 h -7.666 z"
         id="path760"
         inkscape:connector-curvature="0" /></clipPath><clipPath
       clipPathUnits="userSpaceOnUse"
       id="clipPath794"><path
         d="m 367.952,172.215 h 46.299 v -51.688 h -46.299 z"
         id="path792"
         inkscape:connector-curvature="0" /></clipPath><clipPath
       clipPathUnits="userSpaceOnUse"
       id="clipPath818"><path
         d="m 389.466,121.936 h 44.9 V 37.7444 h -44.9 z"
         id="path816"
         inkscape:connector-curvature="0" /></clipPath><clipPath
       clipPathUnits="userSpaceOnUse"
       id="clipPath842"><path
         d="m 393.381,73.7943 h 27.552 V 56.8684 h -27.552 z"
         id="path840"
         inkscape:connector-curvature="0" /></clipPath><clipPath
       clipPathUnits="userSpaceOnUse"
       id="clipPath858"><path
         d="M 383.364,41.717 H 417.52 V 27.2216 h -34.156 z"
         id="path856"
         inkscape:connector-curvature="0" /></clipPath><clipPath
       clipPathUnits="userSpaceOnUse"
       id="clipPath1038"><path
         d="m 128.356,212.885 h 44.697 v -71.632 h -44.697 z"
         id="path1036"
         inkscape:connector-curvature="0" /></clipPath><clipPath
       clipPathUnits="userSpaceOnUse"
       id="clipPath1054"><path
         d="m 139.462,146.964 h 15.434 v -10.85 h -15.434 z"
         id="path1052"
         inkscape:connector-curvature="0" /></clipPath><clipPath
       clipPathUnits="userSpaceOnUse"
       id="clipPath1070"><path
         d="m 142.779,187.475 h 6.661 v -18.222 h -6.661 z"
         id="path1068"
         inkscape:connector-curvature="0" /></clipPath><clipPath
       clipPathUnits="userSpaceOnUse"
       id="clipPath1150"><path
         d="M 70.7013,101.716 H 149.58 V 25.6842 H 70.7013 Z"
         id="path1148"
         inkscape:connector-curvature="0" /></clipPath><clipPath
       clipPathUnits="userSpaceOnUse"
       id="clipPath1190"><path
         d="M 95.7901,84.3812 H 108.593 V 56.9048 H 95.7901 Z"
         id="path1188"
         inkscape:connector-curvature="0" /></clipPath><clipPath
       clipPathUnits="userSpaceOnUse"
       id="clipPath1206"><path
         d="M 69.5553,94.9318 H 83.0407 V 87.0137 H 69.5553 Z"
         id="path1204"
         inkscape:connector-curvature="0" /></clipPath><clipPath
       clipPathUnits="userSpaceOnUse"
       id="clipPath1230"><path
         d="M 64.7925,190.667 H 137.332 V 81.1281 H 64.7925 Z"
         id="path1228"
         inkscape:connector-curvature="0" /></clipPath><clipPath
       clipPathUnits="userSpaceOnUse"
       id="clipPath1246"><path
         d="M 79.1708,160.079 H 114.61 v -39.24 H 79.1708 Z"
         id="path1244"
         inkscape:connector-curvature="0" /></clipPath><clipPath
       clipPathUnits="userSpaceOnUse"
       id="clipPath1266"><path
         d="m 109.384,166.515 h 10.863 v -9.74 h -10.863 z"
         id="path1264"
         inkscape:connector-curvature="0" /></clipPath><clipPath
       clipPathUnits="userSpaceOnUse"
       id="clipPath1282"><path
         d="m 108.314,173.878 h 7.812 V 163.26 h -7.812 z"
         id="path1280"
         inkscape:connector-curvature="0" /></clipPath><clipPath
       clipPathUnits="userSpaceOnUse"
       id="clipPath1338"><path
         d="M 94.8828,104.947 H 126.895 V 59.1962 H 94.8828 Z"
         id="path1336"
         inkscape:connector-curvature="0" /></clipPath><clipPath
       clipPathUnits="userSpaceOnUse"
       id="clipPath1354"><path
         d="m 121.985,79.6061 h 2.77 V 59.3885 h -2.77 z"
         id="path1352"
         inkscape:connector-curvature="0" /></clipPath><clipPath
       clipPathUnits="userSpaceOnUse"
       id="clipPath1370"><path
         d="m 118.418,77.6661 h 3.09 V 59.965 h -3.09 z"
         id="path1368"
         inkscape:connector-curvature="0" /></clipPath><clipPath
       clipPathUnits="userSpaceOnUse"
       id="clipPath1386"><path
         d="m 114.03,76.7484 h 2.708 v -14.306 h -2.708 z"
         id="path1384"
         inkscape:connector-curvature="0" /></clipPath><clipPath
       clipPathUnits="userSpaceOnUse"
       id="clipPath1498"><path
         d="M 377.806,434.349 H 429.58 V 357.063 H 377.806 Z"
         id="path1496"
         inkscape:connector-curvature="0" /></clipPath><clipPath
       clipPathUnits="userSpaceOnUse"
       id="clipPath1518"><path
         d="m 421.834,399.315 h 7.927 v -5.683 h -7.927 z"
         id="path1516"
         inkscape:connector-curvature="0" /></clipPath><clipPath
       clipPathUnits="userSpaceOnUse"
       id="clipPath1534"><path
         d="m 421.686,398.372 h 5.353 v -8.856 h -5.353 z"
         id="path1532"
         inkscape:connector-curvature="0" /></clipPath><clipPath
       clipPathUnits="userSpaceOnUse"
       id="clipPath1558"><path
         d="m 384.9,407.24 h 10.025 V 389.099 H 384.9 Z"
         id="path1556"
         inkscape:connector-curvature="0" /></clipPath><clipPath
       clipPathUnits="userSpaceOnUse"
       id="clipPath1574"><path
         d="m 380.78,390.836 h 23.535 V 378.765 H 380.78 Z"
         id="path1572"
         inkscape:connector-curvature="0" /></clipPath><clipPath
       clipPathUnits="userSpaceOnUse"
       id="clipPath1590"><path
         d="m 381.511,389.852 h 20.834 v -7.655 h -20.834 z"
         id="path1588"
         inkscape:connector-curvature="0" /></clipPath><clipPath
       clipPathUnits="userSpaceOnUse"
       id="clipPath1650"><path
         d="m 397.176,353.462 h 26.649 v -54.736 h -26.649 z"
         id="path1648"
         inkscape:connector-curvature="0" /></clipPath><clipPath
       clipPathUnits="userSpaceOnUse"
       id="clipPath1666"><path
         d="m 422.496,342.935 h 6.027 v -70.599 h -6.027 z"
         id="path1664"
         inkscape:connector-curvature="0" /></clipPath><clipPath
       clipPathUnits="userSpaceOnUse"
       id="clipPath1694"><path
         d="m 318.865,434.26 h 51.91 v -74.494 h -51.91 z"
         id="path1692"
         inkscape:connector-curvature="0" /></clipPath><clipPath
       clipPathUnits="userSpaceOnUse"
       id="clipPath1714"><path
         d="m 321.863,398.737 h 7.061 v -6.609 h -7.061 z"
         id="path1712"
         inkscape:connector-curvature="0" /></clipPath><clipPath
       clipPathUnits="userSpaceOnUse"
       id="clipPath1730"><path
         d="m 361.51,407.261 h 4.917 v -11.944 h -4.917 z"
         id="path1728"
         inkscape:connector-curvature="0" /></clipPath><clipPath
       clipPathUnits="userSpaceOnUse"
       id="clipPath1746"><path
         d="m 352.704,391.83 h 15.832 v -6.244 h -15.832 z"
         id="path1744"
         inkscape:connector-curvature="0" /></clipPath></defs><sodipodi:namedview
     pagecolor="#ffffff"
     bordercolor="#666666"
     borderopacity="1"
     objecttolerance="10"
     gridtolerance="10"
     guidetolerance="10"
     inkscape:pageopacity="0"
     inkscape:pageshadow="2"
     inkscape:window-width="1366"
     inkscape:window-height="703"
     id="namedview4"
     showgrid="false"
     inkscape:zoom="0.50063159"
     inkscape:cx="689.0377"
     inkscape:cy="300.92214"
     inkscape:window-x="0"
     inkscape:window-y="0"
     inkscape:window-maximized="1"
     inkscape:current-layer="g10" /><g
     id="g10"
     inkscape:groupmode="layer"
     inkscape:label="3545968"
     transform="matrix(1.3333333,0,0,-1.3333333,0,666.66667)"><g
       id="g3839"
       transform="matrix(2.2819899,0,0,2.2819899,-36.183861,-51.231193)"><g
         transform="translate(195.7478,230.4315)"
         id="g1004"><path
           inkscape:connector-curvature="0"
           id="path1006"
           style="fill:#ff9393;fill-opacity:1;fill-rule:nonzero;stroke:none"
           d="m 0,0 c 3.395,-2.486 6.472,-5.381 9.112,-8.656 2.681,-3.325 4.927,-6.985 6.924,-10.761 7.343,-13.887 10.421,-27.636 8.806,-43.302 -2.064,-20.018 -10.059,-38.897 -18.44,-57.193 -7.571,-16.527 -14.543,-32.816 -20.032,-50.151 -4.342,-13.714 -16.111,-25.826 -30.43,-29.422 -10.666,-2.679 -22.438,-5.791 -33.506,-3.836 -10.697,1.891 -22.228,9.595 -30.888,15.809 -32.994,23.675 -52.72,64.821 -58.725,104.302 -2.902,19.076 -2.413,39.897 7.44,57.038 9.667,16.817 26.916,29.903 47.127,27.809 15.494,-1.605 30.03,-11.811 33.075,-27.715 1.646,13.498 12.931,26.246 24.875,31.968 C -37.406,14.157 -15.428,11.299 0,0" /></g><g
         transform="translate(180.2055,176.1759)"
         id="g1008"><path
           inkscape:connector-curvature="0"
           id="path1010"
           style="fill:#fcc4d2;fill-opacity:1;fill-rule:nonzero;stroke:none"
           d="m 0,0 c 1.183,2.644 1.283,5.889 -0.263,8.34 -1.545,2.45 -4.916,3.765 -7.535,2.528 C -8.105,10.724 -8.412,10.534 -8.572,10.234 -8.691,10.01 -8.714,9.749 -8.735,9.496 -8.836,8.285 -10.621,-6.568 -10.21,-6.653 -5.495,-7.625 -1.83,-4.091 0,0" /></g><g
         transform="translate(177.8126,183.5457)"
         id="g1012"><path
           inkscape:connector-curvature="0"
           id="path1014"
           style="fill:#aa7171;fill-opacity:1;fill-rule:nonzero;stroke:none"
           d="m 0,0 c 0,0 -0.088,-0.002 -0.253,-0.005 -0.161,-0.016 -0.417,0.027 -0.701,-0.062 -0.144,-0.04 -0.305,-0.049 -0.468,-0.12 -0.161,-0.078 -0.337,-0.151 -0.516,-0.243 -0.164,-0.124 -0.344,-0.242 -0.517,-0.385 -0.156,-0.17 -0.343,-0.316 -0.5,-0.512 -0.314,-0.389 -0.622,-0.838 -0.88,-1.359 -0.276,-0.508 -0.482,-1.091 -0.697,-1.688 -0.377,-1.207 -0.687,-2.568 -0.706,-3.887 -0.011,-0.336 0.008,-0.636 0.099,-0.836 0.066,-0.183 0.273,-0.305 0.355,-0.289 0.058,-0.028 0.278,0.171 0.512,0.436 0.222,0.239 0.434,0.483 0.623,0.73 0.375,0.492 0.687,1.008 0.84,1.523 0.163,0.529 0.164,1.036 0.067,1.523 -0.201,0.965 -0.695,1.711 -1.066,2.181 -0.379,0.474 -0.635,0.72 -0.635,0.72 0,0 0.306,-0.178 0.769,-0.596 0.436,-0.429 1.104,-1.088 1.451,-2.17 0.175,-0.524 0.244,-1.191 0.091,-1.828 -0.142,-0.656 -0.454,-1.273 -0.852,-1.838 -0.197,-0.285 -0.412,-0.555 -0.637,-0.823 -0.113,-0.13 -0.211,-0.258 -0.372,-0.414 -0.155,-0.145 -0.403,-0.318 -0.716,-0.343 -0.622,-0.032 -1.057,0.362 -1.267,0.808 -0.197,0.443 -0.198,0.865 -0.196,1.224 0.045,1.486 0.389,2.887 0.867,4.155 0.492,1.259 1.16,2.377 1.964,3.14 0.196,0.193 0.42,0.346 0.616,0.5 0.217,0.131 0.437,0.233 0.633,0.337 0.426,0.15 0.803,0.241 1.13,0.235 0.32,0.049 0.548,-0.057 0.713,-0.069 C -0.087,0.016 0,0 0,0" /></g><g
         transform="translate(120.0406,178.4522)"
         id="g1016"><path
           inkscape:connector-curvature="0"
           id="path1018"
           style="fill:#fcc4d2;fill-opacity:1;fill-rule:nonzero;stroke:none"
           d="M 0,0 C -0.833,2.776 -0.51,6.006 1.345,8.234 3.201,10.463 6.723,11.327 9.167,9.759 9.454,9.576 9.734,9.347 9.854,9.029 9.943,8.792 9.932,8.53 9.92,8.276 9.863,7.063 9.707,-7.897 9.287,-7.928 4.472,-8.277 1.288,-4.295 0,0" /></g><g
         transform="translate(123.3782,185.4474)"
         id="g1020"><path
           inkscape:connector-curvature="0"
           id="path1022"
           style="fill:#aa7171;fill-opacity:1;fill-rule:nonzero;stroke:none"
           d="M 0,0 C 0,0 0.088,0.004 0.253,0.013 0.419,0.003 0.658,0.078 0.97,-0.012 1.123,-0.049 1.31,-0.062 1.488,-0.134 1.663,-0.211 1.859,-0.29 2.061,-0.39 2.243,-0.518 2.447,-0.649 2.647,-0.806 2.822,-0.984 3.024,-1.165 3.194,-1.381 3.895,-2.241 4.415,-3.437 4.74,-4.75 c 0.312,-1.321 0.472,-2.756 0.323,-4.237 -0.045,-0.356 -0.1,-0.775 -0.354,-1.189 -0.267,-0.416 -0.751,-0.748 -1.362,-0.637 -0.309,0.066 -0.53,0.267 -0.667,0.432 -0.14,0.176 -0.221,0.315 -0.317,0.46 -0.189,0.294 -0.367,0.59 -0.526,0.898 -0.322,0.612 -0.553,1.265 -0.609,1.934 -0.07,0.652 0.085,1.306 0.328,1.803 0.486,1.029 1.236,1.594 1.725,1.962 0.514,0.354 0.841,0.491 0.841,0.491 0,0 -0.286,-0.21 -0.725,-0.631 -0.43,-0.417 -1.018,-1.092 -1.343,-2.023 -0.16,-0.471 -0.226,-0.974 -0.132,-1.521 0.086,-0.53 0.329,-1.082 0.637,-1.619 0.156,-0.269 0.336,-0.539 0.525,-0.805 0.199,-0.293 0.39,-0.517 0.453,-0.497 0.08,-0.027 0.301,0.067 0.391,0.24 0.116,0.186 0.174,0.481 0.207,0.816 0.153,1.311 0.021,2.702 -0.198,3.949 -0.136,0.62 -0.265,1.225 -0.475,1.765 C 3.273,-2.61 3.026,-2.124 2.763,-1.698 2.632,-1.484 2.466,-1.314 2.333,-1.126 2.178,-0.963 2.015,-0.822 1.868,-0.678 1.696,-0.568 1.536,-0.465 1.387,-0.37 1.234,-0.279 1.076,-0.249 0.939,-0.19 0.667,-0.065 0.408,-0.075 0.25,-0.038 0.087,-0.013 0,0 0,0" /></g><g
         transform="translate(130.5956,134.2768)"
         id="g1024"><path
           inkscape:connector-curvature="0"
           id="path1026"
           style="fill:#f7e7e3;fill-opacity:1;fill-rule:nonzero;stroke:none"
           d="m 0,0 c 2.621,-3.029 3.889,-6.958 5.649,-10.556 1.76,-3.598 4.385,-7.175 8.252,-8.216 3.527,-0.949 7.352,0.488 10.144,2.842 2.792,2.355 4.747,5.527 6.653,8.642 -4.334,2.193 -6.228,7.384 -6.821,12.204 -0.72,5.861 -0.087,11.885 1.838,17.467 -4.725,0.55 -9.437,1.218 -14.129,2.005 C 11.161,18.557 10.444,12.747 9.436,6.988 9.099,5.066 8.662,3.017 7.254,1.666 5.411,-0.102 2.552,-0.106 0,0" /></g><g
         transform="translate(159.8388,149.844)"
         id="g1028"><path
           inkscape:connector-curvature="0"
           id="path1030"
           style="fill:#f7e7e3;fill-opacity:1;fill-rule:nonzero;stroke:none"
           d="m 0,0 c 1.585,1.122 3.091,2.471 4.494,4.036 7.986,8.909 7.177,21.432 8.315,32.917 0.438,4.413 0.82,8.975 -0.543,13.195 -2.282,7.064 -9.396,11.946 -16.78,12.706 -7.384,0.76 -14.825,-2.147 -20.628,-6.776 -2.412,-1.925 -4.652,-4.242 -5.699,-7.145 -1.234,-3.423 -0.668,-7.191 -0.298,-10.811 C -29.942,26.378 -36.695,8.715 -25.532,0.614 -17.033,-5.555 -7.611,-5.389 0,0" /></g><g
         id="g1032"><g
           id="g1034" /><g
           id="g1046"><g
             id="g1044"
             clip-path="url(#clipPath1038)"><g
               id="g1042"
               transform="translate(159.8388,149.844)"><path
                 inkscape:connector-curvature="0"
                 id="path1040"
                 style="fill:#f7e7e3;fill-opacity:1;fill-rule:nonzero;stroke:none"
                 d="m 0,0 c 1.585,1.122 3.091,2.471 4.494,4.036 7.986,8.909 7.177,21.432 8.315,32.917 0.438,4.413 0.82,8.975 -0.543,13.195 -0.139,0.43 -0.296,0.854 -0.471,1.271 -1.959,4.66 -6.049,8.189 -10.69,10.042 -5.468,2.184 -10.935,2.194 -16.239,-0.538 -3.379,-1.742 -6.322,-4.214 -9.16,-6.743 -0.916,-0.816 -1.872,-1.72 -2.134,-2.917 5.559,1.558 11.354,2.403 17.117,2.058 5.763,-0.344 11.5,-1.908 16.43,-4.913 C 5.834,45.752 6.682,42.242 9.039,40.467 9.294,40.275 9.576,40.088 9.708,39.797 9.836,39.516 9.799,39.191 9.76,38.885 9.127,33.921 8.416,28.961 7.865,23.988 7.382,19.635 6.44,15.186 4.175,11.38 3.036,9.466 1.57,7.746 -0.14,6.319 -2.142,4.648 -4.456,3.39 -6.814,2.276 -9.699,0.914 -12.398,0.372 -15.563,0.865 c -2.842,0.442 -5.518,1.537 -8.079,2.811 -1.798,0.894 -3.543,1.896 -5.144,3.112 -1.154,0.875 -2.566,2.644 -2.696,4.157 0.354,-4.12 2.625,-7.919 5.95,-10.331 1.764,-1.281 3.676,-2.365 5.709,-3.162 0.637,-0.249 0.681,-0.298 0.698,-0.92 0.016,-0.54 -0.123,-1.13 -0.194,-1.665 -0.154,-1.159 -0.345,-2.312 -0.573,-3.458 0.164,0.336 2.926,0.41 3.338,0.466 1.971,0.268 3.969,0.736 5.82,1.472 1.742,0.693 3.389,1.702 4.61,3.124 0.176,0.206 0.346,0.422 0.564,0.583 0.201,0.148 0.436,0.244 0.668,0.338 C -3.143,-1.902 -1.554,-1.088 0,0" /></g></g></g></g><g
         id="g1048"><g
           id="g1050" /><g
           id="g1062"><g
             id="g1060"
             clip-path="url(#clipPath1054)"><g
               id="g1058"
               transform="translate(139.554,139.1701)"><path
                 inkscape:connector-curvature="0"
                 id="path1056"
                 style="fill:#f7e7e3;fill-opacity:1;fill-rule:nonzero;stroke:none"
                 d="M 0,0 C 0.369,1.76 1.526,7.772 1.306,7.794 5.805,7.357 10.344,7.391 14.846,7.791 13.456,4.53 10.27,1.715 7.01,0.422 c 2.005,-0.847 4.177,-1.204 6.325,-1.554 0.609,-0.099 1.261,-0.193 1.822,0.065 0.056,-0.375 0.113,-0.751 0.17,-1.126 C 15.345,-2.31 15.359,-2.44 15.29,-2.536 15.223,-2.629 15.099,-2.657 14.986,-2.678 9.896,-3.612 4.502,-2.804 -0.092,-0.42 -0.074,-0.345 -0.042,-0.2 0,0" /></g></g></g></g><g
         id="g1064"><g
           id="g1066" /><g
           id="g1078"><g
             style="opacity:0.52000397"
             id="g1076"
             clip-path="url(#clipPath1070)"><g
               id="g1074"
               transform="translate(145.9471,187.4754)"><path
                 inkscape:connector-curvature="0"
                 id="path1072"
                 style="fill:#bf3b3b;fill-opacity:1;fill-rule:nonzero;stroke:none"
                 d="M 0,0 C 0.229,-0.645 0.401,-1.301 0.55,-1.978 L 0.736,-2.994 0.85,-4.022 C 0.907,-4.71 0.912,-5.401 0.898,-6.094 0.876,-6.787 0.8,-7.476 0.707,-8.164 0.604,-8.851 0.458,-9.53 0.283,-10.203 c -0.188,-0.669 -0.392,-1.334 -0.648,-1.981 -0.262,-0.645 -0.552,-1.277 -0.869,-1.896 -0.334,-0.611 -0.699,-1.202 -1.088,-1.778 l -0.047,0.502 c 0.398,-0.425 0.776,-0.855 1.193,-1.23 0.207,-0.19 0.424,-0.363 0.648,-0.526 0.119,-0.086 0.214,-0.15 0.345,-0.226 0.13,-0.076 0.229,-0.129 0.36,-0.186 1.002,-0.45 2.21,-0.536 3.316,-0.146 -0.501,-0.308 -1.09,-0.481 -1.69,-0.534 -0.6,-0.049 -1.223,-0.008 -1.812,0.193 -0.142,0.043 -0.31,0.112 -0.439,0.171 -0.128,0.057 -0.286,0.138 -0.411,0.212 -0.269,0.151 -0.518,0.33 -0.758,0.516 -0.477,0.376 -0.916,0.783 -1.33,1.195 l -0.222,0.219 0.174,0.283 c 0.348,0.568 0.667,1.15 0.964,1.744 0.294,0.596 0.561,1.203 0.802,1.822 0.226,0.625 0.448,1.249 0.632,1.888 0.175,0.641 0.324,1.288 0.46,1.94 0.124,0.655 0.208,1.314 0.289,1.978 0.068,0.664 0.096,1.331 0.119,2.002 0.003,0.67 -0.014,1.342 -0.048,2.018 C 0.174,-1.355 0.088,-0.678 0,0" /></g></g></g></g><g
         transform="translate(136.6279,168.2429)"
         id="g1080"><path
           inkscape:connector-curvature="0"
           id="path1082"
           style="fill:#aa7171;fill-opacity:1;fill-rule:nonzero;stroke:none"
           d="m 0,0 c 0,0 0.298,-0.264 0.834,-0.697 0.522,-0.444 1.332,-1.006 2.328,-1.608 1.002,-0.599 2.243,-1.161 3.613,-1.615 1.373,-0.445 2.886,-0.758 4.418,-0.841 1.543,-0.095 3.062,0.042 4.485,0.324 1.413,0.294 2.711,0.707 3.775,1.186 1.06,0.483 1.928,0.945 2.5,1.327 0.582,0.368 0.908,0.595 0.908,0.595 0,0 -0.071,-0.069 -0.205,-0.197 -0.137,-0.125 -0.322,-0.329 -0.595,-0.544 -0.532,-0.446 -1.316,-1.076 -2.374,-1.652 -1.057,-0.567 -2.354,-1.152 -3.827,-1.517 -1.462,-0.376 -3.111,-0.536 -4.722,-0.455 -1.621,0.108 -3.221,0.456 -4.637,1 -1.42,0.535 -2.64,1.264 -3.625,1.95 -0.984,0.696 -1.689,1.41 -2.167,1.916 C 0.461,-0.582 0.303,-0.36 0.181,-0.22 0.063,-0.076 0,0 0,0" /></g><g
         transform="translate(137.0874,182.6811)"
         id="g1084"><path
           inkscape:connector-curvature="0"
           id="path1086"
           style="fill:#34374b;fill-opacity:1;fill-rule:nonzero;stroke:none"
           d="m 0,0 c 0,-1.056 -0.856,-1.911 -1.911,-1.911 -1.056,0 -1.912,0.855 -1.912,1.911 0,1.056 0.856,1.911 1.912,1.911 C -0.856,1.911 0,1.056 0,0" /></g><g
         transform="translate(161.4008,180.7696)"
         id="g1088"><path
           inkscape:connector-curvature="0"
           id="path1090"
           style="fill:#34374b;fill-opacity:1;fill-rule:nonzero;stroke:none"
           d="m 0,0 c 0,-1.056 -0.856,-1.911 -1.911,-1.911 -1.056,0 -1.912,0.855 -1.912,1.911 0,1.056 0.856,1.911 1.912,1.911 C -0.856,1.911 0,1.056 0,0" /></g><g
         transform="translate(132.2901,188.5243)"
         id="g1092"><path
           inkscape:connector-curvature="0"
           id="path1094"
           style="fill:none;stroke:#915555;stroke-width:2;stroke-linecap:round;stroke-linejoin:miter;stroke-miterlimit:10;stroke-dasharray:none;stroke-opacity:1"
           d="M 0,0 C -0.129,1.843 1.071,4.428 2.772,5.296 4.235,6.042 6.211,5.618 7.13,4.228" /></g><g
         transform="translate(159.1799,192.1796)"
         id="g1096"><path
           inkscape:connector-curvature="0"
           id="path1098"
           style="fill:none;stroke:#915555;stroke-width:2;stroke-linecap:round;stroke-linejoin:miter;stroke-miterlimit:10;stroke-dasharray:none;stroke-opacity:1"
           d="M 0,0 C 0.846,1.538 3.147,1.75 4.674,1.151 6.762,0.332 7.876,-1.977 7.805,-4.122" /></g><g
         transform="translate(174.9102,192.5228)"
         id="g1100"><path
           inkscape:connector-curvature="0"
           id="path1102"
           style="fill:#915555;fill-opacity:1;fill-rule:nonzero;stroke:none"
           d="m 0,0 c -0.316,-1.937 -0.693,-3.848 -0.958,-5.657 -0.825,-5.654 -1.808,-11.303 -2.783,-16.933 -0.264,-1.524 -0.874,-3.206 -0.872,-4.743 -0.004,4.902 0.05,9.803 0.163,14.704 0.097,4.171 0.603,8.167 0.741,12.329 0.008,0.249 0.008,0.517 -0.135,0.721 -0.187,0.266 -0.543,0.33 -0.855,0.419 -1.077,0.305 -1.978,1.173 -2.324,2.238 -0.346,1.065 -0.127,2.297 0.565,3.177 -7.892,4.996 -17.876,6.562 -26.919,4.222 -2.927,-0.757 -5.788,-1.908 -8.806,-2.092 0.222,-1.307 -0.068,-2.837 -0.868,-3.915 -0.208,-0.281 -2.182,-1.866 -2.216,-1.653 0.715,-4.52 0.507,-9.121 0.006,-13.651 -0.247,-2.233 -0.5,-4.493 -0.89,-6.707 -0.294,-1.667 -1.388,-4.029 -1.118,-5.716 -0.658,4.102 0.527,8.449 0.485,12.609 -0.033,3.265 -0.706,6.698 -1.462,9.872 -0.463,1.942 -1.034,3.898 -0.952,5.893 0.118,2.872 1.593,5.539 3.473,7.713 3.895,4.504 9.496,7.222 15.22,8.865 5.926,1.701 12.708,2.253 17.901,-1.071 -0.355,0.942 -0.711,1.883 -1.066,2.825 1.999,-0.736 3.686,-2.281 4.594,-4.208 -0.013,0.5 -0.026,1 -0.039,1.501 0.865,-0.768 1.486,-1.805 1.755,-2.93 1.482,-0.131 2.928,-0.652 4.154,-1.496 -0.679,0.015 -1.36,-0.238 -1.864,-0.693 2.955,-0.634 4.945,-3.594 5.439,-6.576 C 0.846,6.168 0.498,3.052 0,0" /></g><g
         transform="translate(139.2968,43.0536)"
         id="g1104"><path
           inkscape:connector-curvature="0"
           id="path1106"
           style="fill:#ffffff;fill-opacity:1;fill-rule:nonzero;stroke:none"
           d="m 0,0 c 6.43,6.801 9.569,15.516 11.605,24.458 0.148,0.653 0.297,1.306 0.445,1.959 4.21,18.494 9.236,36.783 13.392,55.314 0.051,0.229 0.1,0.479 -0.006,0.689 -0.12,0.238 -0.397,0.342 -0.647,0.434 -4.617,1.707 -7.94,6.443 -7.973,11.365 -3.086,-0.545 -6.278,-0.447 -9.333,0.24 -0.804,0.181 -8.203,2.392 -7.924,3.539 -0.258,-1.06 -0.521,-2.132 -1.027,-3.098 -0.715,-1.364 -1.925,-2.276 -3.426,-2.603 -2.617,-0.569 -5.316,0.191 -7.988,0.372 -0.315,0.286 -0.109,-0.327 -0.081,-0.752 C -10.901,61.016 -6.564,30.266 0,0" /></g><g
         transform="translate(144.6106,125.8644)"
         id="g1108"><path
           inkscape:connector-curvature="0"
           id="path1110"
           style="fill:#34374b;fill-opacity:1;fill-rule:nonzero;stroke:none"
           d="m 0,0 c -3.778,-11.166 -5.381,-23.382 -5.853,-35.125 -0.246,-6.142 -0.117,-12.296 0.323,-18.427 0.215,-3.007 0.506,-6.008 0.864,-9.001 0.179,-1.496 0.376,-2.99 0.588,-4.481 0.12,-0.85 0.964,-3.354 0.623,-4.093 1.892,4.09 2.973,8.508 3.797,12.939 1.773,9.536 2.401,19.246 2.469,28.934 0.068,9.6 -0.988,19.212 -0.892,28.784 z" /></g><g
         transform="translate(144.691,119.6845)"
         id="g1112"><path
           inkscape:connector-curvature="0"
           id="path1114"
           style="fill:#3f4a69;fill-opacity:1;fill-rule:nonzero;stroke:none"
           d="m 0,0 c 1.116,-0.347 2.247,-0.644 3.39,-0.89 0.138,-0.03 0.292,-0.056 0.414,0.015 0.103,0.059 0.158,0.173 0.207,0.281 1.092,2.397 2.097,5.034 2.691,7.583 0.255,1.096 0.278,6.905 -1.559,7.097 -1.589,0.165 -3.164,0.471 -4.7,0.911 -0.945,-1.303 -1.89,-2.606 -2.835,-3.909 -0.152,-0.211 -0.307,-0.425 -0.393,-0.671 -0.101,-0.287 -0.101,-0.599 -0.1,-0.903 0.007,-2.197 -0.786,-6.563 0.422,-8.527 0.1,-0.162 0.291,-0.24 0.47,-0.307 C -1.335,0.435 -0.67,0.209 0,0" /></g><g
         transform="translate(138.4273,139.9347)"
         id="g1116"><path
           inkscape:connector-curvature="0"
           id="path1118"
           style="fill:#acaba3;fill-opacity:1;fill-rule:nonzero;stroke:none"
           d="m 0,0 c -0.194,-0.699 -0.374,-1.404 -0.516,-2.104 -0.132,-0.706 -0.224,-1.417 -0.278,-2.129 -0.06,-0.711 -0.077,-1.423 -0.059,-2.134 0.027,-0.711 0.094,-1.419 0.189,-2.122 0.114,-0.701 0.236,-1.4 0.391,-2.093 0.162,-0.693 0.352,-1.378 0.559,-2.059 0.409,-1.365 0.927,-2.699 1.474,-4.023 l -0.946,-0.108 c 0.472,2.664 1.418,5.228 2.732,7.563 0.658,1.162 1.356,2.305 2.176,3.366 0.409,0.517 0.861,1.055 1.418,1.446 0.541,0.402 1.118,0.717 1.643,1.125 C 8.327,-3.755 7.785,-4.157 7.302,-4.594 6.813,-5.024 6.46,-5.554 6.106,-6.115 5.396,-7.213 4.771,-8.369 4.207,-9.552 3.092,-11.914 2.219,-14.385 1.792,-16.94 l -0.28,-1.675 -0.667,1.567 c -0.571,1.343 -1.067,2.725 -1.478,4.135 -0.198,0.708 -0.365,1.425 -0.51,2.147 -0.137,0.724 -0.246,1.454 -0.306,2.189 -0.051,0.737 -0.072,1.474 -0.051,2.21 0.029,0.737 0.096,1.469 0.205,2.195 0.129,0.725 0.304,1.436 0.514,2.136 L -0.428,-1 Z" /></g><g
         transform="translate(149.3524,136.3759)"
         id="g1120"><path
           inkscape:connector-curvature="0"
           id="path1122"
           style="fill:#acaba3;fill-opacity:1;fill-rule:nonzero;stroke:none"
           d="m 0,0 0.581,-0.863 0.52,-0.908 c 0.326,-0.616 0.626,-1.246 0.902,-1.89 0.518,-1.3 0.917,-2.645 1.251,-4 0.663,-2.715 0.998,-5.473 1.496,-8.172 l -0.953,0.099 c 0.507,1.222 0.938,2.474 1.316,3.741 0.387,1.266 0.684,2.557 0.958,3.856 0.265,1.301 0.454,2.619 0.588,3.945 0.164,1.325 0.229,2.661 0.299,4.004 C 7.111,-1.525 7.144,-2.872 7.141,-4.222 7.109,-5.571 6.999,-6.92 6.821,-8.263 6.466,-10.95 5.732,-13.589 4.722,-16.109 l -0.647,-1.614 -0.306,1.712 c -0.491,2.745 -0.794,5.49 -1.273,8.19 C 2.259,-6.47 1.954,-5.133 1.537,-3.828 1.338,-3.173 1.113,-2.524 0.859,-1.885 0.596,-1.254 0.306,-0.623 0,0" /></g><g
         transform="translate(141.2705,34.8005)"
         id="g1124"><path
           inkscape:connector-curvature="0"
           id="path1126"
           style="fill:#34374b;fill-opacity:1;fill-rule:nonzero;stroke:none"
           d="m 0,0 c 0.042,10.033 0.386,20.508 -0.845,30.48 -2.979,23.96 -6.278,47.996 -11.34,71.644 -1.543,0.044 -3.343,-0.208 -4.854,0.147 -1.749,0.412 -3.48,0.897 -5.218,1.353 -3.464,0.907 -6.973,1.75 -10.57,1.825 -11.246,0.235 -21.966,-4.341 -32.279,-8.831 -6.427,-2.799 -12.854,-5.597 -19.28,-8.396 -8.521,-3.71 -16.654,-7.23 -21.02,-15.91 -0.875,-1.742 -0.879,-3.367 0.628,-4.737 2.971,-2.702 6.749,-3.766 10.633,-2.62 3.167,0.935 5.964,2.794 8.864,4.374 14.339,7.811 31.949,8.319 47.094,2.717 1.285,-0.475 2.614,-0.977 3.581,-1.948 0.99,-0.993 1.487,-2.36 1.956,-3.682 2.919,-8.221 5.851,-16.492 7.31,-25.093 1.412,-8.317 1.422,-16.802 2.239,-25.198 0.791,-8.133 1.257,-15.749 -0.495,-23.823 7.357,-2.787 15.601,-1.013 23.12,1.302 0.168,0.051 0.35,0.113 0.444,0.261 0.079,0.124 0.078,0.28 0.075,0.427 C 0.004,-3.806 -0.008,-1.903 0,0" /></g><g
         transform="translate(181.8721,61.7717)"
         id="g1128"><path
           inkscape:connector-curvature="0"
           id="path1130"
           style="fill:#34374b;fill-opacity:1;fill-rule:nonzero;stroke:none"
           d="m 0,0 c -0.472,-6.613 -4.461,-13.284 -9.246,-17.741 -10.095,-9.401 -23.066,-14.956 -36.687,-16.766 4.033,7.924 4.666,16.353 5.913,24.987 1.769,12.248 7.058,24.555 10.442,36.481 3.593,12.657 6.976,25.375 10.147,38.145 5.165,-1.939 11.555,-1.778 16.039,-5.287 C 0.345,56.946 2.35,52.269 2.975,47.596 3.64,42.619 2.808,38.23 1.993,33.332 1.219,28.68 0.581,23.996 0.329,19.285 0.291,18.573 0.261,17.86 0.242,17.146 0.083,11.42 0.407,5.696 0,0" /></g><g
         transform="translate(173.3518,118.8206)"
         id="g1132"><path
           inkscape:connector-curvature="0"
           id="path1134"
           style="fill:#3f4a69;fill-opacity:1;fill-rule:nonzero;stroke:none"
           d="m 0,0 c -0.293,-1.576 -0.6,-3.148 -0.931,-4.715 l -0.838,-4.716 -0.772,-4.725 -0.698,-4.733 -0.62,-4.742 -0.555,-4.75 -0.501,-4.756 -0.437,-4.764 -0.406,-4.768 -0.355,-4.774 -0.668,-9.559 -0.649,-9.572 c -0.1,-1.596 -0.246,-3.191 -0.366,-4.788 -0.132,-1.596 -0.23,-3.193 -0.388,-4.788 l -0.047,-0.474 -0.124,0.448 -0.383,1.376 0.549,-1.319 -0.171,-0.026 c -0.059,1.602 -0.058,3.203 -0.089,4.804 -0.015,1.601 -0.055,3.204 -0.05,4.804 l 0.02,4.804 0.088,4.804 c 0.073,3.204 0.218,6.405 0.366,9.608 0.197,3.2 0.412,6.4 0.689,9.597 0.312,3.194 0.642,6.387 1.063,9.57 l 0.696,4.766 0.82,4.746 0.95,4.722 1.1,4.688 1.273,4.645 C -0.978,-3.052 -0.496,-1.524 0,0" /></g><g
         transform="translate(113.1898,122.7508)"
         id="g1136"><path
           inkscape:connector-curvature="0"
           id="path1138"
           style="fill:#3f4a69;fill-opacity:1;fill-rule:nonzero;stroke:none"
           d="M 0,0 C 0,0 0.201,-0.314 0.38,-0.803 0.566,-1.29 0.735,-1.95 0.831,-2.621 0.92,-3.292 0.936,-3.974 0.887,-4.493 0.846,-5.012 0.736,-5.369 0.736,-5.369 c 0,0 -0.202,0.314 -0.381,0.803 C 0.169,-4.079 0,-3.419 -0.095,-2.748 -0.183,-2.076 -0.198,-1.395 -0.15,-0.875 -0.109,-0.357 0,0 0,0" /></g><g
         transform="translate(77.987,63.7065)"
         id="g1140"><path
           inkscape:connector-curvature="0"
           id="path1142"
           style="fill:#ffffff;fill-opacity:1;fill-rule:nonzero;stroke:none"
           d="m 0,0 c -4.264,5.974 -6.372,13.394 -7.661,20.691 -0.276,1.563 -0.521,3.156 -0.325,4.73 0.41,3.302 3.797,6.692 5.927,9.115 2.506,2.852 5.379,5.401 8.639,7.362 5.428,3.266 11.427,5.415 17.366,7.543 6.441,2.307 12.239,4.74 19.045,2.584 6.904,-2.187 11.222,-7.591 16.652,-11.957 5.413,-4.352 11.252,-9.454 11.94,-16.366 0.647,-6.509 -3.335,-12.244 -5.322,-18.165 -1.091,-3.252 -1.018,-5.686 -0.73,-8.956 0.361,-4.102 -0.669,-8.759 -1.391,-12.789 0,-6.458 -3.31,-13.722 -5.724,-19.588 -0.101,-0.247 -0.207,-0.5 -0.39,-0.695 -0.314,-0.335 -0.795,-0.441 -1.246,-0.531 -6.879,-1.363 -13.164,-1.767 -19.738,1.218 -6.11,2.773 -11.126,7.501 -15.679,12.325 -3.085,3.268 -6.288,6.43 -9.243,9.818 -1.53,1.753 -2.684,3.79 -4.298,5.458 C 6.061,-6.385 4.095,-4.777 2.374,-2.92 1.516,-1.994 0.726,-1.018 0,0" /></g><g
         id="g1144"><g
           id="g1146" /><g
           id="g1158"><g
             style="opacity:0.17999303"
             id="g1156"
             clip-path="url(#clipPath1150)"><g
               id="g1154"
               transform="translate(70.7013,90.1225)"><path
                 inkscape:connector-curvature="0"
                 id="path1152"
                 style="fill:#acaba3;fill-opacity:1;fill-rule:nonzero;stroke:none"
                 d="m 0,0 c 0.605,2.636 2.37,4.909 4.549,6.511 2.179,1.602 4.753,2.587 7.363,3.293 6.218,1.683 12.992,1.651 19.381,1.778 2.028,0.04 4.499,0.059 6.002,-1.455 1.441,-1.451 2.808,-3.665 4.001,-5.362 1.484,-2.109 3.086,-3.927 5.193,-5.404 2.148,-1.506 2.895,-3.55 3.906,-5.981 2.45,-5.89 4.095,-12.116 4.862,-18.45 -0.184,1.515 3.914,5.736 4.866,6.926 1.826,2.284 3.276,4.795 4.927,7.226 3.43,5.051 7.097,9.941 10.986,14.649 6.472,-7.924 0.237,-16.612 -2.446,-24.61 -1.091,-3.252 -1.018,-5.686 -0.73,-8.956 0.36,-4.102 -0.67,-8.759 -1.391,-12.789 0,-6.458 -3.31,-13.722 -5.724,-19.587 -0.102,-0.248 -0.207,-0.501 -0.39,-0.696 -0.314,-0.335 -0.796,-0.441 -1.247,-0.531 -5.146,-1.02 -10.387,-1.492 -15.545,-0.281 -4.386,1.03 -6.634,5.312 -8.627,9.001 -2.076,3.842 -3.711,7.099 -4.92,11.276 -0.962,3.324 -2.505,6.614 -3.276,9.972 -0.715,3.115 -0.684,6.487 -1.281,9.655 -1.273,6.756 -3.427,13.346 -6.402,19.544 0.627,0.155 1.297,0.138 1.915,-0.051 -1.725,1.591 -2.726,3.284 -5.146,4.05 C 17.41,0.833 13.942,1.894 10.362,2.178 6.782,2.462 3.039,1.913 0,0" /></g></g></g></g><g
         transform="translate(149.6595,78.4081)"
         id="g1160"><path
           inkscape:connector-curvature="0"
           id="path1162"
           style="fill:#fcc4d2;fill-opacity:1;fill-rule:nonzero;stroke:none"
           d="m 0,0 c 1.654,4.619 3.974,8.909 6.892,12.852 2.832,3.826 5.639,6.917 7.632,11.356 1.42,3.163 2.727,6.376 3.918,9.632 0.283,0.772 0.383,1.922 -0.409,2.142 -2.948,-1.34 -2.878,-5.904 -5.546,-7.738 0.829,3.878 2.288,7.62 4.3,11.037 0.765,1.299 1.528,3.171 0.344,4.104 -2.927,-3.54 -5.303,-7.534 -7.017,-11.796 -0.491,0.061 -0.471,0.781 -0.303,1.247 1.628,4.522 3.739,8.87 6.286,12.945 0.153,0.244 0.311,0.503 0.317,0.79 0.013,0.643 -0.784,1.052 -1.407,0.894 -0.624,-0.158 -1.082,-0.676 -1.487,-1.176 -3.207,-3.952 -5.749,-8.443 -7.486,-13.227 -0.771,0.33 -0.708,1.434 -0.482,2.241 1.04,3.711 2.834,7.393 4.853,10.67 0.338,0.547 0.642,1.371 0.109,1.732 C 10.038,48.027 9.424,47.588 9.031,47.167 5.55,43.439 2.917,38.923 1.386,34.057 0.866,32.404 0.353,29.012 -1.349,28.359 c -0.956,1.99 -1.326,4.421 -1.895,6.566 -0.129,0.486 -0.263,0.983 -0.548,1.398 -0.449,0.654 -1.205,1.014 -1.926,1.345 C -6.317,31.07 -5.734,24.669 -4.52,18.176 -4.276,16.868 -3.999,15.54 -4.141,14.217 -4.526,10.622 -7.717,6.971 -9.274,3.745 -6.694,0.857 -4.216,-2.121 -1.845,-5.182 -1.241,-3.548 -0.641,-1.791 0,0" /></g><g
         transform="translate(145.5031,62.0715)"
         id="g1164"><path
           inkscape:connector-curvature="0"
           id="path1166"
           style="fill:#ffffff;fill-opacity:1;fill-rule:nonzero;stroke:none"
           d="m 0,0 c 1.127,4.09 2.428,8.129 3.774,12.152 0.681,2.037 1.339,4.088 2.063,6.11 0.528,1.475 1.718,2.581 2.352,3.951 0.138,0.297 -0.392,0.428 -0.691,0.296 -0.46,-0.204 -0.867,-0.523 -1.174,-0.921 0.2,0.591 0.26,1.229 0.173,1.847 C 6.004,23.342 5.547,23.061 5.242,22.662 5.326,23.225 5.76,23.742 5.649,24.3 5.522,24.939 4.707,25.232 4.083,25.044 3.46,24.856 2.996,24.346 2.566,23.857 c 0.05,0.579 0.099,1.174 -0.062,1.733 -0.161,0.558 -0.581,1.081 -1.152,1.19 -0.872,0.167 -1.601,-0.631 -2.129,-1.345 0.188,0.703 0.162,1.461 -0.074,2.15 -0.056,0.165 -0.133,0.337 -0.282,0.428 -0.362,0.223 -0.786,-0.169 -1.021,-0.525 -1.182,-1.792 -1.693,-3.766 -2.669,-5.612 -1.09,-2.061 -2.271,-4.072 -3.496,-6.056 -2.454,-3.973 -5.086,-7.832 -7.56,-11.792 -4.854,-7.77 -10.064,-15.154 -14.774,-23.011 -3.244,8.896 -8.7,17.015 -12.612,25.662 -1.161,2.568 -1.533,5.3 -2.829,7.799 -1.312,2.529 -3.164,4.768 -5.315,6.629 -3.179,2.751 -6.99,4.7 -10.951,6.112 -2.223,0.792 -4.542,1.429 -6.902,1.406 -2.36,-0.023 -4.786,-0.767 -6.471,-2.42 2.033,-14.649 6.445,-28.587 14.877,-40.955 7.271,-10.665 16.319,-18.081 28.183,-23.256 0.969,-0.422 1.983,-0.832 3.04,-0.804 0.866,0.024 1.696,0.342 2.491,0.687 11.285,4.895 19.002,15.744 23.54,27.177 C -2.182,-7.367 -1.021,-3.706 0,0" /></g><g
         transform="translate(132.891,71.1655)"
         id="g1168"><path
           inkscape:connector-curvature="0"
           id="path1170"
           style="fill:#f7e7e3;fill-opacity:1;fill-rule:nonzero;stroke:none"
           d="M 0,0 3.587,5.235 3.791,5.533 3.89,5.174 C 4.074,4.505 4.01,3.773 3.83,3.126 3.642,2.469 3.479,1.877 3.327,1.218 2.995,-0.073 2.545,-1.34 1.949,-2.543 L 1.38,-2.272 C 1.912,-1.018 2.566,0.186 3.329,1.319 3.717,1.886 4.103,2.43 4.573,2.969 4.815,3.235 5.092,3.497 5.442,3.696 5.617,3.795 5.81,3.878 6.018,3.924 6.215,3.96 6.45,4.02 6.77,3.899 6.843,3.87 6.936,3.812 6.984,3.768 7.05,3.713 7.124,3.625 7.158,3.563 7.242,3.421 7.275,3.285 7.292,3.166 7.326,2.929 7.301,2.737 7.294,2.578 7.28,2.251 7.235,1.87 7.183,1.535 7.077,0.846 6.907,0.172 6.698,-0.484 6.28,-1.797 5.72,-3.04 5.165,-4.262 L 4.34,-3.84 c 0.63,1.129 1.33,2.22 2.094,3.264 0.394,0.525 0.754,1.024 1.226,1.542 0.24,0.253 0.511,0.502 0.852,0.695 0.17,0.096 0.355,0.176 0.552,0.231 0.176,0.043 0.435,0.124 0.779,0.003 L 9.905,1.869 9.97,1.833 C 9.99,1.821 9.993,1.823 10.054,1.778 10.156,1.702 10.208,1.638 10.259,1.566 10.359,1.42 10.403,1.269 10.424,1.14 10.461,0.88 10.427,0.674 10.387,0.48 L 10.111,-0.469 9.568,-2.301 8.481,-5.966 7.609,-5.658 c 0.471,1.107 1.061,2.163 1.763,3.138 0.351,0.488 0.728,0.956 1.129,1.403 0.206,0.227 0.397,0.432 0.632,0.661 0.18,0.154 0.33,0.242 0.557,0.312 0.112,0.03 0.242,0.057 0.417,0.025 0.174,-0.023 0.39,-0.177 0.467,-0.347 0.177,-0.387 0.017,-0.637 0.003,-0.745 l -0.125,-0.42 -0.251,-0.839 -0.515,-1.676 -1.031,-3.351 -0.643,0.23 c 0.51,1.148 1.12,2.247 1.835,3.28 0.715,1.018 1.641,2.041 2.929,2.42 l 0.383,0.113 -0.096,-0.377 c -0.713,-2.785 -1.648,-5.513 -2.861,-8.108 1.024,2.674 1.859,5.414 2.423,8.208 l 0.287,-0.264 C 13.81,-2.384 12.978,-3.31 12.325,-4.31 11.664,-5.327 11.101,-6.413 10.641,-7.535 l -0.643,0.23 0.933,3.379 0.466,1.69 0.239,0.843 0.121,0.421 c 0.06,0.164 0.028,0.222 0.058,0.105 0.012,-0.038 0.098,-0.098 0.128,-0.097 0.031,-0.004 0.012,0 -0.016,-0.009 -0.054,-0.012 -0.16,-0.078 -0.2,-0.115 C 11.545,-1.269 11.338,-1.492 11.154,-1.7 10.779,-2.126 10.426,-2.573 10.099,-3.037 9.445,-3.965 8.898,-4.968 8.463,-6.015 l -0.871,0.308 1.051,3.675 0.526,1.838 0.251,0.888 C 9.445,0.81 9.452,0.927 9.441,0.983 9.436,1.01 9.429,1.015 9.438,1 9.445,0.993 9.442,0.988 9.481,0.96 9.513,0.944 9.48,0.963 9.465,0.971 9.474,0.967 9.409,1.002 9.478,0.965 L 9.485,0.962 C 9.526,0.953 9.452,0.972 9.326,0.931 9.215,0.901 9.106,0.856 8.998,0.797 8.781,0.679 8.572,0.497 8.372,0.29 7.98,-0.129 7.583,-0.657 7.209,-1.149 6.459,-2.154 5.77,-3.206 5.147,-4.296 l -0.824,0.422 c 0.566,1.214 1.121,2.42 1.529,3.662 0.204,0.62 0.368,1.25 0.473,1.886 C 6.377,2.002 6.417,2.287 6.436,2.63 6.448,2.805 6.461,2.95 6.446,3.046 6.44,3.094 6.426,3.125 6.426,3.125 6.418,3.135 6.44,3.113 6.44,3.113 6.427,3.126 6.446,3.11 6.442,3.114 6.446,3.122 6.33,3.129 6.203,3.099 6.083,3.073 5.962,3.027 5.843,2.965 5.605,2.839 5.377,2.645 5.163,2.421 4.737,1.961 4.326,1.422 3.943,0.893 3.175,-0.179 2.508,-1.325 1.957,-2.526 l -0.569,0.271 c 0.607,1.142 1.08,2.358 1.44,3.609 0.156,0.623 0.384,1.289 0.585,1.89 0.198,0.611 0.282,1.235 0.146,1.852 l 0.303,-0.06 z" /></g><g
         transform="translate(137.21,78.3569)"
         id="g1172"><path
           inkscape:connector-curvature="0"
           id="path1174"
           style="fill:#f7e7e3;fill-opacity:1;fill-rule:nonzero;stroke:none"
           d="m 0,0 1.398,2.413 0.707,1.201 0.353,0.6 C 2.519,4.315 2.57,4.412 2.65,4.526 2.724,4.637 2.866,4.765 3.029,4.808 L 3.196,4.853 3.272,4.699 C 3.558,4.118 3.437,3.503 3.274,2.985 3.086,2.448 2.872,2.002 2.687,1.506 2.309,0.538 2.001,-0.446 1.842,-1.453 l -0.66,0.246 C 1.763,-0.18 2.347,0.872 3.108,1.831 3.491,2.308 3.913,2.762 4.388,3.167 4.629,3.373 4.865,3.549 5.147,3.74 5.477,3.917 5.813,4.111 6.382,3.949 6.522,3.897 6.677,3.787 6.766,3.643 6.808,3.579 6.849,3.49 6.864,3.44 6.897,3.333 6.9,3.279 6.905,3.205 6.907,2.924 6.851,2.797 6.828,2.654 L 6.644,1.788 6.278,0.056 5.545,-3.408 4.653,-3.012 6.575,-0.359 c 0.321,0.434 0.63,0.902 1.05,1.34 0.405,0.428 0.977,0.852 1.689,0.92 L 9.494,1.918 9.638,1.807 C 9.999,1.531 10.12,1.08 10.126,0.755 10.139,0.416 10.081,0.114 10.02,-0.16 L 9.671,-1.736 C 9.442,-2.788 9.203,-3.838 8.95,-4.884 l -0.723,0.268 c 0.514,0.894 1.055,1.798 1.753,2.605 0.349,0.402 0.739,0.778 1.183,1.09 0.443,0.313 0.943,0.558 1.472,0.696 l 0.415,0.108 -0.088,-0.406 c -0.519,-2.385 -1.587,-4.536 -2.257,-6.831 0.219,1.177 0.57,2.328 0.911,3.472 0.341,1.144 0.648,2.294 0.835,3.454 l 0.326,-0.297 C 11.853,-1.006 11.088,-1.657 10.479,-2.427 9.864,-3.2 9.38,-4.086 8.911,-4.989 l -1.21,-2.333 0.488,2.601 c 0.198,1.058 0.411,2.113 0.634,3.167 L 9.15,0.027 C 9.203,0.277 9.238,0.511 9.226,0.711 9.214,0.916 9.158,1.03 9.08,1.086 L 9.404,0.993 C 9.011,0.951 8.636,0.698 8.302,0.337 7.968,-0.018 7.674,-0.467 7.354,-0.916 l -1.89,-2.676 -1.444,-2.044 0.552,2.441 0.78,3.453 0.39,1.727 0.195,0.863 c 0.034,0.146 0.07,0.304 0.064,0.321 0,0 -0.005,0.018 0.007,-0.017 C 6.001,3.172 6.012,3.148 6.012,3.148 6.024,3.131 6.055,3.111 6.055,3.111 6.052,3.133 5.772,3.102 5.608,2.982 5.4,2.844 5.159,2.673 4.95,2.497 4.522,2.141 4.13,1.734 3.768,1.296 3.042,0.418 2.415,-0.566 1.798,-1.57 l -1.054,-1.715 0.394,1.96 C 1.352,-0.261 1.721,0.758 2.148,1.729 2.35,2.21 2.609,2.706 2.785,3.155 2.951,3.611 3.067,4.118 2.896,4.511 L 3.139,4.402 C 3.023,4.397 2.911,4.216 2.773,4.014 L 2.379,3.439 1.592,2.289 Z" /></g><g
         transform="translate(141.1042,84.4323)"
         id="g1176"><path
           inkscape:connector-curvature="0"
           id="path1178"
           style="fill:#f7e7e3;fill-opacity:1;fill-rule:nonzero;stroke:none"
           d="M 0,0 0.958,1.879 1.445,2.813 C 1.611,3.128 1.761,3.429 1.941,3.755 2.052,3.929 2.175,4.08 2.367,4.208 2.463,4.268 2.584,4.325 2.738,4.326 2.893,4.33 3.052,4.25 3.143,4.153 3.364,3.898 3.336,3.655 3.345,3.47 L 3.34,2.942 3.318,0.836 2.741,1.081 4.101,2.567 C 4.327,2.799 4.534,3.101 4.96,3.328 5.157,3.444 5.514,3.482 5.72,3.414 6.065,3.316 6.247,3.109 6.377,2.898 6.611,2.475 6.642,2.081 6.645,1.696 6.637,1.457 6.618,1.342 6.604,1.159 L 6.561,0.657 6.379,-1.348 5.547,-0.971 6.792,0.383 7.417,1.062 c 0.12,0.122 0.257,0.285 0.542,0.404 0.15,0.055 0.32,0.09 0.536,0.035 L 8.571,1.478 C 8.626,1.457 8.689,1.429 8.733,1.401 8.816,1.349 8.885,1.285 8.942,1.216 9.157,0.93 9.166,0.687 9.179,0.479 9.185,0.282 9.145,0.05 9.112,-0.089 L 8.921,-0.988 8.54,-2.788 7.634,-2.471 c 0.297,0.581 0.594,1.197 1.005,1.777 0.206,0.289 0.441,0.569 0.712,0.82 0.08,0.067 0.117,0.11 0.233,0.195 l 0.111,0.078 c 0.092,0.047 0.14,0.087 0.279,0.117 0.075,0.012 0.148,0.018 0.226,0.008 0.104,-0.022 0.221,-0.084 0.293,-0.152 0.053,-0.059 0.099,-0.131 0.131,-0.204 0.022,-0.056 0.027,-0.093 0.038,-0.141 0.028,-0.172 0.012,-0.27 0.004,-0.378 -0.026,-0.201 -0.068,-0.374 -0.113,-0.545 l -0.135,-0.47 -0.231,-0.963 -0.47,-1.923 -0.685,0.159 c 0.38,1.499 1.352,2.823 2.665,3.587 l 0.247,0.144 0.081,-0.252 c 0.161,-0.5 -0.073,-0.929 -0.263,-1.257 l -0.61,-0.98 c -0.403,-0.653 -0.82,-1.298 -1.238,-1.942 0.336,0.69 0.674,1.38 1.026,2.062 l 0.518,1.024 c 0.163,0.328 0.27,0.686 0.15,0.931 l 0.328,-0.107 C 10.795,-1.678 9.972,-2.91 9.718,-4.247 l -0.685,0.159 0.366,1.948 0.188,0.973 0.125,0.484 c 0.035,0.149 0.065,0.299 0.077,0.426 0.005,0.056 0.003,0.125 10e-4,0.115 0.001,-0.008 0.001,-0.003 0.008,-0.021 0.011,-0.038 0.036,-0.075 0.067,-0.098 0.038,-0.047 0.116,-0.093 0.184,-0.096 0.038,-0.01 0.069,-0.013 0.104,-0.004 0.057,0.018 0.036,0.004 0.052,0.02 L 10.116,-0.408 C 10.098,-0.419 10.019,-0.495 9.974,-0.536 9.767,-0.739 9.58,-0.973 9.411,-1.226 9.074,-1.736 8.795,-2.313 8.497,-2.909 l -1.632,-3.27 0.726,3.588 0.365,1.803 0.183,0.901 C 8.174,0.273 8.181,0.346 8.181,0.457 8.182,0.55 8.144,0.629 8.167,0.588 8.174,0.578 8.187,0.566 8.205,0.556 8.217,0.548 8.243,0.533 8.265,0.53 8.29,0.526 8.24,0.538 8.231,0.541 8.298,0.525 8.309,0.539 8.316,0.539 8.313,0.544 8.226,0.483 8.137,0.384 L 7.511,-0.285 6.253,-1.627 5.26,-2.687 5.42,-1.251 5.644,0.75 5.701,1.25 C 5.717,1.401 5.747,1.618 5.751,1.715 5.764,1.995 5.72,2.294 5.628,2.463 5.595,2.544 5.512,2.58 5.535,2.582 5.418,2.614 5.421,2.605 5.316,2.574 5.132,2.502 4.905,2.265 4.662,2.026 L 3.225,0.615 2.592,-0.006 2.647,0.861 2.782,2.963 2.816,3.487 C 2.832,3.644 2.802,3.787 2.783,3.803 2.738,3.854 2.728,3.868 2.6,3.815 2.491,3.76 2.371,3.645 2.285,3.531 L 1.152,1.766 Z" /></g><g
         transform="translate(75.238,65.6846)"
         id="g1180"><path
           inkscape:connector-curvature="0"
           id="path1182"
           style="fill:#f7e7e3;fill-opacity:1;fill-rule:nonzero;stroke:none"
           d="m 0,0 c 1.024,-1.857 1.993,-3.739 2.974,-5.615 l 1.465,-2.818 0.359,-0.708 c 0.116,-0.236 0.222,-0.421 0.359,-0.593 0.132,-0.17 0.288,-0.316 0.415,-0.38 0.141,-0.063 0.143,-0.035 0.197,-0.01 L 5.46,-10.54 c 0.194,1.332 0.243,2.68 0.117,4.01 l -0.371,3.921 1.72,-3.585 c 0.44,-0.917 1.069,-1.741 1.826,-2.407 0.187,-0.17 0.383,-0.328 0.586,-0.476 0.19,-0.14 0.441,-0.309 0.599,-0.385 0.383,-0.206 0.827,-0.294 1.029,-0.231 0.093,0.032 0.143,0.066 0.196,0.139 0.055,0.077 0.122,0.238 0.171,0.46 l 0.074,0.372 0.057,0.368 c 0.035,0.252 0.057,0.506 0.072,0.76 0.054,1.015 -0.041,2.039 -0.308,3.016 L 9.09,3.27 12.911,-3.922 c 0.454,-0.854 1.017,-1.65 1.669,-2.363 0.324,-0.349 0.689,-0.716 1.006,-0.95 0.161,-0.119 0.32,-0.208 0.453,-0.26 0.127,-0.053 0.263,-0.067 0.319,-0.058 0.195,0.024 0.095,0.017 0.16,0.034 0.047,0.016 0.095,0.04 0.145,0.077 0.099,0.068 0.205,0.178 0.296,0.316 0.185,0.274 0.31,0.667 0.328,1.007 0.008,0.147 0.008,0.229 0.006,0.331 l -0.017,0.339 c -0.018,0.232 -0.048,0.477 -0.081,0.734 -0.065,0.513 -0.146,1.079 -0.129,1.701 l 0.08,2.944 1.577,-2.485 c 0.557,-0.878 1.246,-1.684 2.061,-2.343 0.202,-0.167 0.414,-0.322 0.63,-0.47 0.209,-0.146 0.406,-0.262 0.594,-0.34 0.19,-0.081 0.376,-0.122 0.487,-0.117 0.115,0.004 0.132,0.02 0.186,0.063 0.052,0.041 0.142,0.235 0.204,0.449 0.082,0.29 0.15,0.527 0.202,0.777 0.11,0.514 0.176,1.039 0.196,1.568 0.038,1.059 -0.114,2.128 -0.446,3.141 l 1.216,0.435 c 0.326,-1.014 0.951,-1.957 1.791,-2.667 0.419,-0.355 0.886,-0.656 1.391,-0.88 0.486,-0.239 1.022,-0.368 1.334,-0.181 -0.014,-0.025 0.104,0.077 0.134,0.102 0.018,0.027 0.044,0.041 0.071,0.088 0.055,0.076 0.093,0.174 0.112,0.287 0.045,0.224 0.014,0.495 -0.047,0.759 -0.121,0.532 -0.411,1.058 -0.657,1.608 -0.511,1.081 -0.99,2.178 -1.477,3.271 0.621,-1.023 1.248,-2.043 1.844,-3.079 0.289,-0.514 0.64,-1.014 0.851,-1.635 0.101,-0.307 0.183,-0.637 0.151,-1.008 -0.013,-0.183 -0.061,-0.379 -0.159,-0.559 -0.04,-0.088 -0.115,-0.184 -0.192,-0.273 -0.08,-0.075 -0.067,-0.082 -0.207,-0.187 -0.342,-0.251 -0.764,-0.306 -1.115,-0.28 -0.36,0.026 -0.686,0.116 -0.989,0.228 -0.607,0.215 -1.175,0.532 -1.696,0.913 -1.039,0.766 -1.876,1.826 -2.358,3.061 l 1.216,0.436 c 0.439,-1.142 0.676,-2.363 0.693,-3.592 0.008,-0.615 -0.038,-1.232 -0.138,-1.842 -0.051,-0.314 -0.12,-0.632 -0.189,-0.894 -0.094,-0.332 -0.192,-0.696 -0.514,-1.094 -0.319,-0.395 -0.863,-0.636 -1.321,-0.648 -0.462,-0.026 -0.844,0.079 -1.184,0.206 -0.345,0.131 -0.647,0.303 -0.912,0.476 -0.261,0.167 -0.516,0.343 -0.762,0.533 -0.981,0.757 -1.85,1.672 -2.519,2.725 l 1.657,0.459 c -0.008,-0.424 0.057,-0.896 0.13,-1.417 0.036,-0.26 0.073,-0.534 0.098,-0.822 l 0.027,-0.442 c 0.005,-0.159 0.003,-0.339 -0.003,-0.452 -0.037,-0.702 -0.23,-1.34 -0.612,-1.944 -0.194,-0.297 -0.443,-0.583 -0.769,-0.817 -0.161,-0.118 -0.345,-0.219 -0.542,-0.295 -0.176,-0.081 -0.533,-0.149 -0.597,-0.15 -0.915,-0.101 -1.619,0.295 -2.121,0.669 -0.515,0.397 -0.879,0.787 -1.262,1.204 -0.75,0.835 -1.393,1.763 -1.909,2.759 l 1.682,0.655 c 0.304,-1.176 0.419,-2.398 0.323,-3.605 -0.027,-0.302 -0.062,-0.603 -0.113,-0.901 l -0.085,-0.454 -0.103,-0.445 c -0.086,-0.316 -0.206,-0.692 -0.487,-1.063 -0.28,-0.375 -0.732,-0.651 -1.18,-0.748 -0.905,-0.164 -1.587,0.126 -2.175,0.434 -0.334,0.188 -0.537,0.345 -0.792,0.539 -0.241,0.187 -0.474,0.386 -0.693,0.598 -0.874,0.85 -1.573,1.869 -2.042,2.986 l 1.349,0.336 c 0.063,-1.452 -0.05,-2.91 -0.366,-4.321 l -0.064,-0.282 -0.245,-0.134 c -0.422,-0.229 -1.009,-0.133 -1.313,0.09 -0.328,0.211 -0.534,0.466 -0.711,0.722 -0.176,0.256 -0.312,0.544 -0.412,0.79 L 3.566,-8.838 2.363,-5.899 C 1.565,-3.937 0.755,-1.981 0,0" /></g><g
         id="g1184"><g
           id="g1186" /><g
           id="g1198"><g
             style="opacity:0.42999303"
             id="g1196"
             clip-path="url(#clipPath1190)"><g
               id="g1194"
               transform="translate(95.7901,84.3812)"><path
                 inkscape:connector-curvature="0"
                 id="path1192"
                 style="fill:#bc9b9b;fill-opacity:1;fill-rule:nonzero;stroke:none"
                 d="m 0,0 c 0,0 1.027,-1.626 2.29,-4.196 0.642,-1.279 1.344,-2.788 2.065,-4.414 0.733,-1.62 1.46,-3.366 2.216,-5.096 0.728,-1.74 1.491,-3.461 2.19,-5.082 0.36,-0.806 0.709,-1.584 1.04,-2.322 0.339,-0.736 0.66,-1.432 0.956,-2.074 1.228,-2.576 2.046,-4.292 2.046,-4.292 0,0 -0.326,0.35 -0.876,0.986 -0.278,0.317 -0.601,0.712 -0.95,1.181 -0.36,0.462 -0.757,0.991 -1.151,1.592 -0.829,1.181 -1.689,2.626 -2.545,4.207 -0.407,0.8 -0.863,1.612 -1.246,2.472 -0.405,0.852 -0.79,1.726 -1.181,2.598 -0.357,0.885 -0.715,1.769 -1.066,2.64 -0.355,0.869 -0.647,1.744 -0.957,2.581 -0.6,1.68 -1.116,3.262 -1.533,4.627 C 0.452,-1.871 0,0 0,0" /></g></g></g></g><g
         id="g1200"><g
           id="g1202" /><g
           id="g1214"><g
             style="opacity:0.42999303"
             id="g1212"
             clip-path="url(#clipPath1206)"><g
               id="g1210"
               transform="translate(69.8614,87.0137)"><path
                 inkscape:connector-curvature="0"
                 id="path1208"
                 style="fill:#bc9b9b;fill-opacity:1;fill-rule:nonzero;stroke:none"
                 d="m 0,0 c 0,0 -0.023,0.07 -0.065,0.201 -0.032,0.135 -0.129,0.315 -0.158,0.577 -0.046,0.262 -0.096,0.593 -0.08,0.963 0.004,0.372 0.039,0.803 0.163,1.253 0.102,0.457 0.281,0.939 0.536,1.418 0.254,0.479 0.57,0.97 0.986,1.404 0.407,0.439 0.882,0.859 1.433,1.192 0.559,0.315 1.159,0.605 1.813,0.754 0.32,0.093 0.661,0.101 0.989,0.146 L 6.08,7.917 C 6.214,7.922 6.411,7.905 6.572,7.897 7.235,7.858 7.822,7.694 8.384,7.509 9.496,7.117 10.399,6.541 11.096,5.988 c 0.706,-0.545 1.215,-1.077 1.561,-1.455 0.344,-0.382 0.522,-0.618 0.522,-0.618 0,0 -0.269,0.115 -0.74,0.317 -0.456,0.2 -1.107,0.487 -1.889,0.832 C 9.776,5.384 8.881,5.719 7.932,5.926 7.465,6.037 6.956,6.067 6.497,6.094 6.377,6.093 6.293,6.108 6.143,6.097 L 5.755,6.076 C 5.523,6.028 5.286,6.022 5.058,5.944 4.589,5.862 4.142,5.661 3.714,5.445 3.301,5.201 2.881,4.958 2.529,4.641 2.175,4.33 1.842,4.007 1.565,3.66 1.298,3.309 1.044,2.963 0.858,2.614 0.665,2.268 0.513,1.929 0.398,1.618 0.283,1.303 0.202,1.028 0.147,0.789 0.081,0.552 0.064,0.341 0.036,0.208 0.012,0.072 0,0 0,0" /></g></g></g></g><g
         transform="translate(88.0228,42.483)"
         id="g1216"><path
           inkscape:connector-curvature="0"
           id="path1218"
           style="fill:#f7e7e3;fill-opacity:1;fill-rule:nonzero;stroke:none"
           d="m 0,0 c 0,0 0.53,-0.53 1.457,-1.456 0.921,-0.929 2.289,-2.206 3.957,-3.696 1.664,-1.497 3.707,-3.124 5.952,-4.777 1.123,-0.827 2.307,-1.65 3.541,-2.437 1.237,-0.8 2.492,-1.545 3.827,-2.206 1.315,-0.691 2.673,-1.381 3.938,-2.164 1.253,-0.753 2.492,-1.473 3.774,-1.796 1.276,-0.328 2.569,-0.193 3.697,0.297 1.168,0.501 2.251,1.04 3.236,1.565 1.963,1.062 3.551,2.045 4.626,2.791 1.078,0.741 1.68,1.19 1.68,1.19 0,0 -0.544,-0.516 -1.564,-1.346 -1.029,-0.813 -2.519,-1.97 -4.465,-3.125 -0.971,-0.576 -2.043,-1.173 -3.215,-1.741 -1.2,-0.598 -2.744,-0.85 -4.199,-0.474 -1.458,0.347 -2.769,1.098 -4.046,1.836 -1.253,0.751 -2.579,1.395 -3.923,2.081 -1.339,0.688 -2.651,1.492 -3.875,2.312 -1.239,0.817 -2.426,1.669 -3.55,2.524 C 8.595,-8.916 6.651,-7.13 5.032,-5.563 3.413,-3.993 2.179,-2.575 1.315,-1.588 0.458,-0.593 0,0 0,0" /></g><g
         transform="translate(95.6046,116.4308)"
         id="g1220"><path
           inkscape:connector-curvature="0"
           id="path1222"
           style="fill:#fcc4d2;fill-opacity:1;fill-rule:nonzero;stroke:none"
           d="m 0,0 c -2.655,-5.982 -11.542,-11.347 -17.331,-13.867 5.53,2.407 9.566,-2.179 13.154,-5.71 3.895,-3.834 7.54,-8.002 12.131,-11.041 4.465,-2.955 9.765,-4.73 15.119,-4.684 5.355,0.047 10.736,1.982 14.653,5.633 1.889,1.761 3.467,3.993 3.883,6.542 0.438,2.69 -0.474,5.47 -2.004,7.726 -1.53,2.255 -3.638,4.053 -5.805,5.707 -6.393,4.878 -15.726,7.109 -18.554,15.177 -0.824,2.348 -2.53,7.015 -1.569,9.469 0.187,0.476 0.552,0.857 0.909,1.224 l 8.919,9.177 c 2.211,2.275 4.364,5.513 4.788,8.745 0.32,2.438 -0.567,4.854 -1.439,7.153 C 23.017,51.37 18.921,63.124 9.418,69.417 3.185,73.54 -4.919,74.503 -12.098,72.426 -29.8,67.305 -33.915,49.236 -28.728,33.057 c 0.994,-3.098 2.193,-6.151 3.892,-8.926 2.398,-3.916 5.753,-7.361 9.648,-9.801 4.142,-2.595 9.62,-1.347 13.02,-3.783 C 0.991,8.284 1.576,3.552 0,0" /></g><g
         id="g1224"><g
           id="g1226" /><g
           id="g1238"><g
             style="opacity:0.47999603"
             id="g1236"
             clip-path="url(#clipPath1230)"><g
               id="g1234"
               transform="translate(95.6046,116.4308)"><path
                 inkscape:connector-curvature="0"
                 id="path1232"
                 style="fill:#fcc4d2;fill-opacity:1;fill-rule:nonzero;stroke:none"
                 d="m 0,0 c -2.655,-5.982 -11.542,-11.347 -17.331,-13.867 5.53,2.407 9.566,-2.179 13.154,-5.71 3.895,-3.834 7.54,-8.002 12.131,-11.041 4.465,-2.955 9.765,-4.73 15.119,-4.684 5.355,0.047 10.736,1.982 14.653,5.633 2.7,2.517 4.884,6.264 3.646,10.034 0.259,-2.462 -1.299,-4.872 -3.427,-6.135 -2.128,-1.264 -4.717,-1.533 -7.183,-1.329 -1.393,0.115 -2.781,0.374 -4.082,0.885 -2.873,1.128 -5.122,3.392 -7.324,5.556 C 13.642,-15.04 5.924,-6.977 -2.496,-6.1 0.971,-3.145 3.046,1.377 3.027,5.931 3.036,4.021 7.787,2.305 9.133,1.696 c 3.376,-1.528 6.484,-2.314 10.236,-2.085 -0.657,-0.04 -1.859,1.91 -2.199,2.355 -0.816,1.066 -1.48,2.248 -1.924,3.517 -0.824,2.348 -2.53,7.015 -1.569,9.469 0.187,0.476 0.552,0.857 0.909,1.224 2.175,2.238 4.351,4.477 6.526,6.715 1.583,1.629 3.2,3.245 4.534,5.092 0.631,0.875 1.167,1.797 1.647,2.762 0.511,1.03 0.619,2.042 0.965,3.103 C 27.223,30.672 23.98,28.286 21.211,26.663 19.963,25.932 18.58,25.208 17.206,24.757 14.146,23.752 10.842,23.943 7.823,24.999 6.927,25.313 4.253,26.07 3.996,27.14 3.767,28.097 5.35,30.188 5.722,31.125 8.079,37.048 8.223,43.731 6.777,49.893 4.968,57.606 0.835,64.597 -4,70.873 c 3.121,-0.705 5.866,-2.571 8.867,-3.652 1.581,-0.569 3.206,-1.033 4.866,-1.304 1.232,-0.201 3.692,0.262 4.72,-0.214 -4.773,2.212 -9.547,4.424 -14.32,6.636 -2.168,1.005 -4.651,2.141 -7.107,1.851 -2.086,-0.246 -4.365,-1.446 -6.357,-2.148 -1.681,-0.593 -3.315,-1.279 -4.866,-2.165 -2.816,-1.608 -5.299,-3.766 -7.249,-6.36 -3.884,-5.165 -5.448,-11.702 -5.363,-18.089 0.056,-4.196 0.801,-8.378 2.081,-12.371 0.994,-3.098 2.193,-6.151 3.892,-8.926 2.398,-3.916 5.753,-7.361 9.648,-9.801 4.142,-2.595 9.62,-1.347 13.02,-3.783 C 0.991,8.284 1.576,3.552 0,0" /></g></g></g></g><g
         id="g1240"><g
           id="g1242" /><g
           id="g1254"><g
             style="opacity:0.47999603"
             id="g1252"
             clip-path="url(#clipPath1246)"><g
               id="g1250"
               transform="translate(106.2931,128.4421)"><path
                 inkscape:connector-curvature="0"
                 id="path1248"
                 style="fill:#fcc4d2;fill-opacity:1;fill-rule:nonzero;stroke:none"
                 d="M 0,0 C 0.79,0.774 1.579,1.548 2.369,2.322 3.257,3.193 3.954,4.182 4.848,5.05 6.025,6.192 7.346,7.377 8.317,8.702 6.533,7.296 4.485,6.8 2.328,6.29 0.059,5.754 -2.255,5.413 -4.581,5.268 c -5.318,-0.331 -10.005,0.766 -13.815,4.754 3.307,1.898 6.237,4.452 8.571,7.469 -2.626,-2.088 -5.715,-3.59 -8.978,-4.368 6.086,3.835 9.598,11.389 8.607,18.514 -3,-7.593 -9.298,-13.816 -16.926,-16.725 1.597,-4.771 5.181,-8.843 9.71,-11.033 4.914,-2.377 6.179,-5.986 7.53,-11.113 0.475,-1.801 6.12,3.545 6.438,3.858 C -2.296,-2.251 -1.148,-1.125 0,0" /></g></g></g></g><g
         transform="translate(120.5005,155.8391)"
         id="g1256"><path
           inkscape:connector-curvature="0"
           id="path1258"
           style="fill:#ff6e6e;fill-opacity:1;fill-rule:nonzero;stroke:none"
           d="m 0,0 c -0.961,-0.851 -2.426,-0.656 -3.686,-0.41 -2.358,0.461 -4.715,0.921 -7.072,1.382 1.711,2.749 5.185,3.807 8.297,3.413 -0.99,0.125 0.397,4.716 1.139,5.203 C -0.343,7.969 0.16,5.832 0.591,3.989 0.913,2.611 1.059,0.938 0,0" /></g><g
         id="g1260"><g
           id="g1262" /><g
           id="g1274"><g
             style="opacity:0.69000202"
             id="g1272"
             clip-path="url(#clipPath1266)"><g
               id="g1270"
               transform="translate(109.3843,156.7745)"><path
                 inkscape:connector-curvature="0"
                 id="path1268"
                 style="fill:#915555;fill-opacity:1;fill-rule:nonzero;stroke:none"
                 d="M 0,0 C 0,0 0.205,0.207 0.641,0.488 1.074,0.762 1.745,1.107 2.611,1.332 3.471,1.569 4.513,1.69 5.602,1.74 6.692,1.802 7.838,1.799 8.941,1.953 9.202,1.988 9.524,2.029 9.715,2.084 9.933,2.167 9.939,2.176 9.958,2.281 9.976,2.449 9.946,2.778 9.945,3.047 9.936,3.326 9.928,3.602 9.92,3.873 9.888,4.957 9.879,5.97 9.888,6.839 9.889,7.708 9.932,8.434 9.942,8.941 9.961,9.449 9.986,9.74 9.986,9.74 c 0,0 0.058,-0.286 0.137,-0.788 0.07,-0.503 0.198,-1.219 0.301,-2.082 0.111,-0.862 0.221,-1.869 0.317,-2.949 0.024,-0.27 0.048,-0.545 0.072,-0.823 C 10.83,2.811 10.883,2.576 10.854,2.176 10.84,1.971 10.727,1.684 10.542,1.52 10.361,1.347 10.163,1.264 9.99,1.207 9.627,1.102 9.371,1.076 9.062,1.027 7.868,0.882 6.694,0.903 5.618,0.919 4.541,0.936 3.556,0.918 2.715,0.808 1.878,0.696 1.184,0.524 0.723,0.327 0.259,0.143 0,0 0,0" /></g></g></g></g><g
         id="g1276"><g
           id="g1278" /><g
           id="g1290"><g
             style="opacity:0.52000397"
             id="g1288"
             clip-path="url(#clipPath1282)"><g
               id="g1286"
               transform="translate(108.3142,173.8785)"><path
                 inkscape:connector-curvature="0"
                 id="path1284"
                 style="fill:#bf3b3b;fill-opacity:1;fill-rule:nonzero;stroke:none"
                 d="M 0,0 C 0.217,-0.328 0.438,-0.653 0.669,-0.95 0.912,-1.248 1.176,-1.522 1.436,-1.794 1.708,-2.057 1.992,-2.3 2.281,-2.536 2.577,-2.766 2.888,-2.968 3.198,-3.17 3.516,-3.361 3.843,-3.533 4.178,-3.686 4.513,-3.838 4.855,-3.973 5.204,-4.086 5.556,-4.189 5.911,-4.276 6.269,-4.35 6.63,-4.412 6.992,-4.451 7.358,-4.467 L 7.78,-4.486 7.796,-4.882 c 0.04,-0.992 0.007,-1.986 -0.151,-2.97 -0.087,-0.49 -0.19,-0.98 -0.365,-1.449 -0.17,-0.468 -0.374,-0.932 -0.683,-1.317 0.341,0.92 0.401,1.876 0.427,2.824 0.018,0.95 -0.027,1.904 -0.12,2.848 L 7.342,-5.361 C 6.93,-5.353 6.52,-5.319 6.113,-5.258 5.707,-5.191 5.308,-5.091 4.919,-4.961 4.531,-4.826 4.154,-4.669 3.787,-4.488 3.427,-4.293 3.081,-4.078 2.747,-3.844 2.416,-3.607 2.113,-3.335 1.821,-3.055 1.534,-2.77 1.274,-2.46 1.034,-2.137 0.796,-1.812 0.6,-1.461 0.42,-1.107 0.244,-0.742 0.102,-0.381 0,0" /></g></g></g></g><g
         transform="translate(100.4634,166.6414)"
         id="g1292"><path
           inkscape:connector-curvature="0"
           id="path1294"
           style="fill:#000000;fill-opacity:1;fill-rule:nonzero;stroke:none"
           d="M 0,0 C 0,0 0.028,0.1 0.09,0.267 0.153,0.427 0.289,0.674 0.495,0.911 0.704,1.147 0.991,1.402 1.35,1.584 1.529,1.674 1.718,1.772 1.923,1.825 2.126,1.889 2.338,1.929 2.552,1.966 2.982,2.007 3.422,1.982 3.813,1.871 4.207,1.773 4.547,1.587 4.798,1.392 4.924,1.297 5.042,1.188 5.097,1.126 5.163,1.069 5.19,1.046 5.214,1.037 5.251,1.054 5.265,1.132 5.247,1.156 5.23,1.189 5.195,1.179 5.195,1.179 5.196,1.172 5.208,1.214 5.274,1.199 5.331,1.176 5.41,1.102 5.383,0.96 5.33,0.78 5.089,0.756 4.951,0.8 4.833,0.834 4.7,0.872 4.554,0.914 4.03,1.061 3.34,1.12 2.662,1.038 1.982,0.96 1.319,0.742 0.829,0.493 0.583,0.364 0.387,0.256 0.236,0.154 0.09,0.053 0,0 0,0" /></g><g
         transform="translate(112.8676,173.2007)"
         id="g1296"><path
           inkscape:connector-curvature="0"
           id="path1298"
           style="fill:#000000;fill-opacity:1;fill-rule:nonzero;stroke:none"
           d="m 0,0 c 0,0 -0.056,0.03 -0.141,0.087 -0.079,0.05 -0.2,0.175 -0.286,0.326 -0.1,0.153 -0.167,0.355 -0.199,0.579 -0.032,0.224 -0.001,0.465 0.054,0.699 0.138,0.465 0.481,0.849 0.812,0.999 0.326,0.163 0.584,0.116 0.584,0.116 0,0 -0.083,-0.199 -0.206,-0.497 C 0.513,2.044 0.413,1.735 0.324,1.428 0.233,1.123 0.149,0.809 0.094,0.528 0.068,0.385 0.036,0.274 0.028,0.164 0.015,0.062 0,0 0,0" /></g><g
         transform="translate(51.5356,133.4307)"
         id="g1300"><path
           inkscape:connector-curvature="0"
           id="path1302"
           style="fill:#f3d56f;fill-opacity:1;fill-rule:nonzero;stroke:none"
           d="m 0,0 c -6.534,5.696 -9.024,14.838 -9.248,23.502 -0.154,5.99 0.636,12.076 3.011,17.577 2.375,5.5 6.426,10.386 11.754,13.127 2.659,1.368 5.896,2.169 8.611,0.915 2.337,-1.08 3.833,-3.469 6.103,-4.684 4.694,6.446 12.892,10.164 20.834,9.451 8.24,-0.74 17.859,-5.817 21.69,-13.338 0.704,-1.382 1.252,-2.838 1.784,-4.296 0.967,-2.65 1.886,-5.318 2.757,-8.002 -1.675,2.374 -3.148,4.843 -4.65,7.319 -1.69,2.779 -3.19,7.035 -6.696,7.368 -4.812,0.457 -9.403,2.823 -13.632,5.017 -1.534,0.796 -3.153,1.616 -4.932,1.289 3.446,-4.147 6.121,-9.558 8.294,-14.59 2.03,-4.702 3.64,-9.678 3.769,-14.798 0.129,-5.121 -1.36,-10.431 -4.862,-14.17 C 42.619,9.585 39.925,7.977 37.069,7.562 35.691,7.361 34.146,7.255 32.747,7.388 c -1.467,0.139 -2.861,1.075 -4.23,1.204 2.448,-0.231 4.931,-0.338 7.353,0.085 2.422,0.424 4.798,1.414 6.554,3.136 1.306,1.279 2.408,3.43 3.085,5.112 2.39,5.937 1.454,12.607 -0.419,18.544 -0.256,-3.69 0.862,-7.481 0.584,-11.254 C 45.406,20.594 44.358,16.939 42.091,14.104 39.823,11.269 36.208,9.377 32.598,9.759 38.8,10.876 43.774,16.803 43.797,23.105 42.263,18.599 39.073,14.865 35.303,12.039 34.489,11.428 29.094,7.768 28.14,8.625 31.848,5.291 34.46,2.138 39.315,0.431 c 1.024,-0.36 2.077,-0.713 2.935,-1.38 2.195,-1.706 2.486,-4.893 2.253,-7.663 -0.016,-0.199 -0.038,-0.407 -0.148,-0.574 -0.139,-0.213 -0.391,-0.317 -0.628,-0.408 -2.512,-0.959 -5.142,-2.25 -7.646,-0.474 -1.432,1.015 -2.232,2.93 -1.753,4.619 -0.942,-3.325 -5.677,-3.465 -8.363,-3.373 -5.387,0.185 -10.716,1.366 -15.78,3.212 C 6.522,-4.275 2.938,-2.562 0,0" /></g><g
         transform="translate(93.2987,169.8042)"
         id="g1304"><path
           inkscape:connector-curvature="0"
           id="path1306"
           style="fill:#cc9035;fill-opacity:1;fill-rule:nonzero;stroke:none"
           d="M 0,0 C 0,0 -0.045,0.041 -0.128,0.117 -0.201,0.2 -0.339,0.295 -0.456,0.466 -0.575,0.636 -0.75,0.869 -0.86,1.135 c -0.139,0.268 -0.256,0.583 -0.355,0.941 -0.088,0.356 -0.153,0.75 -0.178,1.172 -0.018,0.42 -0.002,0.867 0.064,1.325 0.133,0.914 0.466,1.876 1.047,2.75 C 0.01,7.755 0.362,8.172 0.788,8.52 0.986,8.704 1.239,8.85 1.466,8.997 1.654,9.103 1.679,9.103 1.792,9.161 1.924,9.224 2.072,9.28 2.21,9.332 3.223,9.679 4.212,9.606 4.964,9.344 5.723,9.065 6.224,8.612 6.468,8.249 6.596,8.07 6.665,7.913 6.708,7.807 6.746,7.7 6.767,7.644 6.767,7.644 c 0,0 -0.24,0.08 -0.609,0.141 C 5.788,7.847 5.288,7.845 4.77,7.731 4.251,7.613 3.698,7.39 3.244,7.071 3.202,7.034 3.169,7.001 3.12,6.97 3.059,6.922 2.907,6.818 2.92,6.815 2.827,6.702 2.719,6.628 2.621,6.511 2.428,6.29 2.222,6.048 2.046,5.764 1.851,5.496 1.692,5.186 1.518,4.885 1.362,4.572 1.208,4.257 1.068,3.939 0.795,3.302 0.566,2.669 0.402,2.098 0.235,1.527 0.131,1.015 0.069,0.644 0.028,0.247 0,0 0,0" /></g><g
         transform="translate(107.9025,180.69)"
         id="g1308"><path
           inkscape:connector-curvature="0"
           id="path1310"
           style="fill:#cc9035;fill-opacity:1;fill-rule:nonzero;stroke:none"
           d="m 0,0 c 0,0 -0.142,0.047 -0.333,0.162 -0.196,0.129 -0.437,0.332 -0.65,0.618 -0.206,0.289 -0.384,0.661 -0.441,1.13 -0.028,0.234 -0.031,0.493 0.038,0.784 0.052,0.284 0.19,0.609 0.427,0.928 0.241,0.31 0.619,0.597 1.019,0.717 C 0.462,4.473 0.821,4.452 1.127,4.395 1.168,4.368 1.472,4.316 1.554,4.253 1.684,4.189 1.804,4.124 1.908,4.043 2.118,3.885 2.275,3.7 2.387,3.515 2.607,3.139 2.634,2.772 2.595,2.535 2.557,2.295 2.471,2.17 2.471,2.17 c 0,0 -0.149,0.044 -0.349,0.07 C 1.917,2.264 1.666,2.259 1.446,2.19 1.34,2.159 1.242,2.117 1.166,2.066 1.127,2.039 1.096,2.02 1.068,1.989 1.053,1.974 1.038,1.962 1.052,1.947 1.069,1.933 1.069,1.923 1.008,1.911 0.981,1.857 0.992,1.806 1.064,1.812 1.138,1.804 1.222,1.871 1.249,1.896 1.27,1.931 1.247,1.932 1.204,1.879 1.163,1.836 1.104,1.752 1.042,1.655 0.889,1.401 0.746,1.165 0.624,0.962 0.471,0.717 0.324,0.484 0.201,0.309 0.089,0.123 0,0 0,0" /></g><g
         transform="translate(88.0255,193.532)"
         id="g1312"><path
           inkscape:connector-curvature="0"
           id="path1314"
           style="fill:#ffffff;fill-opacity:1;fill-rule:nonzero;stroke:none"
           d="m 0,0 c -14.027,-1.605 -24.587,-16.115 -24.66,-29.709 -0.032,-5.975 1.28,-12.385 3.707,-17.857 1.113,-2.51 2.523,-4.892 4.212,-7.059 0.873,-1.121 1.82,-2.184 2.837,-3.176 0.817,-0.797 2.428,-1.643 3.012,-2.575 -7.829,12.482 -10.314,28.604 -4.949,42.327 2.859,7.312 8.794,12.413 16.104,15.095 3.59,1.317 7.507,1.863 11.277,1.225 C 7.858,-0.429 3.893,0.445 0,0" /></g><g
         transform="translate(72.0464,188.9452)"
         id="g1316"><path
           inkscape:connector-curvature="0"
           id="path1318"
           style="fill:#fcc4d2;fill-opacity:1;fill-rule:nonzero;stroke:none"
           d="M 0,0 C 0.421,0.01 0.821,-0.286 1.235,-0.208 0.516,0.133 0.026,0.909 0.026,1.705 0.025,2.501 0.515,3.277 1.233,3.619 1.377,3.688 1.533,3.741 1.692,3.731 2.188,3.699 2.43,3.132 2.618,2.673 2.806,2.213 3.239,1.699 3.697,1.89 3.604,2.462 3.512,3.057 3.672,3.614 3.833,4.171 4.325,4.678 4.905,4.656 5.583,4.631 6.053,3.893 6.04,3.215 6.028,2.537 5.671,1.92 5.325,1.337 5.997,2.149 7.092,2.591 8.14,2.473 8.503,2.432 8.878,2.317 9.121,2.045 9.625,1.484 9.297,0.52 8.666,0.107 8.035,-0.306 7.234,-0.323 6.48,-0.327 6.953,-0.963 7.311,-1.753 7.168,-2.532 7.024,-3.311 6.209,-3.988 5.454,-3.747 4.65,-3.491 4.414,-2.488 4.308,-1.651 4.479,-2.399 4.648,-3.19 4.421,-3.922 4.193,-4.655 3.412,-5.276 2.681,-5.043 2.09,-4.855 1.76,-4.176 1.802,-3.557 1.843,-2.938 2.177,-2.376 2.554,-1.884 1.9,-2.77 0.463,-2.931 -0.371,-2.211 -0.736,-1.895 -0.985,-1.418 -0.935,-0.938 -0.885,-0.459 -0.482,-0.012 0,0" /></g><g
         transform="translate(66.7296,183.3317)"
         id="g1320"><path
           inkscape:connector-curvature="0"
           id="path1322"
           style="fill:#f7e7e3;fill-opacity:1;fill-rule:nonzero;stroke:none"
           d="M 0,0 C 0.314,0.533 1.004,0.968 1.534,0.65 1.739,0.527 1.873,0.318 1.992,0.111 c 0.466,-0.803 0.83,-1.665 1.08,-2.56 0.199,0.967 0.901,1.815 1.814,2.19 0.139,0.058 0.294,0.105 0.438,0.061 0.127,-0.039 0.223,-0.143 0.303,-0.249 0.806,-1.059 0.515,-2.777 -0.595,-3.512 0.608,0.532 1.631,0.495 2.198,-0.08 0.568,-0.575 0.591,-1.598 0.051,-2.199 -0.54,-0.601 -1.56,-0.685 -2.192,-0.182 0.402,-0.803 0.647,-1.684 0.718,-2.579 0.065,-0.81 -0.144,-1.81 -0.918,-2.06 -0.605,-0.195 -1.273,0.213 -1.587,0.766 -0.314,0.553 -0.36,1.214 -0.398,1.848 -0.056,-0.801 0.151,-1.609 0.042,-2.405 -0.11,-0.796 -0.718,-1.634 -1.518,-1.567 -1.389,0.115 -1.185,1.86 -1.163,2.747 -0.908,-0.112 -1.657,-0.845 -2.635,-0.566 -0.915,0.261 -1.524,1.411 -1.065,2.244 0.151,0.275 0.391,0.49 0.636,0.687 0.667,0.535 1.406,0.981 2.191,1.322 -0.77,0.096 -1.58,0.208 -2.199,0.677 -0.618,0.47 -0.939,1.425 -0.467,2.042 1.484,1.938 2.347,-0.442 3.618,-0.821 C -0.28,-2.857 -0.758,-1.286 0,0" /></g><g
         transform="translate(69.022,166.4625)"
         id="g1324"><path
           inkscape:connector-curvature="0"
           id="path1326"
           style="fill:#fcc4d2;fill-opacity:1;fill-rule:nonzero;stroke:none"
           d="m 0,0 c 0.178,-0.113 0.275,-0.315 0.359,-0.508 0.254,-0.581 0.477,-1.215 0.362,-1.838 -0.116,-0.623 -0.694,-1.202 -1.32,-1.097 0.873,-0.372 1.568,-1.14 1.851,-2.046 0.135,-0.432 0.175,-0.915 -0.009,-1.33 -0.271,-0.608 -1.022,-0.934 -1.67,-0.778 -0.647,0.157 -1.151,0.742 -1.278,1.396 0.3,-0.618 0.606,-1.257 0.639,-1.943 0.033,-0.686 -0.278,-1.437 -0.909,-1.709 -0.65,-0.28 -1.459,0.059 -1.835,0.66 -0.375,0.6 -0.365,1.384 -0.112,2.045 0.033,-0.763 -0.216,-1.534 -0.689,-2.135 -0.164,-0.208 -0.371,-0.406 -0.633,-0.453 -0.208,-0.038 -0.422,0.026 -0.611,0.12 -0.657,0.326 -1.099,1.045 -1.093,1.779 0.006,0.733 0.459,1.445 1.121,1.761 -0.738,-0.492 -1.731,-0.572 -2.539,-0.207 -0.436,0.197 -0.836,0.547 -0.943,1.013 -0.127,0.555 0.199,1.136 0.657,1.473 0.458,0.338 1.027,0.483 1.581,0.614 -0.772,0.154 -1.418,0.81 -1.56,1.584 -0.142,0.774 0.229,1.617 0.895,2.035 0.245,0.153 0.546,0.253 0.822,0.169 0.252,-0.076 0.436,-0.288 0.605,-0.49 0.579,-0.692 1.157,-1.385 1.736,-2.077 -0.262,0.609 -0.403,1.288 -0.281,1.94 0.122,0.652 0.536,1.268 1.146,1.527 0.222,0.093 0.491,0.134 0.693,0.002 0.157,-0.102 0.237,-0.286 0.304,-0.461 0.381,-1.006 0.556,-2.09 0.512,-3.165 0.221,0.608 0.551,1.177 0.971,1.669 C -0.918,-0.087 -0.403,0.256 0,0" /></g><g
         transform="translate(84.5274,111.0051)"
         id="g1328"><path
           inkscape:connector-curvature="0"
           id="path1330"
           style="fill:#f7e7e3;fill-opacity:1;fill-rule:nonzero;stroke:none"
           d="m 0,0 c -13.106,3.889 -27.747,3.304 -41.037,0.524 -3,-0.627 -5.994,-2.068 -7.478,-4.905 -1.2,-2.294 -0.393,-3.713 1.656,-5.129 9.073,-6.267 20.42,-6.343 30.996,-5.889 5.051,0.217 10.121,0.157 15.156,-0.323 5.881,-0.56 11.685,-0.807 17.373,-2.395 0.895,-0.25 1.816,-0.572 2.453,-1.248 1.128,-1.199 1.014,-3.053 1.244,-4.684 0.323,-2.298 1.445,-4.394 2.505,-6.459 2.718,-5.297 5.607,-10.834 7.174,-16.58 0.119,-0.44 0.247,-0.903 0.573,-1.221 0.325,-0.318 0.92,-0.408 1.215,-0.061 0.209,0.246 0.196,0.606 0.169,0.929 -0.292,3.485 -0.889,6.935 -1.558,10.355 -0.011,0.057 -0.022,0.115 -0.011,0.172 0.033,0.172 0.237,0.243 0.408,0.281 0.059,0.014 0.125,0.026 0.178,-0.003 0.047,-0.025 0.072,-0.075 0.095,-0.123 1.84,-3.825 2.665,-7.983 3.348,-12.154 0.089,-0.546 0.18,-1.097 0.4,-1.604 0.11,-0.252 0.268,-0.507 0.523,-0.611 0.41,-0.168 0.889,0.15 1.057,0.56 0.315,0.769 0.195,2.044 0.179,2.86 -0.026,1.263 -0.09,2.525 -0.195,3.784 -0.214,2.581 -0.596,5.148 -1.142,7.679 0.235,-1.088 0.794,-2.16 1.082,-3.25 0.317,-1.204 0.553,-2.429 0.722,-3.663 0.338,-2.468 0.279,-4.953 0.335,-7.441 0.006,-0.264 0.013,-0.535 0.121,-0.776 0.108,-0.241 0.342,-0.445 0.605,-0.433 0.199,0.008 0.374,0.134 0.511,0.278 0.391,0.41 0.567,0.976 0.696,1.528 0.518,2.203 0.498,4.492 0.475,6.755 0.006,-0.611 0.268,-1.253 0.286,-1.88 0.018,-0.659 0.037,-1.309 0.11,-1.978 0.041,-0.372 0.134,-0.815 0.484,-0.948 0.51,-0.193 0.922,0.449 1.068,0.975 0.865,3.138 0.664,6.455 0.146,9.615 -0.612,3.73 -1.268,7.524 -2.741,11.028 -2.569,6.114 -6.8,11.85 -12.777,14.809 C 17.715,-7.323 9.308,-2.762 0,0" /></g><g
         id="g1332"><g
           id="g1334" /><g
           id="g1346"><g
             id="g1344"
             clip-path="url(#clipPath1338)"><g
               id="g1342"
               transform="translate(98.7479,102.7328)"><path
                 inkscape:connector-curvature="0"
                 id="path1340"
                 style="fill:#f7e7e3;fill-opacity:1;fill-rule:nonzero;stroke:none"
                 d="m 0,0 c -1.416,-2.432 -2.672,-4.958 -3.756,-7.554 -0.093,-0.223 -0.178,-0.501 -0.024,-0.687 0.09,-0.108 0.237,-0.148 0.374,-0.182 1.943,-0.484 3.928,-0.885 5.852,-1.422 0.895,-0.249 1.815,-0.571 2.452,-1.248 1.129,-1.199 1.015,-3.053 1.244,-4.684 0.324,-2.298 1.445,-4.394 2.505,-6.459 2.719,-5.296 5.607,-10.834 7.174,-16.58 0.12,-0.439 0.247,-0.903 0.573,-1.221 0.326,-0.318 0.921,-0.408 1.215,-0.061 0.21,0.247 0.196,0.607 0.169,0.929 -0.292,3.486 -0.889,6.935 -1.557,10.355 -0.011,0.057 -0.022,0.115 -0.011,0.172 0.033,0.172 0.236,0.243 0.408,0.282 0.059,0.013 0.124,0.026 0.178,-0.003 0.046,-0.026 0.072,-0.076 0.095,-0.124 1.84,-3.825 2.664,-7.982 3.347,-12.154 0.09,-0.545 0.181,-1.097 0.401,-1.604 0.109,-0.252 0.268,-0.507 0.522,-0.611 0.41,-0.168 0.889,0.15 1.057,0.56 0.315,0.769 0.195,2.044 0.179,2.86 -0.025,1.263 -0.09,2.525 -0.194,3.784 -0.215,2.581 -0.596,5.148 -1.143,7.679 0.235,-1.088 0.795,-2.159 1.082,-3.249 0.318,-1.205 0.553,-2.43 0.722,-3.663 0.339,-2.468 0.279,-4.954 0.335,-7.442 0.006,-0.263 0.014,-0.535 0.121,-0.776 0.108,-0.24 0.342,-0.445 0.606,-0.433 0.198,0.008 0.373,0.134 0.51,0.278 0.392,0.41 0.567,0.976 0.697,1.528 0.517,2.203 0.497,4.492 0.474,6.755 0.007,-0.611 0.268,-1.253 0.286,-1.88 0.019,-0.659 0.037,-1.309 0.111,-1.978 0.04,-0.372 0.133,-0.815 0.483,-0.947 0.511,-0.193 0.923,0.448 1.068,0.974 0.866,3.139 0.664,6.455 0.146,9.615 -0.532,3.245 -0.909,6.862 -2.366,9.848 0.638,-1.308 0.734,-3.174 1.094,-4.594 0.435,-1.721 0.689,-3.489 0.754,-5.263 0.004,-0.098 -0.003,-0.216 -0.088,-0.266 -0.127,-0.075 -0.267,0.078 -0.331,0.212 -0.244,0.517 -0.376,1.078 -0.526,1.63 -0.475,1.745 -1.15,3.435 -2.007,5.027 -0.118,0.22 -0.264,0.457 -0.505,0.522 -0.353,0.097 -0.697,-0.262 -0.733,-0.626 -0.036,-0.365 0.134,-0.714 0.292,-1.044 1.565,-3.284 2.234,-7.439 1.749,-11.063 -0.012,-0.085 -0.025,-0.173 -0.078,-0.241 -0.109,-0.142 -0.345,-0.118 -0.48,0 -0.134,0.119 -0.194,0.299 -0.248,0.47 -0.642,2.04 -1.047,4.451 -1.971,6.353 -0.525,1.082 -1.28,2.102 -2.345,2.665 0.393,-1.343 0.581,-2.745 0.557,-4.144 -1.32,1.457 -2.516,3.512 -2.747,5.501 -0.233,2.005 -0.887,3.827 -1.76,5.678 -0.449,0.952 -0.957,1.892 -1.667,2.668 -0.329,0.359 -0.701,0.683 -0.973,1.087 -0.276,0.41 -0.438,0.885 -0.597,1.353 -0.412,1.216 -0.824,2.432 -1.237,3.647 -0.047,0.139 -0.094,0.285 -0.068,0.43 0.032,0.172 0.162,0.306 0.286,0.429 1.204,1.182 2.494,2.277 3.856,3.272 -0.767,1.05 -2.247,1.727 -3.378,2.287 C 11.274,-2.903 1.316,2.16 1.35,2.214 0.885,1.485 0.435,0.747 0,0" /></g></g></g></g><g
         id="g1348"><g
           id="g1350" /><g
           id="g1362"><g
             style="opacity:0.47000104"
             id="g1360"
             clip-path="url(#clipPath1354)"><g
               id="g1358"
               transform="translate(122.7354,59.3939)"><path
                 inkscape:connector-curvature="0"
                 id="path1356"
                 style="fill:#aa7171;fill-opacity:1;fill-rule:nonzero;stroke:none"
                 d="m 0,0 c 0,0 0.09,-0.007 0.217,0.072 0.128,0.077 0.257,0.259 0.362,0.514 0.238,0.518 0.384,1.308 0.418,2.274 0.02,0.982 0.042,2.127 0.066,3.354 0.02,1.228 0.056,2.532 0.02,3.831 -0.015,1.299 -0.103,2.591 -0.242,3.795 -0.078,0.6 -0.152,1.183 -0.26,1.727 -0.097,0.548 -0.22,1.059 -0.328,1.535 -0.249,0.939 -0.482,1.725 -0.688,2.261 -0.207,0.534 -0.316,0.849 -0.316,0.849 0,0 0.182,-0.275 0.481,-0.772 C 0.01,18.934 0.407,18.199 0.765,17.263 1.121,16.327 1.438,15.195 1.655,13.96 1.879,12.726 1.982,11.391 2.017,10.063 2.034,8.733 1.982,7.408 1.883,6.175 1.783,4.937 1.678,3.803 1.529,2.806 1.388,1.808 1.058,0.994 0.74,0.503 0.589,0.244 0.392,0.082 0.239,0.027 0.084,-0.028 -0.002,0.005 0,0" /></g></g></g></g><g
         id="g1364"><g
           id="g1366" /><g
           id="g1378"><g
             style="opacity:0.47000104"
             id="g1376"
             clip-path="url(#clipPath1370)"><g
               id="g1374"
               transform="translate(120.6104,59.965)"><path
                 inkscape:connector-curvature="0"
                 id="path1372"
                 style="fill:#aa7171;fill-opacity:1;fill-rule:nonzero;stroke:none"
                 d="m 0,0 c 0,0 0.1,0.274 0.143,0.762 0.059,0.485 -0.01,1.192 -0.017,2.05 -0.02,0.849 -0.044,1.839 -0.07,2.9 -0.041,1.058 -0.081,2.182 -0.181,3.299 -0.046,0.558 -0.096,1.116 -0.171,1.661 -0.078,0.544 -0.141,1.083 -0.242,1.596 -0.173,1.034 -0.425,1.978 -0.659,2.787 -0.137,0.396 -0.233,0.774 -0.362,1.092 -0.123,0.32 -0.215,0.61 -0.325,0.832 -0.202,0.453 -0.308,0.722 -0.308,0.722 0,0 0.175,-0.224 0.467,-0.635 0.153,-0.202 0.296,-0.471 0.481,-0.771 0.193,-0.298 0.36,-0.657 0.549,-1.05 0.181,-0.394 0.359,-0.831 0.521,-1.302 0.16,-0.472 0.322,-0.973 0.441,-1.503 0.129,-0.528 0.249,-1.077 0.33,-1.641 C 0.685,10.236 0.75,9.663 0.806,9.088 0.842,8.513 0.878,7.937 0.888,7.371 0.912,6.805 0.885,6.249 0.877,5.711 0.843,4.636 0.755,3.638 0.66,2.785 0.562,1.94 0.463,1.221 0.321,0.728 0.175,0.235 0,0 0,0" /></g></g></g></g><g
         id="g1380"><g
           id="g1382" /><g
           id="g1394"><g
             style="opacity:0.49000501"
             id="g1392"
             clip-path="url(#clipPath1386)"><g
               id="g1390"
               transform="translate(114.0299,76.7484)"><path
                 inkscape:connector-curvature="0"
                 id="path1388"
                 style="fill:#aa7171;fill-opacity:1;fill-rule:nonzero;stroke:none"
                 d="m 0,0 c 0,0 0.373,-0.878 0.808,-2.231 0.432,-1.352 0.898,-3.186 1.244,-5.043 0.162,-0.93 0.317,-1.862 0.419,-2.742 0.049,-0.437 0.097,-0.859 0.142,-1.259 0.053,-0.398 0.092,-0.797 0.093,-1.168 0.026,-0.73 -0.187,-1.433 -0.585,-1.703 -0.185,-0.122 -0.359,-0.205 -0.499,-0.133 -0.105,0.123 0.022,0.177 0.008,0.16 -10e-4,0.018 -0.069,-0.068 0.021,-0.114 0.075,-0.023 0.22,0.1 0.338,0.231 0.263,0.279 0.269,0.85 0.145,1.508 -0.13,0.645 -0.373,1.473 -0.532,2.334 -0.185,0.861 -0.352,1.784 -0.533,2.705 -0.336,1.845 -0.635,3.698 -0.819,5.1 -0.098,0.7 -0.143,1.293 -0.195,1.703 C 0.012,-0.239 0,0 0,0" /></g></g></g></g><g
         transform="translate(106.362,104.2327)"
         id="g1396"><path
           inkscape:connector-curvature="0"
           id="path1398"
           style="fill:#ffffff;fill-opacity:1;fill-rule:nonzero;stroke:none"
           d="m 0,0 c -0.538,-0.1 -0.945,-0.53 -1.312,-0.937 -2.736,-3.034 -5.588,-6.3 -6.271,-10.327 1.729,-0.534 3.275,-1.643 4.334,-3.11 1.955,4.48 5.4,8.294 9.659,10.692 -1.429,1.545 -3.225,2.75 -5.198,3.485 C 0.824,-0.053 0.408,0.076 0,0" /></g><g
         transform="translate(108.9623,103.7568)"
         id="g1400"><path
           inkscape:connector-curvature="0"
           id="path1402"
           style="fill:#3f4a69;fill-opacity:1;fill-rule:nonzero;stroke:none"
           d="M 0,0 C 0.282,0.179 0.569,0.35 0.861,0.513 -4.344,3.481 -9.7,5.359 -15.328,7.26 c -5.948,2.008 -12.114,3.336 -18.335,4.144 -7.896,1.025 -15.989,1.286 -23.852,-0.149 -4.513,-0.823 -10.384,-1.333 -13.648,-4.917 -1.73,-1.9 -2.718,-4.458 -2.715,-7.027 0.002,-0.963 0.283,-1.164 1.051,-1.664 7.833,-5.106 17.297,-6.943 26.503,-7.388 5.565,-0.269 11.167,0.255 16.71,0.245 5.852,-0.012 11.988,-0.813 17.729,-1.905 1.435,-0.272 3.043,-0.719 3.711,-2.018 -0.907,1.763 1.358,5.793 2.224,7.248 C -4.477,-3.693 -2.435,-1.548 0,0" /></g><g
         transform="translate(206.2167,110.5076)"
         id="g1404"><path
           inkscape:connector-curvature="0"
           id="path1406"
           style="fill:#ff6e6e;fill-opacity:1;fill-rule:nonzero;stroke:none"
           d="m 0,0 c -0.502,4.791 1.97,9.508 5.433,12.857 3.462,3.349 7.837,5.566 12.141,7.728 C 17.738,15.638 15.992,10.65 12.778,6.885 9.564,3.12 4.912,0.614 0,0" /></g><g
         transform="translate(197.1235,115.3033)"
         id="g1408"><path
           inkscape:connector-curvature="0"
           id="path1410"
           style="fill:#ff6e6e;fill-opacity:1;fill-rule:nonzero;stroke:none"
           d="m 0,0 c 0.025,-0.092 0.049,-0.184 0.073,-0.276 1.155,-4.436 -1.438,-6.971 -1.438,-11.229 -0.468,2.037 -2.486,2.817 -3.826,4.16 -1.556,1.559 -2.194,3.198 -2.528,5.402 -0.4,2.633 0.068,5.315 0.506,7.91 0.2,1.184 1.719,5.837 0.988,6.811 C -3.362,8.967 -1.236,4.604 0,0" /></g><g
         transform="translate(193.4096,82.0033)"
         id="g1412"><path
           inkscape:connector-curvature="0"
           id="path1414"
           style="fill:#ff6e6e;fill-opacity:1;fill-rule:nonzero;stroke:none"
           d="m 0,0 c -0.274,2.931 1.166,5.833 3.277,7.885 2.11,2.052 4.828,3.362 7.582,4.402 2.753,1.041 5.598,1.851 8.269,3.089 C 18.612,13.952 18.095,12.527 17.579,11.102 16.952,9.372 16.319,7.628 15.359,6.059 12.277,1.02 5.691,-1.578 0,0" /></g><g
         transform="translate(208.0929,74.7266)"
         id="g1416"><path
           inkscape:connector-curvature="0"
           id="path1418"
           style="fill:#ff6e6e;fill-opacity:1;fill-rule:nonzero;stroke:none"
           d="m 0,0 c -1.629,-6.092 -3.789,-12.206 -7.793,-17.078 -4.003,-4.872 -10.168,-8.342 -16.443,-7.713 0.69,3.539 1.389,7.105 2.77,10.435 1.381,3.331 3.51,6.45 6.534,8.414 1.701,1.105 3.625,1.81 5.53,2.506 C -6.268,-2.29 -3.134,-1.145 0,0" /></g><g
         transform="translate(163.3973,56.5837)"
         id="g1420"><path
           inkscape:connector-curvature="0"
           id="path1422"
           style="fill:#ff9393;fill-opacity:1;fill-rule:nonzero;stroke:none"
           d="m 0,0 c 0.487,-3.675 0.974,-7.408 0.434,-11.076 -0.54,-3.668 -2.252,-7.328 -5.331,-9.393 -1.458,-0.978 -3.15,-1.558 -4.624,-2.511 -0.484,3.116 -0.959,6.362 -0.02,9.371 0.861,2.76 2.817,5.017 4.651,7.252 C -3.194,-4.29 -1.563,-2.169 0,0" /></g><g
         transform="translate(176.5407,38.886)"
         id="g1424"><path
           inkscape:connector-curvature="0"
           id="path1426"
           style="fill:#ff6e6e;fill-opacity:1;fill-rule:nonzero;stroke:none"
           d="M 0,0 C 1.998,-0.369 3.853,-1.278 5.806,-1.843 6.89,-2.157 8.025,-2.365 9.147,-2.238 6.318,-4.022 3.244,-5.608 -0.087,-5.914 -3.418,-6.22 -7.062,-5.004 -8.874,-2.192 -6.407,-0.249 -3.088,0.571 0,0" /></g><g
         transform="translate(185.1352,67.9899)"
         id="g1428"><path
           inkscape:connector-curvature="0"
           id="path1430"
           style="fill:#bf3b3b;fill-opacity:1;fill-rule:nonzero;stroke:none"
           d="m 0,0 c 0,0 0.024,0.204 0.07,0.586 0.048,0.382 0.103,0.944 0.229,1.655 0.228,1.424 0.635,3.447 1.308,5.828 0.657,2.385 1.582,5.119 2.661,7.999 0.547,1.437 1.093,2.927 1.689,4.42 0.587,1.497 1.183,3.016 1.725,4.534 0.562,1.513 1.074,3.033 1.465,4.548 0.38,1.515 0.694,3.014 0.799,4.477 0.103,1.46 0.066,2.877 -0.173,4.192 -0.244,1.313 -0.665,2.533 -1.085,3.675 -0.43,1.143 -0.822,2.22 -1.087,3.207 -0.276,0.983 -0.397,1.882 -0.401,2.618 -0.018,0.738 0.106,1.307 0.196,1.682 0.112,0.37 0.171,0.567 0.171,0.567 0,0 -0.022,-0.203 -0.064,-0.585 -0.025,-0.38 -0.022,-0.94 0.094,-1.63 0.109,-0.691 0.358,-1.504 0.729,-2.406 0.374,-0.904 0.882,-1.891 1.419,-3.003 0.543,-1.113 1.127,-2.368 1.487,-3.808 0.368,-1.433 0.536,-3.002 0.473,-4.604 C 11.644,32.35 11.423,30.709 11.02,29.101 10.628,27.491 10.119,25.898 9.56,24.337 8.979,22.781 8.357,21.262 7.747,19.769 7.141,18.273 6.492,16.827 5.899,15.415 4.693,12.601 3.583,9.98 2.691,7.707 1.806,5.432 1.126,3.509 0.684,2.15 0.233,0.792 0,0 0,0" /></g><g
         transform="translate(194.0283,90.4603)"
         id="g1432"><path
           inkscape:connector-curvature="0"
           id="path1434"
           style="fill:#bf3b3b;fill-opacity:1;fill-rule:nonzero;stroke:none"
           d="m 0,0 c 0,0 0.019,0.156 0.054,0.448 0.036,0.293 0.079,0.723 0.184,1.266 0.192,1.088 0.535,2.637 1.177,4.435 0.638,1.796 1.576,3.838 2.86,5.868 0.645,1.012 1.349,2.04 2.16,3.01 0.794,0.96 1.573,1.894 2.344,2.871 0.785,0.956 1.558,1.923 2.303,2.887 0.747,0.966 1.482,1.916 2.193,2.835 0.703,0.927 1.37,1.826 2.08,2.682 0.705,0.861 1.441,1.597 2.155,2.24 1.42,1.292 2.76,2.164 3.72,2.709 0.963,0.545 1.543,0.79 1.543,0.79 0,0 -0.495,-0.392 -1.312,-1.113 -0.818,-0.719 -1.936,-1.792 -3.128,-3.186 -0.591,-0.699 -1.197,-1.489 -1.786,-2.338 -0.584,-0.856 -1.169,-1.842 -1.841,-2.81 C 14.042,21.623 13.37,20.606 12.621,19.619 11.882,18.626 11.117,17.626 10.333,16.641 9.539,15.672 8.702,14.704 7.912,13.786 7.141,12.876 6.387,11.97 5.732,11.036 5.077,10.103 4.457,9.187 3.912,8.288 3.378,7.384 2.892,6.514 2.465,5.696 1.631,4.051 1.021,2.621 0.619,1.609 0.211,0.597 0,0 0,0" /></g><g
         transform="translate(165.2584,36.8696)"
         id="g1436"><path
           inkscape:connector-curvature="0"
           id="path1438"
           style="fill:#bf3b3b;fill-opacity:1;fill-rule:nonzero;stroke:none"
           d="m 0,0 c 0,0 0.45,0.528 1.239,1.453 0.785,0.924 1.877,2.268 3.295,3.81 0.712,0.768 1.496,1.598 2.404,2.41 0.908,0.811 1.913,1.644 3.099,2.342 0.587,0.356 1.222,0.677 1.902,0.941 0.652,0.265 1.275,0.473 1.889,0.709 1.24,0.469 2.46,1.019 3.606,1.67 1.16,0.627 2.242,1.378 3.234,2.22 0.986,0.848 1.927,1.741 2.77,2.685 1.71,1.898 3.283,3.769 4.763,5.259 1.465,1.508 2.834,2.628 3.84,3.325 0.502,0.353 0.915,0.6 1.199,0.763 0.282,0.163 0.433,0.25 0.433,0.25 0,0 -0.529,-0.458 -1.375,-1.317 -0.849,-0.858 -1.974,-2.148 -3.231,-3.775 -0.62,-0.826 -1.291,-1.72 -2.001,-2.666 C 26.357,19.13 25.61,18.103 24.774,17.092 23.928,16.068 23.007,15.021 21.928,14.091 20.86,13.154 19.672,12.295 18.407,11.589 17.134,10.894 15.813,10.328 14.498,9.856 13.838,9.607 13.169,9.416 12.572,9.21 11.997,9.021 11.435,8.774 10.898,8.484 8.736,7.333 6.9,5.764 5.328,4.44 3.769,3.09 2.462,1.94 1.516,1.171 0.568,0.4 0,0 0,0" /></g><g
         transform="translate(141.8768,27.8441)"
         id="g1440"><path
           inkscape:connector-curvature="0"
           id="path1442"
           style="fill:#bf3b3b;fill-opacity:1;fill-rule:nonzero;stroke:none"
           d="m 0,0 c 0,0 1.483,0.792 3.782,1.726 1.131,0.479 2.535,0.984 3.919,1.507 0.672,0.258 1.353,0.607 1.858,0.972 0.305,0.242 0.703,0.491 0.917,0.73 0.254,0.229 0.509,0.475 0.752,0.771 0.516,0.538 0.954,1.167 1.365,1.807 0.385,0.662 0.795,1.309 1.135,1.988 0.704,1.337 1.359,2.646 2.038,3.716 0.664,1.08 1.349,1.907 1.868,2.432 0.251,0.269 0.494,0.442 0.636,0.575 0.149,0.127 0.228,0.195 0.228,0.195 0,0 -0.197,-0.365 -0.542,-1.004 C 17.802,15.088 17.603,14.706 17.413,14.247 17.21,13.798 17.019,13.272 16.796,12.708 16.587,12.133 16.361,11.509 16.123,10.85 15.88,10.185 15.638,9.474 15.321,8.749 15.015,8.025 14.68,7.259 14.249,6.52 13.806,5.784 13.321,5.038 12.714,4.369 12.423,4.036 12.08,3.716 11.712,3.409 11.344,3.066 11.03,2.897 10.693,2.644 9.87,2.073 9.051,1.82 8.27,1.572 7.49,1.333 6.762,1.195 6.07,1.036 5.38,0.874 4.719,0.747 4.109,0.63 1.674,0.151 0,0 0,0" /></g><g
         transform="translate(154.4522,31.8787)"
         id="g1444"><path
           inkscape:connector-curvature="0"
           id="path1446"
           style="fill:#bf3b3b;fill-opacity:1;fill-rule:nonzero;stroke:none"
           d="m 0,0 c 0,0 1.25,0.958 3.22,2.207 0.988,0.626 2.174,1.321 3.538,1.936 0.687,0.294 1.405,0.604 2.173,0.829 0.762,0.239 1.563,0.42 2.378,0.535 0.814,0.116 1.64,0.151 2.45,0.131 0.404,-0.026 0.807,-0.053 1.196,-0.101 0.374,-0.052 0.742,-0.103 1.105,-0.154 1.443,-0.218 2.748,-0.461 3.876,-0.624 1.125,-0.153 2.073,-0.235 2.749,-0.249 0.675,-0.019 1.072,-0.004 1.072,-0.004 0,0 -0.091,-0.038 -0.261,-0.11 C 23.325,4.323 23.073,4.217 22.74,4.116 22.078,3.905 21.092,3.691 19.9,3.612 18.71,3.517 17.323,3.553 15.885,3.631 15.526,3.648 15.162,3.665 14.793,3.682 14.443,3.687 14.088,3.693 13.731,3.698 13.02,3.672 12.3,3.64 11.585,3.527 10.868,3.437 10.156,3.282 9.456,3.108 8.757,2.927 8.064,2.733 7.399,2.508 6.73,2.271 6.084,2.042 5.471,1.825 4.851,1.597 4.265,1.38 3.724,1.181 1.547,0.359 0,0 0,0" /></g><g
         transform="translate(186.8016,71.4702)"
         id="g1448"><path
           inkscape:connector-curvature="0"
           id="path1450"
           style="fill:#bf3b3b;fill-opacity:1;fill-rule:nonzero;stroke:none"
           d="m 0,0 c 0,0 0,0.382 0.031,1.044 0.038,0.329 0.071,0.742 0.156,1.204 0.088,0.458 0.182,0.983 0.357,1.534 0.15,0.56 0.36,1.155 0.626,1.766 0.26,0.613 0.562,1.254 0.941,1.878 0.376,0.625 0.778,1.27 1.259,1.871 0.47,0.61 0.992,1.197 1.553,1.743 0.558,0.549 1.156,1.06 1.78,1.514 0.612,0.469 1.271,0.854 1.91,1.211 0.633,0.368 1.28,0.635 1.882,0.889 0.599,0.257 1.172,0.463 1.695,0.657 1.043,0.393 1.906,0.718 2.506,0.98 0.6,0.258 0.946,0.426 0.946,0.426 0,0 -0.238,-0.299 -0.728,-0.759 C 14.425,15.5 13.666,14.899 12.709,14.287 11.758,13.655 10.632,13.022 9.529,12.26 8.974,11.89 8.435,11.46 7.893,11.022 7.356,10.578 6.818,10.115 6.321,9.61 5.805,9.125 5.329,8.598 4.87,8.071 4.415,7.54 3.971,7.01 3.581,6.466 3.196,5.919 2.816,5.39 2.491,4.863 2.171,4.334 1.856,3.833 1.603,3.35 1.072,2.39 0.696,1.552 0.417,0.958 0.163,0.346 0,0 0,0" /></g><g
         transform="translate(121.7273,25.9595)"
         id="g1452"><path
           inkscape:connector-curvature="0"
           id="path1454"
           style="fill:#bf3b3b;fill-opacity:1;fill-rule:nonzero;stroke:none"
           d="m 0,0 c 0,0 0.502,0.017 1.443,0.049 0.94,0.026 2.325,0.066 4.067,0.217 1.743,0.1 3.856,0.366 6.263,0.69 2.404,0.366 5.101,0.859 7.997,1.568 1.447,0.362 2.953,0.736 4.478,1.239 1.544,0.44 3.103,1 4.701,1.583 3.173,1.216 6.461,2.662 9.646,4.521 1.633,0.862 3.152,1.961 4.727,3.004 1.492,1.157 3.027,2.295 4.415,3.622 l 1.074,0.963 0.985,1.055 0.989,1.057 0.495,0.529 0.444,0.573 1.761,2.273 0.835,1.25 0.755,1.226 c 2.007,3.329 3.578,6.96 4.935,10.617 1.341,3.666 2.567,7.355 3.799,10.918 1.222,3.557 2.398,6.991 3.593,10.248 1.182,3.256 2.421,6.303 3.704,9.055 1.26,2.762 2.632,5.198 3.945,7.285 1.289,2.106 2.627,3.799 3.735,5.171 1.146,1.346 2.092,2.357 2.782,3.002 0.673,0.658 1.033,1.009 1.033,1.009 0,0 -0.323,-0.384 -0.928,-1.105 -0.625,-0.702 -1.444,-1.814 -2.472,-3.223 -0.984,-1.445 -2.148,-3.215 -3.283,-5.361 -1.145,-2.137 -2.323,-4.606 -3.43,-7.379 -1.11,-2.77 -2.17,-5.83 -3.234,-9.093 C 68.22,53.276 67.13,49.811 66.002,46.226 64.839,42.658 63.761,38.919 62.389,35.165 61.027,31.412 59.438,27.626 57.319,24.063 l -0.834,-1.329 -0.845,-1.244 -1.931,-2.462 -0.48,-0.607 -0.53,-0.56 -1.06,-1.117 -1.058,-1.112 -1.142,-1.012 C 48.663,13.967 47.956,13.232 47.132,12.657 46.325,12.061 45.521,11.468 44.723,10.879 43.051,9.821 41.433,8.713 39.716,7.853 36.366,5.975 32.904,4.633 29.6,3.506 27.934,2.975 26.32,2.445 24.719,2.08 23.134,1.649 21.578,1.348 20.087,1.058 17.105,0.477 14.337,0.166 11.885,-0.036 9.43,-0.214 7.289,-0.294 5.521,-0.253 3.755,-0.274 2.381,-0.15 1.441,-0.093 0.501,-0.032 0,0 0,0" /></g><g
         transform="translate(117.269,224.2687)"
         id="g1456"><path
           inkscape:connector-curvature="0"
           id="path1458"
           style="fill:#ff6e6e;fill-opacity:1;fill-rule:nonzero;stroke:none"
           d="m 0,0 c -0.76,-0.544 -1.467,-1.171 -2.077,-1.949 -0.169,2.229 -2.13,3.856 -4.012,5.062 -4.513,2.889 -5.59,6.258 -6.876,11.376 3.191,0.276 6.259,-1.731 8.024,-4.405 1.764,-2.673 2.433,-5.917 2.802,-9.099 0.599,3.603 2.601,6.896 5.294,9.363 2.693,2.467 6.047,4.142 9.551,5.172 C 10.652,12.412 10.261,8.381 7.974,5.441 5.888,2.761 2.627,1.88 0,0" /></g><g
         transform="translate(124.2152,234.6968)"
         id="g1460"><path
           inkscape:connector-curvature="0"
           id="path1462"
           style="fill:#bf3b3b;fill-opacity:1;fill-rule:nonzero;stroke:none"
           d="M 0,0 -1.468,-1.399 -2.91,-2.814 c -0.959,-0.939 -1.869,-1.922 -2.677,-2.974 -0.409,-0.535 -0.793,-1.05 -1.151,-1.611 -0.356,-0.553 -0.675,-1.128 -0.97,-1.711 -0.586,-1.169 -0.998,-2.414 -1.216,-3.686 l -0.978,0.063 c -0.049,2.136 -1.03,4.195 -2.363,5.936 -0.685,0.888 -1.439,1.741 -2.114,2.666 -0.662,0.93 -1.294,1.906 -1.675,2.982 0.567,-0.986 1.258,-1.873 2.025,-2.697 l 2.317,-2.487 c 0.785,-0.86 1.454,-1.838 1.945,-2.916 0.5,-1.07 0.809,-2.25 0.849,-3.457 l -0.978,0.064 c 0.431,2.803 1.879,5.315 3.683,7.374 C -4.381,-3.208 -2.228,-1.532 0,0" /></g><g
         transform="translate(206.7611,202.537)"
         id="g1464"><path
           inkscape:connector-curvature="0"
           id="path1466"
           style="fill:#bf3b3b;fill-opacity:1;fill-rule:nonzero;stroke:none"
           d="m 0,0 c 0.86,-0.61 1.234,-1.711 1.33,-2.761 0.253,-2.791 -1.088,-5.48 -2.676,-7.789 -1.11,-1.614 -2.429,-3.444 -1.943,-5.341 -1.494,1.641 -3.45,2.774 -5.2,4.138 -1.751,1.365 -3.383,3.115 -3.779,5.298 -0.395,2.184 0.938,4.777 3.141,5.045 2.037,0.247 3.865,-1.572 4.352,-3.565 -0.281,1.451 -0.111,3.067 0.821,4.214 C -3.021,0.386 -1.206,0.855 0,0" /></g><g
         transform="translate(177.0768,153.2455)"
         id="g1468"><path
           inkscape:connector-curvature="0"
           id="path1470"
           style="fill:#bf3b3b;fill-opacity:1;fill-rule:nonzero;stroke:none"
           d="m 0,0 c 0.926,1.371 2.393,2.374 3.766,1.387 1.035,-0.744 0.981,-2.303 0.603,-3.52 -0.885,-2.855 -2.967,-5.563 -2.415,-8.5 -0.218,1.16 -2.61,1.324 -3.424,1.712 -1.54,0.734 -2.892,1.892 -3.866,3.29 -0.65,0.934 -1.15,2.04 -1.06,3.175 0.09,1.134 0.919,2.262 2.05,2.391 1.509,0.173 2.626,-1.317 3.4,-2.624 C -0.973,-1.931 -0.6,-0.888 0,0" /></g><g
         transform="translate(205.9001,161.1254)"
         id="g1472"><path
           inkscape:connector-curvature="0"
           id="path1474"
           style="fill:#ff6e6e;fill-opacity:1;fill-rule:nonzero;stroke:none"
           d="m 0,0 c -3.259,-2.319 -7.511,-3.398 -10.474,-6.25 2.43,2.339 -3.354,10.333 -3.766,12.892 -0.183,1.139 -0.134,2.305 0.031,3.447 0.268,1.847 0.883,3.721 2.197,5.048 1.313,1.327 3.447,1.96 5.117,1.125 2.116,-1.057 2.646,-3.788 2.861,-6.144 0.417,1.821 2.467,3.002 4.311,2.703 C 2.121,12.522 3.617,10.963 4.126,9.166 4.635,7.369 4.256,5.4 3.384,3.748 2.537,2.141 1.354,0.963 0,0" /></g></g></g></svg>