<?xml version="1.0" encoding="UTF-8" standalone="no"?>
<!-- Created with Inkscape (http://www.inkscape.org/) -->

<svg
   xmlns:dc="http://purl.org/dc/elements/1.1/"
   xmlns:cc="http://creativecommons.org/ns#"
   xmlns:rdf="http://www.w3.org/1999/02/22-rdf-syntax-ns#"
   xmlns:svg="http://www.w3.org/2000/svg"
   xmlns="http://www.w3.org/2000/svg"
   xmlns:sodipodi="http://sodipodi.sourceforge.net/DTD/sodipodi-0.dtd"
   xmlns:inkscape="http://www.inkscape.org/namespaces/inkscape"
   version="1.1"
   id="svg2"
   xml:space="preserve"
   width="666.66669"
   height="666.66669"
   viewBox="0 0 666.66669 666.66669"
   sodipodi:docname="formaturas.svg"
   inkscape:version="0.92.4 (unknown)"><metadata
     id="metadata8"><rdf:RDF><cc:Work
         rdf:about=""><dc:format>image/svg+xml</dc:format><dc:type
           rdf:resource="http://purl.org/dc/dcmitype/StillImage" /><dc:title /></cc:Work></rdf:RDF></metadata><defs
     id="defs6"><clipPath
       clipPathUnits="userSpaceOnUse"
       id="clipPath18"><path
         d="M 0,500 H 500 V 0 H 0 Z"
         id="path16"
         inkscape:connector-curvature="0" /></clipPath><clipPath
       clipPathUnits="userSpaceOnUse"
       id="clipPath54"><path
         d="m 155.965,399.324 h 19.931 v -7.611 h -19.931 z"
         id="path52"
         inkscape:connector-curvature="0" /></clipPath><clipPath
       clipPathUnits="userSpaceOnUse"
       id="clipPath70"><path
         d="m 155.358,400.209 h 21.262 v -6.905 h -21.262 z"
         id="path68"
         inkscape:connector-curvature="0" /></clipPath><clipPath
       clipPathUnits="userSpaceOnUse"
       id="clipPath86"><path
         d="m 160.123,412.599 h 4.245 v -10.045 h -4.245 z"
         id="path84"
         inkscape:connector-curvature="0" /></clipPath><clipPath
       clipPathUnits="userSpaceOnUse"
       id="clipPath106"><path
         d="m 146.101,439.182 h 53.58 v -71.555 h -53.58 z"
         id="path104"
         inkscape:connector-curvature="0" /></clipPath><clipPath
       clipPathUnits="userSpaceOnUse"
       id="clipPath158"><path
         d="m 186.152,352.568 h 21.125 v -23.832 h -21.125 z"
         id="path156"
         inkscape:connector-curvature="0" /></clipPath><clipPath
       clipPathUnits="userSpaceOnUse"
       id="clipPath174"><path
         d="m 126.254,351.076 h 70.458 v -92.038 h -70.458 z"
         id="path172"
         inkscape:connector-curvature="0" /></clipPath><clipPath
       clipPathUnits="userSpaceOnUse"
       id="clipPath190"><path
         d="M 145.827,324.792 H 190.49 V 259.611 H 145.827 Z"
         id="path188"
         inkscape:connector-curvature="0" /></clipPath><clipPath
       clipPathUnits="userSpaceOnUse"
       id="clipPath242"><path
         d="m 115.455,397.862 h 19.91 v -6.854 h -19.91 z"
         id="path240"
         inkscape:connector-curvature="0" /></clipPath><clipPath
       clipPathUnits="userSpaceOnUse"
       id="clipPath274"><path
         d="m 127.003,411.134 h 2.926 v -8.3 h -2.926 z"
         id="path272"
         inkscape:connector-curvature="0" /></clipPath><clipPath
       clipPathUnits="userSpaceOnUse"
       id="clipPath290"><path
         d="M 95.7524,431.724 H 138.899 V 354.568 H 95.7524 Z"
         id="path288"
         inkscape:connector-curvature="0" /></clipPath><clipPath
       clipPathUnits="userSpaceOnUse"
       id="clipPath318"><path
         d="m 129.932,351.126 h 14.489 v -89.692 h -14.489 z"
         id="path316"
         inkscape:connector-curvature="0" /></clipPath><clipPath
       clipPathUnits="userSpaceOnUse"
       id="clipPath338"><path
         d="m 72.003,366.436 h 24.3335 v -57.31 H 72.003 Z"
         id="path336"
         inkscape:connector-curvature="0" /></clipPath><clipPath
       clipPathUnits="userSpaceOnUse"
       id="clipPath362"><path
         d="M 84.7431,311.726 H 134.822 V 294.634 H 84.7431 Z"
         id="path360"
         inkscape:connector-curvature="0" /></clipPath><clipPath
       clipPathUnits="userSpaceOnUse"
       id="clipPath382"><path
         d="m 130.741,297.429 h 34.974 v -13.008 h -34.974 z"
         id="path380"
         inkscape:connector-curvature="0" /></clipPath><clipPath
       clipPathUnits="userSpaceOnUse"
       id="clipPath402"><path
         d="m 145.702,293.72 h 13.234 v -4.419 h -13.234 z"
         id="path400"
         inkscape:connector-curvature="0" /></clipPath><clipPath
       clipPathUnits="userSpaceOnUse"
       id="clipPath418"><path
         d="m 142.715,296.139 h 13.496 v -3.731 h -13.496 z"
         id="path416"
         inkscape:connector-curvature="0" /></clipPath><clipPath
       clipPathUnits="userSpaceOnUse"
       id="clipPath434"><path
         d="m 136.624,298.999 h 15.54 v -4.244 h -15.54 z"
         id="path432"
         inkscape:connector-curvature="0" /></clipPath><clipPath
       clipPathUnits="userSpaceOnUse"
       id="clipPath470"><path
         d="m 41.8173,393.578 h 11.0978 v -37.24 H 41.8173 Z"
         id="path468"
         inkscape:connector-curvature="0" /></clipPath><clipPath
       clipPathUnits="userSpaceOnUse"
       id="clipPath486"><path
         d="M 48.511,354.968 H 63.0442 V 335.085 H 48.511 Z"
         id="path484"
         inkscape:connector-curvature="0" /></clipPath><clipPath
       clipPathUnits="userSpaceOnUse"
       id="clipPath510"><path
         d="m 41.0682,354.157 h 6.9907 v -8.394 h -6.9907 z"
         id="path508"
         inkscape:connector-curvature="0" /></clipPath><clipPath
       clipPathUnits="userSpaceOnUse"
       id="clipPath558"><path
         d="m 317.57,166.922 h 5.681 v -7.185 h -5.681 z"
         id="path556"
         inkscape:connector-curvature="0" /></clipPath><clipPath
       clipPathUnits="userSpaceOnUse"
       id="clipPath578"><path
         d="m 323.035,192.265 h 45.849 v -91.37 h -45.849 z"
         id="path576"
         inkscape:connector-curvature="0" /></clipPath><clipPath
       clipPathUnits="userSpaceOnUse"
       id="clipPath598"><path
         d="m 336.996,156.596 h 27.549 v -7.644 h -27.549 z"
         id="path596"
         inkscape:connector-curvature="0" /></clipPath><clipPath
       clipPathUnits="userSpaceOnUse"
       id="clipPath614"><path
         d="m 345.254,172.14 h 10.664 v -13.666 h -10.664 z"
         id="path612"
         inkscape:connector-curvature="0" /></clipPath><clipPath
       clipPathUnits="userSpaceOnUse"
       id="clipPath690"><path
         d="m 384.64,125.625 h 48.01 V 93.3098 h -48.01 z"
         id="path688"
         inkscape:connector-curvature="0" /></clipPath><clipPath
       clipPathUnits="userSpaceOnUse"
       id="clipPath730"><path
         d="m 378.815,141.267 h 21.837 v -11.542 h -21.837 z"
         id="path728"
         inkscape:connector-curvature="0" /></clipPath><clipPath
       clipPathUnits="userSpaceOnUse"
       id="clipPath746"><path
         d="m 378.685,142.082 h 23.202 v -9.622 h -23.202 z"
         id="path744"
         inkscape:connector-curvature="0" /></clipPath><clipPath
       clipPathUnits="userSpaceOnUse"
       id="clipPath762"><path
         d="m 382.159,149.293 h 7.666 v -7.431 h -7.666 z"
         id="path760"
         inkscape:connector-curvature="0" /></clipPath><clipPath
       clipPathUnits="userSpaceOnUse"
       id="clipPath794"><path
         d="m 367.952,172.215 h 46.299 v -51.688 h -46.299 z"
         id="path792"
         inkscape:connector-curvature="0" /></clipPath><clipPath
       clipPathUnits="userSpaceOnUse"
       id="clipPath818"><path
         d="m 389.466,121.936 h 44.9 V 37.7444 h -44.9 z"
         id="path816"
         inkscape:connector-curvature="0" /></clipPath><clipPath
       clipPathUnits="userSpaceOnUse"
       id="clipPath842"><path
         d="m 393.381,73.7943 h 27.552 V 56.8684 h -27.552 z"
         id="path840"
         inkscape:connector-curvature="0" /></clipPath><clipPath
       clipPathUnits="userSpaceOnUse"
       id="clipPath858"><path
         d="M 383.364,41.717 H 417.52 V 27.2216 h -34.156 z"
         id="path856"
         inkscape:connector-curvature="0" /></clipPath><clipPath
       clipPathUnits="userSpaceOnUse"
       id="clipPath1038"><path
         d="m 128.356,212.885 h 44.697 v -71.632 h -44.697 z"
         id="path1036"
         inkscape:connector-curvature="0" /></clipPath><clipPath
       clipPathUnits="userSpaceOnUse"
       id="clipPath1054"><path
         d="m 139.462,146.964 h 15.434 v -10.85 h -15.434 z"
         id="path1052"
         inkscape:connector-curvature="0" /></clipPath><clipPath
       clipPathUnits="userSpaceOnUse"
       id="clipPath1070"><path
         d="m 142.779,187.475 h 6.661 v -18.222 h -6.661 z"
         id="path1068"
         inkscape:connector-curvature="0" /></clipPath><clipPath
       clipPathUnits="userSpaceOnUse"
       id="clipPath1150"><path
         d="M 70.7013,101.716 H 149.58 V 25.6842 H 70.7013 Z"
         id="path1148"
         inkscape:connector-curvature="0" /></clipPath><clipPath
       clipPathUnits="userSpaceOnUse"
       id="clipPath1190"><path
         d="M 95.7901,84.3812 H 108.593 V 56.9048 H 95.7901 Z"
         id="path1188"
         inkscape:connector-curvature="0" /></clipPath><clipPath
       clipPathUnits="userSpaceOnUse"
       id="clipPath1206"><path
         d="M 69.5553,94.9318 H 83.0407 V 87.0137 H 69.5553 Z"
         id="path1204"
         inkscape:connector-curvature="0" /></clipPath><clipPath
       clipPathUnits="userSpaceOnUse"
       id="clipPath1230"><path
         d="M 64.7925,190.667 H 137.332 V 81.1281 H 64.7925 Z"
         id="path1228"
         inkscape:connector-curvature="0" /></clipPath><clipPath
       clipPathUnits="userSpaceOnUse"
       id="clipPath1246"><path
         d="M 79.1708,160.079 H 114.61 v -39.24 H 79.1708 Z"
         id="path1244"
         inkscape:connector-curvature="0" /></clipPath><clipPath
       clipPathUnits="userSpaceOnUse"
       id="clipPath1266"><path
         d="m 109.384,166.515 h 10.863 v -9.74 h -10.863 z"
         id="path1264"
         inkscape:connector-curvature="0" /></clipPath><clipPath
       clipPathUnits="userSpaceOnUse"
       id="clipPath1282"><path
         d="m 108.314,173.878 h 7.812 V 163.26 h -7.812 z"
         id="path1280"
         inkscape:connector-curvature="0" /></clipPath><clipPath
       clipPathUnits="userSpaceOnUse"
       id="clipPath1338"><path
         d="M 94.8828,104.947 H 126.895 V 59.1962 H 94.8828 Z"
         id="path1336"
         inkscape:connector-curvature="0" /></clipPath><clipPath
       clipPathUnits="userSpaceOnUse"
       id="clipPath1354"><path
         d="m 121.985,79.6061 h 2.77 V 59.3885 h -2.77 z"
         id="path1352"
         inkscape:connector-curvature="0" /></clipPath><clipPath
       clipPathUnits="userSpaceOnUse"
       id="clipPath1370"><path
         d="m 118.418,77.6661 h 3.09 V 59.965 h -3.09 z"
         id="path1368"
         inkscape:connector-curvature="0" /></clipPath><clipPath
       clipPathUnits="userSpaceOnUse"
       id="clipPath1386"><path
         d="m 114.03,76.7484 h 2.708 v -14.306 h -2.708 z"
         id="path1384"
         inkscape:connector-curvature="0" /></clipPath><clipPath
       clipPathUnits="userSpaceOnUse"
       id="clipPath1498"><path
         d="M 377.806,434.349 H 429.58 V 357.063 H 377.806 Z"
         id="path1496"
         inkscape:connector-curvature="0" /></clipPath><clipPath
       clipPathUnits="userSpaceOnUse"
       id="clipPath1518"><path
         d="m 421.834,399.315 h 7.927 v -5.683 h -7.927 z"
         id="path1516"
         inkscape:connector-curvature="0" /></clipPath><clipPath
       clipPathUnits="userSpaceOnUse"
       id="clipPath1534"><path
         d="m 421.686,398.372 h 5.353 v -8.856 h -5.353 z"
         id="path1532"
         inkscape:connector-curvature="0" /></clipPath><clipPath
       clipPathUnits="userSpaceOnUse"
       id="clipPath1558"><path
         d="m 384.9,407.24 h 10.025 V 389.099 H 384.9 Z"
         id="path1556"
         inkscape:connector-curvature="0" /></clipPath><clipPath
       clipPathUnits="userSpaceOnUse"
       id="clipPath1574"><path
         d="m 380.78,390.836 h 23.535 V 378.765 H 380.78 Z"
         id="path1572"
         inkscape:connector-curvature="0" /></clipPath><clipPath
       clipPathUnits="userSpaceOnUse"
       id="clipPath1590"><path
         d="m 381.511,389.852 h 20.834 v -7.655 h -20.834 z"
         id="path1588"
         inkscape:connector-curvature="0" /></clipPath><clipPath
       clipPathUnits="userSpaceOnUse"
       id="clipPath1650"><path
         d="m 397.176,353.462 h 26.649 v -54.736 h -26.649 z"
         id="path1648"
         inkscape:connector-curvature="0" /></clipPath><clipPath
       clipPathUnits="userSpaceOnUse"
       id="clipPath1666"><path
         d="m 422.496,342.935 h 6.027 v -70.599 h -6.027 z"
         id="path1664"
         inkscape:connector-curvature="0" /></clipPath><clipPath
       clipPathUnits="userSpaceOnUse"
       id="clipPath1694"><path
         d="m 318.865,434.26 h 51.91 v -74.494 h -51.91 z"
         id="path1692"
         inkscape:connector-curvature="0" /></clipPath><clipPath
       clipPathUnits="userSpaceOnUse"
       id="clipPath1714"><path
         d="m 321.863,398.737 h 7.061 v -6.609 h -7.061 z"
         id="path1712"
         inkscape:connector-curvature="0" /></clipPath><clipPath
       clipPathUnits="userSpaceOnUse"
       id="clipPath1730"><path
         d="m 361.51,407.261 h 4.917 v -11.944 h -4.917 z"
         id="path1728"
         inkscape:connector-curvature="0" /></clipPath><clipPath
       clipPathUnits="userSpaceOnUse"
       id="clipPath1746"><path
         d="m 352.704,391.83 h 15.832 v -6.244 h -15.832 z"
         id="path1744"
         inkscape:connector-curvature="0" /></clipPath><clipPath
       clipPathUnits="userSpaceOnUse"
       id="clipPath18-3"><path
         d="M 0,500 H 750 V 0 H 0 Z"
         id="path16-6"
         inkscape:connector-curvature="0" /></clipPath><clipPath
       clipPathUnits="userSpaceOnUse"
       id="clipPath42"><path
         d="m 178.647,247.43 c -13.964,-1.06 -29.332,-1.445 -42.398,-7.387 v 0 c -10.004,-4.55 -17.992,-14.018 -21.657,-25.47 v 0 c -3.385,-10.584 -2.871,-22.245 0.888,-32.724 v 0 c 3.607,-10.056 10.83,-19.874 9.368,-31.296 v 0 c -1.159,-9.079 -7.746,-15.839 -11.11,-24.152 v 0 c -7.946,-19.631 2.542,-39.627 16.945,-51.21 v 0 c 2.352,-1.893 4.809,-3.563 7.309,-4.968 v 0 c 19.8,-11.138 43.316,-12.159 64.859,-13.733 v 0 c 22.343,-1.631 45.236,-1.557 67.144,1.354 v 0 c 13.891,1.847 27.909,4.827 40.192,12.231 v 0 c 2.344,1.414 4.684,3.084 6.635,5.116 v 0 c 1.899,1.977 3.443,4.292 4.269,7.064 v 0 c 2.712,9.052 -3.033,18.416 -8.205,26.123 v 0 c -5.177,7.708 -10.333,17.824 -6.527,26.345 v 0 c 4.365,9.783 11.548,23.234 14.281,33.77 v 0 c 2.734,10.535 3.012,22.347 -1.319,32.304 v 0 c -4.286,9.861 -12.507,16.799 -20.912,22.347 v 0 c -23.792,15.701 -51.101,22.638 -78.228,24.597 v 0 c -5.965,0.431 -11.936,0.627 -17.906,0.627 v 0 c -7.887,0 -15.77,-0.342 -23.628,-0.938"
         id="path40"
         inkscape:connector-curvature="0" /></clipPath><clipPath
       clipPathUnits="userSpaceOnUse"
       id="clipPath652"><path
         d="m 166.23,230.704 h 13.226 v -13.21 H 166.23 Z"
         id="path650"
         inkscape:connector-curvature="0" /></clipPath><clipPath
       clipPathUnits="userSpaceOnUse"
       id="clipPath868"><path
         d="m 216.884,182.543 h 23.373 v -3.361 h -23.373 z"
         id="path866"
         inkscape:connector-curvature="0" /></clipPath><clipPath
       clipPathUnits="userSpaceOnUse"
       id="clipPath972"><path
         d="m 249.872,227.045 h 13.226 v -13.21 h -13.226 z"
         id="path970"
         inkscape:connector-curvature="0" /></clipPath><clipPath
       clipPathUnits="userSpaceOnUse"
       id="clipPath996"><path
         d="m 205.737,234.977 h 13.225 v -13.21 h -13.225 z"
         id="path994"
         inkscape:connector-curvature="0" /></clipPath><clipPath
       clipPathUnits="userSpaceOnUse"
       id="clipPath20"><path
         d="M 0,500 H 750 V 0 H 0 Z"
         id="path18"
         inkscape:connector-curvature="0" /></clipPath><clipPath
       clipPathUnits="userSpaceOnUse"
       id="clipPath28"><path
         d="m 611.425,347.391 h 26.562 V 197.827 h -26.562 z"
         id="path26"
         inkscape:connector-curvature="0" /></clipPath><clipPath
       clipPathUnits="userSpaceOnUse"
       id="clipPath48"><path
         d="m 454.572,382.721 h 31.854 V 203.357 h -31.854 z"
         id="path46"
         inkscape:connector-curvature="0" /></clipPath><clipPath
       clipPathUnits="userSpaceOnUse"
       id="clipPath68"><path
         d="m 318.039,313.052 h 31.855 V 133.687 h -31.855 z"
         id="path66"
         inkscape:connector-curvature="0" /></clipPath><clipPath
       clipPathUnits="userSpaceOnUse"
       id="clipPath88"><path
         d="M 106.406,326.193 H 154.77 V 150.361 h -48.364 z"
         id="path86"
         inkscape:connector-curvature="0" /></clipPath><clipPath
       clipPathUnits="userSpaceOnUse"
       id="clipPath252"><path
         d="m 434.615,86.673 c -0.253,-0.472 -3.646,-10.19 -4.117,-9.937 v 0 c -0.301,0.162 -2.59,-1.08 -4.209,-2.001 v 0 c -0.931,-0.53 -1.311,-1.674 -0.879,-2.653 v 0 c 1.851,-4.2 6.684,-14.786 9.032,-16.288 v 0 c 2.937,-1.88 10.805,-3.065 10.73,-1.507 v 0 c -0.074,1.558 -5.842,4.956 -5.842,4.956 v 0 l -4.118,14.963 6.038,10.12 -6.273,2.456 z"
         id="path250"
         inkscape:connector-curvature="0" /></clipPath><clipPath
       clipPathUnits="userSpaceOnUse"
       id="clipPath268"><path
         d="M 0,500 H 750 V 0 H 0 Z"
         id="path266"
         inkscape:connector-curvature="0" /></clipPath><clipPath
       clipPathUnits="userSpaceOnUse"
       id="clipPath280"><path
         d="m 498.038,95.53 c 0,0 7.856,-7.533 8.135,-7.783 v 0 c 0.279,-0.25 -6.282,-16.019 -5.944,-17.328 v 0 c 0.338,-1.309 16.844,17.137 16.256,18.165 v 0 c -0.589,1.031 -5.222,3.164 -5.222,3.164 v 0 c 0,0 -7.943,9.12 -7.972,9.65 v 0 z"
         id="path278"
         inkscape:connector-curvature="0" /></clipPath><clipPath
       clipPathUnits="userSpaceOnUse"
       id="clipPath296"><path
         d="M 0,500 H 750 V 0 H 0 Z"
         id="path294"
         inkscape:connector-curvature="0" /></clipPath><clipPath
       clipPathUnits="userSpaceOnUse"
       id="clipPath320"><path
         d="m 452.601,231.825 c -7.569,0.883 -6.352,-75.564 -6.352,-75.564 v 0 L 429.107,84.39 443.241,80.782 c 0,0 8.322,24.487 17.661,51.335 v 0 c 9.998,-11.702 36.167,-40.209 36.167,-40.209 v 0 l 9.923,9.923 -39.117,50.216 c 6.504,18.462 12.633,35.445 15.962,43.607 v 0 c 9.322,22.854 -3.007,36.988 -3.007,36.988 v 0 c 0,0 -22.093,-1.533 -28.229,-0.817"
         id="path318"
         inkscape:connector-curvature="0" /></clipPath><clipPath
       clipPathUnits="userSpaceOnUse"
       id="clipPath328"><path
         d="m 460.902,152.161 h 54.227 V 88.25 h -54.227 z"
         id="path326"
         inkscape:connector-curvature="0" /></clipPath><clipPath
       clipPathUnits="userSpaceOnUse"
       id="clipPath344"><path
         d="m 436.734,212.654 h 24.395 v -70.063 h -24.395 z"
         id="path342"
         inkscape:connector-curvature="0" /></clipPath><clipPath
       clipPathUnits="userSpaceOnUse"
       id="clipPath360"><path
         d="M 0,500 H 750 V 0 H 0 Z"
         id="path358"
         inkscape:connector-curvature="0" /></clipPath><clipPath
       clipPathUnits="userSpaceOnUse"
       id="clipPath372"><path
         d="m 435.32,354.251 c -6.128,-2.937 -7.457,-12.907 -2.97,-22.269 v 0 c 4.487,-9.361 13.093,-14.569 19.22,-11.632 v 0 c 6.128,2.938 7.458,12.908 2.97,22.269 v 0 c -3.639,7.592 -9.986,12.452 -15.523,12.451 v 0 c -1.291,0 -2.538,-0.264 -3.697,-0.819"
         id="path370"
         inkscape:connector-curvature="0" /></clipPath><clipPath
       clipPathUnits="userSpaceOnUse"
       id="clipPath384"><path
         d="M 0,500 H 750 V 0 H 0 Z"
         id="path382"
         inkscape:connector-curvature="0" /></clipPath><clipPath
       clipPathUnits="userSpaceOnUse"
       id="clipPath480"><path
         d="m 348.147,79.424 c 0,0 10.714,-6.632 11.092,-6.848 v 0 c 0.377,-0.215 -3.244,-19.659 -2.545,-21.06 v 0 c 0.7,-1.4 14.936,23.477 14.021,24.501 v 0 c -0.916,1.024 -6.679,2.32 -6.679,2.32 v 0 c 0,0 -11.198,8.41 -11.359,9.003 v 0 z"
         id="path478"
         inkscape:connector-curvature="0" /></clipPath><clipPath
       clipPathUnits="userSpaceOnUse"
       id="clipPath496"><path
         d="M 0,500 H 750 V 0 H 0 Z"
         id="path494"
         inkscape:connector-curvature="0" /></clipPath><clipPath
       clipPathUnits="userSpaceOnUse"
       id="clipPath508"><path
         d="m 272.282,63.31 c 0,0 7.89,-9.827 8.172,-10.156 v 0 c 0.285,-0.329 -9.615,-17.45 -9.424,-19.005 v 0 c 0.193,-1.554 21.912,17.149 21.391,18.42 v 0 c -0.521,1.271 -5.522,4.415 -5.522,4.415 v 0 c 0,0 -7.751,11.664 -7.706,12.276 v 0 z"
         id="path506"
         inkscape:connector-curvature="0" /></clipPath><clipPath
       clipPathUnits="userSpaceOnUse"
       id="clipPath524"><path
         d="M 0,500 H 750 V 0 H 0 Z"
         id="path522"
         inkscape:connector-curvature="0" /></clipPath><clipPath
       clipPathUnits="userSpaceOnUse"
       id="clipPath648"><path
         d="M 602.043,187.619 C 593.099,170.851 589.586,131.56 589.586,131.56 v 0 l 27.79,-59.574 c -0.479,-6.867 -6.867,-12.138 -7.827,-13.256 v 0 c -0.957,-1.118 6.55,-1.756 7.028,2.556 v 0 c 0.485,4.367 4.312,3.992 5.111,5.749 v 0 c 0.799,1.757 -1.916,5.43 -1.916,5.43 v 0 c -2.556,53.665 -19.166,59.095 -19.166,59.095 v 0 c 0,0 18.207,21.401 29.707,44.72 v 0 c 11.499,23.319 -15.014,40.569 -15.014,40.569 v 0 c 0,0 -4.312,-12.459 -13.256,-29.23"
         id="path646"
         inkscape:connector-curvature="0" /></clipPath><clipPath
       clipPathUnits="userSpaceOnUse"
       id="clipPath660"><path
         d="M 0,500 H 750 V 0 H 0 Z"
         id="path658"
         inkscape:connector-curvature="0" /></clipPath><clipPath
       clipPathUnits="userSpaceOnUse"
       id="clipPath672"><path
         d="m 578.299,205.684 c -18.025,-6.027 -47.591,-32.141 -47.591,-32.141 v 0 l -20.782,-62.366 c -5.07,-4.657 -13.333,-4.091 -14.796,-4.243 v 0 c -1.466,-0.154 3.546,-5.779 6.858,-2.978 v 0 c 2.056,1.739 3.799,1.322 5.252,0.907 v 0 c 0.918,-0.264 1.721,-0.527 2.414,-0.245 v 0 c 1.787,0.726 2.342,5.26 2.342,5.26 v 0 c 35.042,40.724 26.714,56.087 26.714,56.087 v 0 c 0,0 27.936,3.022 52.319,12.048 v 0 c 24.384,9.025 16.992,39.78 16.992,39.78 v 0 c 0,0 -11.697,-6.081 -29.722,-12.109"
         id="path670"
         inkscape:connector-curvature="0" /></clipPath><clipPath
       clipPathUnits="userSpaceOnUse"
       id="clipPath684"><path
         d="M 0,500 H 750 V 0 H 0 Z"
         id="path682"
         inkscape:connector-curvature="0" /></clipPath><clipPath
       clipPathUnits="userSpaceOnUse"
       id="clipPath708"><path
         d="m 599.008,265.002 c -4.312,-4.552 -3.114,-16.051 5.271,-13.416 v 0 l 7.187,-28.509 12.458,-3.354 c 0,0 -2.555,19.964 19.645,42.644 v 0 l -0.239,10.541 -35.217,11.26 c 0,0 -5.174,-15.018 -9.105,-19.166"
         id="path706"
         inkscape:connector-curvature="0" /></clipPath><clipPath
       clipPathUnits="userSpaceOnUse"
       id="clipPath740"><path
         d="M 0,500 H 750 V 0 H 0 Z"
         id="path738"
         inkscape:connector-curvature="0" /></clipPath><clipPath
       clipPathUnits="userSpaceOnUse"
       id="clipPath20-3"><path
         d="M 0,500 H 500 V 0 H 0 Z"
         id="path18-6"
         inkscape:connector-curvature="0" /></clipPath><clipPath
       clipPathUnits="userSpaceOnUse"
       id="clipPath28-7"><path
         d="m 70,83.9992 h 88 v -19 H 70 Z"
         id="path26-5"
         inkscape:connector-curvature="0" /></clipPath><clipPath
       clipPathUnits="userSpaceOnUse"
       id="clipPath44"><path
         d="m 164,83.9992 h 88 v -19 h -88 z"
         id="path42"
         inkscape:connector-curvature="0" /></clipPath><clipPath
       clipPathUnits="userSpaceOnUse"
       id="clipPath60"><path
         d="m 256,83.9992 h 88 v -19 h -88 z"
         id="path58"
         inkscape:connector-curvature="0" /></clipPath><clipPath
       clipPathUnits="userSpaceOnUse"
       id="clipPath76"><path
         d="m 344,83.9992 h 88 v -19 h -88 z"
         id="path74"
         inkscape:connector-curvature="0" /></clipPath><clipPath
       clipPathUnits="userSpaceOnUse"
       id="clipPath92"><path
         d="M 32,369.996 H 468 V 88.9962 H 32 Z"
         id="path90"
         inkscape:connector-curvature="0" /></clipPath><clipPath
       clipPathUnits="userSpaceOnUse"
       id="clipPath240"><path
         d="m 93.953,162.048 h 36.286 V 130.416 H 93.953 Z"
         id="path238"
         inkscape:connector-curvature="0" /></clipPath><clipPath
       clipPathUnits="userSpaceOnUse"
       id="clipPath380"><path
         d="m 280.882,249.482 h 12.394 v -25.651 h -12.394 z"
         id="path378"
         inkscape:connector-curvature="0" /></clipPath><clipPath
       clipPathUnits="userSpaceOnUse"
       id="clipPath424"><path
         d="m 273.766,167.979 h 46.099 v -34.524 h -46.099 z"
         id="path422"
         inkscape:connector-curvature="0" /></clipPath><clipPath
       clipPathUnits="userSpaceOnUse"
       id="clipPath600"><path
         d="m 191.836,162.409 h 39.556 v -31.227 h -39.556 z"
         id="path598"
         inkscape:connector-curvature="0" /></clipPath><clipPath
       clipPathUnits="userSpaceOnUse"
       id="clipPath776"><path
         d="m 354.14,168.846 h 40.138 V 130.349 H 354.14 Z"
         id="path774"
         inkscape:connector-curvature="0" /></clipPath></defs><sodipodi:namedview
     pagecolor="#ffffff"
     bordercolor="#666666"
     borderopacity="1"
     objecttolerance="10"
     gridtolerance="10"
     guidetolerance="10"
     inkscape:pageopacity="0"
     inkscape:pageshadow="2"
     inkscape:window-width="1366"
     inkscape:window-height="703"
     id="namedview4"
     showgrid="false"
     inkscape:zoom="0.50063159"
     inkscape:cx="103.4195"
     inkscape:cy="249.07873"
     inkscape:window-x="0"
     inkscape:window-y="0"
     inkscape:window-maximized="1"
     inkscape:current-layer="g10" /><g
     id="g10"
     inkscape:groupmode="layer"
     inkscape:label="3545968"
     transform="matrix(1.3333333,0,0,-1.3333333,0,666.66667)"><g
       id="g2704"
       transform="matrix(0.93811113,0,0,0.93811113,15.472182,26.588583)"><g
         transform="matrix(1.3946357,0,0,1.3946357,-98.659054,-49.518729)"
         id="g22"><g
           id="g24" /><g
           id="g36"><g
             style="opacity:0.60000598"
             id="g34"
             clip-path="url(#clipPath28-7)"><g
               id="g32"
               transform="translate(158,74.499)"><path
                 inkscape:connector-curvature="0"
                 id="path30"
                 style="fill:#bebbd0;fill-opacity:1;fill-rule:nonzero;stroke:none"
                 d="m 0,0 c 0,-5.246 -19.7,-9.5 -44,-9.5 -24.3,0 -44,4.254 -44,9.5 0,5.247 19.7,9.5 44,9.5 C -19.7,9.5 0,5.247 0,0" /></g></g></g></g><g
         transform="matrix(1.3946357,0,0,1.3946357,-98.659054,-49.518729)"
         id="g38"><g
           id="g40" /><g
           id="g52"><g
             style="opacity:0.60000598"
             id="g50"
             clip-path="url(#clipPath44)"><g
               id="g48"
               transform="translate(252,74.499)"><path
                 inkscape:connector-curvature="0"
                 id="path46-3"
                 style="fill:#bebbd0;fill-opacity:1;fill-rule:nonzero;stroke:none"
                 d="m 0,0 c 0,-5.246 -19.7,-9.5 -44,-9.5 -24.301,0 -44,4.254 -44,9.5 0,5.247 19.699,9.5 44,9.5 C -19.7,9.5 0,5.247 0,0" /></g></g></g></g><g
         transform="matrix(1.3946357,0,0,1.3946357,-98.659054,-49.518729)"
         id="g54"><g
           id="g56" /><g
           id="g68"><g
             style="opacity:0.60000598"
             id="g66"
             clip-path="url(#clipPath60)"><g
               id="g64"
               transform="translate(344,74.499)"><path
                 inkscape:connector-curvature="0"
                 id="path62"
                 style="fill:#bebbd0;fill-opacity:1;fill-rule:nonzero;stroke:none"
                 d="m 0,0 c 0,-5.246 -19.7,-9.5 -44,-9.5 -24.301,0 -44,4.254 -44,9.5 0,5.247 19.699,9.5 44,9.5 C -19.7,9.5 0,5.247 0,0" /></g></g></g></g><g
         transform="matrix(1.3946357,0,0,1.3946357,-98.659054,-49.518729)"
         id="g70"><g
           id="g72" /><g
           id="g84"><g
             style="opacity:0.60000598"
             id="g82"
             clip-path="url(#clipPath76)"><g
               id="g80"
               transform="translate(432,74.499)"><path
                 inkscape:connector-curvature="0"
                 id="path78"
                 style="fill:#bebbd0;fill-opacity:1;fill-rule:nonzero;stroke:none"
                 d="m 0,0 c 0,-5.246 -19.699,-9.5 -44,-9.5 -24.301,0 -44,4.254 -44,9.5 0,5.247 19.699,9.5 44,9.5 C -19.699,9.5 0,5.247 0,0" /></g></g></g></g><g
         transform="matrix(1.3946357,0,0,1.3946357,27.308347,389.60966)"
         id="g102"><path
           inkscape:connector-curvature="0"
           id="path104-5"
           style="fill:#bb5932;fill-opacity:1;fill-rule:nonzero;stroke:none"
           d="m 0,0 c -1.252,-1.218 -2.729,-2.33 -3.361,-3.958 -1.039,-2.672 0.552,-5.565 1.034,-8.392 0.621,-3.647 -0.788,-7.574 -3.586,-9.995 -0.757,-0.656 -1.605,-1.205 -2.327,-1.899 -3.171,-3.041 -3.263,-8.137 -2.054,-12.361 0.672,-2.347 1.726,-4.673 3.558,-6.288 2.446,-2.156 5.929,-2.733 9.186,-2.564 3.256,0.17 6.448,0.99 9.699,1.247 9.744,0.769 19.476,-3.533 29.141,-2.079 1.972,0.297 3.948,0.851 5.588,1.985 1.64,1.135 2.912,2.918 3.073,4.906 0.164,2.033 -0.805,3.961 -1.669,5.809 -2.272,4.855 -4.004,10.306 -2.791,15.527 0.684,2.942 2.221,6.236 0.536,8.742 -0.7,1.042 -1.835,1.689 -2.824,2.463 -2.059,1.61 -3.576,3.903 -4.251,6.429 -0.515,1.924 -2.14,9.734 -8.373,10.998 -2.433,0.493 -4.292,2.413 -6.77,2.549 C 18.266,13.423 12.495,12.433 7.426,10.133 5.74,9.368 5.165,8.543 4.44,6.852 3.34,4.283 2.023,1.969 0,0" /></g><g
         transform="matrix(1.3946357,0,0,1.3946357,82.380001,351.21296)"
         id="g106"><path
           inkscape:connector-curvature="0"
           id="path108"
           style="fill:#f8f5ef;fill-opacity:1;fill-rule:nonzero;stroke:none"
           d="m 0,0 c -3.632,0.888 -11.134,2.436 -19.615,2.53 v 0.035 c 0,0 -0.089,-0.005 -0.249,-0.017 -0.161,0.012 -0.249,0.017 -0.249,0.017 V 2.53 c -3.147,-0.236 -14.46,-0.079 -18.078,-6.108 -3.987,-6.645 -6.023,-60.763 -6.023,-60.763 H 6.119 C 6.119,-64.341 1.473,-0.36 0,0" /></g><g
         transform="matrix(1.3946357,0,0,1.3946357,20.71716,261.48099)"
         id="g110"><path
           inkscape:connector-curvature="0"
           id="path112"
           style="fill:#a6c7f7;fill-opacity:1;fill-rule:nonzero;stroke:none"
           d="m 0,0 19.539,-143.22 4.917,0.235 0.878,131.319 2.999,-0.334 3.851,-130.283 5.854,0.351 L 50.333,0 Z" /></g><g
         transform="matrix(1.3946357,0,0,1.3946357,69.491893,341.19041)"
         id="g114"><path
           inkscape:connector-curvature="0"
           id="path116"
           style="fill:#ffb197;fill-opacity:1;fill-rule:nonzero;stroke:none"
           d="m 0,0 c 0.784,0.941 1.568,5.384 2.051,8.624 -3.554,0.565 -7.843,1.042 -12.425,1.092 v 0.035 c 0,0 -0.088,-0.005 -0.249,-0.016 -0.161,0.011 -0.249,0.016 -0.249,0.016 V 9.716 C -12.531,9.592 -16.46,9.568 -20.335,8.698 -20.476,6.658 -20.604,2.514 -19.477,1.012 -17.959,-1.012 -1.265,-1.518 0,0" /></g><g
         transform="matrix(1.3946357,0,0,1.3946357,55.02464,371.18526)"
         id="g118"><path
           inkscape:connector-curvature="0"
           id="path120"
           style="fill:#ffb197;fill-opacity:1;fill-rule:nonzero;stroke:none"
           d="m 0,0 v 0 c -2.752,0 -4.983,-2.231 -4.983,-4.983 v -9.303 c 0,-2.752 2.231,-4.983 4.983,-4.983 v 0 c 2.752,0 4.983,2.231 4.983,4.983 v 9.303 C 4.983,-2.231 2.752,0 0,0" /></g><g
         transform="matrix(1.3946357,0,0,1.3946357,55.02464,373.97453)"
         id="g122"><path
           inkscape:connector-curvature="0"
           id="path124"
           style="fill:#f98e72;fill-opacity:1;fill-rule:nonzero;stroke:none"
           d="m 0,0 v 0 c -2.752,0 -4.983,-2.231 -4.983,-4.983 v -6.395 c 1.579,-0.474 3.25,-0.735 4.983,-0.735 1.733,0 3.404,0.261 4.983,0.735 v 6.395 C 4.983,-2.231 2.752,0 0,0" /></g><g
         transform="matrix(1.3946357,0,0,1.3946357,79.215572,385.12144)"
         id="g126"><path
           inkscape:connector-curvature="0"
           id="path128"
           style="fill:#ffb197;fill-opacity:1;fill-rule:nonzero;stroke:none"
           d="m 0,0 c 0,-9.58 -7.766,-17.346 -17.346,-17.346 -9.58,0 -17.346,7.766 -17.346,17.346 0,9.58 7.766,17.346 17.346,17.346 C -7.766,17.346 0,9.58 0,0" /></g><g
         transform="matrix(1.3946357,0,0,1.3946357,39.025798,383.72806)"
         id="g130"><path
           inkscape:connector-curvature="0"
           id="path132"
           style="fill:#ffb197;fill-opacity:1;fill-rule:nonzero;stroke:none"
           d="m 0,0 c 0,-2.88 -2.335,-5.216 -5.216,-5.216 -2.88,0 -5.216,2.336 -5.216,5.216 0,2.88 2.336,5.215 5.216,5.215 C -2.335,5.215 0,2.88 0,0" /></g><g
         transform="matrix(1.3946357,0,0,1.3946357,84.881977,383.72806)"
         id="g134"><path
           inkscape:connector-curvature="0"
           id="path136"
           style="fill:#ffb197;fill-opacity:1;fill-rule:nonzero;stroke:none"
           d="m 0,0 c 0,-2.88 -2.335,-5.216 -5.215,-5.216 -2.881,0 -5.216,2.336 -5.216,5.216 0,2.88 2.335,5.215 5.216,5.215 C -2.335,5.215 0,2.88 0,0" /></g><g
         transform="matrix(1.3946357,0,0,1.3946357,31.127139,389.40813)"
         id="g138"><path
           inkscape:connector-curvature="0"
           id="path140"
           style="fill:#bb5932;fill-opacity:1;fill-rule:nonzero;stroke:none"
           d="m 0,0 c 0,0 12.422,14.899 27.009,11.357 0,0 -8.574,8.61 -17.331,4.146 C -0.95,10.085 0,0 0,0" /></g><g
         transform="matrix(1.3946357,0,0,1.3946357,14.889395,210.15588)"
         id="g142"><path
           inkscape:connector-curvature="0"
           id="path144"
           style="fill:#ffb197;fill-opacity:1;fill-rule:nonzero;stroke:none"
           d="m 0,0 c 0,-3.422 -2.774,-6.196 -6.197,-6.196 -3.422,0 -6.196,2.774 -6.196,6.196 0,3.422 2.774,6.196 6.196,6.196 C -2.774,6.196 0,3.422 0,0" /></g><g
         transform="matrix(1.3946357,0,0,1.3946357,48.216865,385.50413)"
         id="g146"><path
           inkscape:connector-curvature="0"
           id="path148"
           style="fill:#752b19;fill-opacity:1;fill-rule:nonzero;stroke:none"
           d="m 0,0 c 0,-0.707 -0.578,-1.28 -1.29,-1.28 -0.712,0 -1.29,0.573 -1.29,1.28 0,0.707 0.578,1.28 1.29,1.28 C -0.578,1.28 0,0.707 0,0" /></g><g
         transform="matrix(1.3946357,0,0,1.3946357,65.078569,385.50413)"
         id="g150"><path
           inkscape:connector-curvature="0"
           id="path152"
           style="fill:#752b19;fill-opacity:1;fill-rule:nonzero;stroke:none"
           d="m 0,0 c 0,-0.707 -0.578,-1.28 -1.29,-1.28 -0.712,0 -1.29,0.573 -1.29,1.28 0,0.707 0.578,1.28 1.29,1.28 C -0.578,1.28 0,0.707 0,0" /></g><g
         transform="matrix(1.3946357,0,0,1.3946357,40.729624,390.4827)"
         id="g154"><path
           inkscape:connector-curvature="0"
           id="path156-6"
           style="fill:#752b19;fill-opacity:1;fill-rule:nonzero;stroke:none"
           d="m 0,0 -0.547,0.513 c 2.53,2.701 5.849,2.074 5.989,2.046 L 5.296,1.823 C 5.172,1.847 2.24,2.389 0,0" /></g><g
         transform="matrix(1.3946357,0,0,1.3946357,68.744229,390.4827)"
         id="g158"><path
           inkscape:connector-curvature="0"
           id="path160"
           style="fill:#752b19;fill-opacity:1;fill-rule:nonzero;stroke:none"
           d="m 0,0 c -2.24,2.39 -5.172,1.847 -5.296,1.823 l -0.147,0.736 c 0.14,0.028 3.458,0.654 5.99,-2.046 z" /></g><g
         transform="matrix(1.3946357,0,0,1.3946357,31.783036,354.28688)"
         id="g162"><path
           inkscape:connector-curvature="0"
           id="path164"
           style="fill:#403f5f;fill-opacity:1;fill-rule:nonzero;stroke:none"
           d="m 0,0 c 0,0 -11.029,-1.739 -13.584,-16.222 -2.556,-14.482 -20.872,-74.541 -20.872,-74.541 0,0 8.093,-12.778 28.112,-5.111 l 8.946,80.93 z" /></g><g
         transform="matrix(1.3946357,0,0,1.3946357,56.776721,372.06305)"
         id="g166"><path
           inkscape:connector-curvature="0"
           id="path168"
           style="fill:#f55b30;fill-opacity:1;fill-rule:nonzero;stroke:none"
           d="M 0,0 C -0.672,0 -1.384,0.071 -2.134,0.237 L -1.972,0.97 C 2.841,-0.099 6.116,3.168 6.149,3.202 L 6.685,2.677 C 6.561,2.551 4.014,0 0,0" /></g><g
         transform="matrix(1.3946357,0,0,1.3946357,109.66465,213.08406)"
         id="g170"><path
           inkscape:connector-curvature="0"
           id="path172-2"
           style="fill:#ffb197;fill-opacity:1;fill-rule:nonzero;stroke:none"
           d="m 0,0 c 0,-3.422 2.774,-6.196 6.197,-6.196 3.422,0 6.196,2.774 6.196,6.196 0,3.422 -2.774,6.196 -6.196,6.196 C 2.774,6.196 0,3.422 0,0" /></g><g
         transform="matrix(1.3946357,0,0,1.3946357,84.962308,354.77514)"
         id="g174"><path
           inkscape:connector-curvature="0"
           id="path176"
           style="fill:#403f5f;fill-opacity:1;fill-rule:nonzero;stroke:none"
           d="m 0,0 c 0,0 11.029,-1.74 13.585,-16.222 2.556,-14.482 20.872,-74.541 20.872,-74.541 0,0 -8.094,-12.779 -28.113,-5.112 l -8.945,80.931 z" /></g><g
         transform="matrix(1.3946357,0,0,1.3946357,93.23208,226.28959)"
         id="g178"><path
           inkscape:connector-curvature="0"
           id="path180"
           style="fill:#fc4477;fill-opacity:1;fill-rule:nonzero;stroke:none"
           d="m 0,0 -0.278,2.519 c 5.595,0.016 13.109,0.532 14.277,0.73 4.217,0.715 8.542,3.214 12.799,3.825 0.253,-0.838 0.48,-1.591 0.683,-2.262 C 21.375,1.941 9.915,-2.365 0,0" /></g><g
         transform="matrix(1.3946357,0,0,1.3946357,132.78032,228.9698)"
         id="g182"><path
           inkscape:connector-curvature="0"
           id="path184"
           style="fill:#fc4477;fill-opacity:1;fill-rule:nonzero;stroke:none"
           d="m 0,0 c 0.107,-0.352 0.169,-0.557 0.169,-0.557 0,0 -8.093,-12.778 -28.112,-5.111 l -0.168,1.514 C -23.84,-5.285 -12.745,-7.062 0,0" /></g><g
         transform="matrix(1.3946357,0,0,1.3946357,68.711595,402.42831)"
         id="g186"><path
           inkscape:connector-curvature="0"
           id="path188-9"
           style="fill:#bb5932;fill-opacity:1;fill-rule:nonzero;stroke:none"
           d="M 0,0 C 1.228,-2.591 2.948,-4.912 4.657,-7.214 4.989,-7.661 5.326,-8.113 5.769,-8.45 6.168,-8.753 6.645,-8.953 7.142,-9.024 7.309,-7.196 7.251,-5.374 6.374,-3.761 5.723,-2.563 4.092,-1.459 3.209,-0.422 2.434,0.488 1.424,1.162 0.393,1.748 -0.126,2.042 -0.423,2.344 -0.561,1.707 -0.665,1.228 -0.198,0.417 0,0" /></g><g
         transform="matrix(1.3946357,0,0,1.3946357,23.513265,225.80063)"
         id="g190"><path
           inkscape:connector-curvature="0"
           id="path192"
           style="fill:#fc4477;fill-opacity:1;fill-rule:nonzero;stroke:none"
           d="m 0,0 0.278,2.52 c -5.595,0.015 -13.109,0.532 -14.277,0.73 -4.217,0.715 -8.542,3.213 -12.799,3.825 -0.253,-0.839 -0.48,-1.591 -0.683,-2.263 C -21.375,1.941 -9.915,-2.364 0,0" /></g><g
         transform="matrix(1.3946357,0,0,1.3946357,-16.03442,228.48098)"
         id="g194"><path
           inkscape:connector-curvature="0"
           id="path196"
           style="fill:#fc4477;fill-opacity:1;fill-rule:nonzero;stroke:none"
           d="m 0,0 c -0.107,-0.351 -0.169,-0.556 -0.169,-0.556 0,0 8.092,-12.778 28.112,-5.111 l 0.167,1.513 C 23.84,-5.285 12.745,-7.062 0,0" /></g><g
         transform="matrix(1.3946357,0,0,1.3946357,54.82437,62.068444)"
         id="g198"><path
           inkscape:connector-curvature="0"
           id="path200"
           style="fill:#35324c;fill-opacity:1;fill-rule:nonzero;stroke:none"
           d="M 0,0 -4.917,-0.234 -21.192,-3.396 -20.958,-4.684 0,-3.63 Z" /></g><g
         transform="matrix(1.3946357,0,0,1.3946357,14.932908,418.55518)"
         id="g202"><path
           inkscape:connector-curvature="0"
           id="path204"
           style="fill:#403f5f;fill-opacity:1;fill-rule:nonzero;stroke:none"
           d="M 0,0 27.448,17.174 57.043,0.614 28.828,-10.887 Z" /></g><g
         transform="matrix(1.3946357,0,0,1.3946357,65.601557,63.047757)"
         id="g206"><path
           inkscape:connector-curvature="0"
           id="path208"
           style="fill:#35324c;fill-opacity:1;fill-rule:nonzero;stroke:none"
           d="m 0,0 0.234,-2.81 16.626,-6.908 3.044,0.235 0.117,1.638 -14.167,8.197 z" /></g><g
         transform="matrix(1.3946357,0,0,1.3946357,97.109585,325.53075)"
         id="g210"><path
           inkscape:connector-curvature="0"
           id="path212"
           style="fill:#35324c;fill-opacity:1;fill-rule:nonzero;stroke:none"
           d="m 0,0 -0.892,13.394 c -0.255,3.845 -3.155,6.994 -6.967,7.564 l -8.51,1.275 -10.636,-22.178 -12.861,21.79 -6.975,-1.226 c -3.736,-0.656 -6.534,-3.789 -6.765,-7.575 l -6.941,-130.177 c 0,0 6.852,-13.582 34.609,-12.869 27.756,0.713 35.905,12.615 35.905,12.615 z" /></g><g
         transform="matrix(1.3946357,0,0,1.3946357,85.820986,354.80917)"
         id="g214"><path
           inkscape:connector-curvature="0"
           id="path216"
           style="fill:#fc4477;fill-opacity:1;fill-rule:nonzero;stroke:none"
           d="m 0,0 -8.275,1.239 -10.636,-22.178 -12.861,21.791 -6.975,-1.227 c -0.397,-0.069 -0.779,-0.172 -1.153,-0.295 5.128,-11.243 19.514,-41.483 19.514,-41.483 z" /></g><g
         transform="matrix(1.3946357,0,0,1.3946357,31.613448,418.98347)"
         id="g218"><path
           inkscape:connector-curvature="0"
           id="path220"
           style="fill:#35324c;fill-opacity:1;fill-rule:nonzero;stroke:none"
           d="m 0,0 1.84,-12.268 14.414,-3.066 13.188,3.986 2.606,13.035 c 0,0 -7.513,5.013 -16.254,5.367 C 10.323,7.274 3.896,5.549 0,0" /></g><g
         transform="matrix(1.3946357,0,0,1.3946357,80.372562,409.27416)"
         id="g222"><path
           inkscape:connector-curvature="0"
           id="path224"
           style="fill:#fc4477;fill-opacity:1;fill-rule:nonzero;stroke:none"
           d="m 0,0 c -0.205,0 -0.372,0.164 -0.375,0.369 -0.001,0.097 -0.153,9.68 -0.153,11.653 0,1.632 -0.996,1.74 -1.007,1.741 -0.206,0.019 -0.358,0.201 -0.34,0.407 0.019,0.207 0.196,0.364 0.408,0.34 0.584,-0.052 1.689,-0.64 1.689,-2.488 C 0.222,10.055 0.374,0.478 0.375,0.381 0.378,0.174 0.213,0.003 0.006,0 Z" /></g><g
         transform="matrix(1.3946357,0,0,1.3946357,59.447588,325.60689)"
         id="g226"><path
           inkscape:connector-curvature="0"
           id="path228"
           style="fill:#e53e72;fill-opacity:1;fill-rule:nonzero;stroke:none"
           d="m 0,0 -5.567,-12.593 -1.911,4.034 6.439,10.32 z" /></g><g
         transform="matrix(1.3946357,0,0,1.3946357,80.644237,402.92954)"
         id="g230"><path
           inkscape:connector-curvature="0"
           id="path232"
           style="fill:#fc4477;fill-opacity:1;fill-rule:nonzero;stroke:none"
           d="M 0,0 0.205,-1.738 1.227,-1.84 0.492,5 h -1.237 l -0.754,-6.567 1.115,-0.112 z" /></g><g
         transform="matrix(1.3946357,0,0,1.3946357,-98.659054,-49.518729)"
         id="g234"><g
           id="g236" /><g
           id="g252"><g
             style="opacity:0.39999402"
             id="g250"
             clip-path="url(#clipPath240)"><g
               id="g244"
               transform="translate(97.8735,133.0049)"><path
                 inkscape:connector-curvature="0"
                 id="path242"
                 style="fill:#35324c;fill-opacity:1;fill-rule:nonzero;stroke:none"
                 d="m 0,0 c 3.567,-0.734 7.956,-1.514 12.52,-2.023 l 0.205,30.631 -12.402,0.435 c 0,0 -2.08,-0.087 -4.243,-0.303 z" /></g><g
               id="g248"
               transform="translate(127.9712,131.125)"><path
                 inkscape:connector-curvature="0"
                 id="path246"
                 style="fill:#35324c;fill-opacity:1;fill-rule:nonzero;stroke:none"
                 d="m 0,0 2.268,26.18 -11.461,4.021 -3.384,0.119 0.914,-30.945 C -7.525,-0.824 -3.486,-0.687 0,0" /></g></g></g></g><g
         transform="matrix(1.3946357,0,0,1.3946357,264.36713,410.37732)"
         id="g254"><path
           inkscape:connector-curvature="0"
           id="path256"
           style="fill:#403f5f;fill-opacity:1;fill-rule:nonzero;stroke:none"
           d="M 0,0 26.03,23.242 58.337,4.416 32.306,-13.712 Z" /></g><g
         transform="matrix(1.3946357,0,0,1.3946357,334.62316,400.55699)"
         id="g258"><path
           inkscape:connector-curvature="0"
           id="path260"
           style="fill:#c43d2b;fill-opacity:1;fill-rule:nonzero;stroke:none"
           d="m 0,0 c 2.759,-2.342 4.332,-5.91 4.61,-9.519 0.351,-4.551 -1.213,-9.064 -1.086,-13.627 0.04,-1.448 0.268,-2.936 1.022,-4.172 1.65,-2.71 5.303,-3.437 8.459,-3.115 -1.142,-3.33 -2.46,-6.867 -5.324,-8.913 -3.581,-2.559 -8.53,-2.012 -12.681,-0.552 -2.176,0.766 -4.355,1.813 -5.78,3.626 -2.259,2.875 -2.096,6.961 -1.263,10.522 0.647,2.766 1.631,5.667 0.756,8.369 -0.431,1.327 -1.276,2.471 -2.042,3.638 -1.651,2.519 -3.01,5.393 -2.907,8.404 C -15.941,3.368 -5.578,4.737 0,0" /></g><g
         transform="matrix(1.3946357,0,0,1.3946357,333.41373,351.21296)"
         id="g262"><path
           inkscape:connector-curvature="0"
           id="path264"
           style="fill:#f8f5ef;fill-opacity:1;fill-rule:nonzero;stroke:none"
           d="m 0,0 c -3.633,0.888 -11.134,2.436 -19.615,2.53 v 0.035 c 0,0 -0.088,-0.005 -0.249,-0.017 -0.16,0.012 -0.249,0.017 -0.249,0.017 V 2.53 c -3.147,-0.236 -14.46,-0.079 -18.077,-6.108 -3.988,-6.645 -6.024,-60.763 -6.024,-60.763 H 6.119 C 6.119,-64.341 1.473,-0.36 0,0" /></g><g
         transform="matrix(1.3946357,0,0,1.3946357,271.75159,261.48099)"
         id="g266"><path
           inkscape:connector-curvature="0"
           id="path268"
           style="fill:#ffb197;fill-opacity:1;fill-rule:nonzero;stroke:none"
           d="m 0,0 19.538,-143.22 4.918,0.235 0.878,131.319 L 28.333,-12 51.194,-149.351 57.048,-149 50.333,0 Z" /></g><g
         transform="matrix(1.3946357,0,0,1.3946357,320.52562,341.19041)"
         id="g270"><path
           inkscape:connector-curvature="0"
           id="path272-1"
           style="fill:#ffb197;fill-opacity:1;fill-rule:nonzero;stroke:none"
           d="m 0,0 c 0.784,0.941 1.568,5.384 2.051,8.624 -3.554,0.565 -7.843,1.042 -12.425,1.092 v 0.035 c 0,0 -0.088,-0.005 -0.249,-0.016 -0.16,0.011 -0.249,0.016 -0.249,0.016 V 9.716 C -12.531,9.592 -16.46,9.568 -20.335,8.698 -20.476,6.658 -20.604,2.514 -19.477,1.012 -17.959,-1.012 -1.265,-1.518 0,0" /></g><g
         transform="matrix(1.3946357,0,0,1.3946357,337.56361,354.63624)"
         id="g274"><path
           inkscape:connector-curvature="0"
           id="path276"
           style="fill:#403f5f;fill-opacity:1;fill-rule:nonzero;stroke:none"
           d="m 0,0 c 0,0 11.029,-1.527 13.585,-14.243 1.64,-8.161 3.705,-23.515 4.975,-33.465 1.142,-8.96 -7.289,-16.809 -17.51,-15.95 -2.794,0.235 -5.932,0.863 -9.436,2.041 l 5.784,48.496 z" /></g><g
         transform="matrix(1.3946357,0,0,1.3946357,307.45231,371.18526)"
         id="g278"><path
           inkscape:connector-curvature="0"
           id="path280"
           style="fill:#ffb197;fill-opacity:1;fill-rule:nonzero;stroke:none"
           d="m 0,0 v 0 c -2.752,0 -4.983,-2.231 -4.983,-4.983 v -9.303 c 0,-2.752 2.231,-4.983 4.983,-4.983 2.753,0 4.983,2.231 4.983,4.983 v 9.303 C 4.983,-2.231 2.753,0 0,0" /></g><g
         transform="matrix(1.3946357,0,0,1.3946357,307.45231,373.97453)"
         id="g282"><path
           inkscape:connector-curvature="0"
           id="path284"
           style="fill:#f98e72;fill-opacity:1;fill-rule:nonzero;stroke:none"
           d="m 0,0 v 0 c -2.752,0 -4.983,-2.231 -4.983,-4.983 v -6.395 c 1.58,-0.474 3.251,-0.735 4.983,-0.735 1.733,0 3.404,0.261 4.983,0.735 v 6.395 C 4.983,-2.231 2.753,0 0,0" /></g><g
         transform="matrix(1.3946357,0,0,1.3946357,330.25,385.12144)"
         id="g286"><path
           inkscape:connector-curvature="0"
           id="path288-2"
           style="fill:#ffb197;fill-opacity:1;fill-rule:nonzero;stroke:none"
           d="m 0,0 c 0,-9.58 -7.767,-17.346 -17.347,-17.346 -9.579,0 -17.345,7.766 -17.345,17.346 0,9.58 7.766,17.346 17.345,17.346 C -7.767,17.346 0,9.58 0,0" /></g><g
         transform="matrix(1.3946357,0,0,1.3946357,292.8495,383.72806)"
         id="g290"><path
           inkscape:connector-curvature="0"
           id="path292"
           style="fill:#ffb197;fill-opacity:1;fill-rule:nonzero;stroke:none"
           d="m 0,0 c 0,-2.88 -2.336,-5.216 -5.216,-5.216 -2.881,0 -5.216,2.336 -5.216,5.216 0,2.88 2.335,5.215 5.216,5.215 C -2.336,5.215 0,2.88 0,0" /></g><g
         transform="matrix(1.3946357,0,0,1.3946357,336.09408,384.07002)"
         id="g294"><path
           inkscape:connector-curvature="0"
           id="path296"
           style="fill:#ffb197;fill-opacity:1;fill-rule:nonzero;stroke:none"
           d="m 0,0 c 0,-2.88 -2.335,-5.216 -5.216,-5.216 -2.88,0 -5.216,2.336 -5.216,5.216 0,2.88 2.336,5.215 5.216,5.215 C -2.335,5.215 0,2.88 0,0" /></g><g
         transform="matrix(1.3946357,0,0,1.3946357,297.8561,385.50413)"
         id="g298"><path
           inkscape:connector-curvature="0"
           id="path300"
           style="fill:#752b19;fill-opacity:1;fill-rule:nonzero;stroke:none"
           d="m 0,0 c 0,-0.707 -0.577,-1.28 -1.29,-1.28 -0.712,0 -1.289,0.573 -1.289,1.28 0,0.707 0.577,1.28 1.289,1.28 C -0.577,1.28 0,0.707 0,0" /></g><g
         transform="matrix(1.3946357,0,0,1.3946357,314.71696,385.50413)"
         id="g302"><path
           inkscape:connector-curvature="0"
           id="path304"
           style="fill:#752b19;fill-opacity:1;fill-rule:nonzero;stroke:none"
           d="m 0,0 c 0,-0.707 -0.577,-1.28 -1.289,-1.28 -0.712,0 -1.29,0.573 -1.29,1.28 0,0.707 0.578,1.28 1.29,1.28 C -0.577,1.28 0,0.707 0,0" /></g><g
         transform="matrix(1.3946357,0,0,1.3946357,287.57875,390.4827)"
         id="g306"><path
           inkscape:connector-curvature="0"
           id="path308"
           style="fill:#c43d2b;fill-opacity:1;fill-rule:nonzero;stroke:none"
           d="m 0,0 -0.547,0.513 c 2.533,2.701 5.85,2.072 5.989,2.046 L 5.296,1.823 C 5.176,1.847 2.24,2.389 0,0" /></g><g
         transform="matrix(1.3946357,0,0,1.3946357,315.59405,390.4827)"
         id="g310"><path
           inkscape:connector-curvature="0"
           id="path312"
           style="fill:#c43d2b;fill-opacity:1;fill-rule:nonzero;stroke:none"
           d="m 0,0 c -2.242,2.39 -5.175,1.848 -5.296,1.823 l -0.146,0.736 c 0.141,0.027 3.458,0.654 5.989,-2.046 z" /></g><g
         transform="matrix(1.3946357,0,0,1.3946357,269.28922,210.12729)"
         id="g314"><path
           inkscape:connector-curvature="0"
           id="path316-7"
           style="fill:#ffb197;fill-opacity:1;fill-rule:nonzero;stroke:none"
           d="m 0,0 c 0,-3.422 -2.774,-6.196 -6.197,-6.196 -3.422,0 -6.197,2.774 -6.197,6.196 0,3.423 2.775,6.197 6.197,6.197 C -2.774,6.197 0,3.423 0,0" /></g><g
         transform="matrix(1.3946357,0,0,1.3946357,282.81732,354.28688)"
         id="g318"><path
           inkscape:connector-curvature="0"
           id="path320"
           style="fill:#403f5f;fill-opacity:1;fill-rule:nonzero;stroke:none"
           d="m 0,0 c 0,0 -11.029,-1.527 -13.585,-14.243 -1.641,-8.161 -12.885,-83.885 -12.885,-83.885 0,0 9.196,-3.442 19.417,-2.583 2.793,0.234 13,-0.834 15.438,39.094 l -5.784,48.496 z" /></g><g
         transform="matrix(1.3946357,0,0,1.3946357,282.81732,354.28688)"
         id="g322"><path
           inkscape:connector-curvature="0"
           id="path324"
           style="fill:#403f5f;fill-opacity:1;fill-rule:nonzero;stroke:none"
           d="m 0,0 c 0,0 -11.029,-1.527 -13.585,-14.243 -1.641,-8.161 -12.885,-83.885 -12.885,-83.885 0,0 9.196,-3.442 19.417,-2.583 2.793,0.234 13,-0.834 15.438,39.094 l -5.784,48.496 z" /></g><g
         transform="matrix(1.3946357,0,0,1.3946357,286.38703,224.76413)"
         id="g326"><path
           inkscape:connector-curvature="0"
           id="path328"
           style="fill:#fc4477;fill-opacity:1;fill-rule:nonzero;stroke:none"
           d="M 0,0 C 0.359,0.779 0.713,1.64 1.06,2.584 -4.544,4.445 -17.117,7.972 -27.33,6.15 -27.496,5.038 -27.653,3.984 -27.799,3.007 -21.211,2.875 -6.992,2.322 0,0" /></g><g
         transform="matrix(1.3946357,0,0,1.3946357,289.38606,233.07881)"
         id="g330"><path
           inkscape:connector-curvature="0"
           id="path332"
           style="fill:#fc4477;fill-opacity:1;fill-rule:nonzero;stroke:none"
           d="M 0,0 C 0.245,0.86 0.484,1.775 0.715,2.747 -4.355,4.494 -17.751,8.522 -28.52,6.607 -28.682,5.524 -28.839,4.475 -28.991,3.461 -21.986,3.32 -6.406,2.703 0,0" /></g><g
         transform="matrix(1.3946357,0,0,1.3946357,305.8588,62.068444)"
         id="g334"><path
           inkscape:connector-curvature="0"
           id="path336-0"
           style="fill:#cf6646;fill-opacity:1;fill-rule:nonzero;stroke:none"
           d="M 0,0 -4.918,-0.234 -21.192,-3.396 -20.958,-4.684 0,-3.63 Z" /></g><g
         transform="matrix(1.3946357,0,0,1.3946357,343.59848,53.749721)"
         id="g338"><path
           inkscape:connector-curvature="0"
           id="path340"
           style="fill:#cf6646;fill-opacity:1;fill-rule:nonzero;stroke:none"
           d="m 0,0 0.234,-2.81 16.625,-6.908 3.044,0.235 0.118,1.639 -14.167,8.196 z" /></g><g
         transform="matrix(1.3946357,0,0,1.3946357,348.14331,325.53075)"
         id="g342"><path
           inkscape:connector-curvature="0"
           id="path344"
           style="fill:#35324c;fill-opacity:1;fill-rule:nonzero;stroke:none"
           d="m 0,0 -0.892,13.394 c -0.255,3.845 -3.155,6.994 -6.966,7.564 l -8.511,1.275 -10.636,-22.178 -12.861,21.79 -6.975,-1.226 c -3.736,-0.656 -6.534,-3.789 -6.765,-7.575 l -6.942,-130.177 c 0,0 6.853,-13.582 34.61,-12.869 27.756,0.713 35.905,12.615 35.905,12.615 z" /></g><g
         transform="matrix(1.3946357,0,0,1.3946357,336.85541,354.80917)"
         id="g346"><path
           inkscape:connector-curvature="0"
           id="path348"
           style="fill:#fc4477;fill-opacity:1;fill-rule:nonzero;stroke:none"
           d="m 0,0 -8.275,1.239 -10.636,-22.178 -12.861,21.791 -6.975,-1.227 c -0.397,-0.069 -0.779,-0.172 -1.153,-0.295 5.128,-11.243 19.514,-41.483 19.514,-41.483 z" /></g><g
         transform="matrix(1.3946357,0,0,1.3946357,310.48132,325.60689)"
         id="g350"><path
           inkscape:connector-curvature="0"
           id="path352"
           style="fill:#e53e72;fill-opacity:1;fill-rule:nonzero;stroke:none"
           d="m 0,0 -5.567,-12.593 -1.911,4.034 6.439,10.32 z" /></g><g
         transform="matrix(1.3946357,0,0,1.3946357,303.28067,401.10731)"
         id="g354"><path
           inkscape:connector-curvature="0"
           id="path356"
           style="fill:#c43d2b;fill-opacity:1;fill-rule:nonzero;stroke:none"
           d="M 0,0 C -5.152,-2.546 -9.695,-6.163 -14.672,-9.037 -14.902,-3.573 -12.07,1.919 -7.485,4.9 -4.098,7.102 1.192,8.377 5.13,6.928 11.495,4.587 2.383,1.178 0,0" /></g><g
         transform="matrix(1.3946357,0,0,1.3946357,297.64634,390.88449)"
         id="g358"><path
           inkscape:connector-curvature="0"
           id="path360-9"
           style="fill:#c43d2b;fill-opacity:1;fill-rule:nonzero;stroke:none"
           d="m 0,0 c 4.131,1.973 7.726,5.055 10.307,8.835 0.067,0.099 0.136,0.207 0.129,0.327 -0.012,0.165 -0.164,0.28 -0.304,0.369 C 7.229,11.366 5.98,11.004 4.239,8.377 3.315,6.984 1.145,0.546 0,0" /></g><g
         transform="matrix(1.3946357,0,0,1.3946357,329.91082,386.47242)"
         id="g362"><path
           inkscape:connector-curvature="0"
           id="path364"
           style="fill:#c43d2b;fill-opacity:1;fill-rule:nonzero;stroke:none"
           d="m 0,0 c -0.262,1.478 -0.149,2.882 -0.41,4.36 -0.23,1.302 -0.835,2.686 -1.312,3.92 -1.074,2.783 -10.482,10.369 -10.18,3.996 C -11.661,7.181 -4.249,1.619 0,0" /></g><g
         transform="matrix(1.3946357,0,0,1.3946357,284.46257,413.29461)"
         id="g366"><path
           inkscape:connector-curvature="0"
           id="path368"
           style="fill:#35324c;fill-opacity:1;fill-rule:nonzero;stroke:none"
           d="m 0,0 0.93,-9.994 9.064,1.627 19.524,-1.162 -0.465,12.318 c 0,0 -5.82,4.969 -14.56,5.322 C 9.021,8.333 3.896,5.549 0,0" /></g><g
         transform="matrix(1.3946357,0,0,1.3946357,319.08887,413.913)"
         id="g370"><path
           inkscape:connector-curvature="0"
           id="path372"
           style="fill:#fc4477;fill-opacity:1;fill-rule:nonzero;stroke:none"
           d="m 0,0 c -0.204,0 -0.372,0.164 -0.375,0.369 -0.002,0.097 -0.153,9.68 -0.153,11.653 0,1.632 -0.996,1.741 -1.007,1.742 -0.206,0.018 -0.359,0.201 -0.339,0.407 0.019,0.205 0.187,0.354 0.407,0.34 C -0.883,14.458 0.222,13.87 0.222,12.022 0.222,10.055 0.373,0.478 0.375,0.381 0.378,0.174 0.213,0.003 0.006,0 Z" /></g><g
         transform="matrix(1.3946357,0,0,1.3946357,-98.659054,-49.518729)"
         id="g374"><g
           id="g376" /><g
           id="g388"><g
             style="opacity:0.39999402"
             id="g386"
             clip-path="url(#clipPath380)"><g
               id="g384"
               transform="translate(289.3154,224.1787)"><path
                 inkscape:connector-curvature="0"
                 id="path382-3"
                 style="fill:#35324c;fill-opacity:1;fill-rule:nonzero;stroke:none"
                 d="m 0,0 c 0.124,0.113 0.206,0.19 0.206,0.19 0,0 3.755,13.017 3.755,13.768 0,0.638 -1.443,9.925 -5.246,11.345 C -2.07,25.137 -2.862,24.972 -3.66,24.806 -4.394,22.048 -8.613,5.867 -8.428,-0.324 -5.427,-0.408 -2.557,-0.257 0,0" /></g></g></g></g><g
         transform="matrix(1.3946357,0,0,1.3946357,358.12765,300.46873)"
         id="g390"><path
           inkscape:connector-curvature="0"
           id="path392"
           style="fill:#403f5f;fill-opacity:1;fill-rule:nonzero;stroke:none"
           d="m 0,0 1.862,-9.046 c 0,0 3.992,-6.385 5.588,-10.642 1.596,-4.257 6.917,-32.193 -3.459,-30.597 -10.376,1.597 -13.037,22.616 -12.239,29.267 0.799,6.651 0.799,11.174 0.799,11.174 z" /></g><g
         transform="matrix(1.3946357,0,0,1.3946357,334.97461,307.33368)"
         id="g394"><path
           inkscape:connector-curvature="0"
           id="path396"
           style="fill:#ffffff;fill-opacity:1;fill-rule:nonzero;stroke:none"
           d="m 0,0 2.608,-19.771 4.438,-32.518 c 0,0 6.211,-2.262 10.823,1.266 L 11.667,-19.749 9.057,2.335 C 9.057,2.335 2.118,5.846 0,0" /></g><g
         transform="matrix(1.3946357,0,0,1.3946357,353.94374,266.87558)"
         id="g398"><path
           inkscape:connector-curvature="0"
           id="path400-6"
           style="fill:#fc4477;fill-opacity:1;fill-rule:nonzero;stroke:none"
           d="M 0,0 -0.791,3.495 C -1.377,3.434 -1.967,3.405 -2.546,3.396 -5.15,3.36 -7.758,3.631 -10.304,4.183 l 0.343,-3.79 C -9.386,0.299 -0.487,0.03 0,0" /></g><g
         transform="matrix(1.3946357,0,0,1.3946357,344.80372,269.25092)"
         id="g402"><path
           inkscape:connector-curvature="0"
           id="path404"
           style="fill:#fc4477;fill-opacity:1;fill-rule:nonzero;stroke:none"
           d="m 0,0 -0.393,-7.994 1.834,-0.263 v 7.602 l 1.443,-7.208 c 0,0 2.358,0 1.835,0.262 -0.525,0.262 -1.573,8.256 -1.573,8.256 z" /></g><g
         transform="matrix(1.3946357,0,0,1.3946357,362.32118,274.89473)"
         id="g406"><path
           inkscape:connector-curvature="0"
           id="path408"
           style="fill:#ffb197;fill-opacity:1;fill-rule:nonzero;stroke:none"
           d="m 0,0 c 0,-3.422 -2.774,-6.196 -6.196,-6.196 -3.423,0 -6.198,2.774 -6.198,6.196 0,3.423 2.775,6.197 6.198,6.197 C -2.774,6.197 0,3.423 0,0" /></g><g
         transform="matrix(1.3946357,0,0,1.3946357,297.74439,375.80709)"
         id="g410"><path
           inkscape:connector-curvature="0"
           id="path412"
           style="fill:#ffffff;fill-opacity:1;fill-rule:nonzero;stroke:none"
           d="m 0,0 c 0.431,-3.269 3.308,-5.708 6.655,-5.528 3.349,0.179 5.949,2.91 6.029,6.207 z" /></g><g
         transform="matrix(1.3946357,0,0,1.3946357,307.02597,368.09698)"
         id="g414"><path
           inkscape:connector-curvature="0"
           id="path416-0"
           style="fill:#c53660;fill-opacity:1;fill-rule:nonzero;stroke:none"
           d="M 0,0 C 2.543,0.136 4.651,1.747 5.555,3.957 4.673,4.37 3.679,4.579 2.638,4.523 0.105,4.388 -1.985,2.732 -2.798,0.488 -1.939,0.128 -0.991,-0.053 0,0" /></g><g
         transform="matrix(1.3946357,0,0,1.3946357,-98.659054,-49.518729)"
         id="g418"><g
           id="g420" /><g
           id="g436"><g
             style="opacity:0.19999701"
             id="g434"
             clip-path="url(#clipPath424)"><g
               id="g428"
               transform="translate(290.6406,167.9795)"><path
                 inkscape:connector-curvature="0"
                 id="path426"
                 style="fill:#35324c;fill-opacity:1;fill-rule:nonzero;stroke:none"
                 d="m 0,0 -10.822,-1.237 -6.052,-3.631 3.799,-27.847 c 3.258,-0.443 7.828,-0.982 12.846,-1.371 z" /></g><g
               id="g432"
               transform="translate(306.8359,133.4551)"><path
                 inkscape:connector-curvature="0"
                 id="path430"
                 style="fill:#35324c;fill-opacity:1;fill-rule:nonzero;stroke:none"
                 d="m 0,0 c 5.162,0.211 9.82,0.86 13.029,2.217 l -1.056,23.454 c -0.223,0.253 -0.356,0.394 -0.356,0.394 l -16.892,5.631 z" /></g></g></g></g><g
         transform="matrix(1.3946357,0,0,1.3946357,319.36124,407.56838)"
         id="g438"><path
           inkscape:connector-curvature="0"
           id="path440"
           style="fill:#fc4477;fill-opacity:1;fill-rule:nonzero;stroke:none"
           d="M 0,0 0.204,-1.738 1.227,-1.84 0.492,5.001 h -1.237 l -0.754,-6.568 1.115,-0.112 z" /></g><g
         transform="matrix(1.3946357,0,0,1.3946357,208.39775,55.443925)"
         id="g442"><path
           inkscape:connector-curvature="0"
           id="path444"
           style="fill:#35324c;fill-opacity:1;fill-rule:nonzero;stroke:none"
           d="m 0,0 v -3.774 l 5.977,-11.954 5.032,0.315 -6.291,15.727 z" /></g><g
         transform="matrix(1.3946357,0,0,1.3946357,189.28692,64.786868)"
         id="g446"><path
           inkscape:connector-curvature="0"
           id="path448"
           style="fill:#35324c;fill-opacity:1;fill-rule:nonzero;stroke:none"
           d="m 0,0 -0.234,-2.811 -16.626,-6.907 -3.044,0.234 -0.117,1.639 14.167,8.196 z" /></g><g
         transform="matrix(1.3946357,0,0,1.3946357,158.93309,216.33091)"
         id="g450"><path
           inkscape:connector-curvature="0"
           id="path452"
           style="fill:#ffb197;fill-opacity:1;fill-rule:nonzero;stroke:none"
           d="m 0,0 c 0,-3.423 -2.774,-6.197 -6.197,-6.197 -3.422,0 -6.197,2.774 -6.197,6.197 0,3.422 2.775,6.196 6.197,6.196 C -2.774,6.196 0,3.422 0,0" /></g><g
         transform="matrix(1.3946357,0,0,1.3946357,178.23262,334.45823)"
         id="g454"><path
           inkscape:connector-curvature="0"
           id="path456"
           style="fill:#403f5f;fill-opacity:1;fill-rule:nonzero;stroke:none"
           d="m 0,0 -2.602,14.944 c 0,0 -11.028,-1.739 -13.584,-16.222 -2.556,-14.482 -4.774,-29.8 -4.774,-29.8 l -9.47,-46.768 c 0,0 8.472,-5.295 19.856,-2.912 11.385,2.383 9.531,25.945 9.531,25.945 l 1.324,53.214 z" /></g><g
         transform="matrix(1.3946357,0,0,1.3946357,223.46986,342.27182)"
         id="g458"><path
           inkscape:connector-curvature="0"
           id="path460"
           style="fill:#eef2f7;fill-opacity:1;fill-rule:nonzero;stroke:none"
           d="M 0,0 C -0.315,5.115 1.503,8.681 -3.579,9.344 -7.531,9.86 -21.392,13.8 -21.392,13.8 c 0,0 -16.04,-3.856 -17.626,-6.501 -3.987,-6.644 -3.749,-66.448 -3.749,-66.448 l 46.344,1.022 z" /></g><g
         transform="matrix(1.3946357,0,0,1.3946357,163.82589,259.77981)"
         id="g462"><path
           inkscape:connector-curvature="0"
           id="path464"
           style="fill:#cf6646;fill-opacity:1;fill-rule:nonzero;stroke:none"
           d="m 0,0 8.345,-141.053 10.475,0.283 v 126.826 h 5.661 l 5.096,-133.054 9.626,0.283 7.141,147.737 z" /></g><g
         transform="matrix(1.3946357,0,0,1.3946357,191.69894,371.18526)"
         id="g466"><path
           inkscape:connector-curvature="0"
           id="path468-6"
           style="fill:#ffb197;fill-opacity:1;fill-rule:nonzero;stroke:none"
           d="m 0,0 v 0 c -2.752,0 -4.983,-2.231 -4.983,-4.983 v -6.302 c 0,-2.753 2.231,-4.984 4.983,-4.984 2.752,0 4.983,2.231 4.983,4.984 v 6.302 C 4.983,-2.231 2.752,0 0,0" /></g><g
         transform="matrix(1.3946357,0,0,1.3946357,191.69894,373.97523)"
         id="g470"><path
           inkscape:connector-curvature="0"
           id="path472"
           style="fill:#f98e72;fill-opacity:1;fill-rule:nonzero;stroke:none"
           d="m 0,0 v 0 c -2.752,0 -4.983,-2.231 -4.983,-4.983 v -6.395 c 1.579,-0.474 3.25,-0.735 4.983,-0.735 1.733,0 3.404,0.261 4.983,0.735 v 6.395 C 4.983,-2.231 2.752,0 0,0" /></g><g
         transform="matrix(1.3946357,0,0,1.3946357,215.88987,385.12214)"
         id="g474"><path
           inkscape:connector-curvature="0"
           id="path476"
           style="fill:#ffb197;fill-opacity:1;fill-rule:nonzero;stroke:none"
           d="m 0,0 c 0,-9.58 -7.766,-17.346 -17.346,-17.346 -9.58,0 -17.346,7.766 -17.346,17.346 0,9.58 7.766,17.346 17.346,17.346 C -7.766,17.346 0,9.58 0,0" /></g><g
         transform="matrix(1.3946357,0,0,1.3946357,175.7001,383.72876)"
         id="g478"><path
           inkscape:connector-curvature="0"
           id="path480"
           style="fill:#ffb197;fill-opacity:1;fill-rule:nonzero;stroke:none"
           d="m 0,0 c 0,-2.881 -2.335,-5.216 -5.216,-5.216 -2.88,0 -5.215,2.335 -5.215,5.216 0,2.88 2.335,5.215 5.215,5.215 C -2.335,5.215 0,2.88 0,0" /></g><g
         transform="matrix(1.3946357,0,0,1.3946357,221.55628,383.72876)"
         id="g482"><path
           inkscape:connector-curvature="0"
           id="path484-2"
           style="fill:#ffb197;fill-opacity:1;fill-rule:nonzero;stroke:none"
           d="m 0,0 c 0,-2.881 -2.335,-5.216 -5.215,-5.216 -2.881,0 -5.216,2.335 -5.216,5.216 0,2.88 2.335,5.215 5.216,5.215 C -2.335,5.215 0,2.88 0,0" /></g><g
         transform="matrix(1.3946357,0,0,1.3946357,167.80213,389.40883)"
         id="g486"><path
           inkscape:connector-curvature="0"
           id="path488"
           style="fill:#f49200;fill-opacity:1;fill-rule:nonzero;stroke:none"
           d="m 0,0 c 0,0 12.421,14.899 27.009,11.356 0,0 -8.574,8.611 -17.332,4.147 C -0.95,10.085 0,0 0,0" /></g><g
         transform="matrix(1.3946357,0,0,1.3946357,184.89116,385.50413)"
         id="g490"><path
           inkscape:connector-curvature="0"
           id="path492"
           style="fill:#1b1936;fill-opacity:1;fill-rule:nonzero;stroke:none"
           d="m 0,0 c 0,-0.707 -0.578,-1.28 -1.29,-1.28 -0.712,0 -1.29,0.573 -1.29,1.28 0,0.707 0.578,1.28 1.29,1.28 C -0.578,1.28 0,0.707 0,0" /></g><g
         transform="matrix(1.3946357,0,0,1.3946357,201.75287,385.50413)"
         id="g494"><path
           inkscape:connector-curvature="0"
           id="path496"
           style="fill:#1b1936;fill-opacity:1;fill-rule:nonzero;stroke:none"
           d="m 0,0 c 0,-0.707 -0.577,-1.28 -1.29,-1.28 -0.712,0 -1.289,0.573 -1.289,1.28 0,0.707 0.577,1.28 1.289,1.28 C -0.577,1.28 0,0.707 0,0" /></g><g
         transform="matrix(1.3946357,0,0,1.3946357,177.40392,390.4834)"
         id="g498"><path
           inkscape:connector-curvature="0"
           id="path500"
           style="fill:#752b19;fill-opacity:1;fill-rule:nonzero;stroke:none"
           d="M 0,0 -0.547,0.513 C 1.985,3.214 5.302,2.587 5.442,2.559 L 5.296,1.823 C 5.172,1.847 2.24,2.388 0,0" /></g><g
         transform="matrix(1.3946357,0,0,1.3946357,205.41853,390.4834)"
         id="g502"><path
           inkscape:connector-curvature="0"
           id="path504"
           style="fill:#752b19;fill-opacity:1;fill-rule:nonzero;stroke:none"
           d="m 0,0 c -2.239,2.388 -5.17,1.847 -5.296,1.823 l -0.146,0.736 c 0.14,0.028 3.457,0.654 5.989,-2.046 z" /></g><g
         transform="matrix(1.3946357,0,0,1.3946357,205.38645,402.42831)"
         id="g506"><path
           inkscape:connector-curvature="0"
           id="path508-6"
           style="fill:#f49200;fill-opacity:1;fill-rule:nonzero;stroke:none"
           d="M 0,0 C 1.227,-2.591 2.948,-4.912 4.657,-7.214 4.988,-7.661 5.326,-8.113 5.769,-8.45 6.167,-8.753 6.645,-8.953 7.141,-9.023 7.308,-7.195 7.026,-4.973 6.148,-3.36 5.498,-2.163 4.749,-1.247 3.865,-0.209 3.09,0.7 1.424,1.163 0.392,1.748 -0.127,2.042 -0.423,2.345 -0.562,1.708 -0.666,1.229 -0.198,0.417 0,0" /></g><g
         transform="matrix(1.3946357,0,0,1.3946357,151.60721,418.55588)"
         id="g510"><path
           inkscape:connector-curvature="0"
           id="path512"
           style="fill:#403f5f;fill-opacity:1;fill-rule:nonzero;stroke:none"
           d="M 0,0 27.448,17.174 57.043,0.613 28.829,-10.887 Z" /></g><g
         transform="matrix(1.3946357,0,0,1.3946357,168.28844,418.98347)"
         id="g514"><path
           inkscape:connector-curvature="0"
           id="path516"
           style="fill:#35324c;fill-opacity:1;fill-rule:nonzero;stroke:none"
           d="m 0,0 1.84,-12.267 14.414,-3.067 13.187,3.987 2.607,13.034 c 0,0 -7.513,5.014 -16.254,5.367 C 10.323,7.275 3.896,5.549 0,0" /></g><g
         transform="matrix(1.3946357,0,0,1.3946357,217.04756,409.27416)"
         id="g518"><path
           inkscape:connector-curvature="0"
           id="path520"
           style="fill:#fc4477;fill-opacity:1;fill-rule:nonzero;stroke:none"
           d="m 0,0 c -0.205,0 -0.372,0.164 -0.375,0.369 -0.001,0.097 -0.153,9.68 -0.153,11.653 0,1.632 -0.997,1.741 -1.007,1.742 -0.206,0.018 -0.359,0.201 -0.34,0.407 0.018,0.206 0.19,0.363 0.407,0.34 0.585,-0.053 1.69,-0.641 1.69,-2.489 C 0.222,10.055 0.374,0.478 0.375,0.381 0.378,0.174 0.213,0.003 0.006,0 Z" /></g><g
         transform="matrix(1.3946357,0,0,1.3946357,186.66988,342.50332)"
         id="g522"><path
           inkscape:connector-curvature="0"
           id="path524"
           style="fill:#3f4ad1;fill-opacity:1;fill-rule:nonzero;stroke:none"
           d="m 0,0 -4.725,-11.069 2.97,-8.37 4.995,5.399 -1.755,14.445 z" /></g><g
         transform="matrix(1.3946357,0,0,1.3946357,137.92165,236.3993)"
         id="g526"><path
           inkscape:connector-curvature="0"
           id="path528"
           style="fill:#fc4477;fill-opacity:1;fill-rule:nonzero;stroke:none"
           d="m 0,0 c 2.62,-1.164 7.436,-2.894 13.197,-3.021 l -0.195,2.328 c 0,0 -8.038,1.493 -12.54,2.977 z" /></g><g
         transform="matrix(1.3946357,0,0,1.3946357,136.79534,230.83708)"
         id="g530"><path
           inkscape:connector-curvature="0"
           id="path532"
           style="fill:#fc4477;fill-opacity:1;fill-rule:nonzero;stroke:none"
           d="m 0,0 c 2.427,-1.141 7.564,-3.161 13.81,-3.301 l -0.194,2.328 c 0,0 -8.834,1.642 -13.166,3.193 z" /></g><g
         transform="matrix(1.3946357,0,0,1.3946357,217.31923,402.93024)"
         id="g534"><path
           inkscape:connector-curvature="0"
           id="path536"
           style="fill:#fc4477;fill-opacity:1;fill-rule:nonzero;stroke:none"
           d="M 0,0 0.204,-1.738 1.227,-1.84 0.492,5 H -0.746 L -1.5,-1.568 -0.384,-1.679 Z" /></g><g
         transform="matrix(1.3946357,0,0,1.3946357,233.89071,326.33629)"
         id="g538"><path
           inkscape:connector-curvature="0"
           id="path540"
           style="fill:#35324c;fill-opacity:1;fill-rule:nonzero;stroke:none"
           d="m 0,0 c -0.244,3.754 -1.515,7.46 -3.484,10.665 -2.058,3.347 -3.115,7.147 -6.211,9.567 -0.694,0.542 -3.497,0.808 -4.185,1.35 l -22.388,-25.687 -9.06,23.969 c -1.51,-0.634 -3.071,-1.34 -4.091,-2.62 -1.091,-1.369 -1.398,-3.183 -1.67,-4.912 -1.257,-8.007 -2.515,-16.014 -3.772,-24.021 -1.177,-7.496 -2.355,-14.999 -2.984,-22.561 -0.54,-6.502 -0.674,-13.032 -0.806,-19.555 -0.329,-16.169 -4.903,-67.513 -3.855,-69.567 1.872,-3.672 57.683,-6.821 71.56,1.023 C 8.031,-77.369 2.92,-44.997 0,0" /></g><g
         transform="matrix(1.3946357,0,0,1.3946357,248.04348,272.77963)"
         id="g542"><path
           inkscape:connector-curvature="0"
           id="path544"
           style="fill:#403f5f;fill-opacity:1;fill-rule:nonzero;stroke:none"
           d="m 0,0 c 1.579,17.897 -4.219,62.473 -24.021,58.958 l 6.986,-51.483 -32.299,0.264 -1.589,-29.651 43.561,14.188 C -3.412,-7.166 -0.351,-3.974 0,0" /></g><g
         transform="matrix(1.3946357,0,0,1.3946357,200.41332,358.31752)"
         id="g546"><path
           inkscape:connector-curvature="0"
           id="path548"
           style="fill:#ffffff;fill-opacity:1;fill-rule:nonzero;stroke:none"
           d="m 0,0 -7.155,-3.915 -4.86,4.185 -1.08,-11.205 5.612,5.222 4.648,-5.896 z" /></g><g
         transform="matrix(1.3946357,0,0,1.3946357,190.05843,350.41007)"
         id="g550"><path
           inkscape:connector-curvature="0"
           id="path552"
           style="fill:#3f4ad1;fill-opacity:1;fill-rule:nonzero;stroke:none"
           d="m 0,0 -4.32,-4.05 2.025,-3.644 4.86,4.59 z" /></g><g
         transform="matrix(1.3946357,0,0,1.3946357,179.23982,283.57313)"
         id="g554"><path
           inkscape:connector-curvature="0"
           id="path556-1"
           style="fill:#35324c;fill-opacity:1;fill-rule:nonzero;stroke:none"
           d="m 0,0 c 0,0 8.278,-0.287 8.57,-0.334 2.463,-0.391 1.226,-12.903 1.226,-12.903 L 2.913,-30.181 -4.236,-4.766 Z" /></g><g
         transform="matrix(1.3946357,0,0,1.3946357,182.06521,375.49441)"
         id="g558"><path
           inkscape:connector-curvature="0"
           id="path560"
           style="fill:#c53660;fill-opacity:1;fill-rule:nonzero;stroke:none"
           d="m 0,0 c 0.691,-3.413 3.775,-5.911 7.362,-5.748 3.587,0.164 6.431,2.931 6.81,6.393 z" /></g><g
         transform="matrix(1.3946357,0,0,1.3946357,182.06521,375.49441)"
         id="g562"><path
           inkscape:connector-curvature="0"
           id="path564"
           style="fill:#ffffff;fill-opacity:1;fill-rule:nonzero;stroke:none"
           d="m 0,0 c 0.166,-0.82 0.474,-1.585 0.89,-2.276 l 9.776,0.444 c 0.923,0.042 1.637,0.825 1.595,1.748 l -0.029,0.64 z" /></g><g
         transform="matrix(1.3946357,0,0,1.3946357,160.20932,348.48366)"
         id="g566"><path
           inkscape:connector-curvature="0"
           id="path568"
           style="fill:#e53e72;fill-opacity:1;fill-rule:nonzero;stroke:none"
           d="M 0,0 14.266,-35.104 16.564,-19.985 8.68,5.161 C 8.68,5.161 1.876,3.519 0,0" /></g><g
         transform="matrix(1.3946357,0,0,1.3946357,180.10533,299.52637)"
         id="g570"><path
           inkscape:connector-curvature="0"
           id="path572"
           style="fill:#fc4477;fill-opacity:1;fill-rule:nonzero;stroke:none"
           d="m 0,0 34.417,37.716 c 0,0 -4.539,3.902 -9.731,3.089 L 2.298,15.119 Z" /></g><g
         transform="matrix(1.3946357,0,0,1.3946357,160.04043,308.3116)"
         id="g574"><path
           inkscape:connector-curvature="0"
           id="path576-8"
           style="fill:#ffffff;fill-opacity:1;fill-rule:nonzero;stroke:none"
           d="m 0,0 10.59,-52.949 0.906,-0.65 c 3.796,-2.718 9.138,-0.717 10.213,3.827 L 11.384,-20.121 11.119,5.295 C 11.119,5.295 -0.529,7.678 0,0" /></g><g
         transform="matrix(1.3946357,0,0,1.3946357,180.16112,279.66843)"
         id="g578"><path
           inkscape:connector-curvature="0"
           id="path580"
           style="fill:#ffb197;fill-opacity:1;fill-rule:nonzero;stroke:none"
           d="m 0,0 c 0,-3.423 -2.774,-6.197 -6.197,-6.197 -3.422,0 -6.197,2.774 -6.197,6.197 0,3.422 2.775,6.196 6.197,6.196 C -2.774,6.196 0,3.422 0,0" /></g><g
         transform="matrix(1.3946357,0,0,1.3946357,173.33242,276.92686)"
         id="g582"><path
           inkscape:connector-curvature="0"
           id="path584"
           style="fill:#ffb197;fill-opacity:1;fill-rule:nonzero;stroke:none"
           d="m 0,0 c 2.118,-1.588 13.767,-2.383 13.767,-2.383 l 0.224,0.721 c 0.664,2.138 0.179,4.468 -1.283,6.163 L 1.854,5.295 Z" /></g><g
         transform="matrix(1.3946357,0,0,1.3946357,201.88773,250.31846)"
         id="g586"><path
           inkscape:connector-curvature="0"
           id="path588"
           style="fill:#fc4477;fill-opacity:1;fill-rule:nonzero;stroke:none"
           d="M 0,0 3.795,1.236 C 5.43,5.564 6.491,12.62 4.416,23.676 L 1.257,23.701 C 2.388,19.052 4.465,7.643 0,0" /></g><g
         transform="matrix(1.3946357,0,0,1.3946357,192.42889,247.23771)"
         id="g590"><path
           inkscape:connector-curvature="0"
           id="path592"
           style="fill:#fc4477;fill-opacity:1;fill-rule:nonzero;stroke:none"
           d="M 0,0 4.215,1.373 C 6.17,5.626 7.736,13.201 5.213,25.934 L 2.012,25.96 C 3.111,21.764 6.047,8.037 0,0" /></g><g
         transform="matrix(1.3946357,0,0,1.3946357,-98.659054,-49.518729)"
         id="g594"><g
           id="g596" /><g
           id="g612"><g
             style="opacity:0.39999402"
             id="g610"
             clip-path="url(#clipPath600)"><g
               id="g604"
               transform="translate(193.3032,135.6982)"><path
                 inkscape:connector-curvature="0"
                 id="path602"
                 style="fill:#35324c;fill-opacity:1;fill-rule:nonzero;stroke:none"
                 d="M 0,0 C 3.33,-0.765 8.326,-1.791 13.727,-2.674 V 26.271 L 9.245,26.711 -1.467,24.799 Z" /></g><g
               id="g608"
               transform="translate(230.1392,131.4629)"><path
                 inkscape:connector-curvature="0"
                 id="path606"
                 style="fill:#35324c;fill-opacity:1;fill-rule:nonzero;stroke:none"
                 d="M 0,0 1.253,25.921 -5.566,28.78 -15.663,29.773 -14.536,0.36 C -9.007,-0.265 -3.737,-0.523 0,0" /></g></g></g></g><g
         transform="matrix(1.3946357,0,0,1.3946357,459.32325,348.35215)"
         id="g614"><path
           inkscape:connector-curvature="0"
           id="path616"
           style="fill:#403f5f;fill-opacity:1;fill-rule:nonzero;stroke:none"
           d="m 0,0 c 0,0 11.792,-31.584 13.777,-31.981 1.986,-0.397 9.864,30.156 9.864,30.156 0,0 15.089,-3.177 17.075,-15.487 C 42.701,-29.623 18.871,-53.638 14.106,-55.625 9.341,-57.61 3.573,-56.513 0,-48.571 -3.574,-40.628 -16.801,-6.963 -16.403,-5.375 -16.006,-3.787 0,0 0,0" /></g><g
         transform="matrix(1.3946357,0,0,1.3946357,411.47526,55.443925)"
         id="g618"><path
           inkscape:connector-curvature="0"
           id="path620"
           style="fill:#35324c;fill-opacity:1;fill-rule:nonzero;stroke:none"
           d="m 0,0 v -3.774 l -5.977,-11.954 -5.032,0.315 6.291,15.727 z" /></g><g
         transform="matrix(1.3946357,0,0,1.3946357,430.58609,64.786868)"
         id="g622"><path
           inkscape:connector-curvature="0"
           id="path624"
           style="fill:#35324c;fill-opacity:1;fill-rule:nonzero;stroke:none"
           d="m 0,0 0.234,-2.811 16.626,-6.907 3.044,0.234 0.117,1.639 -14.167,8.196 z" /></g><g
         transform="matrix(1.3946357,0,0,1.3946357,396.40399,342.27182)"
         id="g626"><path
           inkscape:connector-curvature="0"
           id="path628"
           style="fill:#eef2f7;fill-opacity:1;fill-rule:nonzero;stroke:none"
           d="M 0,0 C 0.314,5.115 -1.503,8.681 3.579,9.344 7.531,9.86 21.392,13.8 21.392,13.8 c 0,0 16.04,-3.856 17.627,-6.501 3.986,-6.644 3.748,-66.448 3.748,-66.448 l -46.344,1.022 z" /></g><g
         transform="matrix(1.3946357,0,0,1.3946357,456.04781,259.77981)"
         id="g630"><path
           inkscape:connector-curvature="0"
           id="path632"
           style="fill:#5393db;fill-opacity:1;fill-rule:nonzero;stroke:none"
           d="m 0,0 -8.346,-141.053 -10.474,0.283 v 126.826 h -5.661 l -5.096,-133.054 -9.626,0.283 -7.141,147.737 z" /></g><g
         transform="matrix(1.3946357,0,0,1.3946357,428.17407,371.18526)"
         id="g634"><path
           inkscape:connector-curvature="0"
           id="path636"
           style="fill:#ffb197;fill-opacity:1;fill-rule:nonzero;stroke:none"
           d="m 0,0 v 0 c 2.753,0 4.983,-2.231 4.983,-4.983 v -6.302 c 0,-2.753 -2.23,-4.984 -4.983,-4.984 -2.752,0 -4.983,2.231 -4.983,4.984 v 6.302 C -4.983,-2.231 -2.752,0 0,0" /></g><g
         transform="matrix(1.3946357,0,0,1.3946357,428.17407,373.97523)"
         id="g638"><path
           inkscape:connector-curvature="0"
           id="path640"
           style="fill:#f98e72;fill-opacity:1;fill-rule:nonzero;stroke:none"
           d="m 0,0 v 0 c 2.753,0 4.983,-2.231 4.983,-4.983 v -6.395 C 3.404,-11.852 1.733,-12.113 0,-12.113 c -1.732,0 -3.403,0.261 -4.983,0.735 v 6.395 C -4.983,-2.231 -2.752,0 0,0" /></g><g
         transform="matrix(1.3946357,0,0,1.3946357,403.98313,385.12214)"
         id="g642"><path
           inkscape:connector-curvature="0"
           id="path644"
           style="fill:#ffb197;fill-opacity:1;fill-rule:nonzero;stroke:none"
           d="m 0,0 c 0,-9.58 7.767,-17.346 17.346,-17.346 9.58,0 17.346,7.766 17.346,17.346 0,9.58 -7.766,17.346 -17.346,17.346 C 7.767,17.346 0,9.58 0,0" /></g><g
         transform="matrix(1.3946357,0,0,1.3946357,444.17291,383.72876)"
         id="g646"><path
           inkscape:connector-curvature="0"
           id="path648"
           style="fill:#ffb197;fill-opacity:1;fill-rule:nonzero;stroke:none"
           d="m 0,0 c 0,-2.881 2.336,-5.216 5.216,-5.216 2.881,0 5.216,2.335 5.216,5.216 0,2.88 -2.335,5.215 -5.216,5.215 C 2.336,5.215 0,2.88 0,0" /></g><g
         transform="matrix(1.3946357,0,0,1.3946357,398.31743,383.72876)"
         id="g650"><path
           inkscape:connector-curvature="0"
           id="path652"
           style="fill:#ffb197;fill-opacity:1;fill-rule:nonzero;stroke:none"
           d="m 0,0 c 0,-2.881 2.335,-5.216 5.215,-5.216 2.881,0 5.216,2.335 5.216,5.216 0,2.88 -2.335,5.215 -5.216,5.215 C 2.335,5.215 0,2.88 0,0" /></g><g
         transform="matrix(1.3946357,0,0,1.3946357,416.85088,384.85925)"
         id="g654"><path
           inkscape:connector-curvature="0"
           id="path656"
           style="fill:#1b1936;fill-opacity:1;fill-rule:nonzero;stroke:none"
           d="M 0,0 C 0,-1.123 0.957,0.943 2.088,0.943 3.219,0.943 4.096,-1.123 4.096,0 4.096,1.123 3.18,2.032 2.048,2.032 0.917,2.032 0,1.123 0,0" /></g><g
         transform="matrix(1.3946357,0,0,1.3946357,434.09583,385.0213)"
         id="g658"><path
           inkscape:connector-curvature="0"
           id="path660"
           style="fill:#1b1936;fill-opacity:1;fill-rule:nonzero;stroke:none"
           d="M 0,0 C 0,-1.123 0.956,0.943 2.087,0.943 3.218,0.943 4.096,-1.123 4.096,0 4.096,1.123 3.179,2.032 2.048,2.032 0.917,2.032 0,1.123 0,0" /></g><g
         transform="matrix(1.3946357,0,0,1.3946357,492.16665,318.98238)"
         id="g662"><path
           inkscape:connector-curvature="0"
           id="path664"
           style="fill:#35324c;fill-opacity:1;fill-rule:nonzero;stroke:none"
           d="m 0,0 c 0.487,-3.287 1.513,-6.909 4.402,-8.549 3.013,-1.712 7.118,-0.404 9.247,2.33 2.129,2.734 2.544,6.494 1.934,9.905 -0.858,4.787 -3.73,9.104 -7.62,11.98 -1.622,1.199 -4.459,3.168 -6.57,3.15 C -0.222,18.803 0.041,18.024 -0.169,16.371 -0.374,14.754 -0.513,13.129 -0.586,11.502 -0.759,7.661 -0.563,3.803 0,0" /></g><g
         transform="matrix(1.3946357,0,0,1.3946357,491.93109,341.8134)"
         id="g666"><path
           inkscape:connector-curvature="0"
           id="path668"
           style="fill:#ffb197;fill-opacity:1;fill-rule:nonzero;stroke:none"
           d="m 0,0 c -0.205,-1.616 -0.344,-3.241 -0.417,-4.869 -0.173,-3.84 0.022,-7.698 0.586,-11.502 0.016,-0.102 0.036,-0.206 0.053,-0.309 1.874,4.901 6.247,16.342 6.373,16.72 L 6.54,0.41 C 4.988,1.432 3.088,2.458 1.562,2.446 -0.053,2.432 0.21,1.654 0,0" /></g><g
         transform="matrix(1.3946357,0,0,1.3946357,492.14754,342.62787)"
         id="g670"><path
           inkscape:connector-curvature="0"
           id="path672"
           style="fill:#ffb197;fill-opacity:1;fill-rule:nonzero;stroke:none"
           d="m 0,0 c -0.462,0.65 -0.926,1.305 -1.262,2.028 -0.293,0.63 -0.483,1.302 -0.705,1.961 -1.111,3.302 -3.042,6.324 -5.57,8.72 0.346,0.266 0.741,0.38 1.174,0.326 0.432,-0.054 0.842,-0.22 1.246,-0.385 0.819,-0.334 1.665,-0.692 2.26,-1.348 0.37,-0.41 1.037,-0.079 1.331,0.388 0.295,0.468 0.325,1.049 0.346,1.601 l 0.305,7.793 c 0.036,0.916 0.074,1.846 0.347,2.722 0.273,0.876 0.813,1.707 1.628,2.131 0.293,0.152 0.439,-0.246 0.57,-0.549 0.132,-0.303 0.138,-0.643 0.136,-0.973 -0.018,-2.948 -0.551,-5.913 -0.118,-8.829 0.044,-0.293 0.1,-0.591 0.255,-0.843 0.155,-0.252 0.43,-0.45 0.725,-0.433 1.183,0.07 1.249,1.842 1.384,3.019 0.325,2.828 0.649,5.656 0.974,8.483 0.057,0.492 0.118,0.996 0.349,1.432 0.231,0.437 0.678,0.796 1.171,0.777 C 7.092,28 7.533,27.522 7.691,27 7.85,26.478 7.786,25.917 7.722,25.375 7.324,22.04 6.927,18.705 6.529,15.37 6.451,14.71 6.446,13.893 7.021,13.561 c 0.876,0.363 1.378,1.299 1.726,2.181 0.736,1.866 1.345,3.783 1.819,5.731 0.11,0.447 0.216,0.905 0.462,1.294 0.246,0.388 0.666,0.7 1.126,0.684 0.51,-0.018 0.937,-0.439 1.11,-0.918 0.173,-0.48 0.139,-1.008 0.075,-1.513 -0.428,-3.37 -2.099,-6.446 -2.962,-9.73 -0.066,-0.252 0.098,-0.53 0.357,-0.518 0.26,0.013 0.467,0.212 0.649,0.399 0.734,0.758 1.47,1.516 2.204,2.273 0.379,0.39 0.792,0.799 1.325,0.904 0.533,0.104 1.19,-0.267 1.158,-0.81 -0.013,-0.235 -0.147,-0.444 -0.277,-0.64 C 14.833,11.445 13.873,9.992 12.914,8.539 12.61,8.08 12.304,7.613 12.132,7.089 11.916,6.43 11.693,5.661 11.508,4.992 11.298,4.238 11.088,3.481 10.776,2.763 9.906,0.76 8.186,-0.903 6.087,-1.509 3.988,-2.115 1.264,-1.781 0,0" /></g><g
         transform="matrix(1.3946357,0,0,1.3946357,442.46908,390.4834)"
         id="g674"><path
           inkscape:connector-curvature="0"
           id="path676"
           style="fill:#1b1936;fill-opacity:1;fill-rule:nonzero;stroke:none"
           d="m 0,0 c -2.25,2.399 -5.266,1.83 -5.296,1.823 l -0.146,0.736 c 0.139,0.028 3.457,0.654 5.989,-2.046 z" /></g><g
         transform="matrix(1.3946357,0,0,1.3946357,414.45517,390.4834)"
         id="g678"><path
           inkscape:connector-curvature="0"
           id="path680"
           style="fill:#1b1936;fill-opacity:1;fill-rule:nonzero;stroke:none"
           d="M 0,0 -0.547,0.513 C 1.984,3.213 5.3,2.587 5.441,2.559 L 5.295,1.823 C 5.174,1.848 2.239,2.388 0,0" /></g><g
         transform="matrix(1.3946357,0,0,1.3946357,433.20382,342.50332)"
         id="g682"><path
           inkscape:connector-curvature="0"
           id="path684"
           style="fill:#3f4ad1;fill-opacity:1;fill-rule:nonzero;stroke:none"
           d="m 0,0 4.725,-11.069 -2.97,-8.37 -4.995,5.399 1.755,14.445 z" /></g><g
         transform="matrix(1.3946357,0,0,1.3946357,385.98229,326.33629)"
         id="g686"><path
           inkscape:connector-curvature="0"
           id="path688-7"
           style="fill:#35324c;fill-opacity:1;fill-rule:nonzero;stroke:none"
           d="m 0,0 c 0.244,3.754 1.515,7.46 3.485,10.665 2.058,3.347 3.115,7.147 6.21,9.567 0.695,0.542 3.497,0.808 4.186,1.35 l 22.387,-25.687 9.061,23.969 c 1.51,-0.634 3.07,-1.34 4.091,-2.62 1.09,-1.369 1.398,-3.183 1.669,-4.912 1.258,-8.007 2.515,-16.014 3.772,-24.021 1.177,-7.496 2.356,-14.999 2.984,-22.561 0.541,-6.502 0.674,-13.032 0.806,-19.555 0.329,-16.169 4.903,-67.513 3.856,-69.567 -1.873,-3.672 -57.684,-6.821 -71.561,1.023 C -8.031,-77.369 -2.92,-44.997 0,0" /></g><g
         transform="matrix(1.3946357,0,0,1.3946357,371.83023,272.77963)"
         id="g690"><path
           inkscape:connector-curvature="0"
           id="path692"
           style="fill:#403f5f;fill-opacity:1;fill-rule:nonzero;stroke:none"
           d="M 0,0 C -1.579,17.897 4.219,62.473 24.021,58.958 L 17.035,7.475 49.334,7.739 50.923,-21.912 7.361,-7.724 C 3.412,-7.166 0.351,-3.974 0,0" /></g><g
         transform="matrix(1.3946357,0,0,1.3946357,419.46038,358.31752)"
         id="g694"><path
           inkscape:connector-curvature="0"
           id="path696"
           style="fill:#ffffff;fill-opacity:1;fill-rule:nonzero;stroke:none"
           d="m 0,0 7.154,-3.915 4.861,4.185 1.08,-11.205 -5.612,5.222 -4.648,-5.896 z" /></g><g
         transform="matrix(1.3946357,0,0,1.3946357,429.81527,350.41007)"
         id="g698"><path
           inkscape:connector-curvature="0"
           id="path700"
           style="fill:#3f4ad1;fill-opacity:1;fill-rule:nonzero;stroke:none"
           d="m 0,0 4.319,-4.05 -2.024,-3.644 -4.86,4.59 z" /></g><g
         transform="matrix(1.3946357,0,0,1.3946357,440.63318,283.57313)"
         id="g702"><path
           inkscape:connector-curvature="0"
           id="path704"
           style="fill:#35324c;fill-opacity:1;fill-rule:nonzero;stroke:none"
           d="m 0,0 c 0,0 -8.277,-0.287 -8.569,-0.334 -2.464,-0.391 -1.227,-12.903 -1.227,-12.903 l 6.884,-16.944 7.148,25.415 z" /></g><g
         transform="matrix(1.3946357,0,0,1.3946357,459.66508,348.48366)"
         id="g706"><path
           inkscape:connector-curvature="0"
           id="path708"
           style="fill:#e53e72;fill-opacity:1;fill-rule:nonzero;stroke:none"
           d="m 0,0 -14.267,-35.104 -2.298,15.119 7.884,25.146 c 0,0 6.804,-1.642 8.681,-5.161" /></g><g
         transform="matrix(1.3946357,0,0,1.3946357,439.76837,299.52637)"
         id="g710"><path
           inkscape:connector-curvature="0"
           id="path712"
           style="fill:#fc4477;fill-opacity:1;fill-rule:nonzero;stroke:none"
           d="m 0,0 -34.417,37.716 c 0,0 4.538,3.902 9.731,3.089 L -2.299,15.119 Z" /></g><g
         transform="matrix(1.3946357,0,0,1.3946357,459.83257,308.3116)"
         id="g714"><path
           inkscape:connector-curvature="0"
           id="path716"
           style="fill:#ffffff;fill-opacity:1;fill-rule:nonzero;stroke:none"
           d="m 0,0 -10.59,-52.949 -0.906,-0.65 c -3.796,-2.718 -9.138,-0.717 -10.213,3.827 l 10.325,29.651 0.265,25.416 C -11.119,5.295 0.53,7.678 0,0" /></g><g
         transform="matrix(1.3946357,0,0,1.3946357,442.19127,279.04866)"
         id="g718"><path
           inkscape:connector-curvature="0"
           id="path720"
           style="fill:#fc4477;fill-opacity:1;fill-rule:nonzero;stroke:none"
           d="M 0,0 9.96,-1.153 9.698,-3.25 -0.314,-1.572 Z" /></g><g
         transform="matrix(1.3946357,0,0,1.3946357,446.5781,277.14749)"
         id="g722"><path
           inkscape:connector-curvature="0"
           id="path724"
           style="fill:#fc4477;fill-opacity:1;fill-rule:nonzero;stroke:none"
           d="m 0,0 -0.63,-13.315 1.049,-0.106 0.682,12.006 1.1,-12.163 0.892,-0.052 -0.157,13.473 z" /></g><g
         transform="matrix(1.3946357,0,0,1.3946357,439.71258,279.66843)"
         id="g726"><path
           inkscape:connector-curvature="0"
           id="path728-9"
           style="fill:#ffb197;fill-opacity:1;fill-rule:nonzero;stroke:none"
           d="m 0,0 c 0,-3.423 2.774,-6.197 6.196,-6.197 3.423,0 6.198,2.774 6.198,6.197 0,3.422 -2.775,6.196 -6.198,6.196 C 2.774,6.196 0,3.422 0,0" /></g><g
         transform="matrix(1.3946357,0,0,1.3946357,446.54142,276.92686)"
         id="g730"><path
           inkscape:connector-curvature="0"
           id="path732"
           style="fill:#ffb197;fill-opacity:1;fill-rule:nonzero;stroke:none"
           d="m 0,0 c -2.118,-1.588 -13.767,-2.383 -13.767,-2.383 l -0.223,0.721 c -0.665,2.138 -0.18,4.468 1.282,6.163 l 10.854,0.794 z" /></g><g
         transform="matrix(1.3946357,0,0,1.3946357,417.98541,250.31846)"
         id="g734"><path
           inkscape:connector-curvature="0"
           id="path736"
           style="fill:#fc4477;fill-opacity:1;fill-rule:nonzero;stroke:none"
           d="M 0,0 -3.795,1.236 C -5.43,5.564 -6.49,12.62 -4.415,23.676 l 3.158,0.025 C -2.387,19.052 -4.465,7.643 0,0" /></g><g
         transform="matrix(1.3946357,0,0,1.3946357,427.44411,247.23771)"
         id="g738"><path
           inkscape:connector-curvature="0"
           id="path740"
           style="fill:#fc4477;fill-opacity:1;fill-rule:nonzero;stroke:none"
           d="M 0,0 -4.215,1.373 C -6.17,5.626 -7.736,13.201 -5.213,25.934 l 3.201,0.026 C -3.111,21.764 -6.047,8.037 0,0" /></g><g
         transform="matrix(1.3946357,0,0,1.3946357,416.90541,400.73815)"
         id="g742"><path
           inkscape:connector-curvature="0"
           id="path744-2"
           style="fill:#1b1936;fill-opacity:1;fill-rule:nonzero;stroke:none"
           d="m 0,0 c 0,0 -5.621,-2.727 -6.134,-3.271 -0.512,-0.545 1.18,-2.47 0.92,-3.172 -0.351,-0.952 -0.619,-1.935 -0.798,-2.934 -0.068,-0.382 -0.165,-0.824 -0.513,-0.993 -0.354,-0.171 -0.789,0.052 -1.017,0.371 -0.229,0.32 -0.314,0.716 -0.458,1.081 -0.325,0.83 -0.956,1.521 -1.232,2.368 -0.163,0.495 -0.195,1.025 -0.16,1.544 0.109,1.568 1.802,6.424 2.986,7.459 0.705,0.617 2.328,-1.16 3.287,-1.967 C -2.55,0.006 0,0 0,0" /></g><g
         transform="matrix(1.3946357,0,0,1.3946357,444.66591,392.45415)"
         id="g746"><path
           inkscape:connector-curvature="0"
           id="path748"
           style="fill:#1b1936;fill-opacity:1;fill-rule:nonzero;stroke:none"
           d="M 0,0 C 0.597,-2.149 1.615,-4.21 3.155,-5.823 5.047,-3.314 5.595,0.15 4.569,3.121 4.086,4.521 1.71,8.228 -0.232,6.828 -1.709,5.765 -0.374,1.349 0,0" /></g><g
         transform="matrix(1.3946357,0,0,1.3946357,467.12582,418.55588)"
         id="g750"><path
           inkscape:connector-curvature="0"
           id="path752"
           style="fill:#403f5f;fill-opacity:1;fill-rule:nonzero;stroke:none"
           d="m 0,0 -27.448,17.174 -29.595,-16.561 28.215,-11.5 z" /></g><g
         transform="matrix(1.3946357,0,0,1.3946357,450.44472,418.98347)"
         id="g754"><path
           inkscape:connector-curvature="0"
           id="path756"
           style="fill:#35324c;fill-opacity:1;fill-rule:nonzero;stroke:none"
           d="m 0,0 -1.84,-12.267 -11.849,-2.043 -16.903,1.909 -1.456,14.088 c 0,0 7.513,5.014 16.254,5.367 C -10.323,7.275 -3.896,5.549 0,0" /></g><g
         transform="matrix(1.3946357,0,0,1.3946357,401.68561,409.27416)"
         id="g758"><path
           inkscape:connector-curvature="0"
           id="path760-0"
           style="fill:#fc4477;fill-opacity:1;fill-rule:nonzero;stroke:none"
           d="m 0,0 h -0.006 c -0.207,0.003 -0.372,0.174 -0.369,0.381 0.002,0.097 0.153,9.674 0.153,11.641 0,1.848 1.105,2.436 1.689,2.489 0.229,0.016 0.388,-0.135 0.407,-0.34 C 1.893,13.966 1.743,13.785 1.539,13.764 1.434,13.751 0.528,13.596 0.528,12.022 0.528,10.049 0.377,0.466 0.375,0.369 0.372,0.164 0.204,0 0,0" /></g><g
         transform="matrix(1.3946357,0,0,1.3946357,401.41449,402.93024)"
         id="g762"><path
           inkscape:connector-curvature="0"
           id="path764"
           style="fill:#fc4477;fill-opacity:1;fill-rule:nonzero;stroke:none"
           d="M 0,0 -0.205,-1.738 -1.228,-1.84 -0.492,5 H 0.745 L 1.499,-1.568 0.384,-1.679 Z" /></g><g
         transform="matrix(1.3946357,0,0,1.3946357,428.60319,372.06305)"
         id="g766"><path
           inkscape:connector-curvature="0"
           id="path768"
           style="fill:#f55b30;fill-opacity:1;fill-rule:nonzero;stroke:none"
           d="m 0,0 c -0.672,0 -1.385,0.071 -2.134,0.237 l 0.162,0.733 c 4.813,-1.069 8.087,2.198 8.12,2.232 L 6.685,2.677 C 6.561,2.551 4.014,0 0,0" /></g><g
         transform="matrix(1.3946357,0,0,1.3946357,-98.659054,-49.518729)"
         id="g770"><g
           id="g772" /><g
           id="g788"><g
             style="opacity:0.30000299"
             id="g786"
             clip-path="url(#clipPath776)"><g
               id="g780"
               transform="translate(392.3486,130.6074)"><path
                 inkscape:connector-curvature="0"
                 id="path778"
                 style="fill:#35324c;fill-opacity:1;fill-rule:nonzero;stroke:none"
                 d="m 0,0 1.93,32.608 -15.356,5.631 V 0.356 C -8.582,-0.254 -3.896,-0.479 0,0" /></g><g
               id="g784"
               transform="translate(355.5986,135.9238)"><path
                 inkscape:connector-curvature="0"
                 id="path782"
                 style="fill:#35324c;fill-opacity:1;fill-rule:nonzero;stroke:none"
                 d="M 0,0 C 3.894,-1.093 9.162,-2.452 14.772,-3.559 L 16.168,32.874 0.406,32.624 -1.458,30.171 Z" /></g></g></g></g><g
         transform="matrix(1.3946357,0,0,1.3946357,496.77271,304.70103)"
         id="g790"><path
           inkscape:connector-curvature="0"
           id="path792-2"
           style="fill:#fc4477;fill-opacity:1;fill-rule:nonzero;stroke:none"
           d="M 0,0 C -6.618,6.018 -4.744,21.338 -4.725,21.493 L -5.328,21.57 C -5.834,19.728 -6.399,17.707 -6.993,15.646 -6.908,10.265 -5.9,2.665 -1.349,-1.478 0.779,-3.414 3.447,-4.389 6.613,-4.401 7.104,-3.71 7.575,-3.015 8.035,-2.319 4.741,-2.615 2.036,-1.852 0,0" /></g><g
         transform="matrix(1.3946357,0,0,1.3946357,493.14582,299.71423)"
         id="g794"><path
           inkscape:connector-curvature="0"
           id="path796"
           style="fill:#fc4477;fill-opacity:1;fill-rule:nonzero;stroke:none"
           d="m 0,0 c -4.421,4.02 -5.051,12.188 -4.978,17.217 -0.583,-1.983 -1.178,-3.944 -1.758,-5.755 0.516,-4.65 1.93,-9.794 5.388,-12.94 2.111,-1.919 4.753,-2.892 7.886,-2.92 0.542,0.69 1.076,1.385 1.599,2.088 C 4.796,-2.63 2.058,-1.871 0,0" /></g></g></g></svg>