<?xml version="1.0" encoding="UTF-8" standalone="no"?>
<svg
   xmlns:dc="http://purl.org/dc/elements/1.1/"
   xmlns:cc="http://creativecommons.org/ns#"
   xmlns:rdf="http://www.w3.org/1999/02/22-rdf-syntax-ns#"
   xmlns:svg="http://www.w3.org/2000/svg"
   xmlns="http://www.w3.org/2000/svg"
   xmlns:sodipodi="http://sodipodi.sourceforge.net/DTD/sodipodi-0.dtd"
   xmlns:inkscape="http://www.inkscape.org/namespaces/inkscape"
   inkscape:version="1.0 (f1e2304a9a, 2020-05-17)"
   sodipodi:docname="Shows.svg"
   viewBox="0 0 2829.3333 2829.3333"
   height="2829.3333"
   width="2829.3333"
   xml:space="preserve"
   id="svg2"
   version="1.1"><metadata
     id="metadata8"><rdf:RDF><cc:Work
         rdf:about=""><dc:format>image/svg+xml</dc:format><dc:type
           rdf:resource="http://purl.org/dc/dcmitype/StillImage" /><dc:title></dc:title></cc:Work></rdf:RDF></metadata><defs
     id="defs6" /><sodipodi:namedview
     inkscape:current-layer="g10"
     inkscape:window-maximized="1"
     inkscape:window-y="27"
     inkscape:window-x="0"
     inkscape:cy="1365.3609"
     inkscape:cx="1429.9658"
     inkscape:zoom="0.17119594"
     showgrid="false"
     id="namedview4"
     inkscape:window-height="704"
     inkscape:window-width="1366"
     inkscape:pageshadow="2"
     inkscape:pageopacity="0"
     guidetolerance="10"
     gridtolerance="10"
     objecttolerance="10"
     borderopacity="1"
     bordercolor="#666666"
     pagecolor="#ffffff" /><g
     transform="matrix(1.3333333,0,0,-1.3333333,0,2829.3333)"
     inkscape:label="ink_ext_XXXXXX"
     inkscape:groupmode="layer"
     id="g10"><g
       id="g18"
       transform="scale(0.110126)"><path
         d="m 11759.8,11751.9 c 0,-2511.9 -2036.44,-4548.12 -4548.1,-4548.12 -2511.9,0 -4548.14,2036.22 -4548.14,4548.12 0,2511.8 2036.24,4548.1 4548.14,4548.1 2511.66,0 4548.1,-2036.3 4548.1,-4548.1"
         style="fill:#72d1f2;fill-opacity:1;fill-rule:nonzero;stroke:none"
         id="path20" /></g><path
       d="m 797.987,372.1 c 0,-24.77 -122.271,-44.86 -273.103,-44.86 -150.822,0 -273.099,20.09 -273.099,44.86 0,24.78 122.277,44.87 273.099,44.87 150.832,0 273.103,-20.09 273.103,-44.87"
       style="fill:#d3d2d2;fill-opacity:1;fill-rule:nonzero;stroke:none;stroke-width:0.1"
       id="path22" /><g
       id="g24"
       transform="scale(0.113848)"><path
         d="m 16300,3593.55 c 0,-177.78 -2059.1,-321.83 -4599.1,-321.83 -2539.95,0 -4599.03,144.05 -4599.03,321.83 0,177.69 2059.08,321.66 4599.03,321.66 2540,0 4599.1,-143.97 4599.1,-321.66"
         style="fill:#d3d2d2;fill-opacity:1;fill-rule:nonzero;stroke:none"
         id="path26" /></g><path
       d="M 1410.39,409.12 H 998.605 v 981.94 H 1410.39 V 409.12"
       style="fill:#ffffff;fill-opacity:1;fill-rule:nonzero;stroke:none;stroke-width:0.1"
       id="path28" /><path
       d="M 1410.39,409.12 H 998.605 v 981.94 h 411.785 z"
       style="fill:none;stroke:#000000;stroke-width:2.41858;stroke-linecap:round;stroke-linejoin:round;stroke-miterlimit:10;stroke-dasharray:none;stroke-opacity:1"
       id="path30" /><path
       d="m 998.605,409.12 h -123.04 v 891.43 l 123.04,90.51 V 409.12"
       style="fill:#72d1f2;fill-opacity:1;fill-rule:nonzero;stroke:none;stroke-width:0.1"
       id="path32" /><path
       d="m 998.605,409.12 h -123.04 v 891.43 l 123.04,90.51 z"
       style="fill:none;stroke:#000000;stroke-width:2.41858;stroke-linecap:round;stroke-linejoin:round;stroke-miterlimit:10;stroke-dasharray:none;stroke-opacity:1"
       id="path34" /><path
       d="m 1348.75,1164.59 c 0,-76.99 -62.4,-139.4 -139.39,-139.4 -76.99,0 -139.41,62.41 -139.41,139.4 0,76.99 62.42,139.4 139.41,139.4 76.99,0 139.39,-62.41 139.39,-139.4"
       style="fill:#ffffff;fill-opacity:1;fill-rule:nonzero;stroke:none;stroke-width:0.1"
       id="path36" /><path
       d="m 1348.75,1164.59 c 0,-76.99 -62.4,-139.4 -139.39,-139.4 -76.99,0 -139.41,62.41 -139.41,139.4 0,76.99 62.42,139.4 139.41,139.4 76.99,0 139.39,-62.41 139.39,-139.4 z"
       style="fill:none;stroke:#000000;stroke-width:2.41858;stroke-linecap:butt;stroke-linejoin:miter;stroke-miterlimit:10;stroke-dasharray:none;stroke-opacity:1"
       id="path38" /><path
       d="m 1323.12,1164.59 c 0,-62.83 -50.94,-113.76 -113.76,-113.76 -62.83,0 -113.76,50.93 -113.76,113.76 0,62.83 50.93,113.76 113.76,113.76 62.82,0 113.76,-50.93 113.76,-113.76"
       style="fill:#ffffff;fill-opacity:1;fill-rule:nonzero;stroke:none;stroke-width:0.1"
       id="path40" /><path
       d="m 1323.12,1164.59 c 0,-62.83 -50.94,-113.76 -113.76,-113.76 -62.83,0 -113.76,50.93 -113.76,113.76 0,62.83 50.93,113.76 113.76,113.76 62.82,0 113.76,-50.93 113.76,-113.76 z"
       style="fill:none;stroke:#000000;stroke-width:2.41858;stroke-linecap:butt;stroke-linejoin:miter;stroke-miterlimit:10;stroke-dasharray:none;stroke-opacity:1"
       id="path42" /><path
       d="m 1362.61,780.35 c 0,-84.63 -68.62,-153.24 -153.25,-153.24 -84.64,0 -153.24,68.61 -153.24,153.24 0,84.64 68.6,153.25 153.24,153.25 84.63,0 153.25,-68.61 153.25,-153.25"
       style="fill:#ffffff;fill-opacity:1;fill-rule:nonzero;stroke:none;stroke-width:0.1"
       id="path44" /><path
       d="m 1362.61,780.35 c 0,-84.63 -68.62,-153.24 -153.25,-153.24 -84.64,0 -153.24,68.61 -153.24,153.24 0,84.64 68.6,153.25 153.24,153.25 84.63,0 153.25,-68.61 153.25,-153.25 z"
       style="fill:none;stroke:#000000;stroke-width:2.41858;stroke-linecap:butt;stroke-linejoin:miter;stroke-miterlimit:10;stroke-dasharray:none;stroke-opacity:1"
       id="path46" /><path
       d="m 1334.42,780.35 c 0,-69.07 -55.99,-125.06 -125.06,-125.06 -69.08,0 -125.06,55.99 -125.06,125.06 0,69.07 55.98,125.06 125.06,125.06 69.07,0 125.06,-55.99 125.06,-125.06"
       style="fill:#ffffff;fill-opacity:1;fill-rule:nonzero;stroke:none;stroke-width:0.1"
       id="path48" /><path
       d="m 1334.42,780.35 c 0,-69.07 -55.99,-125.06 -125.06,-125.06 -69.08,0 -125.06,55.99 -125.06,125.06 0,69.07 55.98,125.06 125.06,125.06 69.07,0 125.06,-55.99 125.06,-125.06 z"
       style="fill:none;stroke:#000000;stroke-width:2.41858;stroke-linecap:butt;stroke-linejoin:miter;stroke-miterlimit:10;stroke-dasharray:none;stroke-opacity:1"
       id="path50" /><path
       d="m 1144.23,1071.34 140.01,178.85"
       style="fill:none;stroke:#000000;stroke-width:2.41858;stroke-linecap:butt;stroke-linejoin:miter;stroke-miterlimit:10;stroke-dasharray:none;stroke-opacity:1"
       id="path52" /><path
       d="M 1173.62,1056.58 1305,1226.17"
       style="fill:none;stroke:#000000;stroke-width:2.41858;stroke-linecap:butt;stroke-linejoin:miter;stroke-miterlimit:10;stroke-dasharray:none;stroke-opacity:1"
       id="path54" /><path
       d="m 1209.36,1050.83 110.02,142.8"
       style="fill:none;stroke:#000000;stroke-width:2.41858;stroke-linecap:butt;stroke-linejoin:miter;stroke-miterlimit:10;stroke-dasharray:none;stroke-opacity:1"
       id="path56" /><path
       d="m 1253.99,1059.93 67.85,87.5"
       style="fill:none;stroke:#000000;stroke-width:2.41858;stroke-linecap:butt;stroke-linejoin:miter;stroke-miterlimit:10;stroke-dasharray:none;stroke-opacity:1"
       id="path58" /><path
       d="m 1095.69,1160.77 90.1,115.12"
       style="fill:none;stroke:#000000;stroke-width:2.41858;stroke-linecap:butt;stroke-linejoin:miter;stroke-miterlimit:10;stroke-dasharray:none;stroke-opacity:1"
       id="path60" /><path
       d="m 1105.06,1122.23 121.22,154.87"
       style="fill:none;stroke:#000000;stroke-width:2.41858;stroke-linecap:butt;stroke-linejoin:miter;stroke-miterlimit:10;stroke-dasharray:none;stroke-opacity:1"
       id="path62" /><path
       d="m 1121.37,1092.5 136.64,174.59"
       style="fill:none;stroke:#000000;stroke-width:2.41858;stroke-linecap:butt;stroke-linejoin:miter;stroke-miterlimit:10;stroke-dasharray:none;stroke-opacity:1"
       id="path64" /><path
       d="m 1273.28,1071.34 -139.99,178.85"
       style="fill:none;stroke:#000000;stroke-width:2.41858;stroke-linecap:butt;stroke-linejoin:miter;stroke-miterlimit:10;stroke-dasharray:none;stroke-opacity:1"
       id="path66" /><path
       d="m 1243.9,1056.58 -131.37,169.59"
       style="fill:none;stroke:#000000;stroke-width:2.41858;stroke-linecap:butt;stroke-linejoin:miter;stroke-miterlimit:10;stroke-dasharray:none;stroke-opacity:1"
       id="path68" /><path
       d="m 1208.16,1050.83 -110.01,142.8"
       style="fill:none;stroke:#000000;stroke-width:2.41858;stroke-linecap:butt;stroke-linejoin:miter;stroke-miterlimit:10;stroke-dasharray:none;stroke-opacity:1"
       id="path70" /><path
       d="m 1163.53,1059.93 -67.84,87.5"
       style="fill:none;stroke:#000000;stroke-width:2.41858;stroke-linecap:butt;stroke-linejoin:miter;stroke-miterlimit:10;stroke-dasharray:none;stroke-opacity:1"
       id="path72" /><path
       d="m 1321.84,1160.77 -90.1,115.12"
       style="fill:none;stroke:#000000;stroke-width:2.41858;stroke-linecap:butt;stroke-linejoin:miter;stroke-miterlimit:10;stroke-dasharray:none;stroke-opacity:1"
       id="path74" /><path
       d="M 1312.45,1122.23 1191.24,1277.1"
       style="fill:none;stroke:#000000;stroke-width:2.41858;stroke-linecap:butt;stroke-linejoin:miter;stroke-miterlimit:10;stroke-dasharray:none;stroke-opacity:1"
       id="path76" /><path
       d="M 1296.16,1092.5 1159.5,1267.09"
       style="fill:none;stroke:#000000;stroke-width:2.41858;stroke-linecap:butt;stroke-linejoin:miter;stroke-miterlimit:10;stroke-dasharray:none;stroke-opacity:1"
       id="path78" /><path
       d="m 1137.97,677.67 153.36,195.48"
       style="fill:none;stroke:#000000;stroke-width:2.41858;stroke-linecap:butt;stroke-linejoin:miter;stroke-miterlimit:10;stroke-dasharray:none;stroke-opacity:1"
       id="path80" /><path
       d="m 1171.35,661.71 142.48,185.38"
       style="fill:none;stroke:#000000;stroke-width:2.41858;stroke-linecap:butt;stroke-linejoin:miter;stroke-miterlimit:10;stroke-dasharray:none;stroke-opacity:1"
       id="path82" /><path
       d="M 1209.36,655.29 1330.05,813.2"
       style="fill:none;stroke:#000000;stroke-width:2.41858;stroke-linecap:butt;stroke-linejoin:miter;stroke-miterlimit:10;stroke-dasharray:none;stroke-opacity:1"
       id="path84" /><path
       d="m 1257.48,664.89 75.75,98.24"
       style="fill:none;stroke:#000000;stroke-width:2.41858;stroke-linecap:butt;stroke-linejoin:miter;stroke-miterlimit:10;stroke-dasharray:none;stroke-opacity:1"
       id="path86" /><path
       d="m 1084.55,772.42 103.33,129.89"
       style="fill:none;stroke:#000000;stroke-width:2.41858;stroke-linecap:butt;stroke-linejoin:miter;stroke-miterlimit:10;stroke-dasharray:none;stroke-opacity:1"
       id="path88" /><path
       d="m 1094.23,731.44 135.94,172.25"
       style="fill:none;stroke:#000000;stroke-width:2.41858;stroke-linecap:butt;stroke-linejoin:miter;stroke-miterlimit:10;stroke-dasharray:none;stroke-opacity:1"
       id="path90" /><path
       d="m 1112.89,700.77 151.59,191.86"
       style="fill:none;stroke:#000000;stroke-width:2.41858;stroke-linecap:butt;stroke-linejoin:miter;stroke-miterlimit:10;stroke-dasharray:none;stroke-opacity:1"
       id="path92" /><path
       d="M 1280.75,677.67 1127.63,873.15"
       style="fill:none;stroke:#000000;stroke-width:2.41858;stroke-linecap:butt;stroke-linejoin:miter;stroke-miterlimit:10;stroke-dasharray:none;stroke-opacity:1"
       id="path94" /><path
       d="M 1248.99,661.71 1104.96,847.09"
       style="fill:none;stroke:#000000;stroke-width:2.41858;stroke-linecap:butt;stroke-linejoin:miter;stroke-miterlimit:10;stroke-dasharray:none;stroke-opacity:1"
       id="path96" /><path
       d="M 1209.36,655.29 1088.66,813.2"
       style="fill:none;stroke:#000000;stroke-width:2.41858;stroke-linecap:butt;stroke-linejoin:miter;stroke-miterlimit:10;stroke-dasharray:none;stroke-opacity:1"
       id="path98" /><path
       d="m 1161.24,664.89 -75.76,98.24"
       style="fill:none;stroke:#000000;stroke-width:2.41858;stroke-linecap:butt;stroke-linejoin:miter;stroke-miterlimit:10;stroke-dasharray:none;stroke-opacity:1"
       id="path100" /><path
       d="M 1334.24,773.72 1234.39,902.9"
       style="fill:none;stroke:#000000;stroke-width:2.41858;stroke-linecap:butt;stroke-linejoin:miter;stroke-miterlimit:10;stroke-dasharray:none;stroke-opacity:1"
       id="path102" /><path
       d="M 1324.49,731.44 1187.88,902.31"
       style="fill:none;stroke:#000000;stroke-width:2.41858;stroke-linecap:butt;stroke-linejoin:miter;stroke-miterlimit:10;stroke-dasharray:none;stroke-opacity:1"
       id="path104" /><path
       d="M 1304.26,700.77 1156.07,893.52"
       style="fill:none;stroke:#000000;stroke-width:2.41858;stroke-linecap:butt;stroke-linejoin:miter;stroke-miterlimit:10;stroke-dasharray:none;stroke-opacity:1"
       id="path106" /><g
       id="g108"
       transform="scale(0.101728)"><path
         d="m 13874.3,13204 c 495,-86.6 606.9,200.3 921.8,313.4 314.6,113.1 72.7,449 -40.4,763.7 182,282 -91.4,1519.7 -261.3,1769.3 -170,249.6 -953.9,-82.5 -1288,-281.8 -583.8,-348.3 338.5,-2507.1 667.9,-2564.6"
         style="fill:#000000;fill-opacity:1;fill-rule:nonzero;stroke:none"
         id="path110" /></g><g
       id="g112"
       transform="scale(0.102687)"><path
         d="m 16247.6,8037.72 c 52.4,157.27 4.6,241.41 -33.6,332.85 -59.3,141.7 -1386.1,125.04 -1102.9,-399.66 86.8,-160.58 1060,-163.02 1136.5,66.81"
         style="fill:#000000;fill-opacity:1;fill-rule:nonzero;stroke:none"
         id="path114" /></g><path
       d="m 1357.04,867.29 c 13.93,-6.21 47.44,-5.35 60.65,8.87 10.74,11.56 -100.95,80.77 -120.99,22.91 -4.06,-11.7 18.62,-13.18 60.34,-31.78"
       style="fill:#000000;fill-opacity:1;fill-rule:nonzero;stroke:none;stroke-width:0.1"
       id="path116" /><path
       d="m 1235.3,935.44 c -11.09,-25.42 260.1,-301.26 260.1,-301.26 l 33.04,22.6 c 0,0 -119.08,202.89 -147.23,239.79 -36.57,47.97 -70.18,72.79 -70.18,72.79"
       style="fill:#ffffff;fill-opacity:1;fill-rule:nonzero;stroke:none;stroke-width:0.1"
       id="path118" /><path
       d="m 1235.3,935.44 c -11.09,-25.42 260.1,-301.26 260.1,-301.26 l 33.04,22.6 c 0,0 -119.08,202.89 -147.23,239.79 -36.57,47.97 -70.18,72.79 -70.18,72.79"
       style="fill:none;stroke:#000000;stroke-width:2.41858;stroke-linecap:butt;stroke-linejoin:miter;stroke-miterlimit:10;stroke-dasharray:none;stroke-opacity:1"
       id="path120" /><path
       d="m 1567.83,617.97 c 0,0 -58.13,-76.07 -73.79,-89.22 -9.67,-8.09 -14.32,6.86 -5,20.15 19.71,28.09 6.36,85.28 6.36,85.28 l 33.04,22.6 39.39,-38.81"
       style="fill:#000000;fill-opacity:1;fill-rule:nonzero;stroke:none;stroke-width:0.1"
       id="path122" /><g
       id="g124"
       transform="scale(0.100947)"><path
         d="m 14702.6,12011.2 -143.4,-336.4 c 0,0 -2232.3,-1933.22 -2322,-2408.12 297.3,179.4 1256.4,-142.65 1806.8,-587.24 407.1,148.99 2256,1261.86 2218.1,2604.76 -16,566.2 -85.6,651.6 -296.9,934.5 -375.3,-46.4 -1262.6,-207.5 -1262.6,-207.5"
         style="fill:#ffffff;fill-opacity:1;fill-rule:nonzero;stroke:none"
         id="path126" /></g><g
       id="g128"
       transform="scale(0.100947)"><path
         d="m 14702.6,12011.2 -143.4,-336.4 c 0,0 -2232.3,-1933.22 -2322,-2408.12 297.3,179.4 1256.4,-142.65 1806.8,-587.24 407.1,148.99 2256,1261.86 2218.1,2604.76 -16,566.2 -85.6,651.6 -296.9,934.5 -375.3,-46.4 -1262.6,-207.5 -1262.6,-207.5 z"
         style="fill:none;stroke:#000000;stroke-width:23.959;stroke-linecap:butt;stroke-linejoin:miter;stroke-miterlimit:10;stroke-dasharray:none;stroke-opacity:1"
         id="path130" /></g><g
       id="g132"
       transform="scale(0.105971)"><path
         d="m 14516.6,7936.22 c 31.8,-567.33 1419.8,-3476.99 1419.8,-3476.99 l 363.6,102.67 c 0,0 -454.6,2172.95 -595.3,2587.69 -182.9,539.11 -408.8,862.21 -408.8,862.21"
         style="fill:#ffffff;fill-opacity:1;fill-rule:nonzero;stroke:none"
         id="path134" /></g><g
       id="g136"
       transform="scale(0.105971)"><path
         d="m 14516.6,7936.22 c 31.8,-567.33 1419.8,-3476.99 1419.8,-3476.99 l 363.6,102.67 c 0,0 -454.6,2172.95 -595.3,2587.69 -182.9,539.11 -408.8,862.21 -408.8,862.21"
         style="fill:none;stroke:#000000;stroke-width:22.823;stroke-linecap:butt;stroke-linejoin:miter;stroke-miterlimit:10;stroke-dasharray:none;stroke-opacity:1"
         id="path138" /></g><g
       id="g140"
       transform="scale(0.107502)"><path
         d="m 16300,4037.86 c 0,0 -738,-498.22 -915.1,-567.61 -109.3,-42.79 -106,102.88 15.6,192.46 257.1,189.11 308.9,733 308.9,733 l 358.4,101.21 232.2,-459.06"
         style="fill:#000000;fill-opacity:1;fill-rule:nonzero;stroke:none"
         id="path142" /></g><path
       d="m 1487.9,1473 c 0,0 20.97,-103.54 -6.54,-134.79 -51.49,-58.47 -125.76,-68.36 -125.76,-68.36 l 1.91,-16.89 c 0,0 103.24,1.9 158.5,32.26 74.79,41.12 74.26,120.99 60.9,162.07"
       style="fill:#ffffff;fill-opacity:1;fill-rule:nonzero;stroke:none;stroke-width:0.1"
       id="path144" /><path
       d="m 1487.9,1473 c 0,0 20.97,-103.54 -6.54,-134.79 -51.49,-58.47 -125.76,-68.36 -125.76,-68.36 l 1.91,-16.89 c 0,0 103.24,1.9 158.5,32.26 74.79,41.12 74.26,120.99 60.9,162.07"
       style="fill:none;stroke:#000000;stroke-width:2.41858;stroke-linecap:butt;stroke-linejoin:miter;stroke-miterlimit:10;stroke-dasharray:none;stroke-opacity:1"
       id="path146" /><path
       d="m 1360.89,1253.74 c 0,0 -32.11,-19.22 -43.25,-12.1 -6.62,4.22 -6.79,18.33 -4.92,24.74 2.8,9.58 16.01,0.92 28.82,8.12 5.08,2.86 12.88,-4.95 18.16,-3.92"
       style="fill:#ffffff;fill-opacity:1;fill-rule:nonzero;stroke:none;stroke-width:0.1"
       id="path148" /><path
       d="m 1360.89,1253.74 c 0,0 -32.11,-19.22 -43.25,-12.1 -6.62,4.22 -6.79,18.33 -4.92,24.74 2.8,9.58 16.01,0.92 28.82,8.12 5.08,2.86 12.88,-4.95 18.16,-3.92"
       style="fill:none;stroke:#000000;stroke-width:2.41858;stroke-linecap:round;stroke-linejoin:miter;stroke-miterlimit:10;stroke-dasharray:none;stroke-opacity:1"
       id="path150" /><path
       d="m 1516.01,1285.22 -89.13,9.86 -25.31,133.32 57.75,-40.49 56.69,-102.69"
       style="fill:#ffffff;fill-opacity:1;fill-rule:nonzero;stroke:none;stroke-width:0.1"
       id="path152" /><path
       d="m 1516.01,1285.22 -89.13,9.86 -25.31,133.32 57.75,-40.49 z"
       style="fill:none;stroke:#000000;stroke-width:2.41858;stroke-linecap:butt;stroke-linejoin:miter;stroke-miterlimit:10;stroke-dasharray:none;stroke-opacity:1"
       id="path154" /><g
       id="g156"
       transform="scale(0.107456)"><path
         d="m 13969.1,10274.3 c 181.3,-371.35 341.4,-403.27 346.9,-439.19 103,-679.44 -56.6,-1916.32 0,-2008.54 59.5,-97.07 754.1,173.74 1210.6,-145.55 146.3,152.62 773.4,3188.58 0,3780.58 -422.6,323.5 -922.5,112.4 -922.5,112.4"
         style="fill:#ffffff;fill-opacity:1;fill-rule:nonzero;stroke:none"
         id="path158" /></g><g
       id="g160"
       transform="scale(0.107456)"><path
         d="m 13969.1,10274.3 c 181.3,-371.35 341.4,-403.27 346.9,-439.19 103,-679.44 -56.6,-1916.32 0,-2008.54 59.5,-97.07 754.1,173.74 1210.6,-145.55 146.3,152.62 773.4,3188.58 0,3780.58 -422.6,323.5 -922.5,112.4 -922.5,112.4"
         style="fill:none;stroke:#000000;stroke-width:22.5077;stroke-linecap:butt;stroke-linejoin:miter;stroke-miterlimit:10;stroke-dasharray:none;stroke-opacity:1"
         id="path162" /></g><g
       id="g164"
       transform="scale(0.10239)"><path
         d="m 16294.8,12028.8 c 5.2,-126.1 -1698.7,-454.6 -1813.7,-149 -65.5,174 23.2,590.1 -179.9,1094.2 -203.2,504.2 -612.6,976.7 -612.6,976.7 0,0 18.1,249.9 188.1,344 303.9,-21 606.4,235.3 790.2,315.8 235.2,103.1 467.2,42.6 467.2,42.6 0,0 546.1,-535.1 742.4,-1032.4 312.5,-791.6 413.1,-1466 418.3,-1591.9"
         style="fill:#ffffff;fill-opacity:1;fill-rule:nonzero;stroke:none"
         id="path166" /></g><g
       id="g168"
       transform="scale(0.10239)"><path
         d="m 16294.8,12028.8 c 5.2,-126.1 -1698.7,-454.6 -1813.7,-149 -65.5,174 23.2,590.1 -179.9,1094.2 -203.2,504.2 -612.6,976.7 -612.6,976.7 0,0 18.1,249.9 188.1,344 303.9,-21 606.4,235.3 790.2,315.8 235.2,103.1 467.2,42.6 467.2,42.6 0,0 546.1,-535.1 742.4,-1032.4 312.5,-791.6 413.1,-1466 418.3,-1591.9 z"
         style="fill:none;stroke:#000000;stroke-width:23.6214;stroke-linecap:butt;stroke-linejoin:miter;stroke-miterlimit:10;stroke-dasharray:none;stroke-opacity:1"
         id="path170" /></g><g
       id="g172"
       transform="scale(0.101387)"><path
         d="m 14027.6,14692.4 90.9,-160.1 -104.6,-96.3 c 0,0 161.5,-558.3 448.9,-463.5 287.3,94.8 349.1,782.5 349.1,782.5 l -277,-13.3 -102.3,177.6 c 0,0 50.1,262.4 23.6,483.1 -28.7,239.9 -29.6,356.6 -138.7,595.9 -137,301.7 -554.8,80.6 -554.8,80.6 0,0 -456.8,-269.3 -465.6,-374.3 -7.6,-89.3 19.5,-190.6 48.9,-318.1 45.5,-197.3 187,-420.1 237.2,-561.9 56,-158.1 197.1,-197.6 279.7,-175.7 82.8,21.9 164.7,43.5 164.7,43.5"
         style="fill:#ffffff;fill-opacity:1;fill-rule:nonzero;stroke:none"
         id="path174" /></g><g
       id="g176"
       transform="scale(0.101387)"><path
         d="m 14027.6,14692.4 90.9,-160.1 -104.6,-96.3 c 0,0 161.5,-558.3 448.9,-463.5 287.3,94.8 349.1,782.5 349.1,782.5 l -277,-13.3 -102.3,177.6 c 0,0 50.1,262.4 23.6,483.1 -28.7,239.9 -29.6,356.6 -138.7,595.9 -137,301.7 -554.8,80.6 -554.8,80.6 0,0 -456.8,-269.3 -465.6,-374.3 -7.6,-89.3 19.5,-190.6 48.9,-318.1 45.5,-197.3 187,-420.1 237.2,-561.9 56,-158.1 197.1,-197.6 279.7,-175.7 82.8,21.9 164.7,43.5 164.7,43.5 z"
         style="fill:none;stroke:#000000;stroke-width:23.8549;stroke-linecap:butt;stroke-linejoin:miter;stroke-miterlimit:10;stroke-dasharray:none;stroke-opacity:1"
         id="path178" /></g><g
       id="g180"
       transform="scale(0.102236)"><path
         d="m 13788.4,16264.2 c 151.1,35.8 646.1,-198.7 682.5,-384.1 44.2,-225.9 -23.5,-416.4 -4.3,-646.3 31.6,-381.1 -123.3,-275.1 -100.1,-306.6 98.6,-134.2 -37.6,-190.8 -66.4,-134.1 -28.8,56.7 -10.3,120.5 -24,225.4 -26.6,205.6 -139.2,260.4 -139.2,260.4 0,0 28.9,143.3 -223.1,97.7 -485.1,-87.8 -727.2,197.6 -727.2,197.6 0,0 -120.4,127.3 25,318.4 97.4,128.1 434.9,337.9 576.8,371.6"
         style="fill:#000000;fill-opacity:1;fill-rule:nonzero;stroke:none"
         id="path182" /></g><path
       d="m 1444.35,1552.63 c 3.62,-8.43 7.81,-4.75 13.81,-2.16 6.02,2.59 7.92,11.52 4.29,19.95 -3.64,8.43 -11.28,7.56 -17.29,4.98 -6.01,-2.57 -4.45,-14.36 -0.81,-22.77"
       style="fill:#ffffff;fill-opacity:1;fill-rule:nonzero;stroke:none;stroke-width:0.1"
       id="path184" /><path
       d="m 1421.84,1490.68 c 19.31,9.64 27.06,25.36 27.06,25.36 0,0 0.31,-30.15 -16.31,-43.04 -3.62,5.57 -10.75,17.68 -10.75,17.68"
       style="fill:#000000;fill-opacity:1;fill-rule:nonzero;stroke:none;stroke-width:0.1"
       id="path186" /><path
       d="m 1541.56,958 c -9.39,-9.29 -62.6,-55.24 -103.08,-70.86 l 71.92,84.85 27.94,84.85 c 0,0 12.62,-89.55 3.22,-98.84"
       style="fill:#000000;fill-opacity:1;fill-rule:nonzero;stroke:none;stroke-width:0.1"
       id="path188" /><g
       id="g190"
       transform="scale(0.110245)"><path
         d="m 14250.9,12743.4 c 0,0 750.3,-301.8 1078.6,-611.4 494.5,-466.3 827.7,-1075.9 827.7,-1075.9 l 142.8,58.1 c 0,0 -317.9,968.4 -624.5,1380.1 -395.8,531.3 -1040.7,1085.7 -1619.8,1114.8"
         style="fill:#ffffff;fill-opacity:1;fill-rule:nonzero;stroke:none"
         id="path192" /></g><g
       id="g194"
       transform="scale(0.110245)"><path
         d="m 14250.9,12743.4 c 0,0 750.3,-301.8 1078.6,-611.4 494.5,-466.3 827.7,-1075.9 827.7,-1075.9 l 142.8,58.1 c 0,0 -317.9,968.4 -624.5,1380.1 -395.8,531.3 -1040.7,1085.7 -1619.8,1114.8"
         style="fill:none;stroke:#000000;stroke-width:21.9383;stroke-linecap:butt;stroke-linejoin:miter;stroke-miterlimit:10;stroke-dasharray:none;stroke-opacity:1"
         id="path196" /></g><g
       id="g198"
       transform="scale(0.11181)"><path
         d="m 16057,10985.8 c 0,0 243,-230 208.7,-343.2 -20.4,-67.2 -141.5,-102.8 -201.2,-102.1 -89.2,0.9 -46.7,135.7 -139.4,228.5 -37.1,36.9 11.3,123 -10.2,165.9"
         style="fill:#ffffff;fill-opacity:1;fill-rule:nonzero;stroke:none"
         id="path200" /></g><g
       id="g202"
       transform="scale(0.11181)"><path
         d="m 16057,10985.8 c 0,0 243,-230 208.7,-343.2 -20.4,-67.2 -141.5,-102.8 -201.2,-102.1 -89.2,0.9 -46.7,135.7 -139.4,228.5 -37.1,36.9 11.3,123 -10.2,165.9"
         style="fill:none;stroke:#000000;stroke-width:21.6312;stroke-linecap:round;stroke-linejoin:miter;stroke-miterlimit:10;stroke-dasharray:none;stroke-opacity:1"
         id="path204" /></g><g
       id="g206"
       transform="scale(0.104875)"><path
         d="m 14891.2,13192.5 c 0,0 647.9,1 965.5,-229.4 177.1,100.5 321.3,242.6 443.3,403.5 -372,470.7 -1001.1,912.9 -1524.7,939.2"
         style="fill:#ffffff;fill-opacity:1;fill-rule:nonzero;stroke:none"
         id="path208" /></g><g
       id="g210"
       transform="scale(0.104875)"><path
         d="m 14891.2,13192.5 c 0,0 647.9,1 965.5,-229.4 177.1,100.5 321.3,242.6 443.3,403.5 -372,470.7 -1001.1,912.9 -1524.7,939.2"
         style="fill:none;stroke:#000000;stroke-width:23.0614;stroke-linecap:butt;stroke-linejoin:miter;stroke-miterlimit:10;stroke-dasharray:none;stroke-opacity:1"
         id="path212" /></g><path
       d="m 1604.26,421.96 c 1.53,-5.79 -18.34,-16.09 -44.39,-23.01 -26.05,-6.91 -48.42,-7.83 -49.95,-2.04 -0.39,1.45 -2.79,10.48 -2.79,10.48 l 94.34,25.05 c 0,0 1.24,-4.7 2.79,-10.48"
       style="fill:#ffffff;fill-opacity:1;fill-rule:nonzero;stroke:none;stroke-width:0.1"
       id="path214" /><path
       d="m 1604.26,421.96 c 1.53,-5.79 -18.34,-16.09 -44.39,-23.01 -26.05,-6.91 -48.42,-7.83 -49.95,-2.04 -0.39,1.45 -2.79,10.48 -2.79,10.48 l 94.34,25.05 c 0,0 1.24,-4.7 2.79,-10.48 z"
       style="fill:none;stroke:#000000;stroke-width:2.41858;stroke-linecap:butt;stroke-linejoin:miter;stroke-miterlimit:10;stroke-dasharray:none;stroke-opacity:1"
       id="path216" /><path
       d="m 1601.47,432.44 c 1.53,-5.79 -18.34,-16.09 -44.38,-23.01 -26.06,-6.91 -48.41,-7.83 -49.96,-2.04 -1.53,5.79 18.34,16.09 44.39,23.01 26.05,6.92 48.41,7.83 49.95,2.04"
       style="fill:#ffffff;fill-opacity:1;fill-rule:nonzero;stroke:none;stroke-width:0.1"
       id="path218" /><path
       d="m 1601.47,432.44 c 1.53,-5.79 -18.34,-16.09 -44.38,-23.01 -26.06,-6.91 -48.41,-7.83 -49.96,-2.04 -1.53,5.79 18.34,16.09 44.39,23.01 26.05,6.92 48.41,7.83 49.95,2.04 z"
       style="fill:none;stroke:#000000;stroke-width:2.41858;stroke-linecap:butt;stroke-linejoin:miter;stroke-miterlimit:10;stroke-dasharray:none;stroke-opacity:1"
       id="path220" /><path
       d="m 1561.66,423.21 c 1.18,-4.47 -13.86,-9.8 -15.37,-4.09 -1.52,5.72 -244.25,920.01 -244.25,920.01 l 15.36,4.08 c 0,0 243.07,-915.54 244.26,-920"
       style="fill:#ffffff;fill-opacity:1;fill-rule:nonzero;stroke:none;stroke-width:0.1"
       id="path222" /><path
       d="m 1561.66,423.21 c 1.18,-4.47 -13.86,-9.8 -15.37,-4.09 -1.52,5.72 -244.25,920.01 -244.25,920.01 l 15.36,4.08 c 0,0 243.07,-915.54 244.26,-920 z"
       style="fill:none;stroke:#000000;stroke-width:2.41858;stroke-linecap:butt;stroke-linejoin:miter;stroke-miterlimit:10;stroke-dasharray:none;stroke-opacity:1"
       id="path224" /><path
       d="m 1319.7,1425.3 14.42,-54.32 c 0.16,-0.59 0.29,-1.2 0.43,-1.81 3.02,-15.2 -6.24,-30.33 -21.42,-34.36 l -5.72,-1.52 c -15.18,-4.03 -30.73,4.51 -35.64,19.21 -0.19,0.6 -0.38,1.19 -0.53,1.78 l -14.43,54.32 c -0.19,0.71 -0.36,1.46 -0.48,2.16 -2.83,15.07 6.41,30.02 21.48,34.02 l 5.72,1.52 c 15.06,3.99 30.5,-4.39 35.51,-18.89 0.25,-0.66 0.47,-1.4 0.66,-2.11"
       style="fill:#ffffff;fill-opacity:1;fill-rule:nonzero;stroke:none;stroke-width:0.1"
       id="path226" /><path
       d="m 1319.7,1425.3 14.42,-54.32 c 0.16,-0.59 0.29,-1.2 0.43,-1.81 3.02,-15.2 -6.24,-30.33 -21.42,-34.36 l -5.72,-1.52 c -15.18,-4.03 -30.73,4.51 -35.64,19.21 -0.19,0.6 -0.38,1.19 -0.53,1.78 l -14.43,54.32 c -0.19,0.71 -0.36,1.46 -0.48,2.16 -2.83,15.07 6.41,30.02 21.48,34.02 l 5.72,1.52 c 15.06,3.99 30.5,-4.39 35.51,-18.89 0.25,-0.66 0.47,-1.4 0.66,-2.11 z"
       style="fill:none;stroke:#000000;stroke-width:2.41858;stroke-linecap:butt;stroke-linejoin:miter;stroke-miterlimit:10;stroke-dasharray:none;stroke-opacity:1"
       id="path228" /><path
       d="m 1319.7,1425.3 2.91,-10.92 -13.93,-3.7 c -3.26,-0.86 -6.69,1.35 -7.64,4.95 -0.49,1.8 -0.27,3.63 0.51,5.09 0.74,1.46 2.03,2.59 3.66,3.02 l 13.83,3.67 c 0.25,-0.66 0.47,-1.4 0.66,-2.11"
       style="fill:#ffffff;fill-opacity:1;fill-rule:nonzero;stroke:none;stroke-width:0.1"
       id="path230" /><path
       d="m 1319.7,1425.3 2.91,-10.92 -13.93,-3.7 c -3.26,-0.86 -6.69,1.35 -7.64,4.95 -0.49,1.8 -0.27,3.63 0.51,5.09 0.74,1.46 2.03,2.59 3.66,3.02 l 13.83,3.67 c 0.25,-0.66 0.47,-1.4 0.66,-2.11 z"
       style="fill:none;stroke:#000000;stroke-width:2.41858;stroke-linecap:butt;stroke-linejoin:miter;stroke-miterlimit:10;stroke-dasharray:none;stroke-opacity:1"
       id="path232" /><path
       d="m 1325.13,1404.86 3.47,-13.07 -13.92,-3.7 c -3.26,-0.86 -6.69,1.35 -7.65,4.96 -0.48,1.79 -0.26,3.63 0.51,5.09 0.75,1.45 2.04,2.59 3.67,3.02 l 13.92,3.7"
       style="fill:#ffffff;fill-opacity:1;fill-rule:nonzero;stroke:none;stroke-width:0.1"
       id="path234" /><path
       d="m 1325.13,1404.86 3.47,-13.07 -13.92,-3.7 c -3.26,-0.86 -6.69,1.35 -7.65,4.96 -0.48,1.79 -0.26,3.63 0.51,5.09 0.75,1.45 2.04,2.59 3.67,3.02 z"
       style="fill:none;stroke:#000000;stroke-width:2.41858;stroke-linecap:butt;stroke-linejoin:miter;stroke-miterlimit:10;stroke-dasharray:none;stroke-opacity:1"
       id="path236" /><path
       d="m 1331.13,1382.27 2.99,-11.29 c 0.16,-0.59 0.29,-1.2 0.43,-1.81 l -13.88,-3.68 c -3.25,-0.87 -6.69,1.37 -7.65,4.97 -0.48,1.8 -0.26,3.63 0.52,5.09 0.75,1.46 2.04,2.59 3.66,3.03 l 13.93,3.69"
       style="fill:#ffffff;fill-opacity:1;fill-rule:nonzero;stroke:none;stroke-width:0.1"
       id="path238" /><path
       d="m 1331.13,1382.27 2.99,-11.29 c 0.16,-0.59 0.29,-1.2 0.43,-1.81 l -13.88,-3.68 c -3.25,-0.87 -6.69,1.37 -7.65,4.97 -0.48,1.8 -0.26,3.63 0.52,5.09 0.75,1.46 2.04,2.59 3.66,3.03 z"
       style="fill:none;stroke:#000000;stroke-width:2.41858;stroke-linecap:butt;stroke-linejoin:miter;stroke-miterlimit:10;stroke-dasharray:none;stroke-opacity:1"
       id="path240" /><path
       d="m 1277.82,1409.47 c 0.96,-3.61 -0.92,-7.23 -4.18,-8.09 l -13.93,-3.7 -2.9,10.92 c -0.19,0.71 -0.36,1.46 -0.48,2.16 l 13.84,3.68 c 3.26,0.86 6.69,-1.34 7.65,-4.97"
       style="fill:#ffffff;fill-opacity:1;fill-rule:nonzero;stroke:none;stroke-width:0.1"
       id="path242" /><path
       d="m 1277.82,1409.47 c 0.96,-3.61 -0.92,-7.23 -4.18,-8.09 l -13.93,-3.7 -2.9,10.92 c -0.19,0.71 -0.36,1.46 -0.48,2.16 l 13.84,3.68 c 3.26,0.86 6.69,-1.34 7.65,-4.97 z"
       style="fill:none;stroke:#000000;stroke-width:2.41858;stroke-linecap:butt;stroke-linejoin:miter;stroke-miterlimit:10;stroke-dasharray:none;stroke-opacity:1"
       id="path244" /><path
       d="m 1283.82,1386.88 c 0.96,-3.6 -0.93,-7.22 -4.19,-8.09 l -13.92,-3.7 -3.47,13.07 13.92,3.7 c 3.26,0.86 6.7,-1.35 7.66,-4.98"
       style="fill:#ffffff;fill-opacity:1;fill-rule:nonzero;stroke:none;stroke-width:0.1"
       id="path246" /><path
       d="m 1283.82,1386.88 c 0.96,-3.6 -0.93,-7.22 -4.19,-8.09 l -13.92,-3.7 -3.47,13.07 13.92,3.7 c 3.26,0.86 6.7,-1.35 7.66,-4.98 z"
       style="fill:none;stroke:#000000;stroke-width:2.41858;stroke-linecap:butt;stroke-linejoin:miter;stroke-miterlimit:10;stroke-dasharray:none;stroke-opacity:1"
       id="path248" /><path
       d="m 1289.81,1364.3 c 0.96,-3.6 -0.92,-7.26 -4.17,-8.12 l -13.87,-3.68 c -0.19,0.6 -0.38,1.19 -0.53,1.78 l -3,11.3 13.92,3.69 c 3.26,0.87 6.69,-1.34 7.65,-4.97"
       style="fill:#ffffff;fill-opacity:1;fill-rule:nonzero;stroke:none;stroke-width:0.1"
       id="path250" /><path
       d="m 1289.81,1364.3 c 0.96,-3.6 -0.92,-7.26 -4.17,-8.12 l -13.87,-3.68 c -0.19,0.6 -0.38,1.19 -0.53,1.78 l -3,11.3 13.92,3.69 c 3.26,0.87 6.69,-1.34 7.65,-4.97 z"
       style="fill:none;stroke:#000000;stroke-width:2.41858;stroke-linecap:butt;stroke-linejoin:miter;stroke-miterlimit:10;stroke-dasharray:none;stroke-opacity:1"
       id="path252" /><path
       d="m 1330.44,1309.95 c 1.67,-6.32 -2.09,-12.79 -8.4,-14.47 -6.31,-1.68 -12.8,2.08 -14.47,8.4 -1.68,6.31 2.08,12.79 8.4,14.47 6.31,1.68 12.79,-2.09 14.47,-8.4"
       style="fill:#ffffff;fill-opacity:1;fill-rule:nonzero;stroke:none;stroke-width:0.1"
       id="path254" /><path
       d="m 1330.44,1309.95 c 1.67,-6.32 -2.09,-12.79 -8.4,-14.47 -6.31,-1.68 -12.8,2.08 -14.47,8.4 -1.68,6.31 2.08,12.79 8.4,14.47 6.31,1.68 12.79,-2.09 14.47,-8.4 z"
       style="fill:none;stroke:#000000;stroke-width:2.41858;stroke-linecap:butt;stroke-linejoin:miter;stroke-miterlimit:10;stroke-dasharray:none;stroke-opacity:1"
       id="path256" /><path
       d="m 1325.43,1308.62 c 0.95,-3.55 -1.17,-7.19 -4.72,-8.14 -3.56,-0.94 -7.19,1.17 -8.14,4.73 -0.94,3.55 1.17,7.19 4.72,8.14 3.56,0.94 7.21,-1.18 8.14,-4.73"
       style="fill:#ffffff;fill-opacity:1;fill-rule:nonzero;stroke:none;stroke-width:0.1"
       id="path258" /><path
       d="m 1325.43,1308.62 c 0.95,-3.55 -1.17,-7.19 -4.72,-8.14 -3.56,-0.94 -7.19,1.17 -8.14,4.73 -0.94,3.55 1.17,7.19 4.72,8.14 3.56,0.94 7.21,-1.18 8.14,-4.73 z"
       style="fill:none;stroke:#000000;stroke-width:2.41858;stroke-linecap:butt;stroke-linejoin:miter;stroke-miterlimit:10;stroke-dasharray:none;stroke-opacity:1"
       id="path260" /><path
       d="m 1317.14,1266.76 c 3.17,-0.71 9.33,-2.07 11.71,-3.5 4.7,-2.82 4.17,-17.44 1.63,-20.7 -2.56,-3.25 -12.85,-5.69 -15.61,-1.97 -2.77,3.7 -4.22,24.57 -1.67,27.02"
       style="fill:#ffffff;fill-opacity:1;fill-rule:nonzero;stroke:none;stroke-width:0.1"
       id="path262" /><path
       d="m 1317.14,1266.76 c 3.17,-0.71 9.33,-2.07 11.71,-3.5 4.7,-2.82 4.17,-17.44 1.63,-20.7 -2.56,-3.25 -12.85,-5.69 -15.61,-1.97 -2.77,3.7 -4.22,24.57 -1.67,27.02"
       style="fill:none;stroke:#000000;stroke-width:2.41858;stroke-linecap:round;stroke-linejoin:miter;stroke-miterlimit:10;stroke-dasharray:none;stroke-opacity:1"
       id="path264" /><path
       d="m 1111.31,1568.85 c 1.4,-2.91 -1.17,-7.07 -5.74,-9.28 -4.59,-2.21 -9.44,-1.64 -10.85,1.28 -1.4,2.91 1.17,7.06 5.75,9.28 4.58,2.2 9.44,1.63 10.84,-1.28"
       style="fill:#000000;fill-opacity:1;fill-rule:nonzero;stroke:none;stroke-width:0.1"
       id="path266" /><path
       d="m 1110.37,1568.01 v 32.42"
       style="fill:none;stroke:#000000;stroke-width:1.67919;stroke-linecap:butt;stroke-linejoin:miter;stroke-miterlimit:10;stroke-dasharray:none;stroke-opacity:1"
       id="path268" /><path
       d="m 1132.03,1575.47 c 1.4,-2.91 -1.17,-7.06 -5.75,-9.28 -4.59,-2.21 -9.43,-1.63 -10.84,1.28 -1.41,2.91 1.16,7.07 5.75,9.27 4.58,2.22 9.43,1.65 10.84,-1.27"
       style="fill:#000000;fill-opacity:1;fill-rule:nonzero;stroke:none;stroke-width:0.1"
       id="path270" /><path
       d="m 1131.08,1574.62 v 32.43"
       style="fill:none;stroke:#000000;stroke-width:1.67919;stroke-linecap:butt;stroke-linejoin:miter;stroke-miterlimit:10;stroke-dasharray:none;stroke-opacity:1"
       id="path272" /><path
       d="m 1131.92,1600.95 -22.41,-10.12 v 10.36 l 22.41,10.11 v -10.35"
       style="fill:#000000;fill-opacity:1;fill-rule:nonzero;stroke:none;stroke-width:0.1"
       id="path274" /><path
       d="m 1131.92,1595.89 -22.41,-10.11 v 2.66 l 22.41,10.11 v -2.66"
       style="fill:#000000;fill-opacity:1;fill-rule:nonzero;stroke:none;stroke-width:0.1"
       id="path276" /><g
       id="g278"
       transform="scale(0.107013)"><path
         d="m 16286.8,14099.1 c 13.2,-27.3 -11,-66.1 -53.7,-86.7 -42.7,-20.6 -88.1,-15.3 -101.3,11.9 -13.2,27.2 10.9,66 53.7,86.7 42.8,20.6 88.1,15.3 101.3,-11.9"
         style="fill:#000000;fill-opacity:1;fill-rule:nonzero;stroke:none"
         id="path280" /></g><g
       id="g282"
       transform="scale(0.106868)"><path
         d="m 16300,14110.3 v 303.4"
         style="fill:none;stroke:#000000;stroke-width:15.7127;stroke-linecap:butt;stroke-linejoin:miter;stroke-miterlimit:10;stroke-dasharray:none;stroke-opacity:1"
         id="path284" /></g><g
       id="g286"
       transform="scale(0.108283)"><path
         d="m 16287.1,13994.9 c 12.9,-26.9 -10.7,-65.3 -53.1,-85.7 -42.3,-20.4 -87.1,-15.1 -100,11.7 -13.1,26.9 10.7,65.4 53,85.7 42.3,20.4 87.1,15.2 100.1,-11.7"
         style="fill:#000000;fill-opacity:1;fill-rule:nonzero;stroke:none"
         id="path288" /></g><g
       id="g290"
       transform="scale(0.108139)"><path
         d="m 16300,14005.6 v 299.8"
         style="fill:none;stroke:#000000;stroke-width:15.528;stroke-linecap:butt;stroke-linejoin:miter;stroke-miterlimit:10;stroke-dasharray:none;stroke-opacity:1"
         id="path292" /></g><g
       id="g294"
       transform="scale(0.10819)"><path
         d="m 16300,14242.3 -207.1,-93.5 v 95.7 l 207.1,93.5 v -95.7"
         style="fill:#000000;fill-opacity:1;fill-rule:nonzero;stroke:none"
         id="path296" /></g><g
       id="g298"
       transform="scale(0.10819)"><path
         d="m 16300,14195.6 -207.1,-93.5 v 24.6 l 207.1,93.5 v -24.6"
         style="fill:#000000;fill-opacity:1;fill-rule:nonzero;stroke:none"
         id="path300" /></g><g
       id="g302"
       transform="scale(0.107599)"><path
         d="m 13651.2,16283.9 c 25.5,-16.1 25.5,-61.5 0,-101.4 -25.3,-39.9 -66.5,-59.2 -91.8,-43.1 -25.4,16.1 -25.4,61.5 0,101.4 25.3,39.9 66.4,59.2 91.8,43.1"
         style="fill:#000000;fill-opacity:1;fill-rule:nonzero;stroke:none"
         id="path304" /></g><g
       id="g306"
       transform="scale(0.109109)"><path
         d="m 13459,16047.5 -156.6,252.5"
         style="fill:none;stroke:#000000;stroke-width:15.3901;stroke-linecap:butt;stroke-linejoin:miter;stroke-miterlimit:10;stroke-dasharray:none;stroke-opacity:1"
         id="path308" /></g><g
       id="g310"
       transform="scale(0.108615)"><path
         d="m 13653.5,16284.1 c 25.1,-16 25.1,-61 0.1,-100.5 -25.1,-39.6 -65.9,-58.7 -91.1,-42.7 -25,16 -25,61 0,100.5 25.2,39.5 65.9,58.6 91,42.7"
         style="fill:#000000;fill-opacity:1;fill-rule:nonzero;stroke:none"
         id="path312" /></g><g
       id="g314"
       transform="scale(0.110124)"><path
         d="M 13463.2,16049.8 13308,16300"
         style="fill:none;stroke:#000000;stroke-width:15.2482;stroke-linecap:butt;stroke-linejoin:miter;stroke-miterlimit:10;stroke-dasharray:none;stroke-opacity:1"
         id="path316" /></g><g
       id="g318"
       transform="scale(0.110372)"><path
         d="m 13313.6,16220.3 -124.2,-184.9 -49.5,79.7 124.1,184.9 49.6,-79.7"
         style="fill:#000000;fill-opacity:1;fill-rule:nonzero;stroke:none"
         id="path320" /></g><g
       id="g322"
       transform="scale(0.109708)"><path
         d="m 13418.5,16279.4 -125,-186 -12.8,20.6 124.9,186 12.9,-20.6"
         style="fill:#000000;fill-opacity:1;fill-rule:nonzero;stroke:none"
         id="path324" /></g><g
       id="g326"
       transform="scale(0.10269)"><path
         d="m 12873.1,16266.1 c 13.6,-28.4 -11.4,-68.8 -56,-90.4 -44.6,-21.5 -91.8,-16 -105.6,12.4 -13.6,28.4 11.4,68.8 56,90.4 44.6,21.5 92,15.9 105.6,-12.4"
         style="fill:#000000;fill-opacity:1;fill-rule:nonzero;stroke:none"
         id="path328" /></g><g
       id="g330"
       transform="scale(0.104414)"><path
         d="M 12651.6,15989.5 V 16300"
         style="fill:none;stroke:#000000;stroke-width:16.0821;stroke-linecap:butt;stroke-linejoin:miter;stroke-miterlimit:10;stroke-dasharray:none;stroke-opacity:1"
         id="path332" /></g><g
       id="g334"
       transform="scale(0.109713)"><path
         d="m 16250.3,14910.4 c 29.4,-2.6 49.7,-42.3 45.5,-88.5 -4.3,-46.1 -31.4,-81.3 -60.8,-78.7 -29.4,2.8 -49.8,42.4 -45.5,88.5 4.2,46.2 31.5,81.4 60.8,78.7"
         style="fill:#000000;fill-opacity:1;fill-rule:nonzero;stroke:none"
         id="path336" /></g><g
       id="g338"
       transform="scale(0.109393)"><path
         d="m 16300,14942.8 -253.9,152.5"
         style="fill:none;stroke:#000000;stroke-width:15.3501;stroke-linecap:butt;stroke-linejoin:miter;stroke-miterlimit:10;stroke-dasharray:none;stroke-opacity:1"
         id="path340" /></g><path
       d="m 1156.25,1457.26 c 0.26,-3.23 -3.64,-6.17 -8.71,-6.57 -5.06,-0.41 -9.39,1.88 -9.64,5.11 -0.26,3.22 3.64,6.16 8.71,6.57 5.07,0.4 9.39,-1.89 9.64,-5.11"
       style="fill:#000000;fill-opacity:1;fill-rule:nonzero;stroke:none;stroke-width:0.1"
       id="path342" /><path
       d="m 1155.07,1456.81 11.72,30.23"
       style="fill:none;stroke:#000000;stroke-width:1.67919;stroke-linecap:butt;stroke-linejoin:miter;stroke-miterlimit:10;stroke-dasharray:none;stroke-opacity:1"
       id="path344" /><g
       id="g346"
       transform="scale(0.107661)"><path
         d="m 11121,16267.6 c 13,-27 -10.9,-65.6 -53.4,-86.2 -42.6,-20.4 -87.7,-15.2 -100.8,11.9 -12.9,27.1 10.9,65.6 53.5,86.2 42.5,20.5 87.6,15.2 100.7,-11.9"
         style="fill:#000000;fill-opacity:1;fill-rule:nonzero;stroke:none"
         id="path348" /></g><g
       id="g350"
       transform="scale(0.109384)"><path
         d="M 10937.1,16003.6 V 16300"
         style="fill:none;stroke:#000000;stroke-width:15.3513;stroke-linecap:butt;stroke-linejoin:miter;stroke-miterlimit:10;stroke-dasharray:none;stroke-opacity:1"
         id="path352" /></g><g
       id="g354"
       transform="scale(0.109431)"><path
         d="m 10997.9,16160.7 c -35.4,0 -28.7,44.8 -41.2,44.8 -12.4,0 -31,0 -31,0 v 94.5 c 0,0 22.4,0 39.7,0 17.2,0 2.8,-106.3 32.5,-106.3 29.8,0 35.6,-33 0,-33"
         style="fill:#000000;fill-opacity:1;fill-rule:nonzero;stroke:none"
         id="path356" /></g><g
       id="g358"
       transform="scale(0.107336)"><path
         d="m 15209.4,16287.5 c 27.4,-12.5 33.7,-57.6 14.1,-100.7 -19.7,-43.1 -57.8,-68 -85.3,-55.5 -27.4,12.6 -33.7,57.6 -14.1,100.7 19.7,43.2 57.9,68 85.3,55.5"
         style="fill:#000000;fill-opacity:1;fill-rule:nonzero;stroke:none"
         id="path360" /></g><g
       id="g362"
       transform="scale(0.108706)"><path
         d="m 15016.1,16070.7 -190.8,229.3"
         style="fill:none;stroke:#000000;stroke-width:15.4471;stroke-linecap:butt;stroke-linejoin:miter;stroke-miterlimit:10;stroke-dasharray:none;stroke-opacity:1"
         id="path364" /></g><g
       id="g366"
       transform="scale(0.108957)"><path
         d="m 14926.7,16202.4 c -27.4,-22.8 -50.9,16 -60.6,8 -9.5,-8 -23.8,-19.9 -23.8,-19.9 l -60.8,73 c 0,0 17.3,14.4 30.6,25.5 13.4,11 70.5,-80.2 93.4,-61.1 22.9,19 48.6,-2.7 21.2,-25.5"
         style="fill:#000000;fill-opacity:1;fill-rule:nonzero;stroke:none"
         id="path368" /></g><path
       d="m 358.247,1071.18 c 1.401,-2.92 -1.174,-7.07 -5.753,-9.28 -4.579,-2.21 -9.429,-1.64 -10.841,1.27 -1.402,2.91 1.168,7.07 5.753,9.28 4.579,2.21 9.434,1.64 10.841,-1.27"
       style="fill:#000000;fill-opacity:1;fill-rule:nonzero;stroke:none;stroke-width:0.1"
       id="path370" /><path
       d="m 357.302,1070.33 v 32.42"
       style="fill:none;stroke:#000000;stroke-width:1.67919;stroke-linecap:butt;stroke-linejoin:miter;stroke-miterlimit:10;stroke-dasharray:none;stroke-opacity:1"
       id="path372" /><path
       d="m 378.958,1077.8 c 1.407,-2.91 -1.168,-7.07 -5.748,-9.28 -4.584,-2.21 -9.434,-1.64 -10.841,1.27 -1.412,2.92 1.174,7.07 5.753,9.28 4.579,2.21 9.429,1.64 10.836,-1.27"
       style="fill:#000000;fill-opacity:1;fill-rule:nonzero;stroke:none;stroke-width:0.1"
       id="path374" /><path
       d="m 378.019,1076.95 v 32.42"
       style="fill:none;stroke:#000000;stroke-width:1.67919;stroke-linecap:butt;stroke-linejoin:miter;stroke-miterlimit:10;stroke-dasharray:none;stroke-opacity:1"
       id="path376" /><path
       d="m 378.844,1103.28 -22.399,-10.12 v 10.35 l 22.399,10.12 v -10.35"
       style="fill:#000000;fill-opacity:1;fill-rule:nonzero;stroke:none;stroke-width:0.1"
       id="path378" /><path
       d="m 378.844,1098.22 -22.399,-10.11 v 2.66 l 22.399,10.11 v -2.66"
       style="fill:#000000;fill-opacity:1;fill-rule:nonzero;stroke:none;stroke-width:0.1"
       id="path380" /><path
       d="m 767.209,1072.2 c 1.402,-2.92 -1.173,-7.07 -5.752,-9.28 -4.58,-2.21 -9.435,-1.64 -10.842,1.27 -1.407,2.91 1.174,7.07 5.753,9.28 4.58,2.21 9.429,1.64 10.841,-1.27"
       style="fill:#000000;fill-opacity:1;fill-rule:nonzero;stroke:none;stroke-width:0.1"
       id="path382" /><path
       d="m 766.265,1071.35 v 32.42"
       style="fill:none;stroke:#000000;stroke-width:1.67919;stroke-linecap:butt;stroke-linejoin:miter;stroke-miterlimit:10;stroke-dasharray:none;stroke-opacity:1"
       id="path384" /><path
       d="m 787.92,1078.82 c 1.402,-2.92 -1.168,-7.07 -5.748,-9.28 -4.584,-2.21 -9.439,-1.64 -10.84,1.27 -1.402,2.92 1.162,7.07 5.747,9.28 4.584,2.21 9.434,1.64 10.841,-1.27"
       style="fill:#000000;fill-opacity:1;fill-rule:nonzero;stroke:none;stroke-width:0.1"
       id="path386" /><path
       d="m 786.98,1077.97 v 32.42"
       style="fill:none;stroke:#000000;stroke-width:1.67919;stroke-linecap:butt;stroke-linejoin:miter;stroke-miterlimit:10;stroke-dasharray:none;stroke-opacity:1"
       id="path388" /><path
       d="m 787.812,1104.29 -22.41,-10.11 v 10.35 l 22.41,10.11 v -10.35"
       style="fill:#000000;fill-opacity:1;fill-rule:nonzero;stroke:none;stroke-width:0.1"
       id="path390" /><path
       d="m 787.812,1099.24 -22.41,-10.12 v 2.66 l 22.41,10.12 v -2.66"
       style="fill:#000000;fill-opacity:1;fill-rule:nonzero;stroke:none;stroke-width:0.1"
       id="path392" /><path
       d="m 581.73,1429.3 c 2.732,-1.74 2.732,-6.63 0.011,-10.92 -2.73,-4.29 -7.154,-6.37 -9.886,-4.63 -2.73,1.73 -2.736,6.62 -0.009,10.91 2.73,4.29 7.154,6.37 9.884,4.64"
       style="fill:#000000;fill-opacity:1;fill-rule:nonzero;stroke:none;stroke-width:0.1"
       id="path394" /><path
       d="m 581.378,1428.08 -17.093,27.55"
       style="fill:none;stroke:#000000;stroke-width:1.67919;stroke-linecap:butt;stroke-linejoin:miter;stroke-miterlimit:10;stroke-dasharray:none;stroke-opacity:1"
       id="path396" /><path
       d="m 595.843,1445.84 c 2.73,-1.73 2.73,-6.62 0.01,-10.91 -2.731,-4.3 -7.155,-6.37 -9.891,-4.64 -2.726,1.74 -2.726,6.63 0,10.92 2.726,4.29 7.149,6.36 9.881,4.63"
       style="fill:#000000;fill-opacity:1;fill-rule:nonzero;stroke:none;stroke-width:0.1"
       id="path398" /><path
       d="m 595.489,1444.63 -17.092,27.54"
       style="fill:none;stroke:#000000;stroke-width:1.67919;stroke-linecap:butt;stroke-linejoin:miter;stroke-miterlimit:10;stroke-dasharray:none;stroke-opacity:1"
       id="path400" /><path
       d="m 582.317,1467.43 -13.712,-20.4 -5.452,8.79 13.708,20.4 5.456,-8.79"
       style="fill:#000000;fill-opacity:1;fill-rule:nonzero;stroke:none;stroke-width:0.1"
       id="path402" /><path
       d="m 584.98,1463.14 -13.706,-20.41 -1.402,2.26 13.707,20.4 1.401,-2.25"
       style="fill:#000000;fill-opacity:1;fill-rule:nonzero;stroke:none;stroke-width:0.1"
       id="path404" /><path
       d="m 296.473,1239.69 c 1.407,-2.91 -1.173,-7.06 -5.753,-9.28 -4.574,-2.2 -9.429,-1.64 -10.841,1.28 -1.401,2.91 1.174,7.06 5.753,9.28 4.579,2.21 9.429,1.64 10.841,-1.28"
       style="fill:#000000;fill-opacity:1;fill-rule:nonzero;stroke:none;stroke-width:0.1"
       id="path406" /><path
       d="m 295.527,1238.84 v 32.43"
       style="fill:none;stroke:#000000;stroke-width:1.67919;stroke-linecap:butt;stroke-linejoin:miter;stroke-miterlimit:10;stroke-dasharray:none;stroke-opacity:1"
       id="path408" /><path
       d="m 825.546,1247.46 c 3.22,-0.29 5.452,-4.64 4.984,-9.7 -0.462,-5.07 -3.447,-8.93 -6.666,-8.64 -3.224,0.3 -5.462,4.64 -4.995,9.71 0.462,5.06 3.453,8.93 6.677,8.63"
       style="fill:#000000;fill-opacity:1;fill-rule:nonzero;stroke:none;stroke-width:0.1"
       id="path410" /><path
       d="m 825.78,1246.22 -27.793,16.69"
       style="fill:none;stroke:#000000;stroke-width:1.67919;stroke-linecap:butt;stroke-linejoin:miter;stroke-miterlimit:10;stroke-dasharray:none;stroke-opacity:1"
       id="path412" /><path
       d="m 277.642,914.28 c 0.254,-3.23 -3.646,-6.17 -8.718,-6.58 -5.068,-0.4 -9.387,1.88 -9.647,5.11 -0.259,3.23 3.645,6.17 8.723,6.57 5.057,0.41 9.382,-1.88 9.642,-5.1"
       style="fill:#000000;fill-opacity:1;fill-rule:nonzero;stroke:none;stroke-width:0.1"
       id="path414" /><path
       d="m 276.457,913.83 11.719,30.23"
       style="fill:none;stroke:#000000;stroke-width:1.67919;stroke-linecap:butt;stroke-linejoin:miter;stroke-miterlimit:10;stroke-dasharray:none;stroke-opacity:1"
       id="path416" /><path
       d="m 398.091,1395.08 c 1.406,-2.91 -1.174,-7.06 -5.754,-9.27 -4.573,-2.21 -9.428,-1.64 -10.84,1.27 -1.402,2.91 1.173,7.07 5.752,9.28 4.585,2.21 9.439,1.64 10.842,-1.28"
       style="fill:#000000;fill-opacity:1;fill-rule:nonzero;stroke:none;stroke-width:0.1"
       id="path418" /><path
       d="m 397.146,1394.24 v 32.42"
       style="fill:none;stroke:#000000;stroke-width:1.67919;stroke-linecap:butt;stroke-linejoin:miter;stroke-miterlimit:10;stroke-dasharray:none;stroke-opacity:1"
       id="path420" /><path
       d="m 404.315,1412.18 c -3.883,0 -3.151,4.89 -4.511,4.89 -1.366,0 -3.386,0 -3.386,0 v 10.35 c 0,0 2.44,0 4.331,0 1.884,0 0.316,-11.63 3.566,-11.63 3.256,0 3.884,-3.61 0,-3.61"
       style="fill:#000000;fill-opacity:1;fill-rule:nonzero;stroke:none;stroke-width:0.1"
       id="path422" /><path
       d="m 725.144,1362.98 c 2.938,-1.35 3.619,-6.18 1.515,-10.81 -2.107,-4.63 -6.209,-7.3 -9.158,-5.96 -2.938,1.34 -3.619,6.19 -1.511,10.81 2.114,4.63 6.204,7.3 9.154,5.96"
       style="fill:#000000;fill-opacity:1;fill-rule:nonzero;stroke:none;stroke-width:0.1"
       id="path424" /><path
       d="m 724.962,1361.73 -20.732,24.92"
       style="fill:none;stroke:#000000;stroke-width:1.67919;stroke-linecap:butt;stroke-linejoin:miter;stroke-miterlimit:10;stroke-dasharray:none;stroke-opacity:1"
       id="path426" /><path
       d="m 718.996,1380.1 c -2.99,-2.48 -5.555,1.74 -6.594,0.88 -1.048,-0.88 -2.605,-2.17 -2.605,-2.17 l -6.615,7.95 c 0,0 1.879,1.57 3.323,2.77 1.454,1.21 7.683,-8.74 10.186,-6.65 2.493,2.07 5.286,-0.3 2.305,-2.78"
       style="fill:#000000;fill-opacity:1;fill-rule:nonzero;stroke:none;stroke-width:0.1"
       id="path428" /><path
       d="m 714.459,364.84 c -0.645,-17.72 -22.466,-23.33 -24.091,0 -1.615,23.33 -24.081,347.1 -24.081,347.1 h 48.172 c 0,0 0.634,-329.38 0,-347.1"
       style="fill:#000000;fill-opacity:1;fill-rule:nonzero;stroke:none;stroke-width:0.1"
       id="path430" /><path
       d="m 638.152,387.35 c -0.54,-14.99 -18.987,-19.73 -20.358,0 -1.37,19.71 -20.362,293.39 -20.362,293.39 h 40.72 c 0,0 0.536,-278.41 0,-293.39"
       style="fill:#000000;fill-opacity:1;fill-rule:nonzero;stroke:none;stroke-width:0.1"
       id="path432" /><path
       d="m 457.938,387.35 c 0.541,-14.99 18.988,-19.73 20.358,0 1.371,19.71 20.363,293.39 20.363,293.39 h -40.721 c 0,0 -0.535,-278.41 0,-293.39"
       style="fill:#000000;fill-opacity:1;fill-rule:nonzero;stroke:none;stroke-width:0.1"
       id="path434" /><path
       d="m 393.552,364.83 c 0.634,-17.72 22.471,-23.33 24.081,0 1.631,23.34 24.091,347.11 24.091,347.11 h -48.172 c 0,0 -0.644,-329.38 0,-347.11"
       style="fill:#000000;fill-opacity:1;fill-rule:nonzero;stroke:none;stroke-width:0.1"
       id="path436" /><path
       d="m 581.43,705.64 c 0,0 -134.899,30.64 -120.423,62.89 14.48,32.25 93.741,45.39 123.444,42.04 17.176,-1.93 62.278,16.4 86.925,14.47 17.984,-1.42 68.461,-54.27 69.842,-62.62 3.261,-19.79 -159.788,-56.78 -159.788,-56.78"
       style="fill:#000000;fill-opacity:1;fill-rule:nonzero;stroke:none;stroke-width:0.1"
       id="path438" /><path
       d="m 477.102,813.67 c 16.692,-29.23 190.566,-21.62 202.352,9.68 5.182,13.76 -3.624,104.21 -8.463,148.34 -4.839,44.12 -0.358,101.8 -10.82,114.75 -27.476,34.03 -63.342,34.03 -63.342,34.03 h -46.395 c 0,0 -34.086,-8.92 -54.07,-29.95 -36.531,-38.45 -15.181,-77.73 -11.464,-127.51 9.709,-129.66 -24.029,-120.91 -7.798,-149.34"
       style="fill:#ffffff;fill-opacity:1;fill-rule:nonzero;stroke:none;stroke-width:0.1"
       id="path440" /><path
       d="m 477.102,813.67 c 16.692,-29.23 190.566,-21.62 202.352,9.68 5.182,13.76 -3.624,104.21 -8.463,148.34 -4.839,44.12 -0.358,101.8 -10.82,114.75 -27.476,34.03 -63.342,34.03 -63.342,34.03 h -46.395 c 0,0 -34.086,-8.92 -54.07,-29.95 -36.531,-38.45 -15.181,-77.73 -11.464,-127.51 9.709,-129.66 -24.029,-120.91 -7.798,-149.34 z"
       style="fill:none;stroke:#000000;stroke-width:2.41858;stroke-linecap:butt;stroke-linejoin:miter;stroke-miterlimit:10;stroke-dasharray:none;stroke-opacity:1"
       id="path442" /><path
       d="m 668.593,984.19 c 17.051,-12.83 17.761,-55.22 23.197,-81.82 6.646,-32.5 61.12,-29.35 54.921,40.57 -10.456,117.92 -97.78,159.03 -112.884,166.17"
       style="fill:#ffffff;fill-opacity:1;fill-rule:nonzero;stroke:none;stroke-width:0.1"
       id="path444" /><path
       d="m 668.593,984.19 c 17.051,-12.83 17.761,-55.22 23.197,-81.82 6.646,-32.5 61.12,-29.35 54.921,40.57 -10.456,117.92 -97.78,159.03 -112.884,166.17"
       style="fill:none;stroke:#000000;stroke-width:2.41858;stroke-linecap:round;stroke-linejoin:round;stroke-miterlimit:10;stroke-dasharray:none;stroke-opacity:1"
       id="path446" /><path
       d="m 712.854,941.12 c 6.35,12.73 30.835,33.86 30.835,33.86 l 25.856,7.68 c 0,0 2.799,-83.26 -46.006,-98.87"
       style="fill:#ffffff;fill-opacity:1;fill-rule:nonzero;stroke:none;stroke-width:0.1"
       id="path448" /><path
       d="m 712.854,941.12 c 6.35,12.73 30.835,33.86 30.835,33.86 l 25.856,7.68 c 0,0 2.799,-83.26 -46.006,-98.87"
       style="fill:none;stroke:#000000;stroke-width:2.41858;stroke-linecap:round;stroke-linejoin:round;stroke-miterlimit:10;stroke-dasharray:none;stroke-opacity:1"
       id="path450" /><path
       d="m 323.076,356.81 c 2.908,-12.28 42.72,-9.88 47.497,11.13 3.141,13.84 12.824,57.74 12.05,52.72 l -6.713,33 -37.974,8.31 c 0,0 -19.564,-85.26 -14.86,-105.16"
       style="fill:#000000;fill-opacity:1;fill-rule:nonzero;stroke:none;stroke-width:0.1"
       id="path452" /><path
       d="m 437.819,737.54 c -7.014,-38.3 -45.185,-136.66 -47.164,-281.76 -0.217,-15.98 -54.9,-3.71 -54.9,-3.71 0,0 -31.9,244.36 5.463,339.07 11.287,28.63 33.726,52.58 63.943,49.37 35.81,-3.81 42.035,-51.78 32.658,-102.97"
       style="fill:#ffffff;fill-opacity:1;fill-rule:nonzero;stroke:none;stroke-width:0.1"
       id="path454" /><path
       d="m 437.819,737.54 c -7.014,-38.3 -45.185,-136.66 -47.164,-281.76 -0.217,-15.98 -54.9,-3.71 -54.9,-3.71 0,0 -31.9,244.36 5.463,339.07 11.287,28.63 33.726,52.58 63.943,49.37 35.81,-3.81 42.035,-51.78 32.658,-102.97 z"
       style="fill:none;stroke:#000000;stroke-width:2.41858;stroke-linecap:butt;stroke-linejoin:miter;stroke-miterlimit:10;stroke-dasharray:none;stroke-opacity:1"
       id="path456" /><path
       d="m 266.032,685.86 c -12.071,3.69 -7.134,43.27 14.148,46.69 14.013,2.25 58.441,9.11 53.384,8.66 l 32.502,-8.81 5.862,-38.43 c 0,0 -86.338,-14.07 -105.896,-8.11"
       style="fill:#000000;fill-opacity:1;fill-rule:nonzero;stroke:none;stroke-width:0.1"
       id="path458" /><path
       d="m 653.317,776.03 c -38.669,-4.55 -139.269,-36.35 -284.198,-29.05 -15.95,0.8 -7.206,-54.55 -7.206,-54.55 0,0 241.816,-47.45 338.725,-16.23 29.293,9.43 54.63,30.3 53.352,60.67 -1.505,35.97 -48.98,45.24 -100.673,39.16"
       style="fill:#ffffff;fill-opacity:1;fill-rule:nonzero;stroke:none;stroke-width:0.1"
       id="path460" /><path
       d="m 653.317,776.03 c -38.669,-4.55 -139.269,-36.35 -284.198,-29.05 -15.95,0.8 -7.206,-54.55 -7.206,-54.55 0,0 241.816,-47.45 338.725,-16.23 29.293,9.43 54.63,30.3 53.352,60.67 -1.505,35.97 -48.98,45.24 -100.673,39.16 z"
       style="fill:none;stroke:#000000;stroke-width:2.41858;stroke-linecap:butt;stroke-linejoin:miter;stroke-miterlimit:10;stroke-dasharray:none;stroke-opacity:1"
       id="path462" /><path
       d="m 597.385,1146.8 -0.556,-26.33 c 0,0 -2.201,-19.34 -22.787,-19.34 -20.587,0 -23.608,19.34 -23.608,19.34 l 0.466,23.74 c 0,0 -14.153,5.07 -21.592,21.32 -6.579,14.36 -14.637,55.72 -15.14,82.39 -0.696,33.58 47.194,31.67 47.194,31.67 0,0 51.344,4.74 59.205,-23.68 5.477,-19.78 2.451,-73.45 -3.251,-90.38 -4.662,-13.84 -19.931,-18.73 -19.931,-18.73"
       style="fill:#ffffff;fill-opacity:1;fill-rule:nonzero;stroke:none;stroke-width:0.1"
       id="path464" /><path
       d="m 597.385,1146.8 -0.556,-26.33 c 0,0 -2.201,-19.34 -22.787,-19.34 -20.587,0 -23.608,19.34 -23.608,19.34 l 0.466,23.74 c 0,0 -14.153,5.07 -21.592,21.32 -6.579,14.36 -14.637,55.72 -15.14,82.39 -0.696,33.58 47.194,31.67 47.194,31.67 0,0 51.344,4.74 59.205,-23.68 5.477,-19.78 2.451,-73.45 -3.251,-90.38 -4.662,-13.84 -19.931,-18.73 -19.931,-18.73 z"
       style="fill:none;stroke:#000000;stroke-width:2.41858;stroke-linecap:butt;stroke-linejoin:miter;stroke-miterlimit:10;stroke-dasharray:none;stroke-opacity:1"
       id="path466" /><path
       d="m 523.829,1189.41 c 0,0 -1.614,-5.45 -8.161,-3.68 -3.427,0.93 -8.142,8.5 -8.167,17.68 -0.042,15.31 12.497,20.26 16.328,8.65"
       style="fill:#ffffff;fill-opacity:1;fill-rule:nonzero;stroke:none;stroke-width:0.1"
       id="path468" /><path
       d="m 523.829,1189.41 c 0,0 -1.614,-5.45 -8.161,-3.68 -3.427,0.93 -8.142,8.5 -8.167,17.68 -0.042,15.31 12.497,20.26 16.328,8.65"
       style="fill:none;stroke:#000000;stroke-width:2.41858;stroke-linecap:round;stroke-linejoin:miter;stroke-miterlimit:10;stroke-dasharray:none;stroke-opacity:1"
       id="path470" /><path
       d="m 619.965,1189.41 c 0,0 3.488,-5.05 8.161,-3.56 3.381,1.07 8.136,8.38 8.162,17.56 0.052,15.31 -12.497,20.26 -16.323,8.65"
       style="fill:#ffffff;fill-opacity:1;fill-rule:nonzero;stroke:none;stroke-width:0.1"
       id="path472" /><path
       d="m 619.965,1189.41 c 0,0 3.488,-5.05 8.161,-3.56 3.381,1.07 8.136,8.38 8.162,17.56 0.052,15.31 -12.497,20.26 -16.323,8.65"
       style="fill:none;stroke:#000000;stroke-width:2.41858;stroke-linecap:round;stroke-linejoin:miter;stroke-miterlimit:10;stroke-dasharray:none;stroke-opacity:1"
       id="path474" /><path
       d="m 601.419,1148.53 c -11.096,-3.08 -39.979,-2.6 -39.979,-2.6 0,0 13.318,-10.66 19.294,-11.11 5.976,-0.44 20.685,13.71 20.685,13.71"
       style="fill:#000000;fill-opacity:1;fill-rule:nonzero;stroke:none;stroke-width:0.1"
       id="path476" /><path
       d="m 531.488,1310.53 c -15.768,-1.78 -25.997,-26.3 -32.652,-41.92 -9.222,-21.65 18.358,-54.29 18.358,-54.29 0,0 4.258,-10.96 7.83,-10.91 3.562,0.05 -0.592,36.1 8.479,41.62 26.603,-12.77 62.88,-7.25 70.74,16.93 7.861,24.19 9.408,39.92 -7.046,47.78 -21.043,10.05 -50.896,2.46 -65.709,0.79"
       style="fill:#000000;fill-opacity:1;fill-rule:nonzero;stroke:none;stroke-width:0.1"
       id="path478" /><path
       d="m 606.642,1301.88 c 12.72,6.24 35.637,-10.75 35.695,-35.28 0.047,-19.35 -10.271,-39.66 -16.932,-54.54 -3.551,-7.94 -6.126,-11.78 -8.089,-11.88 -5.638,-0.29 4.466,49.06 -21.334,58.95 -25.798,9.89 -2.055,36.51 10.66,42.75"
       style="fill:#000000;fill-opacity:1;fill-rule:nonzero;stroke:none;stroke-width:0.1"
       id="path480" /><path
       d="m 526.773,950.29 c 27.534,11.51 91.301,41.88 91.301,41.88 0,0 26.371,-13.71 45.514,-59.49 19.138,-45.79 20.129,-93.63 -15.576,-108.55 -20.93,-8.76 -40.877,-6.1 -64.319,-15.21 -23.442,-9.13 -22.741,-58.03 -76.665,-80.57 -55.876,-23.36 -113.086,17.31 -138.49,78.1 -25.415,60.79 -6.983,124.62 40.424,144.43 49.064,20.51 84.328,-14.59 117.811,-0.59"
       style="fill:#231f20;fill-opacity:1;fill-rule:nonzero;stroke:none;stroke-width:0.1"
       id="path482" /><path
       d="m 513.622,962.86 c 27.528,11.51 30.985,30.9 51.915,39.65 35.705,14.93 67.407,-15.42 86.551,-61.21 19.142,-45.79 18.468,-89.67 -17.233,-104.6 -20.923,-8.75 -46.385,3.22 -69.827,-5.89 -23.442,-9.13 -23.27,-64.94 -77.199,-87.48 -47.392,-19.82 -100.273,15.97 -125.693,76.75 -25.409,60.79 -13.733,123.56 33.67,143.38 49.059,20.51 84.328,-14.59 117.816,-0.6"
       style="fill:#72d1f2;fill-opacity:1;fill-rule:nonzero;stroke:none;stroke-width:0.1"
       id="path484" /><path
       d="m 513.622,962.86 c 27.528,11.51 30.985,30.9 51.915,39.65 35.705,14.93 67.407,-15.42 86.551,-61.21 19.142,-45.79 18.468,-89.67 -17.233,-104.6 -20.923,-8.75 -46.385,3.22 -69.827,-5.89 -23.442,-9.13 -23.27,-64.94 -77.199,-87.48 -47.392,-19.82 -100.273,15.97 -125.693,76.75 -25.409,60.79 -13.733,123.56 33.67,143.38 49.059,20.51 84.328,-14.59 117.816,-0.6 z"
       style="fill:none;stroke:#000000;stroke-width:2.41858;stroke-linecap:round;stroke-linejoin:round;stroke-miterlimit:10;stroke-dasharray:none;stroke-opacity:1"
       id="path486" /><path
       d="m 522.262,931.97 c -21.137,-8.83 -31.106,-33.12 -22.274,-54.26 8.837,-21.13 33.124,-31.1 54.256,-22.27 21.137,8.84 31.106,33.13 22.274,54.27 -8.836,21.13 -33.13,31.09 -54.256,22.26"
       style="fill:#ffffff;fill-opacity:1;fill-rule:nonzero;stroke:none;stroke-width:0.1"
       id="path488" /><path
       d="m 522.262,931.97 c -21.137,-8.83 -31.106,-33.12 -22.274,-54.26 8.837,-21.13 33.124,-31.1 54.256,-22.27 21.137,8.84 31.106,33.13 22.274,54.27 -8.836,21.13 -33.13,31.09 -54.256,22.26 z"
       style="fill:none;stroke:#000000;stroke-width:2.41858;stroke-linecap:round;stroke-linejoin:round;stroke-miterlimit:10;stroke-dasharray:none;stroke-opacity:1"
       id="path490" /><path
       d="m 527.9,918.47 c -13.681,-5.72 -20.124,-21.44 -14.402,-35.11 5.711,-13.67 21.432,-20.13 35.107,-14.41 13.677,5.72 20.125,21.43 14.414,35.11 -5.721,13.67 -21.443,20.13 -35.119,14.41"
       style="fill:#231f20;fill-opacity:1;fill-rule:nonzero;stroke:none;stroke-width:0.1"
       id="path492" /><path
       d="m 452.611,894.92 26.344,-63.02 17.815,7.44 -26.35,63.03 -17.809,-7.45"
       style="fill:#ffffff;fill-opacity:1;fill-rule:nonzero;stroke:none;stroke-width:0.1"
       id="path494" /><path
       d="m 452.611,894.92 26.344,-63.02 17.815,7.44 -26.35,63.03 z"
       style="fill:none;stroke:#000000;stroke-width:2.41858;stroke-linecap:round;stroke-linejoin:round;stroke-miterlimit:10;stroke-dasharray:none;stroke-opacity:1"
       id="path496" /><path
       d="m 487.579,847.68 0.338,-0.81 c 0.93,-2.2 -0.151,-4.81 -2.357,-5.74 -2.206,-0.92 -4.814,0.15 -5.738,2.35 l -0.343,0.82 c -0.923,2.2 0.152,4.81 2.363,5.74 2.201,0.92 4.813,-0.15 5.737,-2.36"
       style="fill:#231f20;fill-opacity:1;fill-rule:nonzero;stroke:none;stroke-width:0.1"
       id="path498" /><path
       d="m 482.637,861.78 c 0.914,-2.2 -0.157,-4.82 -2.358,-5.74 l -0.809,-0.34 c -2.212,-0.92 -4.819,0.15 -5.743,2.36 -0.914,2.21 0.151,4.82 2.352,5.74 l 0.816,0.34 c 2.206,0.92 4.818,-0.15 5.742,-2.36"
       style="fill:#231f20;fill-opacity:1;fill-rule:nonzero;stroke:none;stroke-width:0.1"
       id="path500" /><path
       d="m 475.731,876.02 c 2.181,-5.22 -5.918,-8.61 -8.099,-3.39 -2.181,5.23 5.919,8.61 8.099,3.39"
       style="fill:#231f20;fill-opacity:1;fill-rule:nonzero;stroke:none;stroke-width:0.1"
       id="path502" /><path
       d="m 469.979,889.78 c 2.18,-5.21 -5.919,-8.6 -8.1,-3.38 -2.181,5.22 5.914,8.61 8.1,3.38"
       style="fill:#231f20;fill-opacity:1;fill-rule:nonzero;stroke:none;stroke-width:0.1"
       id="path504" /><path
       d="m 791.622,1025.67 11.516,-27.52 -247.45,-117.7 -16.075,38.45 252.009,106.77"
       style="fill:#231f20;fill-opacity:1;fill-rule:nonzero;stroke:none;stroke-width:0.1"
       id="path506" /><path
       d="m 803.813,1039.96 -12.191,-14.29 11.516,-27.52 19.792,-3.9 c 0,0 14.828,12.66 32.242,19.94 17.414,7.28 36.572,8.83 36.572,8.83 l 14.974,18.05 -10.727,25.64 -23.353,2.03 c 0,0 -13.947,-10.27 -32.704,-18.11 -18.754,-7.84 -36.121,-10.67 -36.121,-10.67"
       style="fill:#231f20;fill-opacity:1;fill-rule:nonzero;stroke:none;stroke-width:0.1"
       id="path508" /><path
       d="m 854.398,1067.62 c -3.13,-1.31 -5.291,-3.27 -4.818,-4.4 0.462,-1.11 3.38,-0.96 6.506,0.35 3.136,1.31 5.296,3.27 4.828,4.39 -0.467,1.13 -3.391,0.97 -6.516,-0.34"
       style="fill:#231f20;fill-opacity:1;fill-rule:nonzero;stroke:none;stroke-width:0.1"
       id="path510" /><path
       d="m 857.093,1055.11 -4.009,9.58 4.59,1.92 4.003,-9.58 -4.584,-1.92"
       style="fill:#231f20;fill-opacity:1;fill-rule:nonzero;stroke:none;stroke-width:0.1"
       id="path512" /><path
       d="m 818.392,1052.88 c -3.136,-1.32 -5.291,-3.28 -4.829,-4.4 0.478,-1.12 3.385,-0.96 6.521,0.35 3.131,1.3 5.291,3.27 4.818,4.39 -0.466,1.12 -3.384,0.97 -6.51,-0.34"
       style="fill:#231f20;fill-opacity:1;fill-rule:nonzero;stroke:none;stroke-width:0.1"
       id="path514" /><path
       d="m 821.081,1040.37 -4.003,9.58 4.585,1.91 4.008,-9.57 -4.59,-1.92"
       style="fill:#231f20;fill-opacity:1;fill-rule:nonzero;stroke:none;stroke-width:0.1"
       id="path516" /><path
       d="m 835.12,1059.87 c -3.126,-1.31 -5.285,-3.28 -4.817,-4.39 0.467,-1.12 3.385,-0.97 6.51,0.34 3.136,1.31 5.295,3.28 4.818,4.4 -0.457,1.12 -3.38,0.96 -6.511,-0.35"
       style="fill:#231f20;fill-opacity:1;fill-rule:nonzero;stroke:none;stroke-width:0.1"
       id="path518" /><path
       d="m 837.82,1047.36 -4.008,9.58 4.589,1.93 4.003,-9.59 -4.584,-1.92"
       style="fill:#231f20;fill-opacity:1;fill-rule:nonzero;stroke:none;stroke-width:0.1"
       id="path520" /><path
       d="m 878.193,1010.7 c -3.126,-1.32 -6.044,-1.47 -6.51,-0.36 -0.468,1.12 1.681,3.09 4.823,4.4 3.125,1.31 6.049,1.46 6.515,0.35 0.468,-1.12 -1.692,-3.09 -4.828,-4.39"
       style="fill:#231f20;fill-opacity:1;fill-rule:nonzero;stroke:none;stroke-width:0.1"
       id="path522" /><path
       d="m 871.184,1021.39 4.008,-9.58 4.589,1.92 -4.008,9.58 -4.589,-1.92"
       style="fill:#231f20;fill-opacity:1;fill-rule:nonzero;stroke:none;stroke-width:0.1"
       id="path524" /><path
       d="m 842.41,995.42 c -3.126,-1.31 -6.049,-1.46 -6.516,-0.35 -0.467,1.12 1.698,3.09 4.824,4.4 3.125,1.31 6.043,1.46 6.52,0.35 0.457,-1.12 -1.697,-3.09 -4.828,-4.4"
       style="fill:#231f20;fill-opacity:1;fill-rule:nonzero;stroke:none;stroke-width:0.1"
       id="path526" /><path
       d="m 835.401,1006.12 4.002,-9.58 4.585,1.92 -4.003,9.58 -4.584,-1.92"
       style="fill:#231f20;fill-opacity:1;fill-rule:nonzero;stroke:none;stroke-width:0.1"
       id="path528" /><path
       d="m 859.139,1002.42 c -3.126,-1.32 -6.044,-1.47 -6.511,-0.34 -0.457,1.11 1.692,3.08 4.817,4.38 3.137,1.31 6.049,1.47 6.522,0.35 0.468,-1.11 -1.693,-3.09 -4.828,-4.39"
       style="fill:#231f20;fill-opacity:1;fill-rule:nonzero;stroke:none;stroke-width:0.1"
       id="path530" /><path
       d="m 852.129,1013.12 4.009,-9.58 4.59,1.92 -4.009,9.58 -4.59,-1.92"
       style="fill:#231f20;fill-opacity:1;fill-rule:nonzero;stroke:none;stroke-width:0.1"
       id="path532" /><path
       d="m 757.059,1006.46 c -25.763,-13.86 -23.987,-26.51 -13.972,-40.25 3.728,-5.13 14.662,4.56 29.626,11.19 7.143,3.17 8.505,11.31 6.323,17.27 -3.644,9.97 -7.564,19.53 -21.977,11.79"
       style="fill:#ffffff;fill-opacity:1;fill-rule:nonzero;stroke:none;stroke-width:0.1"
       id="path534" /><path
       d="m 757.059,1006.46 c -25.763,-13.86 -23.987,-26.51 -13.972,-40.25 3.728,-5.13 14.662,4.56 29.626,11.19 7.143,3.17 8.505,11.31 6.323,17.27 -3.644,9.97 -7.564,19.53 -21.977,11.79 z"
       style="fill:none;stroke:#000000;stroke-width:2.41858;stroke-linecap:round;stroke-linejoin:miter;stroke-miterlimit:10;stroke-dasharray:none;stroke-opacity:1"
       id="path536" /><path
       d="m 498.119,937.47 c -1.096,-10.73 -1.672,-21.47 -1.049,-32.24 26.978,-2.21 46.407,-2.42 46.407,-2.42 l 1.453,16.93 c 0,0 -20.773,6.62 -46.811,17.73"
       style="fill:#ffffff;fill-opacity:1;fill-rule:nonzero;stroke:none;stroke-width:0.1"
       id="path538" /><path
       d="m 498.119,937.47 c -1.096,-10.73 -1.672,-21.47 -1.049,-32.24 26.978,-2.21 46.407,-2.42 46.407,-2.42 l 1.453,16.93 c 0,0 -20.773,6.62 -46.811,17.73 z"
       style="fill:none;stroke:#000000;stroke-width:2.41858;stroke-linecap:butt;stroke-linejoin:miter;stroke-miterlimit:10;stroke-dasharray:none;stroke-opacity:1"
       id="path540" /><path
       d="m 540.916,902.86 c 0,0 37.087,-18.25 44.839,-17.07 7.757,1.2 15.446,13.86 9.589,17.05 -5.862,3.2 -31.131,17.1 -34.859,18.32 -5.545,1.81 -16.781,-0.12 -22.081,0.77"
       style="fill:#ffffff;fill-opacity:1;fill-rule:nonzero;stroke:none;stroke-width:0.1"
       id="path542" /><path
       d="m 540.916,902.86 c 0,0 37.087,-18.25 44.839,-17.07 7.757,1.2 15.446,13.86 9.589,17.05 -5.862,3.2 -31.131,17.1 -34.859,18.32 -5.545,1.81 -16.781,-0.12 -22.081,0.77"
       style="fill:none;stroke:#000000;stroke-width:2.41858;stroke-linecap:round;stroke-linejoin:miter;stroke-miterlimit:10;stroke-dasharray:none;stroke-opacity:1"
       id="path544" /><path
       d="m 496.77,1000.57 c 0,0 -19.85,-22.15 -16.74,-35.8 4.642,-20.35 31.38,-31.55 31.38,-31.55 l -6.411,-30.85 c 0,0 -82.382,-16.34 -96.037,48.51 -18.608,88.35 96.037,168.62 138.153,168.62"
       style="fill:#ffffff;fill-opacity:1;fill-rule:nonzero;stroke:none;stroke-width:0.1"
       id="path546" /><path
       d="m 496.77,1000.57 c 0,0 -19.85,-22.15 -16.74,-35.8 4.642,-20.35 31.38,-31.55 31.38,-31.55 l -6.411,-30.85 c 0,0 -82.382,-16.34 -96.037,48.51 -18.608,88.35 96.037,168.62 138.153,168.62"
       style="fill:none;stroke:#000000;stroke-width:2.41858;stroke-linecap:round;stroke-linejoin:round;stroke-miterlimit:10;stroke-dasharray:none;stroke-opacity:1"
       id="path548" /></g></svg>
